<?xml version="1.0" encoding="UTF-8"?>
<svg width="56px" height="96px" viewBox="0 0 56 96" version="1.1" xmlns="http://www.w3.org/2000/svg" xmlns:xlink="http://www.w3.org/1999/xlink">
    <!-- Generator: Sketch 57.1 (83088) - https://sketch.com -->
    <title>Artboard</title>
    <desc>Created with Sketch.</desc>
    <g id="Artboard" stroke="none" stroke-width="1" fill="none" fill-rule="evenodd">
        <g id="present" fill="#FFFFFF" fill-rule="nonzero">
            <path d="M47.0697,0 C42.3804,0 38.5656,3.8151 38.5656,8.5044 L38.5656,24.2313 C37.302,23.4864 35.8311,23.0571 34.2612,23.0571 C31.7088,23.0571 29.4174,24.189 27.8571,25.9752 C26.2971,24.189 24.0054,23.0571 21.453,23.0571 C18.9006,23.0571 16.6089,24.189 15.0489,25.9752 C13.4889,24.189 11.1972,23.0571 8.6448,23.0571 C3.9555,23.0571 0.1404,26.8719 0.1404,31.5612 L0.1404,41.0514 C0.1404,41.1783 0.1446,41.3046 0.15,41.43 C0.1443,41.4927 0.1404,41.5563 0.1404,41.6205 L0.1404,60.7902 C0.1404,69.468 4.1502,77.2257 10.413,82.3116 L10.413,93.8142 C10.413,94.974 11.3532,95.9142 12.513,95.9142 L43.2012,95.9142 C44.361,95.9142 45.3012,94.974 45.3012,93.8142 L45.3012,82.3116 C51.564,77.2257 55.5738,69.4677 55.5738,60.7899 L55.5738,8.5044 C55.5738,3.8151 51.759,0 47.0697,0 Z M42.7659,8.5044 C42.7659,6.1311 44.6967,4.2 47.07,4.2 C49.4433,4.2 51.3744,6.1311 51.3744,8.5044 L51.3744,50.6757 L42.0735,47.3628 C42.5235,46.3107 42.7662,45.1716 42.7662,44.0166 L42.7662,32.1384 L42.7662,31.5612 L42.7662,8.5044 L42.7659,8.5044 Z M34.2615,27.2571 C36.6348,27.2571 38.5659,29.1879 38.5659,31.5612 L38.5659,32.1384 L38.5659,44.0166 C38.5659,44.7012 38.4063,45.3555 38.1057,45.9495 L31.0596,43.4397 C30.6948,43.3098 30.3264,43.2087 29.9574,43.131 L29.9574,31.5612 C29.9574,29.1879 31.8882,27.2571 34.2615,27.2571 Z M21.4533,27.2571 C23.8266,27.2571 25.7577,29.1879 25.7577,31.5612 L25.7577,43.3119 C23.3946,44.0262 21.3681,45.7539 20.3592,48.1746 C18.5151,47.6886 17.1492,46.0113 17.1492,44.0169 L17.1492,41.0517 L17.1492,31.5615 C17.1489,29.1879 19.08,27.2571 21.4533,27.2571 Z M4.3407,31.5612 C4.3407,29.1879 6.2718,27.2571 8.6451,27.2571 C11.0184,27.2571 12.9492,29.1879 12.9492,31.5612 L12.9492,41.0514 C12.9492,43.4247 11.0184,45.3558 8.6451,45.3558 C6.2718,45.3558 4.3407,43.4247 4.3407,41.0514 L4.3407,31.5612 Z M41.1015,91.7148 L14.6133,91.7148 L14.6133,85.1328 C18.5508,87.2835 23.0637,88.5075 27.8574,88.5075 C32.6511,88.5075 37.164,87.2838 41.1012,85.1331 L41.1012,91.7148 L41.1015,91.7148 Z M27.8571,84.3072 C14.8899,84.3072 4.3404,73.7577 4.3404,60.7905 L4.3404,48.3816 C5.604,49.1265 7.0749,49.5558 8.6448,49.5558 C10.5963,49.5558 12.3948,48.8934 13.8318,47.784 C14.9805,50.0982 17.1507,51.819 19.7505,52.3494 C20.0898,55.4955 22.1781,58.3314 25.353,59.4624 L37.9368,63.9447 C38.1696,64.0275 38.4075,64.0671 38.6415,64.0671 C39.5046,64.0671 40.3134,63.5307 40.6197,62.6712 C41.0091,61.5786 40.4385,60.3774 39.3462,59.9883 L26.7624,55.506 C24.5268,54.7095 23.3556,52.2429 24.1518,50.007 C24.948,47.7711 27.4149,46.6002 29.6508,47.3967 L51.3744,55.1343 L51.3744,60.7908 C51.3744,73.7577 40.8246,84.3072 27.8571,84.3072 Z" id="Shape"></path>
        </g>
    </g>
</svg>