<svg id="Capa_1" enable-background="new 0 0 512 512" height="512" viewBox="0 0 512 512" width="512" xmlns="http://www.w3.org/2000/svg"><circle cx="256" cy="267" fill="#5ee2c5" r="245"/><path d="m426.5 331c0-22.091-17.909-40-40-40h-2v127.836c8.51 1.413 15.025 8.805 15.025 17.708v28.982c9.526-6.895 18.55-14.442 26.975-22.609v-20.917c0-7.494-2.066-14.504-5.652-20.5 3.586-5.996 5.652-13.006 5.652-20.5z" fill="#f78157"/><path d="m112.475 436.544c0-8.904 6.516-16.296 15.025-17.708v-127.836h-2c-22.091 0-40 17.909-40 40v50c0 7.494 2.066 14.504 5.652 20.5-3.586 5.996-5.652 13.006-5.652 20.5v20.918c8.425 8.167 17.448 15.714 26.975 22.609z" fill="#fa9775"/><path d="m127.5 295.538v-4.538h-2c-22.091 0-40 17.909-40 40v50c0 7.494 2.066 14.504 5.652 20.5-3.586 5.996-5.652 13.006-5.652 20.5v20.918c6.495 6.296 13.342 12.23 20.5 17.783v-38.701c0-7.494 2.066-14.504 5.652-20.5-3.586-5.996-5.652-13.006-5.652-20.5v-50c0-15.415 8.725-28.784 21.5-35.462z" fill="#f78157"/><path d="m130.446 418.573h19.006l.175-.782c5.313-23.788 18.726-45.393 37.767-60.838 19.318-15.669 43.683-24.298 68.605-24.298s49.288 8.629 68.605 24.298c19.042 15.445 32.454 37.051 37.767 60.838l.175.782h19.006c1.357 0 2.674.164 3.946.451v-128.024c0-5.5-4.5-10-10-10h-239c-5.5 0-10 4.5-10 10v128.023c1.274-.286 2.591-.45 3.948-.45z" fill="#fe0364"/><path d="m130.446 418.573h19.006l.175-.782c.666-2.979 1.458-5.923 2.373-8.826v-117.965c0-5.5 4.5-10 10-10h-25.5c-5.5 0-10 4.5-10 10v128.023c1.272-.286 2.589-.45 3.946-.45z" fill="#fe0364"/><path d="m160.977 134v-6.977c0-24.784 9.321-43.99 27.704-57.084 16.478-11.736 39.756-17.939 67.319-17.939s50.841 6.203 67.318 17.939c18.383 13.094 27.705 32.3 27.705 57.084v6.977h11v-84c0-27.5-22.5-50-50-50h-112.046c-27.5 0-50 22.5-50 50v84z" fill="#c5573a"/><path d="m160.977 134v-6.977c0-18.819 5.388-34.413 16.023-46.566v-30.457c0-27.5 22.5-50 50-50h-27.023c-27.5 0-50 22.5-50 50v84z" fill="#a94b30"/><path d="m160.977 176.977v-43.977h-11.477c-11 0-20 9-20 20v27c0 11 9 20 20 20h14.303c-1.842-7.374-2.826-15.085-2.826-23.023z" fill="#fa9775"/><path d="m362.5 133h-11.477v43.977c0 7.937-.984 15.648-2.826 23.023h14.303c11 0 20-9 20-20v-27c0-11-9-20-20-20z" fill="#f78157"/><path d="m233.634 334.997c7.322-1.539 14.817-2.343 22.366-2.343s15.044.804 22.366 2.343c17.802-4.046 31.134-19.988 31.134-38.997v-15h-107v15c0 19.009 13.332 34.951 31.134 38.997z" fill="#fd3581"/><path d="m256 272c-11.73 0-23.029-2.144-33.5-6.07v30.07c0 11 9 20 20 20h27c11 0 20-9 20-20v-30.07c-10.471 3.926-21.77 6.07-33.5 6.07z" fill="#f78157"/><path d="m248 296v-24.335c-8.873-.738-17.431-2.709-25.5-5.736v30.071c0 11 9 20 20 20h25.5c-11 0-20-9-20-20z" fill="#f46b38"/><path d="m352.023 176.977c0 53.032-42.991 96.023-96.023 96.023-53.032 0-96.023-42.991-96.023-96.023v-49.955c0-53.031 42.991-76.022 96.023-76.022 53.032 0 96.023 22.991 96.023 76.023z" fill="#fa9775"/><path d="m181.954 176.977v-49.955c0-4.888.379-9.511 1.085-13.894-1.261-1.341-2.039-3.142-2.039-5.128 0-3.298 2.131-6.092 5.09-7.097 10.927-31.576 42.459-47.125 80.899-49.558-3.607-.228-7.272-.345-10.989-.345-53.032 0-96.023 22.991-96.023 76.023v49.955c0 53.031 42.991 96.022 96.023 96.022 3.717 0 7.382-.219 10.988-.63-47.855-5.453-85.034-46.078-85.034-95.393z" fill="#f78157"/><path d="m218 161c0 8.25-6.75 15-15 15-8.25 0-15-6.75-15-15v-15c0-8.25 6.75-15 15-15 8.25 0 15 6.75 15 15z" fill="#c5573a"/><path d="m324 161c0 8.25-6.75 15-15 15-8.25 0-15-6.75-15-15v-15c0-8.25 6.75-15 15-15 8.25 0 15 6.75 15 15z" fill="#c5573a"/><path d="m265.5 190.5h-14c-6.893 0-12.5-5.607-12.5-12.5v-25c0-4.142 3.358-7.5 7.5-7.5s7.5 3.358 7.5 7.5v22.5h11.5c4.142 0 7.5 3.358 7.5 7.5s-3.358 7.5-7.5 7.5z" fill="#eb6000"/><path d="m279 225.5h-46c-4.142 0-7.5-3.358-7.5-7.5s3.358-7.5 7.5-7.5h46c4.142 0 7.5 3.358 7.5 7.5s-3.358 7.5-7.5 7.5z" fill="#eb6000"/><path d="m222.5 115.5h-34c-4.142 0-7.5-3.358-7.5-7.5s3.358-7.5 7.5-7.5h34c4.142 0 7.5 3.358 7.5 7.5s-3.358 7.5-7.5 7.5z" fill="#a94b30"/><path d="m323.5 115.5h-34c-4.142 0-7.5-3.358-7.5-7.5s3.358-7.5 7.5-7.5h34c4.142 0 7.5 3.358 7.5 7.5s-3.358 7.5-7.5 7.5z" fill="#a94b30"/><path d="m344.447 489.933c0-3.191 1.476-6.126 4.049-8.054.678-.509 1.082-1.317 1.082-2.163s-.404-1.655-1.081-2.163c-2.574-1.927-4.049-4.862-4.049-8.053 0-3.19 1.476-6.125 4.049-8.052.677-.507 1.082-1.315 1.082-2.163 0-.845-.404-1.653-1.081-2.161-2.574-1.929-4.05-4.864-4.05-8.055 0-3.19 1.476-6.126 4.049-8.053.678-.508 1.082-1.316 1.082-2.162s-.404-1.655-1.081-2.163c-2.574-1.928-4.049-4.862-4.049-8.052 0-5.551 4.516-10.067 10.067-10.067h9.052c-10.608-49.668-54.735-86.918-107.568-86.918s-96.96 37.25-107.566 86.919h9.052c5.551 0 10.067 4.516 10.067 10.067 0 3.19-1.476 6.125-4.049 8.052-.678.508-1.082 1.317-1.082 2.164 0 .846.404 1.654 1.081 2.162 2.574 1.928 4.049 4.864 4.049 8.054s-1.476 6.126-4.049 8.054c-.678.509-1.082 1.317-1.082 2.162 0 .847.405 1.656 1.082 2.163 2.573 1.927 4.048 4.862 4.048 8.052 0 3.191-1.476 6.125-4.048 8.052-.678.508-1.082 1.317-1.082 2.163 0 .845.404 1.653 1.081 2.162 2.574 1.929 4.05 4.864 4.05 8.055 0 1.838-.503 3.557-1.367 5.042 27.814 10.967 58.104 17.023 89.815 17.023s62-6.056 89.815-17.025c-.864-1.485-1.368-3.204-1.368-5.042z" fill="#fe9738"/><path d="m148.434 418.573h9.052c2.355 0 4.52.819 6.236 2.179 12.217-47.628 53.25-83.704 103.421-88.54-3.665-.369-7.381-.559-11.143-.559-52.833.001-96.96 37.251-107.566 86.92z" fill="#f46700"/><path d="m344.509 448c.292-2.77 1.705-5.273 3.987-6.983.678-.508 1.082-1.316 1.082-2.162s-.404-1.655-1.081-2.163c-.554-.415-1.045-.884-1.494-1.384h-44.265c1.663-27.386 14.009-51.931 32.911-69.521-2.926-3.071-6.03-5.969-9.291-8.685-21.028 19.867-34.677 47.468-36.337 78.206h-27.675v-103.468c-2.101-.119-4.215-.186-6.346-.186s-4.245.067-6.346.186v103.467h-27.675c-1.661-30.738-15.309-58.339-36.337-78.206-3.261 2.716-6.365 5.614-9.291 8.685 18.902 17.59 31.249 42.135 32.911 69.521h-44.265c-.448.5-.94.969-1.493 1.384-.678.508-1.082 1.317-1.082 2.164 0 .846.404 1.654 1.081 2.162 2.283 1.71 3.696 4.214 3.987 6.983h41.771c-1.24 20.43-8.429 39.277-19.847 54.837 4.342 1.224 8.737 2.32 13.174 3.306 11.246-16.82 18.233-36.718 19.391-58.144h27.675v63.919c2.109.054 4.224.081 6.346.081s4.237-.027 6.346-.081v-63.918h27.675c1.158 21.426 8.145 41.323 19.391 58.144 4.437-.986 8.832-2.083 13.174-3.306-11.418-15.56-18.607-34.407-19.847-54.837h41.77z" fill="#eb6000"/><path d="m130.446 501c-10.461 0-18.972-8.511-18.972-18.972v-45.483c0-10.461 8.511-18.972 18.972-18.972h27.039c6.102 0 11.067 4.965 11.067 11.067 0 3.509-1.622 6.734-4.449 8.852-.428.321-.682.827-.682 1.363s.253 1.04.682 1.362c2.828 2.119 4.449 5.346 4.449 8.854s-1.622 6.735-4.449 8.854c-.428.322-.682.826-.682 1.362s.253 1.042.682 1.362c2.828 2.118 4.449 5.344 4.449 8.853s-1.622 6.735-4.449 8.852c-.428.321-.682.826-.682 1.363 0 .536.253 1.04.682 1.362 2.828 2.118 4.449 5.345 4.449 8.854 0 6.101-4.965 11.067-11.067 11.067z" fill="#fa9775"/><path d="m133 482.028v-45.483c0-10.461 8.511-18.972 18.972-18.972h-21.525c-10.461 0-18.972 8.51-18.972 18.972v45.483c0 10.461 8.511 18.972 18.972 18.972h21.525c-10.461 0-18.972-8.511-18.972-18.972z" fill="#f78157"/><path d="m381.554 500.999c10.461 0 18.972-8.51 18.972-18.971v-45.483c0-10.461-8.511-18.972-18.972-18.972h-27.039c-6.102 0-11.067 4.965-11.067 11.067 0 3.509 1.621 6.734 4.449 8.852.428.321.682.827.682 1.363s-.253 1.04-.682 1.362c-2.828 2.119-4.449 5.346-4.449 8.854s1.621 6.735 4.449 8.854c.428.322.682.826.682 1.362s-.253 1.042-.682 1.362c-2.828 2.118-4.449 5.344-4.449 8.853s1.621 6.735 4.449 8.852c.428.321.682.826.682 1.363 0 .536-.253 1.04-.682 1.362-2.828 2.118-4.449 5.345-4.449 8.854 0 6.101 4.965 11.066 11.067 11.066z" fill="#fa9775"/><path d="m365 489.933c0-3.509 1.622-6.736 4.449-8.854.428-.322.682-.826.682-1.362 0-.537-.253-1.042-.682-1.363-2.828-2.117-4.449-5.344-4.449-8.852s1.622-6.734 4.449-8.853c.428-.32.682-.827.682-1.362 0-.536-.253-1.04-.682-1.362-2.828-2.119-4.449-5.346-4.449-8.854s1.622-6.735 4.449-8.854c.428-.321.682-.826.682-1.362 0-.537-.253-1.042-.682-1.363-2.828-2.118-4.449-5.343-4.449-8.852 0-6.102 4.965-11.067 11.067-11.067h-21.553c-6.102 0-11.067 4.965-11.067 11.067 0 3.509 1.621 6.734 4.449 8.852.428.321.682.827.682 1.363s-.253 1.04-.682 1.362c-2.828 2.119-4.449 5.346-4.449 8.854s1.621 6.735 4.449 8.854c.428.322.682.826.682 1.362s-.253 1.042-.682 1.362c-2.828 2.118-4.449 5.344-4.449 8.853s1.621 6.735 4.449 8.852c.428.321.682.826.682 1.363 0 .536-.253 1.04-.682 1.362-2.828 2.118-4.449 5.345-4.449 8.854 0 6.101 4.965 11.066 11.067 11.066h21.553c-6.102 0-11.067-4.965-11.067-11.066z" fill="#f78157"/></svg>