<svg id="Capa_1" enable-background="new 0 0 512 512" height="512" viewBox="0 0 512 512" width="512" xmlns="http://www.w3.org/2000/svg"><circle cx="254.393" cy="267" fill="#fee45a" r="245"/><path d="m129.381 338h-109.525c8.029 26.559 20.449 51.21 36.409 73.117z" fill="#eb6000"/><path d="m218.942 338-44.2 14.186 2.62 2.619c1.56 1.56 1.56 4.098 0 5.657l-87.788 87.788c43.517 39.602 101.343 63.75 164.819 63.75 110.617 0 204.098-73.315 234.537-174z" fill="#eb6000"/><path d="m76.381 391 24-24h-69.707c3.695 8.253 7.839 16.261 12.391 24z" fill="#fff"/><path d="m245.759 375.367c3.236-3.236 6.795-6.027 10.596-8.367h-85.531l-24 24h87.84c2.725-5.652 6.414-10.952 11.095-15.633z" fill="#fff"/><path d="m316.432 367c3.801 2.34 7.36 5.131 10.596 8.367 4.681 4.681 8.371 9.981 11.096 15.633h127.599c4.551-7.739 8.695-15.747 12.391-24z" fill="#fff"/><path d="m245.759 456.635c-.605-.605-1.186-1.226-1.759-1.851v56.982c3.448.144 6.91.234 10.393.234 4.567 0 9.101-.136 13.607-.382v-41.162c-8.284-2.789-15.879-7.46-22.241-13.821z" fill="#fff"/><path d="m253.301 73.134c-50.902 61.381-56.274 144.133-12.228 188.393 19.318 19.225 47.172 29.811 78.435 29.812 37.667.001 77.744-15.32 109.957-42.034 32.001-26.513 51.409-64.234 53.247-103.491 1.623-34.678-10.727-67.02-34.774-91.068-22.565-22.565-52.791-34.993-85.109-34.993-1.999 0-4.031.048-6.04.142-39.261 1.837-76.981 21.242-103.488 53.239z" fill="#0078c8"/><path d="m327.734 374.66c22.832 22.832 22.832 59.85 0 82.682s-59.85 22.831-82.682 0c-22.832-22.832-22.832-59.85 0-82.682 22.833-22.832 59.85-22.833 82.682 0z" fill="#5ee2c5"/><path d="m294.125 473.938c6.539-.869 12.961-2.835 18.961-5.915-6.338 1.165-12.829 1.253-19.197.315.153 1.863.24 3.731.236 5.6z" fill="#0ed2b3"/><path d="m228.451 408.27c5.226-.014 10.452.594 15.56 1.819.112-14.813 5.811-29.592 17.113-40.895 4.419-4.419 9.374-7.973 14.649-10.681-11.253 2.068-22.018 7.443-30.721 16.146-9.445 9.446-14.97 21.32-16.601 33.611z" fill="#0ed2b3"/><path d="m279.983 474.101c.021-3.34-.281-6.681-.905-9.973-6.517-2.839-12.622-6.92-17.954-12.251-7.602-7.602-12.657-16.779-15.197-26.478-5.689-2.023-11.663-3.025-17.635-2.987 1.4 12.76 6.977 25.147 16.76 34.931 10.655 10.655 24.4 16.323 38.349 17.03-1.141-.059-2.281-.147-3.418-.272z" fill="#0ed2b3"/><path d="m228.293 422.411c13.27-.084 26.567 4.918 36.669 15.021 10.103 10.102 15.104 23.399 15.021 36.669 4.701.516 9.451.465 14.142-.158.044-16.84-6.341-33.693-19.161-46.513s-29.673-19.205-46.513-19.16c-.622 4.69-.674 9.44-.158 14.141z" fill="#fff"/><path d="m307.825 394.569c-10.103-10.103-15.105-23.399-15.021-36.669-4.701-.516-9.451-.463-14.142.159-.044 16.839 6.341 33.692 19.161 46.513 12.819 12.819 29.673 19.204 46.513 19.161.623-4.691.674-9.441.158-14.142-13.27.083-26.567-4.92-36.669-15.022z" fill="#fff"/><path d="m269.256 301.108-99.788 32.026 32.008-99.734c-4.856-12.903-7.693-26.802-8.529-41.223-.085.214-.173.425-.244.648l-43.083 134.238 25.917 25.917 134.24-43.082c.229-.073.446-.164.666-.251-14.588-.849-28.453-3.747-41.187-8.539z" fill="#015a9a"/><path d="m178.069 354.098-29.564-29.565c-1.945-1.945-5.126-1.945-7.071 0l-102.82 102.82 36.636 36.636 102.82-102.82c1.944-1.945 1.944-5.126-.001-7.071z" fill="#5de1c4"/><g fill="#0ed2b3"><path d="m112.303 385h-31.336l-12 12h31.336z"/><path d="m158.802 338.501c.671-.671 1.49-1.097 2.352-1.318l-12.649-12.649c-1.945-1.945-5.126-1.945-7.071 0l-18.467 18.466h31.335z"/><path d="m139.302 358h-31.335l-12 12h31.335z"/><path d="m85.303 412h-31.336l-12 12h31.336z"/><path d="m50.26 439 4.021 4.022 4.022-4.022z"/></g><path d="m449.2 208.946 11.848-11.849 5.966 5.966c1.13-2.165 2.201-4.355 3.216-6.566l-4.291-4.291 9.907-9.907c1.487-4.456 2.741-8.977 3.764-13.547l-1.824 1.824-11.849-11.849 11.848-11.848 4.533 4.533c.167-1.863.307-3.728.395-5.599.058-1.228.093-2.453.115-3.674l-.151-.151.154-.154c.051-3.216-.017-6.41-.205-9.577l-4.839 4.84-11.848-11.848 13.686-13.685c-.608-2.596-1.306-5.162-2.082-7.699l-16.495 16.494-11.848-11.848 21.657-21.656c-1.055-2.171-2.178-4.311-3.367-6.416l-23.181 23.181-11.847-11.847 25.569-25.568c-1.414-1.826-2.888-3.614-4.417-5.367l-26.044 26.045-11.849-11.849 26.04-26.04c-1.754-1.524-3.547-2.993-5.376-4.405l-25.554 25.554-11.849-11.848 23.155-23.155c-2.107-1.188-4.252-2.301-6.426-3.356l-21.62 21.62-11.85-11.849 16.462-16.462c-2.537-.779-5.105-1.472-7.699-2.083l-13.654 13.653-11.847-11.847 4.83-4.83c-2.488-.15-4.989-.234-7.505-.234-.686 0-1.378.013-2.069.024l-.147.147-.144-.144c-1.227.023-2.457.057-3.68.114-1.869.087-3.733.228-5.595.394l4.528 4.528-11.848 11.848-11.847-11.848 1.819-1.819c-4.569 1.022-9.09 2.275-13.544 3.762l-9.905 9.905-4.291-4.291c-2.212 1.015-4.401 2.086-6.566 3.215l5.966 5.966-11.848 11.849-8.936-8.937c-1.926 1.313-3.824 2.678-5.696 4.088l9.74 9.74-11.847 11.847-10.743-10.743c-1.672 1.579-3.314 3.198-4.923 4.86l10.774 10.774-11.848 11.849-9.944-9.944c-1.447 1.836-2.857 3.689-4.224 5.559l9.276 9.275-11.847 11.847-6.895-6.895c-1.238 2.055-2.431 4.123-3.579 6.204l5.583 5.583-11.848 11.849-1.539-1.539c-2.885 6.671-5.321 13.414-7.311 20.172l8.851-8.852 11.847 11.848-11.848 11.848-10.156-10.156c-.694 2.634-1.325 5.268-1.882 7.899l7.147 7.147-9.789 9.789c-.443 4.425-.686 8.82-.73 13.17l10.518 10.519-9.281 9.281c.391 2.811.879 5.587 1.454 8.329l12.718-12.719 11.849 11.85-19.129 19.129c.912 2.313 1.902 4.585 2.967 6.813l21.053-21.053 11.848 11.848-24.114 24.114c1.351 1.889 2.768 3.733 4.258 5.524l24.748-24.747 11.848 11.848-24.741 24.74c1.787 1.482 3.626 2.905 5.525 4.257l24.107-24.106 11.847 11.847-21.022 21.023c2.223 1.062 4.498 2.05 6.818 2.965l19.096-19.096 11.848 11.848-12.702 12.703c2.731.578 5.505 1.065 8.32 1.461l9.272-9.273 10.53 10.529c4.358-.044 8.746-.285 13.149-.732l9.799-9.799 7.129 7.13c2.636-.563 5.27-1.188 7.898-1.884l-10.135-10.133 11.848-11.847 11.849 11.848-8.788 8.788c6.759-2.003 13.468-4.435 20.071-7.288l-1.5-1.5 11.848-11.847 5.549 5.548c2.087-1.148 4.157-2.34 6.21-3.573l-6.867-6.868 11.847-11.847 9.273 9.273c1.877-1.369 3.729-2.78 5.561-4.222l-9.943-9.943 11.849-11.847 10.773 10.772c1.662-1.608 3.282-3.25 4.86-4.922l-10.743-10.742 11.848-11.847 9.74 9.739c1.409-1.871 2.774-3.769 4.087-5.695zm23.696-33.478-11.848 11.847-11.848-11.849 11.847-11.847zm-150.652-16.739-11.847 11.847-11.848-11.849 11.847-11.847zm-6.957-16.739 11.848-11.849 11.849 11.849-11.849 11.847zm11.847 21.63 11.849 11.848-11.848 11.847-11.848-11.848zm4.892-4.892 11.848-11.848 11.849 11.848-11.849 11.849zm16.74-16.739 11.847-11.848 11.848 11.849-11.847 11.847zm28.586 4.892 11.848 11.847-11.848 11.847-11.847-11.847zm4.892-4.891 11.848-11.849 11.847 11.848-11.848 11.848zm-4.892-4.892-11.848-11.848 11.848-11.848 11.848 11.848zm-16.738-16.738-11.848-11.849 11.848-11.848 11.848 11.848zm-4.891 4.891-11.848 11.847-11.848-11.848 11.847-11.847zm-28.587-4.891-11.849-11.85 11.847-11.847 11.85 11.848zm-4.891 4.891-11.848 11.848-11.849-11.849 11.847-11.848zm-16.74 16.739-11.847 11.847-11.85-11.848 11.847-11.848zm-16.739 16.739-11.847 11.848-11.849-11.85 11.848-11.848zm4.891 4.891 11.848 11.848-11.848 11.847-11.848-11.847zm16.739 16.737 11.849 11.848-11.849 11.849-11.847-11.849zm16.739 16.741 11.848 11.847-11.849 11.849-11.847-11.849zm4.892-4.892 11.847-11.846 11.848 11.846-11.848 11.848zm16.739-16.739 11.848-11.847 11.847 11.847-11.848 11.848zm28.586 4.89 11.848 11.848-11.848 11.849-11.847-11.849zm4.892-4.89 11.847-11.847 11.848 11.847-11.847 11.848zm16.738-16.739 11.849-11.848 11.848 11.848-11.848 11.849zm16.739-16.739 11.848-11.848 11.848 11.849-11.847 11.847zm-4.891-4.891-11.847-11.847 11.848-11.848 11.847 11.847zm-16.739-16.739-11.848-11.848 11.848-11.847 11.848 11.848zm-16.738-16.739-11.848-11.848 11.847-11.848 11.848 11.849zm-16.739-16.738-11.849-11.85 11.847-11.847 11.85 11.848zm-4.891 4.891-11.848 11.848-11.849-11.849 11.848-11.848zm-28.589-4.893-11.847-11.847 11.848-11.848 11.848 11.847zm-4.89 4.892-11.848 11.848-11.847-11.848 11.847-11.847zm-16.74 16.739-11.848 11.848-11.848-11.848 11.848-11.848zm-16.739 16.739-11.847 11.847-11.848-11.847 11.847-11.847zm-16.739 16.739-11.848 11.848-11.848-11.847 11.848-11.849zm.001 33.479-11.847 11.847-11.849-11.848 11.848-11.848zm4.892 4.891 11.848 11.847-11.847 11.848-11.848-11.849zm16.738 16.738 11.848 11.848-11.848 11.849-11.848-11.849zm16.74 16.74 11.847 11.847-11.848 11.847-11.847-11.847zm16.738 16.738 11.849 11.848-11.848 11.848-11.848-11.848zm4.891-4.891 11.848-11.848 11.849 11.848-11.849 11.848zm16.74-16.739 11.847-11.847 11.848 11.847-11.847 11.849zm28.586 4.891 11.848 11.848-11.848 11.847-11.847-11.848zm4.89-4.891 11.849-11.848 11.848 11.848-11.848 11.849zm16.74-16.74 11.848-11.847 11.848 11.848-11.848 11.848zm16.739-16.738 11.849-11.848 11.848 11.848-11.848 11.848zm16.739-16.739 11.848-11.848 11.848 11.848-11.848 11.849zm40.435-16.738-11.847 11.847-11.848-11.848 11.847-11.848zm-16.739-16.739-11.848 11.847-11.848-11.847 11.848-11.848zm-16.74-16.74-11.847 11.848-11.848-11.848 11.848-11.848zm-16.738-16.738-11.848 11.847-11.848-11.848 11.848-11.848zm-16.739-16.74-11.848 11.849-11.848-11.849 11.848-11.847zm-16.739-16.738-11.848 11.847-11.849-11.848 11.848-11.849zm-28.588-28.586 11.848 11.846-11.848 11.848-11.847-11.848zm-16.738 16.737 11.848 11.848-11.848 11.847-11.847-11.847zm-16.739-16.737 11.848 11.846-11.848 11.848-11.847-11.848zm-16.738 16.737 11.848 11.848-11.849 11.847-11.847-11.847zm-16.74 16.74 11.847 11.848-11.847 11.846-11.847-11.847zm-16.738 16.738 11.847 11.847-11.847 11.848-11.848-11.847zm-16.74 16.74 11.847 11.848-11.847 11.848-11.847-11.848zm-28.586 28.587 11.848-11.848 11.847 11.847-11.848 11.848zm11.847 21.63 11.847 11.847-11.847 11.847-11.847-11.847zm-28.586 28.586 11.848-11.848 11.847 11.848-11.848 11.847zm16.738 16.739 11.848-11.848 11.849 11.849-11.848 11.848zm16.74 16.739 11.848-11.848 11.848 11.848-11.848 11.849zm16.738 16.739 11.849-11.848 11.848 11.848-11.848 11.848zm28.587 28.586-11.847-11.847 11.848-11.848 11.848 11.847zm4.891 4.892 11.848-11.848 11.848 11.848-11.848 11.849zm28.587 28.587-11.848-11.849 11.848-11.847 11.849 11.847zm16.739-16.74-11.848-11.848 11.847-11.847 11.848 11.848zm4.891-28.586 11.848-11.848 11.848 11.848-11.848 11.848zm28.587 28.588-11.848-11.85 11.848-11.847 11.849 11.848zm16.74-16.74-11.85-11.849 11.848-11.847 11.849 11.848zm16.739-16.739-11.849-11.849 11.848-11.848 11.849 11.849zm16.739-16.738-11.85-11.85 11.848-11.847 11.848 11.848zm4.89-28.589 11.848-11.847 11.849 11.848-11.848 11.849z" fill="#02c7dd"/><path d="m303.985 11.773c-25.031 10.263-47.799 26.918-65.891 48.755-16.277 19.628-28.317 41.294-36.052 63.433l16.437 16.437c6.632-23.095 18.541-46.063 35.593-66.625 17.88-21.583 40.893-37.387 66.027-45.885z" fill="#5de1c4"/><path d="m474.718 182.505c-8.5 25.133-24.306 48.146-45.891 66.03-20.561 17.051-43.526 28.958-66.621 35.59l16.436 16.436c22.138-7.734 43.802-19.774 63.428-36.05 21.84-18.095 38.498-40.862 48.761-65.892z" fill="#5de1c4"/><path d="m319.047 28.25c12.2-4.235 24.91-6.754 37.789-7.356 34.396-1.608 66.473 10.636 90.396 34.56 23.845 23.846 36.092 55.921 34.482 90.314-.603 12.879-3.123 25.589-7.358 37.79l16.07 16.07c7.034-16.831 11.166-34.708 12.017-52.892 1.886-40.3-12.511-77.928-40.617-106.036-28.027-28.025-65.656-42.421-105.96-40.536-18.184.852-36.059 4.982-52.889 12.015z" fill="#015a9a"/><path d="m363.304 283.808c-45.771 13.477-92.188 6.207-121.522-22.987-29.194-29.336-36.464-75.752-22.987-121.522l-16.386-16.386c-19.978 56.159-12.189 115.532 24.683 152.564.011.011.021.021.032.032 37.033 36.874 96.407 44.662 152.565 24.684z" fill="#015a9a"/><path d="m107.967 358h71.526c.102-1.401-.358-2.837-1.424-3.902l-11.098-11.098h-44.004z" fill="#0ab69f"/><path d="m80.967 385h73.271l15-15h-73.271z" fill="#0ab69f"/><path d="m53.967 412h73.271l15-15h-73.271z" fill="#0ab69f"/><path d="m41.967 424-3.354 3.354 11.646 11.646h49.979l15-15z" fill="#0ab69f"/><path d="m58.303 439 15-15h-31.336l-3.354 3.354 11.647 11.646z" fill="#01998d"/><path d="m62.259 451 12.99 12.989 12.989-12.989z" fill="#0ab69f"/><path d="m57.307 489.887c-1.945 1.945-5.126 1.945-7.071 0l-37.521-37.521c-1.945-1.945-1.945-5.126 0-7.071l19.092-19.091c1.945-1.945 5.126-1.945 7.071 0l37.52 37.52c1.945 1.945 1.945 5.126 0 7.071z" fill="#015a9a"/><path d="m27.233 460.898 20.066-20.065c1.295-1.295 3.112-1.764 4.79-1.417l-13.211-13.211c-1.945-1.945-5.126-1.945-7.071 0l-19.092 19.091c-1.945 1.945-1.945 5.126 0 7.071l13.063 13.063c-.25-1.605.226-3.303 1.455-4.532z" fill="#015a9a"/><path d="m154.302 343h-31.335l-15 15h31.335z" fill="#01998d"/><path d="m127.302 370h-31.335l-15 15h31.336z" fill="#01998d"/><path d="m53.967 412h73.271l15-15h-73.271z" fill="#0ab69f"/><path d="m100.303 397h-31.336l-15 15h31.336z" fill="#01998d"/></svg>