<svg id="Capa_1" enable-background="new 0 0 512 512" height="512" viewBox="0 0 512 512" width="512" xmlns="http://www.w3.org/2000/svg"><circle cx="256" cy="267" fill="#fee45a" r="245"/><path d="m368.491 394.186h-4.903c-2.206 0-4-1.794-4-4v-40.361l-.585-.267c-10.968-5.003-18.055-15.974-18.055-27.949v-40.609h-32.448v15c0 21.505-17.495 39-39 39h-27c-21.505 0-39-17.495-39-39v-15h-32.448v40.61c0 11.976-7.087 22.947-18.055 27.949l-.585.267v40.361c0 2.206-1.794 4-4 4h-4.903v90.492c33.688 17.449 71.933 27.321 112.491 27.321s78.803-9.872 112.491-27.321z" fill="#0078c8"/><path d="m353.387 22c-9.018-13.252-24.217-22-41.364-22h-112.046c-17.146 0-32.346 8.748-41.363 22z" fill="#554e56"/><path d="m185.637 22c9.017-13.252 24.217-22 41.363-22h-27.023c-17.146 0-32.346 8.748-41.363 22z" fill="#433f43"/><path d="m157.516 173.517v-52.517h-8.016c-11 0-20 9-20 20v48c0 11 9 20 20 20h14.633c-4.269-11.015-6.617-22.979-6.617-35.483z" fill="#0078c8"/><path d="m362.5 121h-8.017v52.517c0 12.504-2.348 24.468-6.616 35.483h14.633c11 0 20-9 20-20v-48c0-11-9-20-20-20z" fill="#0078c8"/><path d="m145 189v-48c0-11 9-20 20-20h-15.5c-11 0-20 9-20 20v48c0 11 9 20 20 20h15.5c-11 0-20-9-20-20z" fill="#0078c8"/><path d="m288.5 281v15c0 10.477-8.523 19-19 19h-27c-10.477 0-19-8.523-19-19v-15h-21v15c0 22.056 17.944 40 40 40h27c22.056 0 40-17.944 40-40v-15z" fill="#015a9a"/><path d="m231.712 312.8c-5.526-3.569-9.212-9.769-9.212-16.8v-15h-20v15c0 22.056 17.944 40 40 40h25.5c-16.058 0-29.927-9.516-36.288-23.2z" fill="#015a9a"/><path d="m256 272c-11.757 0-23.038-2.074-33.5-5.87v29.87c0 11 9 20 20 20h27c11 0 20-9 20-20v-29.87c-10.462 3.796-21.743 5.87-33.5 5.87z" fill="#fea95c"/><path d="m243 296v-24.859c-7.098-.94-13.959-2.638-20.5-5.011v29.87c0 11 9 20 20 20h20.5c-11 0-20-9-20-20z" fill="#ff9240"/><path d="m156.516 121v52.517c0 54.943 44.541 99.483 99.484 99.483s99.483-44.54 99.483-99.483v-52.517z" fill="#015a9a"/><path d="m178.5 121v57c0 5.523 4.477 10 10 10h16.5c5.514 0 10 4.486 10 10v27.001c0 5.523 4.477 10 10 10h62c5.522 0 10-4.477 10-10v-27.001c0-5.514 4.486-10 10-10h16.5c5.522 0 10-4.477 10-10v-57z" fill="#fdb97e"/><g fill="#eb6000"><path d="m218 161c0 8.25-6.75 15-15 15-8.25 0-15-6.75-15-15v-15c0-8.25 6.75-15 15-15 8.25 0 15 6.75 15 15z"/><path d="m324 161c0 8.25-6.75 15-15 15-8.25 0-15-6.75-15-15v-15c0-8.25 6.75-15 15-15 8.25 0 15 6.75 15 15z"/><path d="m265.5 190.5h-14c-6.893 0-12.5-5.607-12.5-12.5v-25c0-4.142 3.358-7.5 7.5-7.5s7.5 3.358 7.5 7.5v22.5h11.5c4.143 0 7.5 3.358 7.5 7.5s-3.357 7.5-7.5 7.5z"/><path d="m279 220.5h-46c-4.142 0-7.5-3.358-7.5-7.5s3.358-7.5 7.5-7.5h46c4.143 0 7.5 3.358 7.5 7.5s-3.357 7.5-7.5 7.5z"/></g><path d="m380.5 102c0 11-9 20-20 20h-209c-11 0-20-9-20-20v-61c0-11 9-20 20-20h209c11 0 20 9 20 20z" fill="#0078c8"/><path d="m157 102v-61c0-11 9-20 20-20h-25.5c-11 0-20 9-20 20v61c0 11 9 20 20 20h25.5c-11 0-20-9-20-20z" fill="#015a9a"/><path d="m316.401 76c0 11-9 20-20 20h-80.803c-11 0-20-9-20-20v-9c0-11 9-20 20-20h80.803c11 0 20 9 20 20z" fill="#fff"/><path d="m223 76v-9c0-11 9-20 20-20h-27.401c-11 0-20 9-20 20v9c0 11 9 20 20 20h27.401c-11 0-20-9-20-20z" fill="#c7e7ff"/><path d="m367.491 394.186v91.033c22.716-11.629 43.372-26.705 61.291-44.53v-46.503z" fill="#fea95c"/><path d="m367.491 394.186v91.033c7.397-3.787 14.571-7.945 21.509-12.439v-78.594z" fill="#ff9240"/><path d="m426.406 352.312h-54.756c-4.67 0-9.096-1.052-13.063-2.925v40.8c0 2.75 2.25 5 5 5h69.097c2.75 0 5-2.25 5-5v-39.868c-3.293 1.311-7.052 1.993-11.278 1.993z" fill="#004281"/><path d="m419.27 378c0 2.75-2.25 5-5 5h-32.266c-2.75 0-5-2.25-5-5v-10.572c0-2.75 2.25-5 5-5h32.266c2.75 0 5 2.25 5 5z" fill="#0078c8"/><path d="m393.734 378v-10.572c0-2.75 2.25-5 5-5h-16.73c-2.75 0-5 2.25-5 5v10.572c0 2.75 2.25 5 5 5h16.73c-2.75 0-5-2.25-5-5z" fill="#0078c8"/><path d="m470.832 286.446-.885-.885c-3.98-3.981-9.02-6.28-14.232-6.946v-13.408c0-17.436-14.266-31.702-31.701-31.702h-52.364c-17.436 0-31.702 14.266-31.702 31.702v56.402c0 17.436 14.266 31.702 31.702 31.702h54.756c7.215 0 14.199-1.865 19.506-7.172l24.92-24.921c9.563-9.562 9.563-25.209 0-34.772z" fill="#015a9a"/><path d="m367 321.61v-56.402c0-17.436 14.266-31.702 31.702-31.702h-27.052c-17.436 0-31.702 14.266-31.702 31.702v56.402c0 17.436 14.266 31.702 31.702 31.702h27.052c-17.436 0-31.702-14.266-31.702-31.702z" fill="#004281"/><path d="m83.218 394.186v46.503c17.919 17.825 38.576 32.901 61.291 44.53v-91.033z" fill="#fea95c"/><path d="m83.218 394.186v46.503c6.87 6.834 14.146 13.26 21.782 19.246v-65.749z" fill="#ff9240"/><path d="m140.35 352.312h-54.756c-4.227 0-7.984-.682-11.279-1.994v39.868c0 2.75 2.25 5 5 5h69.097c2.75 0 5-2.25 5-5v-40.799c-3.967 1.873-8.393 2.925-13.062 2.925z" fill="#004281"/><path d="m92.73 378c0 2.75 2.25 5 5 5h32.266c2.75 0 5-2.25 5-5v-10.572c0-2.75-2.25-5-5-5h-32.266c-2.75 0-5 2.25-5 5z" fill="#0078c8"/><path d="m108.734 378v-10.572c0-2.75 2.25-5 5-5h-16.004c-2.75 0-5 2.25-5 5v10.572c0 2.75 2.25 5 5 5h16.004c-2.75 0-5-2.25-5-5z" fill="#0078c8"/><path d="m41.168 286.446.884-.885c3.98-3.981 9.02-6.28 14.232-6.946v-13.408c0-17.436 14.266-31.702 31.702-31.702h52.363c17.436 0 31.702 14.266 31.702 31.702v56.402c0 17.436-14.266 31.702-31.702 31.702h-54.755c-7.215 0-14.199-1.865-19.505-7.172l-24.92-24.921c-9.564-9.562-9.564-25.209-.001-34.772z" fill="#015a9a"/><path d="m68.172 321.219c-9.563-9.563-9.563-25.21 0-34.773l.884-.885c3.98-3.981 9.02-6.28 14.232-6.946v-13.408c0-17.436 14.266-31.702 31.702-31.702h-27.003c-17.436 0-31.702 14.266-31.702 31.702v13.408c-5.212.666-10.251 2.965-14.232 6.946l-.884.885c-9.563 9.563-9.563 25.21 0 34.773l24.92 24.921c5.306 5.307 12.291 7.172 19.505 7.172h27.004c-7.215 0-14.199-1.865-19.505-7.172z" fill="#004281"/><circle cx="256" cy="421.5" fill="#b4dbff" r="48.5"/><path d="m233 421.5c0-22.372 15.152-41.194 35.75-46.794-4.065-1.105-8.336-1.706-12.75-1.706-26.786 0-48.5 21.714-48.5 48.5s21.714 48.5 48.5 48.5c4.414 0 8.685-.601 12.75-1.706-20.598-5.6-35.75-24.422-35.75-46.794z" fill="#7bacdf"/></svg>