<svg id="Capa_1" enable-background="new 0 0 512 512" height="512" viewBox="0 0 512 512" width="512" xmlns="http://www.w3.org/2000/svg"><circle cx="256" cy="267" fill="#015a9a" r="245"/><path d="m439.084 316c-4.223 14.174-9.826 28.616-16.812 43.275-.229.478-.826.579-1.286.579h-54.825c-.303 0-1.032-.056-1.278-.577-6.615-13.878-12.068-27.761-16.21-41.265l-.617-2.012h-.678l-.617 2.013c-4.14 13.5-9.593 27.383-16.206 41.262-.228.478-.825.579-1.286.579h-42.455l-.061.935c-3.768 57.314-51.757 102.211-109.253 102.211-60.379 0-109.5-49.122-109.5-109.5 0-11.831 1.881-23.478 5.591-34.619l.101-.304-.094-.306c-.233-.759-.45-1.514-.676-2.272h-57.017c22.701 111.83 121.567 196.001 240.095 196.001s217.394-84.171 240.095-196z" fill="#fe860a"/><path d="m280.008 392c-15.678 41.594-55.978 71-102.508 71-46.836 0-86.891-29.56-102.506-71h-29.731c42.707 71.845 121.092 120 210.737 120s168.03-48.155 210.737-120z" fill="#f46700"/><path d="m94.695 95.081h47.452c2.425-27.864 5.734-65.889 5.737-65.909.008-.08.013-.164.013-.243 0-15.95-12.98-28.93-28.93-28.93l-.185.001c-.122.005-.243.008-.363.008-.122 0-.243-.003-.362-.008l-.18 0c-15.951 0-28.927 12.979-28.927 28.93 0 .079.002.165.01.25 0 .016 3.31 38.039 5.735 65.901z" fill="#b4dbff"/><path d="m140.409 115.055h-43.974c.477 5.476.771 8.854.771 8.854.021.232.025.465.033.698h42.368c.008-.233.013-.466.032-.698 0 0 .294-3.378.77-8.854z" fill="#c7e7ff"/><path d="m155.186 246.289c.019-.471.028-.944.051-1.415.968-20.169 5.184-37.404 9.571-51.018-2.503-7.802-5.067-14.431-7.126-19.75-.539-1.392-6.926-16.637-11.93-29.52h-54.66c-5.002 12.88-11.385 28.119-11.926 29.52-5.658 14.609-15.128 39.061-16.646 70.72-1.157 24.046 2.421 49.293 10.648 75.417 11.901-37.247 43.23-65.892 82.018-73.954z" fill="#b4dbff"/><path d="m118.896 123.909s-.294-3.378-.771-8.854h-21.69c.477 5.476.771 8.854.771 8.854.021.232.025.465.033.698h21.691c-.008-.233-.013-.465-.034-.698z" fill="#98bce5"/><path d="m94.695 95.081h21.691c-2.426-27.863-5.735-65.886-5.735-65.902-.008-.085-.01-.171-.01-.25 0-12.323 7.748-22.866 18.626-27.027-3.202-1.224-6.672-1.902-10.299-1.902l-.185.001c-.122.005-.243.008-.363.008-.122 0-.243-.003-.362-.008l-.181-.001c-15.951 0-28.927 12.979-28.927 28.93 0 .079.002.165.01.25 0 .016 3.31 38.039 5.735 65.901z" fill="#98bce5"/><path d="m87.552 291.13c-2.938-15.849-4.062-31.31-3.34-46.304 1.518-31.659 10.987-56.11 16.646-70.72.541-1.401 6.924-16.64 11.926-29.52h-21.692c-5.002 12.88-11.385 28.119-11.926 29.52-5.658 14.609-15.128 39.061-16.646 70.72-1.157 24.046 2.421 49.293 10.648 75.417 3.348-10.474 8.23-20.265 14.384-29.113z" fill="#98bce5"/><path d="m96.522 116.055h43.797c.477-5.435 1.153-13.236 1.916-21.973h-47.626c.762 8.736 1.441 16.538 1.913 21.973z" fill="#fe0364"/><path d="m90.704 145.586h55.436c-2.938-7.534-5.472-14.411-6.199-17.475-.32-1.376-.423-2.793-.302-4.202 0 0 .008-.104.025-.302h-42.483c.017.197.024.302.024.302.123 1.408.021 2.825-.3 4.199-.73 3.069-3.263 9.947-6.201 17.478z" fill="#fe0364"/><path d="m94.609 94.081c.762 8.737 1.44 16.539 1.913 21.973h21.86c-.473-5.435-1.151-13.236-1.913-21.973z" fill="#c20148"/><path d="m119.065 123.909s-.008-.104-.024-.302h-21.86c.017.197.024.302.024.302.123 1.408.021 2.825-.3 4.199-.73 3.069-3.264 9.947-6.201 17.478h21.86c2.938-7.531 5.471-14.409 6.201-17.478.321-1.374.423-2.791.3-4.199z" fill="#c20148"/><g fill="#c7e7ff"><path d="m186.413 95.081h47.452c2.425-27.864 5.734-65.889 5.737-65.909.008-.08.013-.164.013-.243 0-15.95-12.98-28.93-28.93-28.93l-.185.002c-.121.005-.241.008-.362.008-.122 0-.243-.003-.363-.008l-.18-.001c-15.951 0-28.928 12.979-28.928 28.93 0 .079.003.165.011.25 0 .016 3.309 38.039 5.735 65.901z"/><path d="m232.127 115.055h-43.975c.477 5.476.771 8.854.771 8.854.021.232.025.465.033.698h42.368c.008-.233.012-.466.032-.698 0 0 .294-3.378.771-8.854z"/><path d="m177.5 244c26.547 0 50.914 9.498 69.891 25.271-.667-8.257-.821-16.396-.436-24.397.968-20.168 5.184-37.403 9.571-51.017-2.503-7.802-5.066-14.432-7.126-19.751-.539-1.392-6.927-16.637-11.93-29.52h-54.66c-5.003 12.88-11.386 28.119-11.927 29.52-5.657 14.609-15.127 39.061-16.645 70.72-.026.559-.044 1.122-.065 1.684 7.519-1.639 15.323-2.51 23.327-2.51z"/></g><path d="m186.413 95.081h21.975c-2.426-27.863-5.735-65.886-5.735-65.902-.008-.085-.011-.171-.011-.25 0-12.269 7.682-22.773 18.485-26.972-3.241-1.258-6.76-1.957-10.441-1.957l-.186.001c-.121.005-.241.008-.362.008-.122 0-.243-.003-.363-.008l-.18-.001c-15.951 0-28.928 12.979-28.928 28.93 0 .079.003.165.011.25 0 .016 3.309 38.039 5.735 65.901z" fill="#b4dbff"/><path d="m210.898 123.909s-.294-3.378-.771-8.854h-21.975c.477 5.476.771 8.854.771 8.854.021.232.025.465.033.698h21.975c-.008-.233-.013-.465-.033-.698z" fill="#e3f3ff"/><path d="m176.258 244.016c1.64-31.264 10.991-55.425 16.6-69.909.541-1.401 6.924-16.64 11.927-29.52h-21.975c-5.003 12.88-11.386 28.119-11.927 29.52-5.657 14.609-15.127 39.061-16.645 70.72-.026.559-.044 1.122-.065 1.684 7.129-1.555 14.516-2.41 22.085-2.495z" fill="#b4dbff"/><path d="m188.239 116.055h43.798c.476-5.435 1.153-13.236 1.916-21.973h-47.626c.762 8.736 1.44 16.538 1.912 21.973z" fill="#fe0364"/><path d="m182.422 145.586h55.436c-2.938-7.534-5.472-14.411-6.199-17.475-.321-1.376-.423-2.793-.302-4.202 0 0 .008-.104.025-.302h-42.483c.017.197.024.302.024.302.123 1.408.02 2.825-.301 4.199-.729 3.069-3.263 9.947-6.2 17.478z" fill="#fe0364"/><path d="m186.327 94.081c.762 8.737 1.439 16.539 1.912 21.973h21.578c-.473-5.435-1.15-13.236-1.912-21.973z" fill="#c20148"/><path d="m210.501 123.909s-.008-.104-.024-.302h-21.578c.017.197.024.302.024.302.123 1.408.02 2.825-.301 4.199-.73 3.069-3.263 9.947-6.2 17.478h21.578c2.938-7.531 5.471-14.409 6.2-17.478.32-1.374.424-2.791.301-4.199z" fill="#c20148"/><path d="m323.845 115.055h-43.975c.477 5.476.771 8.854.771 8.854.021.232.025.465.033.698h42.368c.008-.233.013-.466.032-.698 0 0 .294-3.378.771-8.854z" fill="#c7e7ff"/><path d="m278.131 95.081h47.452c2.425-27.864 5.733-65.889 5.736-65.909.009-.08.014-.164.014-.243 0-15.95-12.98-28.93-28.93-28.93l-.185.001c-.122.005-.242.008-.362.008-.122 0-.243-.003-.364-.008l-.181 0c-15.95 0-28.928 12.979-28.928 28.93 0 .079.004.165.012.25.001.016 3.31 38.039 5.736 65.901z" fill="#b4dbff"/><path d="m338.672 244.874c.968-20.168 5.184-37.403 9.57-51.017-2.502-7.802-5.066-14.432-7.125-19.751-.539-1.392-6.927-16.637-11.931-29.52h-54.659c-5.003 12.88-11.386 28.119-11.927 29.52-5.657 14.609-15.127 39.061-16.645 70.72-.372 7.733-.252 15.591.352 23.56 24.804 20.092 40.693 50.781 40.693 85.114 0 2.472-.091 4.923-.253 7.354h42.521c.612 0 1.711-.148 2.188-1.149 6.961-14.607 12.554-29.001 16.782-43.134-7.452-24.808-10.667-48.801-9.566-71.697z" fill="#b4dbff"/><path d="m301.897 123.909s-.294-3.378-.77-8.854h-21.257c.477 5.476.771 8.854.771 8.854.021.232.025.465.033.698h21.257c-.008-.233-.013-.465-.034-.698z" fill="#98bce5"/><path d="m271.979 298.207c-3.993-18.33-5.596-36.164-4.768-53.381 1.519-31.659 10.988-56.11 16.645-70.72.541-1.401 6.924-16.64 11.927-29.52h-21.257c-5.003 12.88-11.386 28.119-11.927 29.52-5.657 14.609-15.127 39.061-16.645 70.72-.372 7.733-.252 15.591.352 23.56 10.244 8.298 18.964 18.4 25.673 29.821z" fill="#98bce5"/><path d="m278.131 95.081h21.257c-2.426-27.863-5.735-65.886-5.735-65.902-.008-.085-.012-.171-.012-.25 0-12.405 7.852-23.011 18.846-27.113-3.142-1.172-6.539-1.816-10.084-1.816l-.185.001c-.122.005-.242.008-.362.008-.122 0-.243-.003-.364-.008l-.181-.001c-15.95 0-28.928 12.979-28.928 28.93 0 .079.004.165.012.25.001.016 3.31 38.039 5.736 65.901z" fill="#98bce5"/><path d="m279.957 116.055h43.798c.475-5.435 1.153-13.236 1.916-21.973h-47.626c.762 8.736 1.439 16.538 1.912 21.973z" fill="#fe0364"/><path d="m274.14 145.586h55.436c-2.938-7.534-5.473-14.411-6.2-17.475-.321-1.376-.422-2.793-.301-4.202 0 0 .008-.104.025-.302h-42.483c.016.197.024.302.024.302.123 1.408.02 2.825-.301 4.199-.73 3.069-3.264 9.947-6.2 17.478z" fill="#fe0364"/><path d="m278.045 94.081c.762 8.737 1.44 16.539 1.912 21.973h21.86c-.473-5.435-1.15-13.236-1.912-21.973z" fill="#c20148"/><path d="m302.501 123.909s-.009-.104-.024-.302h-21.86c.016.197.024.302.024.302.123 1.408.02 2.825-.301 4.199-.729 3.069-3.264 9.947-6.2 17.478h21.86c2.936-7.531 5.471-14.409 6.2-17.478.321-1.374.424-2.791.301-4.199z" fill="#c20148"/><path d="m415.561 115.055h-43.974c.477 5.476.771 8.854.771 8.854.021.232.025.465.033.698h42.367c.008-.233.013-.466.032-.698.001 0 .295-3.378.771-8.854z" fill="#c7e7ff"/><path d="m369.849 95.081h47.451c2.426-27.864 5.735-65.889 5.737-65.909.009-.08.013-.164.013-.243 0-15.95-12.98-28.929-28.929-28.929l-.186.001c-.122.005-.243.008-.362.008-.122 0-.243-.003-.363-.008l-.181-.001c-15.95 0-28.927 12.979-28.927 28.93 0 .079.002.165.011.25 0 .016 3.31 38.039 5.736 65.901z" fill="#c7e7ff"/><path d="m432.835 174.106c-.539-1.392-6.927-16.637-11.931-29.52h-54.66c-5.002 12.88-11.385 28.119-11.926 29.52-5.657 14.609-15.127 39.061-16.645 70.72-1.73 35.968 7.117 74.62 26.306 114.879.491 1.038 1.693 1.149 2.183 1.149h54.825c.612 0 1.71-.148 2.189-1.149 19.185-40.259 28.035-78.911 26.306-114.879-1.525-31.659-10.993-56.111-16.647-70.72z" fill="#c7e7ff"/><path d="m393.897 123.909s-.294-3.378-.77-8.854h-21.539c.477 5.476.771 8.854.771 8.854.021.232.025.465.033.698h21.539c-.008-.233-.013-.465-.034-.698z" fill="#e3f3ff"/><path d="m369.849 95.081h21.539c-2.426-27.863-5.735-65.886-5.735-65.902-.009-.085-.011-.171-.011-.25 0-12.352 7.784-22.917 18.703-27.058-3.181-1.205-6.626-1.871-10.224-1.871l-.186.001c-.122.005-.243.008-.362.008-.122 0-.243-.003-.363-.008l-.181-.001c-15.95 0-28.927 12.979-28.927 28.93 0 .079.002.165.011.25 0 .016 3.31 38.039 5.736 65.901z" fill="#b4dbff"/><path d="m385.518 359.705c-19.189-40.259-28.035-78.911-26.306-114.879 1.519-31.659 10.988-56.11 16.645-70.72.541-1.401 6.924-16.64 11.926-29.52h-21.539c-5.002 12.88-11.385 28.119-11.926 29.52-5.657 14.609-15.127 39.061-16.645 70.72-1.73 35.968 7.117 74.62 26.306 114.879.491 1.038 1.693 1.149 2.183 1.149h21.538c-.489 0-1.691-.111-2.182-1.149z" fill="#b4dbff"/><path d="m371.675 116.055h43.797c.476-5.435 1.153-13.236 1.917-21.973h-47.626c.76 8.736 1.439 16.538 1.912 21.973z" fill="#fe0364"/><path d="m365.857 145.586h55.435c-2.936-7.534-5.472-14.411-6.199-17.475-.321-1.376-.422-2.793-.302-4.202 0 0 .009-.104.026-.302h-42.484c.017.197.025.302.025.302.123 1.408.02 2.825-.301 4.199-.729 3.069-3.263 9.947-6.2 17.478z" fill="#fe0364"/><circle cx="177.5" cy="353.5" fill="#0ab69f" r="110.5"/><path d="m92 353.5c0-56.8 42.859-103.583 98-109.792-4.104-.462-8.273-.708-12.5-.708-61.027 0-110.5 49.473-110.5 110.5 0 61.028 49.473 110.5 110.5 110.5 4.227 0 8.396-.246 12.5-.708-55.141-6.21-98-52.991-98-109.792z" fill="#01998d"/><path d="m159.611 321.146c0 9.561-7.749 17.312-17.311 17.312-9.561 0-17.31-7.751-17.31-17.312s7.749-17.311 17.31-17.311c9.562 0 17.311 7.75 17.311 17.311z" fill="#006e66"/><path d="m230.011 321.146c0 9.561-7.75 17.312-17.311 17.312s-17.311-7.751-17.311-17.312 7.75-17.311 17.311-17.311 17.311 7.75 17.311 17.311z" fill="#006e66"/><path d="m194.813 391.545c0 9.562-7.754 17.312-17.313 17.312-9.56 0-17.311-7.75-17.311-17.312 0-9.56 7.752-17.31 17.311-17.31s17.313 7.75 17.313 17.31z" fill="#006e66"/><path d="m369.763 94.081c.761 8.737 1.439 16.539 1.912 21.973h21.611c-.473-5.435-1.151-13.236-1.912-21.973z" fill="#c20148"/><path d="m394.066 123.909s-.009-.104-.025-.302h-21.708c.017.197.025.302.025.302.123 1.408.02 2.825-.301 4.199-.729 3.069-3.264 9.947-6.2 17.478h21.708c2.937-7.531 5.471-14.409 6.2-17.478.321-1.374.425-2.791.301-4.199z" fill="#c20148"/></svg>