<svg id="Capa_1" enable-background="new 0 0 512 512" height="512" viewBox="0 0 512 512" width="512" xmlns="http://www.w3.org/2000/svg"><circle cx="256" cy="267" fill="#5ee2c5" r="245"/><path d="m457.841 316c-1.774 3.794-3.714 7.535-5.834 11.206-.973 1.685-2.026 3.414-3.202 5.253-5.931-8.318-14.547-14.094-24.234-16.46h-19.895c-18.38 4.475-32.068 21.066-32.068 40.803 0 11.247 4.574 22.081 12.6 29.963-15.577 6.72-31.845 10.408-48.376 10.964-.274.009-.546.014-.818.014-3.668 0-7.352-.863-10.656-2.497l-.263-.13-.291.032c-14.794 1.639-28.979 4.723-42.161 9.165l-.383.129-37.095 71.521c-1.705 3.287-5.032 5.328-8.684 5.328-1.718 0-3.431-.464-4.952-1.343l-29.582-17.08c-2.371-1.369-4.029-3.563-4.667-6.177-.639-2.613-.18-5.323 1.293-7.629l43.147-67.616-.078-.394c-2.74-13.806-7.191-27.788-13.23-41.557l-.118-.268-.243-.162c-3.299-2.199-6.026-5.206-7.886-8.695-2.489-4.667-4.664-9.471-6.558-14.374h-75.687l-18.756 36.163c-1.705 3.287-5.032 5.328-8.683 5.328h-.001c-1.719 0-3.431-.464-4.952-1.343l-29.582-17.079c-2.371-1.369-4.029-3.563-4.667-6.177-.639-2.613-.18-5.323 1.293-7.629l5.91-9.262h-62.577c22.701 111.832 121.567 196.003 240.095 196.003s217.394-84.171 240.095-196z" fill="#7bacdf"/><g fill="#d4f2f6"><path d="m246 474.352v37.438c3.317.133 6.649.21 10 .21s6.683-.077 10-.21v-75.999z"/><path d="m228.623 340h-103.152l-6.308 12.163c-1.705 3.287-5.032 5.328-8.683 5.328h-.001c-1.719 0-3.431-.464-4.952-1.343l-27.968-16.148h-55.497c2.12 6.801 4.543 13.468 7.226 20h206.888c-2.14-6.686-4.664-13.367-7.553-20z"/><path d="m451.99 340c2.316 5.132 3.616 10.817 3.616 16.803 0 1.077-.055 2.141-.137 3.197h27.243c2.683-6.532 5.105-13.199 7.226-20z"/></g><path d="m100.723 214.313c6.621 14.744 11.403 29.694 14.228 44.539l16.823-26.363z" fill="#eb6000"/><path d="m169.835 254.464-14.233 27.443c14.139-4.89 29.325-8.167 45.235-9.788z" fill="#eb6000"/><path d="m130.906 231.988-59.178 92.736c-3.352 5.251-1.679 12.096 3.717 15.211l29.582 17.08c5.396 3.115 12.155 1.138 15.023-4.391l50.651-97.659z" fill="#eb6000"/><path d="m59.764 291.037h121.215v9.704h-121.215z" fill="#fe9738" transform="matrix(.5 -.866 .866 .5 -196.062 252.192)"/><path d="m108.965 334.23c-1.557 2.696-5.038 3.63-7.735 2.073l-6.262-3.615c-2.697-1.557-3.63-5.039-2.073-7.736l11.383-19.714c1.558-2.697 5.038-3.63 7.736-2.072l6.261 3.614c2.698 1.558 3.63 5.039 2.073 7.736z" fill="#fff"/><path d="m100.333 329.701 11.731-20.319c1.197-2.072 3.496-3.133 5.742-2.873l-5.793-3.344c-2.698-1.558-6.179-.625-7.736 2.072l-11.383 19.714c-1.557 2.697-.624 6.179 2.073 7.736l5.63 3.25c-1.238-1.799-1.423-4.227-.264-6.236z" fill="#c7e7ff"/><path d="m223.649 195.363c25.129-43.523 70.993-70.56 119.695-70.56.89 0 1.777.025 2.665.044-2.328-43.819-25.15-84.946-64.669-107.763-63.437-36.625-146.227-12.411-184.557 53.976-24.377 42.222-25.719 94.328-3.503 135.981 2.206 4.138 5.521 7.566 9.584 9.912l94.621 54.63c2.27 1.31 4.718 2.235 7.249 2.782-1.468-27.006 4.86-54.657 18.915-79.002z" fill="#0078c8"/><path d="m121.097 224.07c-22.216-41.653-20.874-93.759 3.503-135.981 36.027-62.399 111.331-87.534 172.926-59.917-5.034-4.05-10.43-7.766-16.185-11.088-63.438-36.625-146.228-12.411-184.558 53.976-24.377 42.222-25.719 94.328-3.503 135.981 2.206 4.138 5.521 7.566 9.584 9.912l22.704 13.108c-1.77-1.756-3.286-3.766-4.471-5.991z" fill="#015a9a"/><path d="m226.723 338.116c6.621 14.744 11.403 29.694 14.227 44.539l16.823-26.363z" fill="#eb6000"/><path d="m295.835 378.267-14.233 27.443c14.139-4.89 29.325-8.166 45.235-9.788z" fill="#eb6000"/><path d="m256.906 355.791-59.178 92.736c-3.352 5.251-1.679 12.096 3.717 15.211l29.582 17.08c5.396 3.115 12.155 1.138 15.023-4.391l50.651-97.659z" fill="#eb6000"/><path d="m227.23 460.106-6.262-3.615c-.372-.215-.707-.469-1.011-.75l-8.091 14.014 8.403 4.851 8.088-14.008c-.385-.121-.764-.282-1.127-.492z" fill="#fe9738"/><path d="m272.473 364.778-35.615 61.69c.396.122.783.285 1.156.5l6.261 3.614c.364.21.692.458.99.73l35.612-61.682z" fill="#fe9738"/><path d="m234.965 458.033c-1.557 2.696-5.038 3.63-7.735 2.073l-6.262-3.615c-2.697-1.557-3.63-5.039-2.073-7.736l11.383-19.714c1.558-2.697 5.038-3.63 7.736-2.072l6.261 3.614c2.698 1.558 3.63 5.039 2.073 7.736z" fill="#fff"/><path d="m224.95 453.555 12.173-21.083c1.107-1.918 3.125-2.995 5.2-3.017l-4.309-2.488c-2.698-1.558-6.179-.625-7.736 2.072l-11.383 19.714c-1.557 2.697-.624 6.179 2.073 7.736l3.501 2.021c-.535-1.591-.419-3.395.481-4.955z" fill="#c7e7ff"/><path d="m373.606 356.803c0-22.607 18.393-41 41-41 14.286 0 26.882 7.349 34.224 18.461 1.398-2.147 2.755-4.326 4.043-6.557 38.33-66.39 17.903-150.195-45.532-186.819-63.438-36.625-146.227-12.411-184.558 53.976-24.377 42.222-25.719 94.328-3.503 135.981 2.206 4.138 5.521 7.566 9.584 9.912l94.621 54.63c4.065 2.347 8.692 3.504 13.378 3.345 17.368-.585 34.361-4.652 50.125-11.653-8.216-7.504-13.382-18.298-13.382-30.276z" fill="#fe0364"/><path d="m246.769 347.041c-22.216-41.653-20.874-93.759 3.503-135.981 35.713-61.854 110.019-87.087 171.31-60.624-4.474-3.456-9.222-6.651-14.24-9.549-63.438-36.625-146.227-12.411-184.558 53.976-24.377 42.222-25.719 94.328-3.503 135.981 2.206 4.138 5.521 7.566 9.584 9.912l24.415 14.096c-2.672-2.124-4.892-4.774-6.511-7.811z" fill="#c20148"/><circle cx="414.606" cy="356.803" fill="#fe860a" r="42"/><path d="m398 356.803c0-18.77 12.314-34.66 29.303-40.042-4.006-1.27-8.27-1.958-12.696-1.958-23.196 0-42 18.804-42 42s18.804 42 42 42c4.427 0 8.691-.689 12.696-1.958-16.988-5.382-29.303-21.272-29.303-40.042z" fill="#fe7701"/></svg>