<svg id="Capa_1" enable-background="new 0 0 512 512" height="512" viewBox="0 0 512 512" width="512" xmlns="http://www.w3.org/2000/svg"><circle cx="256" cy="267" fill="#fee45a" r="245"/><path d="m156.076 28.483h49.848v21.551h-49.848z" fill="#015a9a"/><path d="m156.076 28.483h21.924v21.551h-21.924z" fill="#00366d"/><path d="m127.654 86.703h106.692c2.237 0 4.425.208 6.555.586v-26.51c0-6.46-5.286-11.746-11.746-11.746h-96.312c-6.46 0-11.746 5.286-11.746 11.746v26.51c2.132-.378 4.32-.586 6.557-.586z" fill="#0078c8"/><path d="m127.654 86.703h20.543v-25.924c0-6.46 5.286-11.746 11.746-11.746h-27.099c-6.46 0-11.746 5.286-11.746 11.746v26.51c2.131-.378 4.319-.586 6.556-.586z" fill="#015a9a"/><path d="m272.825 143.547v-19.365c0-21.218-17.262-38.479-38.479-38.479h-106.692c-21.217 0-38.479 17.262-38.479 38.479v19.365z" fill="#6bd9e7"/><path d="m116.599 124.183c0-21.218 17.262-38.479 38.479-38.479h-27.424c-21.217 0-38.479 17.262-38.479 38.479v18.365h27.424z" fill="#2ed1e2"/><path d="m261.576 484.131c0-6.033 3.867-11.371 9.623-13.284l2.857-.949-2.857-.949c-5.756-1.912-9.623-7.25-9.623-13.283v-23.705c0-6.033 3.867-11.372 9.623-13.283l2.857-.949-2.857-.949c-5.756-1.912-9.623-7.25-9.623-13.284v-23.706c0-7.72 6.28-14 14-14v-2c-7.72 0-14-6.28-14-14v-99c0-10.23 1.84-20.147 5.391-29.449l-8.87-5.807c-2.383-1.56-3.857-4.183-3.951-7.029-.093-2.847 1.205-5.56 3.48-7.274 9.659-7.273 15.199-18.462 15.199-30.7v-27.985h-183.65v27.985c0 12.237 5.54 23.427 15.199 30.7 2.275 1.713 3.574 4.427 3.48 7.274s-1.568 5.469-3.951 7.029l-9.504 6.222c-6.052 3.962-10.975 13.07-10.975 20.303v198.83c44.283 43.952 105.256 71.111 172.576 71.111 1.864 0 3.722-.028 5.576-.07z" fill="#02c7dd"/><path d="m131.798 201.232c-9.659-7.272-15.199-18.462-15.199-30.7v-27.985h-27.424v27.985c0 12.237 5.54 23.427 15.199 30.7 2.275 1.713 3.574 4.427 3.48 7.274s-1.568 5.469-3.951 7.029l-9.504 6.222c-6.052 3.962-10.975 13.07-10.975 20.303v198.83c8.543 8.479 17.713 16.325 27.424 23.479v-4.813c-2.209-1.963-3.609-4.816-3.609-8.004v-178.838c0-3.188 1.4-6.042 3.609-8.004v-22.649c0-7.233 4.923-16.341 10.975-20.303l9.504-6.222c2.383-1.56 3.857-4.183 3.951-7.029.094-2.848-1.205-5.562-3.48-7.275z" fill="#00b3ce"/><path d="m128.667 451.552c0 5.918-4.797 10.714-10.714 10.714-5.917 0-10.714-4.796-10.714-10.714v-178.838c0-5.917 4.797-10.714 10.714-10.714 5.917 0 10.714 4.797 10.714 10.714z" fill="#6bd9e7"/><path d="m170.698 451.552c0 5.918-4.796 10.714-10.714 10.714-5.917 0-10.714-4.796-10.714-10.714v-178.838c0-5.917 4.797-10.714 10.714-10.714 5.917 0 10.714 4.797 10.714 10.714z" fill="#6bd9e7"/><path d="m212.73 451.552c0 5.918-4.797 10.714-10.714 10.714-5.917 0-10.714-4.796-10.714-10.714v-178.838c0-5.917 4.796-10.714 10.714-10.714 5.917 0 10.714 4.797 10.714 10.714z" fill="#6bd9e7"/><path d="m254.761 451.552c0 5.918-4.797 10.714-10.714 10.714-5.917 0-10.714-4.796-10.714-10.714v-178.838c0-5.917 4.797-10.714 10.714-10.714 5.916 0 10.714 4.797 10.714 10.714z" fill="#6bd9e7"/><path d="m411.261 199.79c-8.739-11.396-20.321-20.504-33.685-26.237v-16.763h-66v16.763c-13.365 5.732-24.946 14.84-33.686 26.237z" fill="#a7e8f1"/><path d="m311.576 156.79v16.763c-12.973 5.564-24.268 14.307-32.912 25.237h25.424c8.644-10.93 19.939-19.673 32.912-25.237v-16.763z" fill="#7bacdf"/><path d="m278.68 198.79c-11.321 14.315-18.104 32.375-18.104 52v99c0 8.284 6.716 15 15 15-8.25 0-15 6.75-15 15v23.705c0 6.611 4.339 12.25 10.308 14.233-5.968 1.982-10.308 7.621-10.308 14.232v23.705c0 6.611 4.339 12.25 10.308 14.232-5.968 1.983-10.308 7.622-10.308 14.233v27.811c65.503-1.201 124.723-28.1 168-71.052v-8.93c0-6.611-4.339-12.25-10.308-14.232 5.968-1.983 10.308-7.622 10.308-14.233v-23.704c0-8.25-6.75-15-15-15 8.284 0 15-6.716 15-15v-99c0-19.625-6.783-37.685-18.104-52z" fill="#7bacdf"/><path d="m287.73 425h-25.424c-1.103 2.083-1.731 4.451-1.731 6.961v23.705c0 2.533.641 4.92 1.763 7.017h25.424c-1.122-2.097-1.763-4.484-1.763-7.017v-23.705c.001-2.51.629-4.878 1.731-6.961z" fill="#3c87d0"/><path d="m262.057 477.683c-.942 1.957-1.481 4.141-1.481 6.449v27.811c8.591-.157 17.071-.769 25.424-1.788v-26.023c0-2.308.539-4.492 1.481-6.449z" fill="#3c87d0"/><path d="m286 403.496v-23.706c0-2.719.745-5.268 2.024-7.474h-25.424c-1.279 2.206-2.024 4.754-2.024 7.474v23.705c0 2.33.548 4.534 1.507 6.504h25.424c-.959-1.97-1.507-4.174-1.507-6.503z" fill="#3c87d0"/><path d="m288.039 357.317c-1.289-2.214-2.039-4.78-2.039-7.526v-99c0-19.625 6.783-37.685 18.104-52h-25.424c-11.321 14.315-18.104 32.375-18.104 52v99c0 2.747.75 5.312 2.039 7.526z" fill="#3c87d0"/><path d="m260.576 253.79h168v85h-168z" fill="#fff"/><path d="m309.848 157.79c-5.047 0-9.139-4.091-9.139-9.139v-40.813c0-7.559 6.149-13.708 13.708-13.708h60.316c7.559 0 13.708 6.149 13.708 13.708v40.813c0 5.047-4.092 9.139-9.139 9.139z" fill="#0078c8"/><path d="m328 148.652v-40.813c0-7.559 6.149-13.708 13.708-13.708h-27.29c-7.559 0-13.708 6.149-13.708 13.708v40.813c0 5.047 4.092 9.139 9.139 9.139h27.291c-5.048-.001-9.14-4.092-9.14-9.139z" fill="#015a9a"/><path d="m260.576 253.79v85l84.999-85z" fill="#fff"/><path d="m286 253.79h-25.424v85l25.424-25.424z" fill="#e3f3ff"/><path d="m294.945 338.79h133.631v-85h-48.632z" fill="#6bd9e7"/><path d="m345.575 253.79-84.999 85h34.369l84.999-85z" fill="#015a9a"/><g fill="#0078c8"><path d="m426.537 357.317h-163.922c2.599 4.464 7.423 7.474 12.961 7.474-5.531 0-10.376 3.041-12.976 7.526h163.952c-2.601-4.485-7.445-7.526-12.976-7.526 5.537-.001 10.362-3.01 12.961-7.474z"/><path d="m427.068 410h-164.985c1.762 3.622 4.935 6.444 8.8 7.728-3.702 1.23-6.775 3.868-8.577 7.272h164.539c-1.802-3.403-4.875-6.042-8.577-7.272 3.865-1.284 7.038-4.106 8.8-7.728z"/><path d="m262.338 462.683c1.806 3.376 4.863 5.993 8.545 7.216-3.885 1.291-7.07 4.136-8.827 7.784h119.036c7.728-4.599 15.186-9.605 22.335-15z"/><path d="m150.833 0c-2.75 0-5 2.25-5 5v19.483c0 2.75 2.25 5 5 5h60.335c2.75 0 5-2.25 5-5v-19.483c0-2.75-2.25-5-5-5z"/></g><path d="m173 24.483v-19.483c0-2.75 2.25-5 5-5h-27.167c-2.75 0-5 2.25-5 5v19.483c0 2.75 2.25 5 5 5h27.167c-2.75 0-5-2.25-5-5z" fill="#015a9a"/></svg>