<svg id="Capa_1" enable-background="new 0 0 512 512" height="512" viewBox="0 0 512 512" width="512" xmlns="http://www.w3.org/2000/svg"><circle cx="256" cy="267" fill="#5ee2c5" r="245"/><g fill="#fe9738"><path d="m107.604 366.149 28.516 18.708.458-.15c1.433-.471 2.909-.71 4.39-.71h10.308l-4.624-36.997h-24.909z"/><path d="m360.725 383.998h10.307c1.481 0 2.958.239 4.39.71l.458.151 28.517-18.708-14.139-19.151h-24.909z"/><path d="m443.972 347 .696.942c5.623 7.615 7.899 17.285 6.246 26.532-1.655 9.244-7.144 17.525-15.059 22.72l-50.723 33.277v3.826c0 7.774-6.326 14.099-14.101 14.099l-13.753-.001v12.494c0 1.855-1.32 3.494-3.139 3.898l-.888.197 3.062 24.499c0 .363-.015.734-.021 1.1 61.297-27.541 109.22-79.543 131.335-143.583z"/><path d="m155.685 489.484 3.062-24.498-.887-.198c-1.818-.406-3.137-2.045-3.137-3.898v-12.494l-13.754.001c-7.774 0-14.099-6.325-14.099-14.099v-3.825l-50.723-33.277c-7.917-5.196-13.406-13.476-15.06-22.721-1.656-9.244.62-18.915 6.244-26.532l.696-.943h-43.654c22.114 64.038 70.034 116.038 131.326 143.581-.003-.366-.014-.73-.014-1.097z"/></g><path d="m126.869 398.097c0-6.661 4.648-12.244 10.868-13.711l-28.7-18.494 34.189-46.307-6.946-55.575c.007-5.128.915-10.047 2.565-14.615l-72.318 97.952c-5.785 7.836-8.128 17.787-6.424 27.302 1.702 9.514 7.35 18.036 15.494 23.379l51.271 33.662v-33.593z" fill="#e3f3ff"/><path d="m97.372 394.634c-8.144-5.343-13.792-13.865-15.494-23.379-1.704-9.516.639-19.466 6.424-27.302l49.577-67.15-1.599-12.791c.007-5.128.915-10.047 2.565-14.615l-72.318 97.952c-5.785 7.836-8.128 17.787-6.424 27.302 1.702 9.514 7.35 18.036 15.494 23.379l51.271 33.662v-17.692z" fill="#b4dbff"/><path d="m445.473 347.349-72.317-97.951c1.65 4.567 2.558 9.486 2.565 14.613l-6.945 55.575 34.189 46.308-28.333 18.588c6.034 1.597 10.501 7.087 10.501 13.616v35.806l51.272-35.873c8.143-5.344 13.791-13.865 15.494-23.38 1.701-9.516-.64-19.466-6.426-27.302z" fill="#c7e7ff"/><path d="m445.473 347.349-72.317-97.951c1.65 4.567 2.558 9.486 2.565 14.613l-6.945 55.575 34.189 46.308-28.333 18.588c6.034 1.597 10.501 7.087 10.501 13.616v35.806l51.272-35.873c8.143-5.344 13.791-13.865 15.494-23.38 1.701-9.516-.64-19.466-6.426-27.302z" fill="#b4dbff"/><path d="m374.632 384.481c4.12 1.09 7.506 3.997 9.242 7.809l40.65-26.396-52.584-71.629-3.164 25.321 34.189 46.308z" fill="#98bce5"/><path d="m332.41 219.764h-44.06l-33.524 53.999-31.176-53.999h-44.06c-24.472 0-44.31 19.838-44.31 44.31l14.988 119.925h12.219c4.305 0 7.808 3.503 7.808 7.808 0 2.474-1.145 4.75-3.141 6.244-.591.445-.943 1.149-.943 1.887 0 .736.352 1.44.942 1.883 1.997 1.496 3.142 3.772 3.142 6.247 0 2.476-1.145 4.752-3.141 6.246-.591.444-.943 1.148-.943 1.885 0 .74.354 1.444.945 1.885 1.994 1.494 3.139 3.771 3.139 6.245 0 2.475-1.145 4.751-3.141 6.244-.591.444-.943 1.148-.943 1.886 0 .736.352 1.44.942 1.883.806.603 1.483 1.352 2.014 2.227l.292.481h66.685l17.027-17.028c.752-.751 1.756-1.165 2.829-1.165 1.072 0 2.077.414 2.829 1.165l17.027 17.028h66.686l.292-.481c.531-.875 1.207-1.624 2.012-2.227.591-.444.943-1.147.943-1.884s-.353-1.441-.942-1.885c-1.997-1.495-3.142-3.771-3.142-6.245s1.145-4.75 3.141-6.246c.59-.439.943-1.145.943-1.884 0-.736-.353-1.441-.942-1.884-1.997-1.495-3.142-3.772-3.142-6.247 0-2.474 1.145-4.751 3.141-6.247.591-.444.943-1.147.943-1.883 0-.737-.352-1.441-.942-1.885-1.998-1.496-3.142-3.772-3.142-6.245 0-4.305 3.502-7.808 7.808-7.808h12.22l14.988-119.925c0-24.472-19.838-44.31-44.311-44.31z" fill="#fff"/><path d="m278.155 219.764v-14.269c-6.99 2.237-14.432 3.456-22.155 3.456s-15.164-1.219-22.154-3.455v14.269h-10.196l31.176 53.999 33.524-53.999h-10.195z" fill="#c5573a"/><path d="m255.701 230.503v-20.561c-7.612-.03-14.952-1.21-21.855-3.378v13.199h-10.196l31.338 54.279 8.072-13.133-17.555-30.406z" fill="#a94b30"/><path d="m178.714 103.284h4.439v-5.597c0-18.981 7.136-33.689 21.21-43.713 12.632-8.997 30.488-13.753 51.637-13.753s39.005 4.756 51.637 13.753c14.074 10.024 21.21 24.731 21.21 43.713v5.597h4.439c1.463 0 2.883.182 4.252.497v-53.781c0-27.5-22.5-50-50-50h-63.075c-27.5 0-50 22.5-50 50v53.781c1.368-.315 2.788-.497 4.251-.497z" fill="#554e56"/><path d="m178.714 103.284h4.439v-5.597c0-17.851 6.314-31.919 18.772-41.87v-5.817c0-27.5 22.5-50 50-50h-27.463c-27.5 0-50 22.5-50 50v53.781c1.369-.315 2.789-.497 4.252-.497z" fill="#433f43"/><path d="m183.153 136.104v-33.82h-4.439c-11 0-20 9-20 20v11.526c0 11 9 20 20 20h6.626c-1.422-5.671-2.187-11.6-2.187-17.706z" fill="#d8694b"/><path d="m333.285 102.284h-4.439v33.82c0 6.106-.765 12.035-2.187 17.706h6.625c11 0 20-9 20-20v-11.526c.001-11-8.999-20-19.999-20z" fill="#c5573a"/><path d="m329.847 136.104c0 40.784-33.063 73.846-73.847 73.846-40.784 0-73.847-33.062-73.847-73.846v-38.417c0-40.785 33.063-58.466 73.847-58.466 40.784 0 73.847 17.682 73.847 58.466z" fill="#d8694b"/><path d="m209.307 136.104v-38.417c0-36.144 25.974-54.131 60.27-57.759-4.403-.466-8.937-.707-13.577-.707-40.784 0-73.847 17.682-73.847 58.466v38.417c0 40.784 33.063 73.846 73.847 73.846 4.64 0 9.174-.448 13.577-1.267-34.296-6.376-60.27-36.435-60.27-72.579z" fill="#c5573a"/><path d="m263.307 148.236h-9.613c-6.893 0-12.5-5.607-12.5-12.5v-18.071c0-4.142 3.358-7.5 7.5-7.5s7.5 3.358 7.5 7.5v15.571h7.113c4.142 0 7.5 3.358 7.5 7.5s-3.358 7.5-7.5 7.5z" fill="#a94b30"/><path d="m230.237 90.557h-26.147c-4.142 0-7.5-3.358-7.5-7.5s3.358-7.5 7.5-7.5h26.147c4.142 0 7.5 3.358 7.5 7.5s-3.358 7.5-7.5 7.5z" fill="#554e56"/><path d="m307.91 90.557h-26.146c-4.142 0-7.5-3.358-7.5-7.5s3.358-7.5 7.5-7.5h26.146c4.142 0 7.5 3.358 7.5 7.5s-3.358 7.5-7.5 7.5z" fill="#554e56"/><path d="m347.193 321.96c0 16.155-13.095 29.25-29.251 29.25-16.153 0-29.249-13.095-29.249-29.25 0-16.154 13.095-29.251 29.249-29.251 16.156 0 29.251 13.097 29.251 29.251z" fill="#fe860a"/><path d="m333.193 321.96c0 8.422-6.827 15.25-15.251 15.25-8.421 0-15.249-6.828-15.249-15.25 0-8.423 6.828-15.251 15.249-15.251 8.424 0 15.251 6.828 15.251 15.251z" fill="#fed402"/><path d="m254.826 273.763-31.176-53.999h10.196v-13.199c-7.719-2.425-14.883-6.091-21.278-10.751h-13.033c-1.728 0-3.305.984-4.063 2.538l-10.457 21.412 49.793 86.242z" fill="#e3f3ff"/><path d="m243.747 292.332-41.898-72.568 10.457-21.412c.34-.697.851-1.27 1.459-1.701-.399-.279-.804-.55-1.198-.837h-13.033c-1.728 0-3.305.984-4.063 2.538l-10.457 21.412 50.052 86.691z" fill="#b4dbff"/><path d="m167.155 430.571c-.591.444-.943 1.148-.943 1.886 0 .736.352 1.44.942 1.883.654.49 1.207 1.071 1.669 1.708h25.646l132.519-216.285-10.457-21.412c-.758-1.554-2.336-2.538-4.063-2.538h-13.034c-6.395 4.66-13.559 8.326-21.277 10.75v13.2h10.194l-118.484 190.85c-.37 1.07-.977 2.044-1.782 2.869l-1.842 2.968c.071.643.393 1.242.915 1.632 1.994 1.494 3.139 3.771 3.139 6.245-.002 2.475-1.146 4.751-3.142 6.244z" fill="#b4dbff"/><path d="m272.723 181.12h-33.445c-4.142 0-7.5-3.358-7.5-7.5s3.358-7.5 7.5-7.5h33.445c4.142 0 7.5 3.358 7.5 7.5s-3.358 7.5-7.5 7.5z" fill="#a94b30"/><path d="m295.225 100.746c-5.5 0-10 4.5-10 10v14.607c0 5.5 4.5 10 10 10h3.07c5.5 0 10-4.5 10-10v-14.607c0-5.5-4.5-10-10-10z" fill="#554e56"/><path d="m213.705 100.746c-5.5 0-10 4.5-10 10v14.607c0 5.5 4.5 10 10 10h3.071c5.5 0 10-4.5 10-10v-14.607c0-5.5-4.5-10-10-10z" fill="#554e56"/><path d="m218.831 464.889h-60.108c-.331 0-.648-.052-.955-.128l-3.165 25.329c9.127 4.155 18.561 7.751 28.246 10.779z" fill="#fff"/><path d="m264.74 476.007-5.911 5.911c-.752.751-1.756 1.165-2.829 1.165-1.072 0-2.077-.414-2.829-1.165l-5.91-5.91-32.601 32.501c13.441 2.285 27.248 3.491 41.34 3.491 14.025 0 27.77-1.193 41.15-3.458z" fill="#fff"/><path d="m353.279 464.889h-60.108l35.979 35.981c9.686-3.027 19.12-6.624 28.248-10.78l-3.165-25.329c-.307.076-.624.128-.954.128z" fill="#fff"/><path d="m237.144 436.048h-68.322c.946 1.308 1.474 2.875 1.474 4.54 0 4.305-3.503 7.807-7.808 7.807h-8.765v12.494c0 2.75 2.25 5 5 5h59.109l9.655-9.656-2.435-2.435c-.751-.752-1.166-1.756-1.166-2.829 0-1.072.414-2.077 1.166-2.829z" fill="#554e56"/><path d="m349.513 448.395c-4.305 0-7.808-3.502-7.808-7.807 0-1.664.528-3.232 1.474-4.54h-68.323l12.093 12.093c.751.752 1.166 1.756 1.166 2.829 0 1.072-.414 2.077-1.166 2.829l-2.435 2.434 9.657 9.657h59.108c2.75 0 5-2.25 5-5v-12.494z" fill="#554e56"/><path d="m186 436.048h-17.178c.946 1.308 1.474 2.875 1.474 4.54 0 4.305-3.503 7.807-7.808 7.807h-8.765v12.494c0 2.75 2.25 5 5 5h27.277c-2.75 0-5-2.25-5-5v-19.841c0-2.75 2.25-5 5-5z" fill="#433f43"/><path d="m285.221 455.525-21.189 21.189 32.01 32.011c11.696-1.923 23.114-4.669 34.19-8.187z" fill="#6c646d"/><path d="m272.416 468.331-8.383 8.383 32.01 32.011c4.725-.777 9.401-1.694 14.03-2.736z" fill="#554e56"/><path d="m226.779 455.526-45.012 45.012c11.076 3.518 22.495 6.264 34.191 8.187l32.01-32.01z" fill="#6c646d"/><path d="m226.779 455.526-45.012 45.012c5.526 1.755 11.137 3.318 16.826 4.682l38.94-38.94z" fill="#554e56"/><path d="m371.032 449.396c8.325 0 15.101-6.773 15.101-15.099v-36.2c0-8.326-6.775-15.099-15.101-15.099h-21.52c-4.855 0-8.808 3.951-8.808 8.808 0 2.792 1.291 5.359 3.541 7.044.341.256.543.658.543 1.086 0 .426-.202.827-.543 1.083-2.25 1.687-3.541 4.256-3.541 7.047 0 2.792 1.291 5.361 3.541 7.046.341.256.543.658.543 1.084s-.202.83-.543 1.083c-2.25 1.686-3.541 4.254-3.541 7.047 0 2.792 1.291 5.36 3.541 7.045.341.256.543.658.543 1.085s-.202.828-.543 1.083c-2.25 1.686-3.541 4.254-3.541 7.047 0 4.855 3.952 8.807 8.808 8.807z" fill="#d8694b"/><path d="m355.632 442.057c0-2.961 1.369-5.684 3.754-7.472.362-.271.576-.696.576-1.149 0-.452-.214-.879-.576-1.15-2.385-1.787-3.754-4.509-3.754-7.469s1.369-5.683 3.754-7.471c.362-.27.576-.697.576-1.149s-.214-.878-.576-1.149c-2.385-1.787-3.754-4.511-3.754-7.471s1.369-5.683 3.754-7.471c.362-.271.576-.696.576-1.148 0-.454-.214-.88-.576-1.151-2.385-1.787-3.754-4.508-3.754-7.469 0-2.978 1.406-5.628 3.582-7.339h-9.701c-4.855 0-8.808 3.951-8.808 8.808 0 2.792 1.291 5.359 3.541 7.044.341.256.543.658.543 1.086 0 .426-.202.827-.543 1.083-2.25 1.687-3.541 4.256-3.541 7.047 0 2.792 1.291 5.361 3.541 7.046.341.256.543.658.543 1.084s-.202.83-.543 1.083c-2.25 1.686-3.541 4.254-3.541 7.047 0 2.792 1.291 5.36 3.541 7.045.341.256.543.658.543 1.085s-.202.828-.543 1.083c-2.25 1.686-3.541 4.254-3.541 7.047 0 4.855 3.952 8.807 8.808 8.807l9.703.001c-2.178-1.711-3.584-4.361-3.584-7.338z" fill="#c5573a"/><path d="m140.968 449.396c-8.326 0-15.099-6.773-15.099-15.099v-36.2c0-8.326 6.773-15.099 15.099-15.099h21.52c4.857 0 8.808 3.951 8.808 8.808 0 2.792-1.29 5.359-3.542 7.044-.341.256-.542.658-.542 1.086 0 .426.202.827.542 1.083 2.252 1.687 3.542 4.256 3.542 7.047 0 2.792-1.29 5.361-3.542 7.046-.341.256-.542.658-.542 1.084s.202.83.542 1.083c2.252 1.686 3.542 4.254 3.542 7.047 0 2.792-1.29 5.36-3.542 7.045-.341.256-.542.658-.542 1.085s.202.828.542 1.083c2.252 1.686 3.542 4.254 3.542 7.047 0 4.855-3.951 8.807-8.808 8.807z" fill="#d8694b"/><path d="m145.521 435.933v-39.471c0-5.564 2.781-10.482 7.018-13.464h-11.571c-8.326 0-15.099 6.773-15.099 15.099v36.2c0 8.326 6.773 15.099 15.099 15.099h11.57c-4.237-2.982-7.017-7.9-7.017-13.463z" fill="#c5573a"/><path d="m259.536 482.625c-1.945 1.945-5.126 1.945-7.071 0l-28.12-28.119c-1.945-1.945-1.945-5.126 0-7.071l28.12-28.121c1.945-1.945 5.126-1.945 7.071 0l28.12 28.121c1.945 1.945 1.945 5.126 0 7.071z" fill="#554e56"/><path d="m246.23 454.505c-1.945-1.945-1.945-5.126 0-7.071l20.713-20.713-7.407-7.407c-1.945-1.945-5.126-1.945-7.071 0l-28.12 28.121c-1.945 1.945-1.945 5.126 0 7.071l28.12 28.119c1.945 1.945 5.126 1.945 7.071 0l7.407-7.407z" fill="#433f43"/></svg>