<svg id="Capa_1" enable-background="new 0 0 512 512" height="512" viewBox="0 0 512 512" width="512" xmlns="http://www.w3.org/2000/svg"><circle cx="256" cy="256" fill="#0078c8" r="245"/><path d="m359.691 268.184v83.816h99.031v-118.792c0-4.819-3.942-8.761-8.762-8.761h-7.234c-4.819 0-8.762 3.942-8.762 8.761 0-4.819-3.942-8.761-8.762-8.761h-7.234c-4.819 0-8.762 3.942-8.762 8.761 0-4.819-3.942-8.761-8.762-8.761h-7.234c-4.819 0-8.762 3.942-8.762 8.761 0-4.819-3.942-8.761-8.762-8.761h-.45l-9.775 20.553h2.092c.689 0 1.322.349 1.69.932.369.583.412 1.304.115 1.927z" fill="#fe0364"/><path d="m359.691 268.184v83.816h24.758v-118.792c0-4.819-3.942-8.761-8.762-8.761h-.45l-9.776 20.553h2.092c.689 0 1.322.349 1.69.932.369.583.412 1.304.115 1.927z" fill="#fd3581"/><path d="m359.691 268.184v83.816h10.551v-117.052l-4.781 10.052h2.092c.689 0 1.322.349 1.69.932.369.583.412 1.304.115 1.927z" fill="#fd3581"/><path d="m433.965 352v-118.792c0-4.819-3.942-8.761-8.762-8.761h-7.234c-4.819 0-8.762 3.942-8.762 8.761v118.792z" fill="#fd3581"/><path d="m420 352v-118.792c0-4.21 3.009-7.75 6.982-8.578-.575-.12-1.17-.184-1.779-.184h-7.234c-4.819 0-8.762 3.942-8.762 8.761v118.793z" fill="#fd3581"/><path d="m152.031 352v-84.632l-9.294-19.508c-.297-.624-.254-1.344.115-1.928.368-.583 1.001-.932 1.691-.932h2.126l-9.793-20.554h-.84c-4.819 0-8.762 3.942-8.762 8.761 0-4.819-3.942-8.761-8.762-8.761h-7.234c-4.819 0-8.762 3.942-8.762 8.761 0-4.819-3.942-8.761-8.762-8.761h-7.234c-4.819 0-8.762 3.942-8.762 8.761 0-4.819-3.942-8.761-8.762-8.761h-7.234c-4.819 0-8.762 3.942-8.762 8.761v118.793z" fill="#fe0364"/><path d="m77.758 352v-118.792c0-4.819-3.942-8.761-8.762-8.761h-7.234c-4.819 0-8.762 3.942-8.762 8.761v118.792z" fill="#fd3581"/><path d="m64 352v-118.792c0-4.172 2.957-7.683 6.879-8.551-.607-.134-1.236-.21-1.883-.21h-7.234c-4.819 0-8.762 3.942-8.762 8.761v118.792z" fill="#fd3581"/><path d="m127.273 352v-118.792c0-4.819-3.942-8.761-8.762-8.761h-7.234c-4.819 0-8.762 3.942-8.762 8.761v118.792z" fill="#fd3581"/><path d="m113.242 352v-118.792c0-4.221 3.025-7.77 7.016-8.585-.565-.115-1.148-.177-1.746-.177h-7.234c-4.819 0-8.762 3.942-8.762 8.761v118.793z" fill="#fd3581"/><path d="m180.242 466.066-.847-.131c-1.936-.3-3.395-1.992-3.395-3.935v-24c0-1.943 1.459-3.635 3.394-3.935l.847-.131v-82.934h-150.137c27.451 65.196 82.306 116.016 150.137 138.052v-22.986z" fill="#7bacdf"/><path d="m331.758 351v82.934l.847.131c1.936.3 3.396 1.991 3.396 3.935v24c0 1.943-1.46 3.635-3.396 3.935l-.847.131v22.986c67.832-22.036 122.686-72.855 150.138-138.052z" fill="#7bacdf"/><path d="m366.568 245 38.905-81.795h-40.309l-38.905 81.795z" fill="#fdb97e"/><path d="m342.551 245 38.904-81.795h-16.291l-38.905 81.795z" fill="#fea95c"/><path d="m422.086 127.937c-.438-.581-1.129-.927-1.853-.927-.722 0-1.413.346-1.849.924-1.444 1.929-3.642 3.034-6.03 3.034s-4.586-1.105-6.029-3.032c-.434-.58-1.126-.926-1.852-.926-.723 0-1.414.346-1.85.924-1.444 1.929-3.642 3.034-6.03 3.034-2.391 0-4.588-1.105-6.029-3.031-.438-.581-1.129-.927-1.853-.927s-1.415.346-1.851.925c-1.443 1.928-3.641 3.033-6.029 3.033-1.653 0-3.179-.541-4.423-1.447l-14.5 30.487c-.433.91-.369 1.978.169 2.83s1.476 1.368 2.482 1.368h43.358c1.133 0 2.165-.652 2.651-1.675l15.195-31.946c-1.444-.476-2.726-1.379-3.677-2.648z" fill="#fff"/><path d="m383.62 162.837c-.538-.852-.602-1.919-.169-2.83l13.831-29.08c-.228.02-.456.04-.688.04-2.391 0-4.588-1.105-6.029-3.031-.438-.581-1.129-.927-1.853-.927s-1.415.346-1.851.925c-1.443 1.928-3.641 3.033-6.029 3.033-1.653 0-3.179-.541-4.423-1.447l-14.5 30.487c-.433.91-.369 1.978.169 2.83s1.476 1.368 2.482 1.368h21.542c-1.006 0-1.944-.516-2.482-1.368z" fill="#c7e7ff"/><path d="m185.809 245-38.956-81.763h-40.249l38.956 81.763z" fill="#fdb97e"/><path d="m161.977 245-38.956-81.763h-16.417l38.956 81.763z" fill="#fea95c"/><path d="m134.905 128.088c-1.381 1.75-3.517 2.88-5.915 2.88-2.389 0-4.585-1.105-6.028-3.031-.436-.581-1.128-.927-1.852-.927-.723 0-1.414.346-1.85.925-1.444 1.928-3.642 3.033-6.031 3.033s-4.587-1.105-6.03-3.032c-.437-.58-1.128-.926-1.851-.926-.725 0-1.417.346-1.852.926-1.443 1.927-3.641 3.032-6.029 3.032-2.389 0-4.587-1.105-6.029-3.031-.436-.581-1.127-.927-1.851-.927-.723 0-1.415.346-1.85.924-.538.718-1.18 1.321-1.898 1.796l15.644 32.835c.487 1.022 1.518 1.672 2.65 1.672h43.344c1.007 0 1.944-.516 2.481-1.368.538-.852.602-1.919.169-2.829z" fill="#fff"/><path d="m123.071 162.565-16.851-35.369c-.275-.113-.568-.186-.871-.186-.725 0-1.417.346-1.852.926-1.443 1.927-3.641 3.032-6.029 3.032-2.389 0-4.587-1.105-6.029-3.031-.436-.581-1.127-.927-1.851-.927-.723 0-1.415.346-1.85.924-.538.718-1.18 1.321-1.898 1.796l15.644 32.835c.487 1.022 1.518 1.672 2.65 1.672h21.586c-1.131 0-2.162-.65-2.649-1.672z" fill="#c7e7ff"/><path d="m179.242 326.804v43.106h1l30.459-86.103h-.99l-18.152-38.098c-.498-1.045-1.552-1.71-2.708-1.71h-44.308c-1.03 0-1.987.528-2.537 1.398-.55.871-.615 1.962-.172 2.892z" fill="#fff"/><path d="m370.089 245.398c-.55-.87-1.507-1.398-2.536-1.398h-44.295c-1.157 0-2.212.666-2.709 1.711l-18.12 38.096h-.989l30.318 86.102h1v-42.771l37.504-78.85c.442-.929.377-2.02-.173-2.89z" fill="#fff"/><path d="m179.242 326.804v43.106h1l17.468-49.38-34.419-72.239c-.443-.93-.378-2.021.172-2.892s1.507-1.399 2.537-1.399h-21.458c-1.03 0-1.987.528-2.537 1.398-.55.871-.615 1.962-.172 2.892z" fill="#c7e7ff"/><path d="m302.491 283.807h-15.78v8.892c0 12.522-10.188 22.709-22.709 22.709h-16.004c-12.522 0-22.709-10.187-22.709-22.709v-8.892h-15.78l-30.267 85.932v64.337c.246-.047.498-.076.758-.076h152c.26 0 .512.029.758.077v-64.338z" fill="#fe0364"/><path d="m332 466h-152c-.26 0-.512-.029-.758-.077v22.795c24.146 7.96 49.945 12.282 76.758 12.282 26.812 0 52.611-4.322 76.758-12.282v-22.795c-.246.048-.498.077-.758.077z" fill="#fe0364"/><path d="m180 434h21v-64.261l24.211-68.739h-21.758l-24.211 68.739v64.337c.246-.047.498-.076.758-.076z" fill="#c20148"/><path d="m180 466c-.26 0-.512-.029-.758-.077v22.795c7.114 2.345 14.374 4.365 21.758 6.061v-28.779z" fill="#c20148"/><path d="m286.208 301h22.339l-6.056-17.193h-14.78v8.892c0 2.919-.533 5.716-1.503 8.301z" fill="#015a9a"/><path d="m224.289 292.699v-8.892h-14.78l-6.056 17.193h22.339c-.969-2.585-1.503-5.382-1.503-8.301z" fill="#015a9a"/><path d="m268.843 113h-25.686c-27.5 0-50 22.5-50 50v32.08c.441-.049.888-.08 1.343-.08h5.584v-2.46c0-27.589 20.903-44.061 55.916-44.061s55.915 16.471 55.915 44.061v2.46l6.928.08v-32.08c0-27.5-22.5-50-50-50z" fill="#d8694b"/><path d="m268.843 113h-25.686c-27.5 0-50 22.5-50 50v32.08l6.927-.08v-2.46c0-16.386 7.374-28.851 20.698-36.271 3.283-24.105 23.908-42.886 48.795-43.251-.244-.003-.487-.018-.734-.018z" fill="#c5573a"/><path d="m317.5 194h-5.585v28.15c0 4.422-.532 8.721-1.507 12.85h7.092c7.18 0 13-5.82 13-13v-15c0-7.18-5.82-13-13-13z" fill="#fea95c"/><path d="m200.084 222.15v-28.15h-5.584c-7.18 0-13 5.82-13 13v15c0 7.18 5.82 13 13 13h7.092c-.976-4.129-1.508-8.428-1.508-12.85z" fill="#fdb97e"/><path d="m274.855 283.807v8.892c0 5.985-4.869 10.854-10.853 10.854h-16.004c-5.985 0-10.854-4.869-10.854-10.854v-8.892h-12.854v8.892c0 13.073 10.636 23.709 23.709 23.709h16.004c13.073 0 23.709-10.636 23.709-23.709v-8.892z" fill="#fff"/><path d="m256 278.066c-6.991 0-13.682-1.301-19.856-3.656v18.289c0 6.52 5.334 11.854 11.854 11.854h16.004c6.519 0 11.853-5.335 11.853-11.854v-18.288c-6.174 2.354-12.864 3.655-19.855 3.655z" fill="#fea95c"/><path d="m252.288 292.699v-14.77c-5.65-.372-11.072-1.585-16.145-3.519v18.289c0 6.52 5.334 11.854 11.854 11.854h16.004c.023 0 .047-.003.07-.003-6.486-.039-11.783-5.356-11.783-11.851z" fill="#ff9240"/><path d="m312.915 222.15c0 31.433-25.481 56.916-56.915 56.916-31.434 0-56.916-25.483-56.916-56.916v-29.61c0-31.433 25.482-45.061 56.916-45.061 31.434 0 56.915 13.628 56.915 45.061z" fill="#fdb97e"/><path d="m221 222.15v-29.61c0-27.683 19.769-41.55 45.958-44.465-3.547-.395-7.208-.595-10.958-.595-31.434 0-56.916 13.628-56.916 45.061v29.609c0 31.433 25.482 56.916 56.916 56.916 3.75 0 7.411-.372 10.958-1.065-26.189-5.109-45.958-28.168-45.958-55.851z" fill="#fea95c"/><path d="m261.631 233.22h-6.262c-6.893 0-12.5-5.607-12.5-12.5v-12.782c0-4.142 3.358-7.5 7.5-7.5s7.5 3.358 7.5 7.5v10.282h3.762c4.142 0 7.5 3.358 7.5 7.5s-3.358 7.5-7.5 7.5z" fill="#eb6000"/><path d="m269.633 258.299h-27.266c-4.142 0-7.5-3.358-7.5-7.5s3.358-7.5 7.5-7.5h27.266c4.143 0 7.5 3.358 7.5 7.5s-3.358 7.5-7.5 7.5z" fill="#eb6000"/><path d="m236.144 188.765h-20.152c-4.142 0-7.5-3.358-7.5-7.5s3.358-7.5 7.5-7.5h20.152c4.142 0 7.5 3.358 7.5 7.5s-3.358 7.5-7.5 7.5z" fill="#c5573a"/><path d="m296.01 188.765h-20.154c-4.143 0-7.5-3.358-7.5-7.5s3.357-7.5 7.5-7.5h20.154c4.143 0 7.5 3.358 7.5 7.5s-3.358 7.5-7.5 7.5z" fill="#c5573a"/><path d="m136.517 102.347c.001.075.011.148.011.224v20.776h236.767v-20.776c0-.076.01-.149.012-.224z" fill="#7bacdf"/><path d="m74.169 102.571c0-.076.01-.149.011-.224h-9.245v21h9.234z" fill="#7bacdf"/><path d="m435.643 102.347c.002.075.012.148.012.224l-.001 20.776h11.411v-21z" fill="#7bacdf"/><path d="m73.169 102.571c0-8.07 6.566-14.635 14.636-14.635h35.088c8.07 0 14.635 6.565 14.635 14.635v20.86c0 4.707-3.83 8.537-8.538 8.537-2.706 0-5.195-1.25-6.829-3.432-.247-.329-.638-.526-1.052-.526-.413 0-.803.196-1.051.526-1.634 2.182-4.124 3.432-6.83 3.432s-5.196-1.25-6.83-3.432c-.248-.329-.637-.526-1.05-.526s-.804.196-1.051.526c-1.634 2.182-4.122 3.432-6.829 3.432s-5.196-1.25-6.83-3.432c-.248-.329-.637-.526-1.05-.526-.414 0-.803.196-1.051.526-1.634 2.182-4.124 3.432-6.831 3.432-4.707 0-8.537-3.83-8.537-8.537z" fill="#fdb97e"/><path d="m87.642 123.431-.001-20.86c0-8.07 6.565-14.635 14.636-14.635h-14.472c-8.071 0-14.636 6.565-14.636 14.635l.001 20.86c0 4.707 3.831 8.537 8.537 8.537 2.707 0 5.196-1.25 6.831-3.432.136-.181.318-.317.521-.407-.894-1.35-1.417-2.963-1.417-4.698z" fill="#fea95c"/><path d="m507 92.666h-10.848v40.36h10.848c2.75 0 5-2.25 5-5v-30.36c0-2.75-2.25-5-5-5z" fill="#7bacdf"/><path d="m487.152 31.667h-5.544c-5.5 0-10 4.5-10 10 0-5.5-4.5-10-10-10h-5.544c-5.5 0-10 4.5-10 10v142.36c0 5.5 4.5 10 10 10h5.544c5.5 0 10-4.5 10-10 0 5.5 4.5 10 10 10h5.544c5.5 0 10-4.5 10-10v-142.36c0-5.5-4.5-10-10-10z" fill="#fd3581"/><path d="m15.848 92.666h-10.848c-2.75 0-5 2.25-5 5v30.36c0 2.75 2.25 5 5 5h10.848z" fill="#7bacdf"/><path d="m55.935 31.667h-5.544c-5.5 0-10 4.5-10 10 0-5.5-4.5-10-10-10h-5.544c-5.5 0-10 4.5-10 10v142.36c0 5.5 4.5 10 10 10h5.544c5.5 0 10-4.5 10-10 0 5.5 4.5 10 10 10h5.544c5.5 0 10-4.5 10-10v-142.36c0-5.5-4.5-10-10-10z" fill="#fd3581"/><path d="m25 184.027v-142.36c0-4.707 3.299-8.67 7.696-9.719-.742-.177-1.51-.281-2.304-.281h-5.544c-5.5 0-10 4.5-10 10v142.36c0 5.5 4.5 10 10 10h5.544c.794 0 1.563-.104 2.304-.281-4.397-1.049-7.696-5.013-7.696-9.719z" fill="#fd3581"/><path d="m436.654 102.571c0-8.07-6.565-14.635-14.637-14.635h-35.087c-8.07 0-14.635 6.565-14.635 14.635v20.86c0 4.707 3.829 8.537 8.537 8.537 2.706 0 5.195-1.25 6.828-3.432.248-.329.638-.526 1.052-.526s.804.196 1.052.526c1.633 2.182 4.123 3.432 6.83 3.432 2.705 0 5.195-1.25 6.829-3.432.248-.329.638-.526 1.051-.526s.805.196 1.051.526c1.635 2.182 4.122 3.432 6.83 3.432 2.706 0 5.195-1.25 6.829-3.432.248-.329.637-.526 1.05-.526.414 0 .804.196 1.052.526 1.634 2.182 4.124 3.432 6.831 3.432 4.706 0 8.537-3.83 8.537-8.537z" fill="#fdb97e"/><path d="m287.415 194.898c-4.89 0-8.891 4.5-8.891 10v6.672c0 5.5 4.001 10 8.891 10s8.891-4.5 8.891-10v-6.672c0-5.5-4.001-10-8.891-10z" fill="#eb6000"/><path d="m224.586 194.898c-4.89 0-8.891 4.5-8.891 10v6.672c0 5.5 4.001 10 8.891 10s8.891-4.5 8.891-10v-6.672c0-5.5-4.001-10-8.891-10z" fill="#eb6000"/><path d="m337 462c0 2.75-2.25 5-5 5h-152c-2.75 0-5-2.25-5-5v-24c0-2.75 2.25-5 5-5h152c2.75 0 5 2.25 5 5z" fill="#015a9a"/><path d="m200 462v-24c0-2.75 2.25-5 5-5h-25c-2.75 0-5 2.25-5 5v24c0 2.75 2.25 5 5 5h25c-2.75 0-5-2.25-5-5z" fill="#015a9a"/><g fill="#fe0364"><path d="m471.608 184.027c0 5.5-4.5 10-10 10h-5.544c-5.5 0-10-4.5-10-10v-142.36c0-5.5 4.5-10 10-10h5.544c5.5 0 10 4.5 10 10z"/><path d="m457 184.027v-142.36c0-4.565 3.104-8.433 7.305-9.618-.86-.243-1.762-.382-2.696-.382h-5.544c-5.5 0-10 4.5-10 10v142.36c0 5.5 4.5 10 10 10h5.544c.935 0 1.836-.139 2.696-.382-4.201-1.185-7.305-5.053-7.305-9.618z"/><path d="m40.392 184.027c0 5.5 4.5 10 10 10h5.544c5.5 0 10-4.5 10-10v-142.36c0-5.5-4.5-10-10-10h-5.544c-5.5 0-10 4.5-10 10z"/><path d="m51 184.027v-142.36c0-4.625 3.185-8.53 7.468-9.661-.811-.214-1.657-.339-2.532-.339h-5.544c-5.5 0-10 4.5-10 10v142.36c0 5.5 4.5 10 10 10h5.544c.876 0 1.722-.126 2.532-.339-4.283-1.131-7.468-5.037-7.468-9.661z"/></g><circle cx="256" cy="367.5" fill="#fe5694" r="29.5"/><path d="m244.25 367.5c0-13.197 8.667-24.369 20.619-28.137-2.8-.882-5.777-1.363-8.869-1.363-16.293 0-29.5 13.207-29.5 29.5s13.207 29.5 29.5 29.5c3.092 0 6.069-.48 8.869-1.363-11.952-3.768-20.619-14.94-20.619-28.137z" fill="#fd3581"/><path d="m386.768 123.431-.001-20.86c0-8.07 6.565-14.635 14.637-14.635h-14.473c-8.07 0-14.636 6.565-14.636 14.635l.001 20.86c0 4.707 3.83 8.537 8.537 8.537 2.707 0 5.196-1.25 6.83-3.432.137-.181.318-.317.522-.407-.894-1.35-1.417-2.963-1.417-4.698z" fill="#fea95c"/><path d="m482.456 184.027v-142.36c0-4.582 3.126-8.458 7.349-9.629-.847-.235-1.733-.371-2.652-.371h-5.544c-5.5 0-10 4.5-10 10v142.36c0 5.5 4.5 10 10 10h5.544c.919 0 1.806-.136 2.652-.371-4.223-1.171-7.349-5.048-7.349-9.629z" fill="#fd3581"/></svg>