<svg id="Capa_1" enable-background="new 0 0 512 512" height="512" viewBox="0 0 512 512" width="512" xmlns="http://www.w3.org/2000/svg"><circle cx="256" cy="256" fill="#fee45a" r="245"/><path d="m332.296 385.13-76.296 43.869-76.321-43.997 12.686 63.367-8.554 41.814c22.821 7.027 47.062 10.817 72.189 10.817s49.368-3.79 72.19-10.816l-8.554-41.814z" fill="#fe0364"/><path d="m179.679 385.003 12.686 63.367-8.554 41.814c8.405 2.588 17.004 4.733 25.768 6.415l10.285-48.229-9.098-45.447z" fill="#c20148"/><path d="m256 404.603-81.857-47.26 5.748 28.715 76.109 43.942 76.109-43.942 5.748-28.715z" fill="#fd3581"/><path d="m174.143 357.343 5.748 28.715 31.091 17.951-5.748-28.715z" fill="#fe0364"/><path d="m126.758 270.049c-7.7 0-15.654-6.949-16.688-14.579l-10.771-79.47h-35.32l11.408 84.171c3.411 25.165 25.976 44.878 51.371 44.878h37.936l-7.007-35z" fill="#f78157"/><path d="m412.701 176-10.772 79.471c-1.033 7.629-8.987 14.578-16.688 14.578h-30.929l-7.007 35h37.936c25.396 0 47.96-19.713 51.371-44.878l11.41-84.171z" fill="#f78157"/><path d="m92.655 261.321-11.563-85.321h-17.113l11.408 84.171c3.411 25.165 25.976 44.878 51.371 44.878h6.736c-20.846-4.534-37.909-22.114-40.839-43.728z" fill="#f46b38"/><path d="m351.385 264.795h-61.018v1l-5.238 20.809c-.559 2.219-2.963 4.093-5.251 4.093h-47.756c-2.288 0-4.692-1.874-5.251-4.093l-5.238-20.809v-1h-61.018c-2.75 0-4.559 2.206-4.019 4.903l17.545 87.644 81.859 47.261 81.858-47.261 17.545-87.644c.54-2.697-1.268-4.903-4.018-4.903z" fill="#fff"/><path d="m205.234 375.294-21.139-105.596c-.54-2.697 1.269-4.903 4.019-4.903h-27.499c-2.75 0-4.559 2.206-4.019 4.903l17.545 87.644z" fill="#c7e7ff"/><path d="m239.195 68.497h33.61c7.85 0 15.334 1.592 22.15 4.465 2.308-4.7 3.607-9.983 3.607-15.572 0-19.546-15.845-35.391-35.39-35.391h-14.347c-19.546 0-35.392 15.845-35.392 35.391 0 5.589 1.3 10.873 3.607 15.572 6.819-2.873 14.305-4.465 22.155-4.465z" fill="#c5573a"/><path d="m236.804 68.558c-1.167-3.511-1.804-7.265-1.804-11.167 0-18.328 13.932-33.4 31.783-35.208-1.188-.121-2.391-.182-3.609-.182h-14.347c-19.546 0-35.392 15.845-35.392 35.391 0 5.589 1.3 10.873 3.607 15.572 6.122-2.582 12.783-4.117 19.762-4.406z" fill="#a94b30"/><path d="m185.846 161.758h5.933v-5.197l-.005-7.729c-.001-1.928.749-3.741 2.112-5.105s3.176-2.115 5.104-2.115h43.865c11.48 0 22.341-5.103 29.796-14 1.375-1.64 3.392-2.581 5.53-2.581 2.141 0 4.156.94 5.53 2.581 7.352 8.772 18.059 13.874 29.376 13.999 3.934.043 7.135 3.279 7.135 7.214v12.933h5.933c1.715 0 3.35.34 4.854.941v-37c0-32.144-26.059-58.202-58.202-58.202h-33.61c-32.145 0-58.203 26.059-58.203 58.202v37c1.502-.601 3.137-.941 4.852-.941z" fill="#c5573a"/><path d="m239.195 67.497c-32.145 0-58.203 26.059-58.203 58.202v37c1.504-.601 3.139-.941 4.854-.941h5.933l-.005-12.926c-.001-1.928.749-3.741 2.112-5.105s3.176-2.115 5.104-2.115h9.01v-15.914c0-32.144 26.059-58.202 58.203-58.202h-27.008z" fill="#a94b30"/><path d="m275.265 251.755c-6.085 1.917-12.555 2.956-19.265 2.956s-13.18-1.038-19.265-2.956v13.04h-16.385l5.552 22.053c.671 2.667 3.471 4.849 6.221 4.849h47.756c2.75 0 5.55-2.182 6.221-4.849l5.552-22.053h-16.386v-13.04z" fill="#f78157"/><path d="m236.735 251.755v13.04h-16.385l5.552 22.053c.671 2.667 3.471 4.849 6.221 4.849h11.032l-4.063-15.867c-.227-.904-.029-1.842.543-2.577.572-.734 1.435-1.156 2.366-1.156h10.386c1.657 0 3-1.343 3-3v-14.402c-6.491-.06-12.754-1.081-18.652-2.94z" fill="#f46b38"/><path d="m191.778 190.49v-29.732h-5.933c-7.771 0-14.131 6.358-14.131 14.13v16.38c0 7.772 6.359 14.13 14.131 14.13h7.698c-1.142-4.788-1.765-9.775-1.765-14.908z" fill="#fa9775"/><path d="m326.154 160.758h-5.933v29.732c0 5.133-.623 10.12-1.766 14.908h7.698c7.772 0 14.13-6.358 14.13-14.13v-16.38c.001-7.772-6.357-14.13-14.129-14.13z" fill="#f78157"/><path d="m256 255.711c-35.964 0-65.222-29.258-65.222-65.221v-33.929l-.005-7.729c-.001-2.18.865-4.271 2.405-5.812 1.541-1.542 3.631-2.408 5.811-2.408h43.865c11.184 0 21.765-4.973 29.029-13.643 1.563-1.863 3.867-2.939 6.297-2.939 2.431 0 4.736 1.076 6.297 2.938 7.164 8.547 17.595 13.519 28.62 13.641 4.502.049 8.124 3.712 8.124 8.214v41.665c.001 35.966-29.257 65.223-65.221 65.223z" fill="#fa9775"/><path d="m207.005 190.49v-33.929l-.005-7.729c-.001-2.18.865-4.271 2.405-5.812 1.541-1.542 3.631-2.408 5.811-2.408h-16.227c-2.18 0-4.27.866-5.811 2.408-1.54 1.541-2.406 3.632-2.405 5.812l.005 7.729v33.929c0 35.963 29.258 65.221 65.222 65.221 2.749 0 5.453-.191 8.113-.523-32.146-4.008-57.108-31.483-57.108-64.698z" fill="#f78157"/><path d="m261.813 203.355h-6.625c-6.893 0-12.5-5.607-12.5-12.5v-11.769c0-4.142 3.357-7.5 7.5-7.5s7.5 3.358 7.5 7.5v9.269h4.125c4.143 0 7.5 3.358 7.5 7.5s-3.358 7.5-7.5 7.5z" fill="#eb6000"/><path d="m256 239.551c-12.029 0-21.815-9.786-21.815-21.816 0-1.752 1.42-3.173 3.173-3.173h37.285c1.753 0 3.173 1.421 3.173 3.173-.001 12.03-9.787 21.816-21.816 21.816z" fill="#f46700"/><path d="m250.369 217.735c0-1.752 1.42-3.173 3.173-3.173h-16.185c-1.753 0-3.173 1.421-3.173 3.173 0 12.03 9.786 21.816 21.815 21.816 2.859 0 5.588-.558 8.092-1.563-8.031-3.22-13.722-11.082-13.722-20.253z" fill="#eb6000"/><path d="m287.943 156.546c-4.479 0-8.143 3.664-8.143 8.143v11.896c0 4.479 3.663 8.144 8.143 8.144h2.5c4.48 0 8.145-3.664 8.145-8.144v-11.895c0-4.479-3.665-8.143-8.145-8.143h-2.5z" fill="#c5573a"/><path d="m221.557 156.546c-4.479 0-8.145 3.664-8.145 8.143v11.896c0 4.479 3.665 8.144 8.145 8.144h2.5c4.48 0 8.143-3.664 8.143-8.144v-11.895c0-4.479-3.663-8.143-8.143-8.143h-2.5z" fill="#c5573a"/><g fill="#0078c8"><path d="m457.217 312.787c1.166 1.166 1.166 3.076 0 4.242l-15.096 15.096c-1.166 1.167-3.076 1.167-4.242 0l-15.096-15.096c-1.166-1.167-1.166-3.076 0-4.242l15.096-15.096c1.166-1.167 3.076-1.167 4.242 0z"/><path d="m75.879 301.541c1.166 1.167 1.166 3.076 0 4.242l-13.096 13.096c-1.166 1.166-3.076 1.166-4.242 0l-13.096-13.096c-1.166-1.167-1.166-3.076 0-4.242l13.096-13.096c1.166-1.166 3.076-1.166 4.242 0z"/><path d="m380.555 353.217c1.166 1.167 1.166 3.076 0 4.242l-10.096 10.096c-1.166 1.167-3.076 1.167-4.242 0l-10.096-10.096c-1.166-1.167-1.166-3.076 0-4.242l10.096-10.096c1.166-1.167 3.076-1.167 4.242 0z"/><path d="m372.879 211.217c1.166 1.167 1.166 3.076 0 4.242l-9.096 9.096c-1.166 1.167-3.076 1.167-4.242 0l-9.096-9.096c-1.166-1.167-1.166-3.076 0-4.242l9.096-9.096c1.166-1.167 3.076-1.167 4.242 0z"/><path d="m124.125 359.787c1.166 1.166 1.166 3.076 0 4.242l-9.096 9.096c-1.166 1.167-3.076 1.167-4.242 0l-9.096-9.096c-1.166-1.167-1.166-3.076 0-4.242l9.096-9.096c1.166-1.167 3.076-1.167 4.242 0z"/><path d="m158.555 207.217c1.166 1.167 1.166 3.076 0 4.242l-9.096 9.096c-1.166 1.167-3.076 1.167-4.242 0l-9.096-9.096c-1.166-1.167-1.166-3.076 0-4.242l9.096-9.096c1.166-1.167 3.076-1.167 4.242 0z"/></g><path d="m86.636 200.44c1.58 0 3.923-.554 6.113-3.187 2.782-3.346 5.065-10.047 5.75-20.433 5.257 11.512 11.254 18.204 17.047 18.208h.005c2.617 0 4.903-1.405 6.277-3.856 2.579-4.604 2.037-12.723-1.21-23.019 7.473 7.325 14.273 11.453 19.456 11.454 3.407 0 6.058-1.818 7.089-4.862 1.77-5.219-1.638-13.257-9.07-22.595 6.773 2.925 12.695 4.493 17.34 4.494h.003c8.146 0 9.496-4.986 9.715-6.515.832-5.784-5.376-12.627-16.557-19.195 1.071.04 2.116.061 3.137.061 7.641 0 17.417-1.154 20.592-6.652 1.292-2.239 1.26-4.866-.09-7.204-2.652-4.593-10.232-7.989-21.342-9.815 12.57-4.33 19.913-10.009 19.659-16.078-.104-2.45-1.662-8.148-13.884-8.148-2.713 0-6.754.295-12.252 1.433 9.357-7.917 14.139-15.309 12.862-20.834-.819-3.542-3.86-5.656-8.137-5.656-4.301 0-10.819 2.241-19.135 7.64 5.349-9.867 7.36-17.998 5.233-22.857-1.199-2.734-3.681-4.368-6.64-4.368-5.409 0-12.001 5.411-18.696 14.78 1.25-9.946.518-17.643-2.36-21.859-1.556-2.278-3.751-3.532-6.185-3.532-6.234 0-11.404 7.774-14.722 20.828-3.318-13.053-8.488-20.828-14.724-20.828-2.434 0-4.629 1.254-6.184 3.532-2.88 4.216-3.611 11.912-2.361 21.859-6.695-9.37-13.286-14.78-18.695-14.78-2.96 0-5.442 1.634-6.642 4.369-2.128 4.858-.115 12.989 5.233 22.856-8.316-5.4-14.832-7.64-19.133-7.64-4.278 0-7.32 2.114-8.14 5.656-1.277 5.524 3.506 12.916 12.862 20.832-5.497-1.136-9.538-1.432-12.251-1.432-12.226 0-13.782 5.699-13.886 8.149-.251 6.072 7.102 11.754 19.685 16.085-14.052 2.318-22.398 7.13-22.398 13.525 0 3.048 2.098 10.136 21.539 10.139h.008c1.018 0 2.062-.02 3.129-.061-11.177 6.567-17.384 13.411-16.554 19.194.222 1.528 1.569 6.515 9.712 6.516h.003c4.646 0 10.566-1.568 17.341-4.493-7.432 9.336-10.838 17.372-9.07 22.592 1.033 3.044 3.68 4.863 7.087 4.865h.004c5.183 0 11.98-4.127 19.455-11.453-3.246 10.293-3.789 18.411-1.21 23.016 1.373 2.452 3.66 3.859 6.277 3.859 5.795 0 11.792-6.692 17.049-18.206.686 10.386 2.969 17.085 5.75 20.431 2.192 2.632 4.536 3.185 6.116 3.185z" fill="#3c87d0"/><path d="m48 110.5c0-29.611 13.342-56.102 34.336-73.804-2.906-5.679-6.446-8.853-10.424-8.853-2.434 0-4.629 1.254-6.184 3.532-2.88 4.216-3.611 11.912-2.361 21.859-6.695-9.37-13.286-14.78-18.695-14.78-2.96 0-5.442 1.634-6.642 4.369-2.128 4.858-.115 12.989 5.233 22.856-8.316-5.4-14.832-7.64-19.133-7.64-4.278 0-7.32 2.114-8.14 5.656-1.277 5.524 3.506 12.916 12.862 20.832-5.497-1.136-9.538-1.432-12.251-1.432-12.226 0-13.782 5.699-13.886 8.149-.253 6.074 7.1 11.756 19.683 16.087-14.052 2.318-22.398 7.13-22.398 13.525 0 3.048 2.098 10.136 21.539 10.139h.008c1.018 0 2.062-.02 3.129-.061-11.177 6.567-17.384 13.411-16.554 19.194.222 1.528 1.569 6.515 9.712 6.516h.003c4.646 0 10.566-1.568 17.341-4.493-7.432 9.336-10.838 17.372-9.07 22.592 1.033 3.044 3.68 4.863 7.087 4.865h.004c5.183 0 11.98-4.127 19.455-11.453-3.246 10.293-3.789 18.411-1.21 23.016 1.373 2.452 3.66 3.859 6.277 3.859 5.75 0 11.699-6.597 16.927-17.949-16.511-17.318-26.648-40.766-26.648-66.581z" fill="#0078c8"/><path d="m425.367 200.44c1.58 0 3.923-.554 6.113-3.187 2.782-3.346 5.065-10.047 5.75-20.433 5.257 11.512 11.254 18.204 17.047 18.208h.005c2.617 0 4.903-1.405 6.277-3.856 2.579-4.604 2.037-12.723-1.21-23.019 7.473 7.325 14.273 11.453 19.456 11.454 3.407 0 6.058-1.818 7.089-4.862 1.77-5.219-1.638-13.257-9.07-22.595 6.773 2.925 12.695 4.493 17.34 4.494h.003c8.147 0 9.496-4.986 9.715-6.515.832-5.784-5.376-12.627-16.557-19.195 1.071.04 2.116.061 3.137.061 7.641 0 17.417-1.154 20.592-6.652 1.292-2.239 1.26-4.866-.09-7.204-2.652-4.593-10.232-7.989-21.342-9.815 12.57-4.33 19.913-10.009 19.659-16.078-.104-2.45-1.662-8.148-13.884-8.148-2.713 0-6.754.295-12.252 1.433 9.357-7.917 14.139-15.309 12.862-20.834-.819-3.542-3.86-5.656-8.137-5.656-4.301 0-10.819 2.241-19.135 7.64 5.349-9.867 7.36-17.998 5.233-22.857-1.199-2.734-3.681-4.368-6.64-4.368-5.409 0-12.001 5.411-18.696 14.78 1.25-9.946.518-17.643-2.36-21.859-1.556-2.278-3.751-3.532-6.185-3.532-6.234 0-11.404 7.774-14.722 20.828-3.318-13.053-8.488-20.828-14.724-20.828-2.434 0-4.629 1.254-6.184 3.532-2.88 4.216-3.611 11.912-2.361 21.859-6.695-9.37-13.286-14.78-18.695-14.78-2.96 0-5.442 1.634-6.642 4.369-2.128 4.858-.115 12.989 5.233 22.856-8.316-5.4-14.832-7.64-19.133-7.64-4.278 0-7.32 2.114-8.14 5.656-1.277 5.524 3.506 12.916 12.862 20.832-5.497-1.136-9.538-1.432-12.251-1.432-12.226 0-13.782 5.699-13.886 8.149-.255 6.072 7.099 11.755 19.682 16.085-14.053 2.318-22.398 7.131-22.398 13.525 0 3.048 2.098 10.136 21.539 10.139h.008c1.018 0 2.062-.02 3.129-.061-11.177 6.567-17.384 13.411-16.554 19.194.222 1.528 1.569 6.515 9.712 6.516h.003c4.646 0 10.566-1.568 17.341-4.493-7.432 9.336-10.838 17.372-9.07 22.592 1.033 3.044 3.68 4.863 7.087 4.865h.004c5.183 0 11.98-4.127 19.455-11.453-3.246 10.293-3.789 18.411-1.21 23.016 1.373 2.452 3.66 3.859 6.277 3.859 5.795 0 11.792-6.692 17.049-18.206.685 10.386 2.969 17.085 5.75 20.431 2.195 2.632 4.539 3.185 6.119 3.185z" fill="#3c87d0"/><path d="m386.731 110.5c0-29.611 13.342-56.102 34.336-73.804-2.906-5.679-6.446-8.853-10.424-8.853-2.434 0-4.629 1.254-6.184 3.532-2.88 4.216-3.611 11.912-2.361 21.859-6.695-9.37-13.286-14.78-18.695-14.78-2.96 0-5.442 1.634-6.642 4.369-2.128 4.858-.115 12.989 5.233 22.856-8.316-5.4-14.832-7.64-19.133-7.64-4.278 0-7.32 2.114-8.14 5.656-1.277 5.524 3.506 12.916 12.862 20.832-5.497-1.136-9.538-1.432-12.251-1.432-12.226 0-13.782 5.699-13.886 8.149-.255 6.072 7.099 11.755 19.682 16.085-14.053 2.318-22.398 7.131-22.398 13.525 0 3.048 2.098 10.136 21.539 10.139h.008c1.018 0 2.062-.02 3.129-.061-11.177 6.567-17.384 13.411-16.554 19.194.222 1.528 1.569 6.515 9.712 6.516h.003c4.646 0 10.566-1.568 17.341-4.493-7.432 9.336-10.838 17.372-9.07 22.592 1.033 3.044 3.68 4.863 7.087 4.865h.004c5.183 0 11.98-4.127 19.455-11.453-3.246 10.293-3.789 18.411-1.21 23.016 1.373 2.452 3.66 3.859 6.277 3.859 5.75 0 11.699-6.597 16.927-17.949-16.51-17.316-26.647-40.764-26.647-66.579z" fill="#0078c8"/></svg>