<svg id="Capa_1" enable-background="new 0 0 512 512" height="512" viewBox="0 0 512 512" width="512" xmlns="http://www.w3.org/2000/svg"><circle cx="256" cy="267" fill="#037e73" r="245"/><path d="m199.277 260.803c1.215 2.081 4.672 4.124 6.978 4.124l17.54-.007-3.693-17.429h-26.56l5.704 13.26z" fill="#6bd9e7"/><path d="m336.54 35.563c19.041 19.979 30.746 47.009 30.746 76.722v11.366h10.189c4.714 0 8.549 3.835 8.549 8.549v5.063c0 3.573-2.273 6.8-5.657 8.03l-1.248.454.781 1.075c1.581 2.174 2.417 4.727 2.417 7.385v42.591c0 6.751-5.497 12.407-12.253 12.608l-.619.018-.26.562c-3.229 6.997-10.27 11.518-17.935 11.518h-7.465l-19.193 44.583c-.058.134-.12.268-.188.398-1.802 3.508-4.975 6.542-8.658 8.599h116.254c15.627 0 28.4 12.427 28.973 27.917h37.388c1.73-11.75 2.64-23.769 2.64-36-.001-107.093-68.72-198.122-164.461-231.438z" fill="#6bd9e7"/><path d="m187.599 266.533c-.069-.133-.131-.266-.189-.4l-19.199-44.63h-7.46c-7.665 0-14.705-4.521-17.935-11.518l-.26-.562-.619-.018c-6.756-.201-12.253-5.857-12.253-12.608v-42.591c0-2.657.836-5.211 2.417-7.385l.781-1.075-1.248-.454c-3.384-1.229-5.657-4.457-5.657-8.03v-5.062c0-4.714 3.835-8.549 8.549-8.549h10.188v-11.366c0-29.713 11.705-56.743 30.746-76.722-95.741 33.316-164.46 124.345-164.46 231.437 0 12.231.909 24.25 2.64 36h37.388c.572-15.49 13.345-27.917 28.972-27.917h116.17c-3.647-2.056-6.785-5.068-8.571-8.55z" fill="#6bd9e7"/><path d="m291.893 247.49-3.69 17.401 17.534-.007c2.31-.001 5.771-2.048 6.989-4.132l.031-.053 5.686-13.208h-26.55z" fill="#6bd9e7"/><path d="m462.324 134.828h-18.875c-5.553 0-10.096 4.089-10.096 9.086s4.543 9.086 10.096 9.086h29.448c-3.274-6.217-6.794-12.285-10.573-18.172z" fill="#d4f2f6"/><path d="m457.336 206.343h-6.444c-5.553 0-10.095-4.088-10.095-9.085s4.542-9.086 10.095-9.086h4.243c5.553 0 10.096-4.088 10.096-9.086 0-4.997-4.543-9.086-10.096-9.086h-71.818v18.172h23.038c5.552 0 10.096 4.089 10.096 9.086s-4.544 9.085-10.096 9.085h-5.998c-5.553 0-10.096 4.089-10.096 9.086s4.543 9.086 10.096 9.086h56.979c5.552 0 10.095-4.089 10.095-9.086s-4.543-9.086-10.095-9.086z" fill="#d4f2f6"/><path d="m88.754 251.994c0-4.29-3.898-7.799-8.664-7.799h-19.498c-4.766 0-8.664-3.509-8.664-7.798s3.898-7.798 8.664-7.798h61.742c4.766 0 8.666-3.51 8.666-7.799s-3.9-7.798-8.666-7.798h-105.35c-3.401 15.117-5.407 30.761-5.871 46.793h68.977c4.765-.002 8.664-3.512 8.664-7.801z" fill="#d4f2f6"/><path d="m69 394v31.272c8.288 9.783 17.353 18.881 27.06 27.255l21.886-21.886v-36.641z" fill="#fea95c"/><path d="m394.055 394v36.641l21.886 21.885c9.707-8.374 18.772-17.471 27.06-27.254v-31.272z" fill="#fea95c"/><path d="m70 395c-.342 0-.677-.035-1-.102v30.373c6.247 7.373 12.936 14.356 20 20.943v-51.214z" fill="#ff9240"/><path d="m117.945 364.879h-37.945c-5.486 0-10.621-1.532-15-4.189v29.31c0 2.75 2.25 5 5 5h47.945z" fill="#015a9a"/><path d="m432 364.879h-37.945v30.121h47.945c2.75 0 5-2.25 5-5v-29.31c-4.379 2.657-9.514 4.189-15 4.189z" fill="#0268b4"/><path d="m90 390v-25.121h-10c-5.486 0-10.621-1.532-15-4.189v29.31c0 2.75 2.25 5 5 5h25c-2.75 0-5-2.25-5-5z" fill="#004281"/><path d="m117.945 274.083h-37.945c-16.5 0-30 13.5-30 30v31.796c0 16.5 13.5 30 30 30h37.945z" fill="#0078c8"/><path d="m432 274.083h-37.945v91.796h37.945c16.5 0 30-13.5 30-30v-31.796c0-16.5-13.5-30-30-30z" fill="#0078c8"/><path d="m75 335.879v-31.796c0-16.5 13.5-30 30-30h-25c-16.5 0-30 13.5-30 30v31.796c0 16.5 13.5 30 30 30h25c-16.5 0-30-13.5-30-30z" fill="#0268b4"/><path d="m337.983 440.34h-17.881l-.261.605c-3.899 9.067-8.948 18.126-15.005 26.927-11.289 15.907-28.845 34.884-48.33 34.884l-.49-.004-.523.004c-19.485 0-37.041-18.977-48.338-34.896-6.049-8.789-11.098-17.848-14.997-26.915l-.261-.605h-17.881l-39.461 39.461c35.799 20.478 77.249 32.199 121.445 32.199s85.647-11.721 121.444-32.199z" fill="#015a9a"/><path d="m317.381 274.083c-3.52 2.352-7.682 3.799-11.638 3.801l-99.48.043h-.008c-3.983 0-8.176-1.465-11.709-3.844h-77.601v157.558l37.551-37.55v-17.146c0-9.9 8.054-17.954 17.953-17.954h17.605l.248-.639c4.102-10.586 9.774-21.173 16.86-31.468 11.29-15.907 28.845-34.884 48.33-34.884l.491.004.524-.004c19.484 0 37.04 18.977 48.337 34.896 7.079 10.284 12.751 20.872 16.852 31.457l.248.639h17.607c9.899 0 17.953 8.054 17.953 17.954v17.146l37.551 37.55v-157.559z" fill="#015a9a"/><path d="m134.57 479.786c3.107 1.777 6.24 3.513 9.43 5.156v-14.585z" fill="#015a9a"/><path d="m144 404.586v-130.503h-27.055v157.558z" fill="#015a9a"/><path d="m305.743 277.884-99.48.043h-.008c-1.519 0-3.066-.223-4.599-.616v17.838c0 2.432 1.35 5.883 2.998 7.67l11.549 12.519c10.692-12.297 24.427-23.338 39.289-23.338l.491.004.524-.004c14.859 0 28.594 11.039 39.289 23.339l11.549-12.52c1.648-1.788 2.998-5.239 2.998-7.67v-17.884c-1.533.394-3.081.618-4.6.619z" fill="#0078c8"/><path d="m232.421 300.32c7.146-5.009 14.939-8.321 23.071-8.321l.491.004.524-.004c8.132 0 15.926 3.312 23.07 8.321l5.664-6.14c1.649-1.787 2.998-5.238 2.998-7.669v-8.62l-64.48.027v8.592c0 2.431 1.349 5.883 2.998 7.669z" fill="#fea95c"/><path d="m232.421 300.32c6.296-4.414 13.098-7.499 20.189-8.171-.951-1.774-1.61-3.948-1.61-5.638v-8.604l-27.24.012v8.592c0 2.431 1.349 5.883 2.998 7.669z" fill="#ff9240"/><path d="m358.012 201.741v-30.241h-13.093v12.279c0 7.931-1.057 15.824-3.142 23.46l-.345 1.263h9.817c3.729.001 6.763-3.033 6.763-6.761z" fill="#0078c8"/><path d="m153.988 145.812h204.023v12.688h-204.023z" fill="#0078c8"/><path d="m160.75 208.503h9.817l-.345-1.263c-2.085-7.637-3.142-15.53-3.142-23.46v-12.28h-13.093v30.241c.001 3.728 3.034 6.762 6.763 6.762z" fill="#0078c8"/><path d="m140.988 201.741v-55.929h-6.463c-.903 0-1.773-.143-2.591-.404-2.021 2.379-3.251 5.45-3.251 8.798v42.591c0 7.495 6.133 13.628 13.628 13.628h.715c-1.292-2.625-2.038-5.566-2.038-8.684z" fill="#0078c8"/><path d="m380.065 145.408c-.817.261-1.688.404-2.591.404h-6.463v55.929c0 3.119-.746 6.059-2.037 8.685h.714c7.495 0 13.628-6.133 13.628-13.628v-42.591c0-3.349-1.229-6.42-3.251-8.799z" fill="#0078c8"/><g fill="#fdb97e"><path d="m329.632 221.503h-32.228l-2.754 12.987h29.391z"/><path d="m318.444 247.49h-26.552l-3.69 17.401 6.656-.003c8.435-4.049 16.14-9.377 22.866-15.729z"/><path d="m220.102 247.49h-26.56l.708 1.647c6.752 6.38 14.489 11.727 22.963 15.785l6.582-.003z"/><path d="m214.596 221.503h-32.234l5.587 12.987h29.399z"/><path d="m345.919 171.5h-179.838v12.279c0 8.575 1.201 16.868 3.443 24.724h172.951c2.242-7.855 3.443-16.149 3.443-24.724v-12.279z"/><path d="m237.081 264.914 37.831-.017 3.691-17.407h-45.213z"/><path d="m166.081 145.812h179.838v12.688h-179.838z"/><path d="m230.635 234.49h50.726l2.754-12.987h-56.232z"/></g><path d="m220.223 248.064c-.191-.188-.376-.384-.566-.574h-26.114l.708 1.647c6.752 6.38 14.489 11.727 22.963 15.785l6.582-.003z" fill="#fea95c"/><path d="m187.949 234.49h20.892c-2.806-4.098-5.276-8.439-7.383-12.987h-19.096z" fill="#fea95c"/><path d="m193.162 171.5h-27.081v12.279c0 8.575 1.201 16.868 3.443 24.724h27.087c-2.242-7.856-3.449-16.148-3.449-24.724z" fill="#fea95c"/><path d="m166.081 145.812h27.081v12.688h-27.081z" fill="#fea95c"/><path d="m368.286 123.651v-11.366c0-62.013-50.272-112.285-112.286-112.285-62.015 0-112.286 50.272-112.286 112.286v11.366h224.572z" fill="#0078c8"/><path d="m217.54 6.761c-43.072 15.702-73.826 57.021-73.826 105.524v11.366h27.286v-11.366c0-37.459 18.346-70.627 46.54-91.024z" fill="#0268b4"/><path d="m294.46 61v-54.238c-11.997-4.374-24.949-6.762-38.46-6.762s-26.463 2.388-38.46 6.762v54.238z" fill="#fe860a"/><path d="m217.54 88.408h76.92v35.243h-76.92z" fill="#fe860a"/><path d="m222.403 186.188c0 7.495-5.969 13.628-13.263 13.628s-13.263-6.133-13.263-13.628v-12.531c0-7.495 5.969-13.628 13.263-13.628s13.263 6.133 13.263 13.628z" fill="#eb6000"/><path d="m316.121 186.188c0 7.495-5.968 13.628-13.261 13.628-7.295 0-13.263-6.133-13.263-13.628v-12.531c0-7.495 5.968-13.628 13.263-13.628 7.293 0 13.261 6.133 13.261 13.628z" fill="#eb6000"/><path d="m264.399 213.504h-12.256c-6.641 0-12.043-5.402-12.043-12.042v-21.982c0-4.142 3.357-7.5 7.5-7.5s7.5 3.358 7.5 7.5v19.024h9.299c4.143 0 7.5 3.358 7.5 7.5s-3.357 7.5-7.5 7.5z" fill="#eb6000"/><path d="m357.012 145.812v11.688h-202.024v-11.688h-15v55.929c0 11.448 9.314 20.762 20.762 20.762h6.802l18.939 44.026c.067.156.14.31.218.461 3.493 6.807 11.896 11.937 19.546 11.937h.008l99.481-.043c7.649-.004 16.054-5.137 19.549-11.941.078-.151.15-.305.218-.461l18.933-43.979h6.807c11.448 0 20.762-9.314 20.762-20.762v-55.929zm-168.405 87.678-4.727-10.987h29.904l2.328 10.987zm17.649 30.437h-.001c-1.971 0-5.086-1.867-6.114-3.628l-5.08-11.809h24.23l3.27 15.43zm67.846-.03-36.21.016-3.268-15.423h42.745zm6.449-30.407h-49.106l-2.328-10.987h53.764zm31.312 26.757c-1.03 1.764-4.153 3.636-6.126 3.637l-16.3.007 3.266-15.4h24.222zm11.52-26.757h-27.498l2.33-10.987h29.897zm33.629-31.749c0 3.177-2.585 5.762-5.762 5.762h-190.5c-3.177 0-5.762-2.585-5.762-5.762v-29.241h202.023v29.241z" fill="#fff"/><path d="m387.023 137.263c0 5.251-4.297 9.549-9.549 9.549h-242.949c-5.252 0-9.549-4.297-9.549-9.549v-5.063c0-5.252 4.297-9.549 9.549-9.549h242.949c5.252 0 9.549 4.297 9.549 9.549z" fill="#015a9a"/><path d="m152 137.263v-5.063c0-5.252 4.297-9.549 9.549-9.549h-27.023c-5.252 0-9.549 4.297-9.549 9.549v5.063c0 5.251 4.297 9.549 9.549 9.549h27.023c-5.252 0-9.549-4.297-9.549-9.549z" fill="#015a9a"/><path d="m314.795 74.704c0 7.569-6.135 13.704-13.704 13.704h-90.182c-7.569 0-13.704-6.135-13.704-13.704 0-7.568 6.135-13.704 13.704-13.704h90.182c7.569 0 13.704 6.136 13.704 13.704z" fill="#fff"/><path d="m224.41 74.704c0-7.568 6.135-13.704 13.704-13.704h-27.205c-7.569 0-13.704 6.136-13.704 13.704 0 7.569 6.135 13.704 13.704 13.704h27.205c-7.569 0-13.704-6.135-13.704-13.704z" fill="#c7e7ff"/><path d="m312.537 440.339c-5.546 0-10.058-4.511-10.058-10.057 0-3.187 1.475-6.12 4.045-8.045.678-.509 1.081-1.316 1.081-2.162s-.404-1.654-1.081-2.161c-2.57-1.925-4.045-4.856-4.045-8.044 0-3.187 1.475-6.119 4.045-8.044.677-.506 1.081-1.314 1.081-2.161 0-.844-.403-1.651-1.079-2.16-2.572-1.927-4.047-4.859-4.047-8.046s1.475-6.119 4.045-8.045c.677-.508 1.081-1.316 1.081-2.161 0-.846-.403-1.654-1.08-2.162-2.571-1.926-4.046-4.857-4.046-8.044 0-5.546 4.512-10.057 10.058-10.057h10.473c-4.416-11.681-10.5-22.723-17.35-32.674-14.257-20.092-31.708-35.611-49.66-35.314-17.954-.297-35.403 15.222-49.66 35.314-6.85 9.951-12.934 20.993-17.35 32.674h10.473c5.546 0 10.058 4.511 10.058 10.057 0 3.186-1.475 6.118-4.045 8.043-.678.509-1.081 1.317-1.081 2.163 0 .845.404 1.653 1.081 2.16 2.57 1.927 4.045 4.859 4.045 8.046s-1.475 6.119-4.045 8.045c-.678.51-1.081 1.317-1.081 2.161 0 .847.404 1.655 1.082 2.162 2.569 1.925 4.044 4.857 4.044 8.044 0 3.188-1.475 6.119-4.045 8.044-.677.507-1.081 1.315-1.081 2.161 0 .845.403 1.653 1.08 2.161 2.571 1.926 4.046 4.859 4.046 8.046 0 5.545-4.512 10.057-10.058 10.057h-8.646c4.204 9.991 9.574 19.457 15.522 28.099 14.257 20.091 31.706 35.609 49.66 35.313 17.952.297 35.403-15.222 49.66-35.313 5.949-8.642 11.318-18.107 15.522-28.099z" fill="#eb6000"/><path d="m199.463 440.339h-8.646c3.325 7.901 7.386 15.466 11.878 22.563h32.65c-12.222-19.3-21.211-42.112-21.023-65.524-.188-23.413 8.802-46.226 21.023-65.525h-32.644c-5.354 8.457-10.098 17.578-13.712 27.139h10.473c5.546 0 10.058 4.511 10.058 10.057 0 3.186-1.475 6.118-4.045 8.043-.678.509-1.081 1.317-1.081 2.163 0 .845.404 1.653 1.081 2.16 2.57 1.927 4.045 4.859 4.045 8.046s-1.475 6.119-4.045 8.045c-.678.51-1.081 1.317-1.081 2.161 0 .847.404 1.655 1.082 2.162 2.569 1.925 4.044 4.857 4.044 8.044 0 3.188-1.475 6.119-4.045 8.044-.677.507-1.081 1.315-1.081 2.161 0 .845.403 1.653 1.08 2.161 2.571 1.926 4.046 4.859 4.046 8.046 0 5.543-4.511 10.054-10.057 10.054z" fill="#c84b1a"/><path d="m250.563 482.809h-32.66c11.685 12.64 24.751 21.163 38.098 20.942 5.517.091 10.985-1.316 16.33-3.886-7.585-3.646-14.914-9.643-21.768-17.056z" fill="#c84b1a"/><path d="m250.564 311.946c6.853-7.413 14.183-13.411 21.767-17.057-5.345-2.57-10.814-3.977-16.33-3.886-13.347-.221-26.413 8.302-38.098 20.942h32.661z" fill="#c84b1a"/><path d="m256 350.802c2.199 0 4.295.435 6.221 1.203v-20.152h-12.441v20.152c1.925-.769 4.021-1.203 6.22-1.203z" fill="#eb6000"/><path d="m256 443.954c-2.199 0-4.295-.435-6.221-1.203v20.151h12.441v-20.151c-1.925.768-4.021 1.203-6.22 1.203z" fill="#eb6000"/><path d="m206.34 326.317c-1.244 1.809-2.464 3.656-3.655 5.535h106.631c-1.191-1.879-2.409-3.726-3.655-5.535-3.659-5.156-7.528-10.007-11.563-14.371h-76.195c-4.035 4.364-7.904 9.216-11.563 14.371z" fill="#d4f2f6"/><path d="m250.587 311.946h-32.685c-4.034 4.364-7.903 9.215-11.563 14.371-1.244 1.809-2.464 3.656-3.655 5.535h32.684c1.191-1.879 2.411-3.726 3.655-5.535 3.661-5.155 7.53-10.007 11.564-14.371z" fill="#b4dbff"/><path d="m202.685 462.902c1.191 1.879 2.411 3.726 3.655 5.536 3.659 5.155 7.528 10.006 11.563 14.37h76.195c4.034-4.364 7.903-9.215 11.563-14.37 1.246-1.81 2.466-3.657 3.655-5.536z" fill="#d4f2f6"/><path d="m235.369 462.902h-32.684c1.191 1.879 2.411 3.726 3.655 5.536 3.659 5.155 7.528 10.006 11.563 14.37h32.685c-4.034-4.364-7.903-9.215-11.563-14.37-1.245-1.81-2.464-3.656-3.656-5.536z" fill="#b4dbff"/><path d="m272.819 427.134c0 9.289-7.532 16.82-16.819 16.82-9.289 0-16.818-7.531-16.818-16.82v-59.513c0-9.289 7.529-16.819 16.818-16.819 9.287 0 16.819 7.531 16.819 16.819z" fill="#fe860a"/><path d="m262.236 394.138c2.762 0 5-2.239 5-5s-2.238-5-5-5h-1.236v-7.915h1.236c2.762 0 5-2.239 5-5s-2.238-5-5-5h-12.473c-2.762 0-5 2.239-5 5s2.238 5 5 5h1.237v7.915h-1.236c-2.762 0-5 2.239-5 5s2.238 5 5 5h1.236v7.915h-1.236c-2.762 0-5 2.239-5 5s2.238 5 5 5h1.236v7.915h-1.236c-2.762 0-5 2.239-5 5s2.238 5 5 5h12.473c2.762 0 5-2.239 5-5s-2.238-5-5-5h-1.237v-7.915h1.236c2.762 0 5-2.239 5-5s-2.238-5-5-5h-1.236v-7.915z" fill="#fff"/><path d="m206.075 398.305c2.825-2.117 4.445-5.341 4.445-8.845 0-3.505-1.62-6.729-4.445-8.846-.428-.321-.681-.825-.681-1.36 0-.537.253-1.041.681-1.362 2.825-2.116 4.445-5.338 4.445-8.844 0-6.096-4.96-11.057-11.058-11.057h-27.014c-10.45 0-18.953 8.503-18.953 18.954v16.732l-58.227 58.227c12.365 10.758 25.823 20.288 40.18 28.419l38.982-38.982h25.032c6.098 0 11.058-4.96 11.058-11.057 0-3.505-1.62-6.729-4.445-8.845-.428-.321-.681-.826-.681-1.361 0-.536.253-1.041.681-1.361 2.825-2.115 4.445-5.339 4.445-8.844s-1.62-6.728-4.445-8.845c-.428-.32-.681-.826-.681-1.361.001-.536.254-1.04.681-1.362z" fill="#fea95c"/><path d="m175.227 393.676v-16.732c0-10.451 8.503-18.954 18.953-18.954h-21.731c-10.45 0-18.953 8.503-18.953 18.954v16.732l-58.227 58.227c3.884 3.378 7.887 6.621 11.979 9.752z" fill="#ff9240"/><path d="m339.551 441.34c10.45 0 18.953-8.503 18.953-18.954v-45.441c0-10.451-8.503-18.954-18.953-18.954h-27.014c-6.098 0-11.058 4.961-11.058 11.057 0 3.506 1.62 6.728 4.445 8.844.428.321.681.826.681 1.362 0 .535-.253 1.04-.681 1.36-2.825 2.117-4.445 5.34-4.445 8.846 0 3.504 1.62 6.729 4.445 8.845.428.322.681.826.681 1.36 0 .535-.253 1.041-.681 1.361-2.825 2.116-4.445 5.339-4.445 8.845 0 3.505 1.62 6.729 4.445 8.844.428.32.681.825.681 1.361s-.253 1.04-.681 1.361c-2.825 2.116-4.445 5.34-4.445 8.845 0 6.096 4.96 11.057 11.058 11.057z" fill="#fdb97e"/><path d="m416.731 451.903-58.228-58.227v-16.732c0-10.451-8.503-18.954-18.953-18.954h-27.014c-6.098 0-11.058 4.961-11.058 11.057 0 3.506 1.62 6.728 4.445 8.844.428.321.681.826.681 1.362 0 .535-.253 1.04-.681 1.36-2.825 2.117-4.445 5.34-4.445 8.846 0 3.504 1.62 6.729 4.445 8.845.428.322.681.826.681 1.36 0 .535-.253 1.041-.681 1.361-2.825 2.116-4.445 5.339-4.445 8.845 0 3.505 1.62 6.729 4.445 8.844.428.32.681.825.681 1.361s-.253 1.04-.681 1.361c-2.825 2.116-4.445 5.34-4.445 8.845 0 6.096 4.96 11.057 11.058 11.057h25.032l38.982 38.982c14.358-8.129 27.816-17.659 40.181-28.417z" fill="#fdb97e"/><path d="m353.838 430.349h-25.032c-6.098 0-11.058-4.96-11.058-11.057 0-3.505 1.62-6.729 4.445-8.845.428-.321.681-.826.681-1.361 0-.536-.253-1.041-.681-1.361-2.825-2.115-4.445-5.339-4.445-8.844s1.62-6.729 4.445-8.845c.428-.32.681-.826.681-1.361s-.253-1.039-.681-1.36c-2.825-2.117-4.445-5.341-4.445-8.845 0-3.505 1.62-6.728 4.445-8.846.428-.321.681-.825.681-1.36 0-.537-.253-1.041-.681-1.362-2.825-2.116-4.445-5.338-4.445-8.844 0-.022.003-.043.004-.065h-5.215c-6.098 0-11.058 4.961-11.058 11.057 0 3.506 1.62 6.728 4.445 8.844.428.321.681.826.681 1.362 0 .535-.253 1.04-.681 1.36-2.825 2.117-4.445 5.34-4.445 8.846 0 3.504 1.62 6.729 4.445 8.845.428.322.681.826.681 1.36 0 .535-.253 1.041-.681 1.361-2.825 2.116-4.445 5.339-4.445 8.845 0 3.505 1.62 6.729 4.445 8.844.428.32.681.825.681 1.361s-.253 1.04-.681 1.361c-2.825 2.116-4.445 5.34-4.445 8.845 0 6.096 4.96 11.057 11.058 11.057h25.032l38.982 38.982c5.754-3.259 11.356-6.753 16.81-10.45z" fill="#fea95c"/></svg>