<svg id="Capa_1" enable-background="new 0 0 512 512" height="512" viewBox="0 0 512 512" width="512" xmlns="http://www.w3.org/2000/svg"><circle cx="256" cy="267" fill="#015a9a" r="245"/><circle cx="256" cy="85" fill="#98bce5" r="85"/><circle cx="256" cy="85" fill="#e3f3ff" r="65.324"/><path d="m207 85c0-33.311 24.939-60.779 57.162-64.798-2.676-.334-5.396-.526-8.162-.526-36.078 0-65.324 29.247-65.324 65.324 0 36.078 29.246 65.324 65.324 65.324 2.766 0 5.486-.192 8.162-.526-32.223-4.019-57.162-31.486-57.162-64.798z" fill="#b4dbff"/><path d="m280.623 127.046c-.66 0-1.323-.158-1.931-.477l-22.692-11.93-22.692 11.93c-.607.319-1.27.477-1.932.477-.86 0-1.718-.268-2.441-.793-1.278-.929-1.919-2.503-1.652-4.061l4.334-25.269-18.358-17.895c-1.132-1.104-1.539-2.754-1.051-4.257s1.788-2.599 3.353-2.826l25.371-3.686 11.346-22.99c.699-1.417 2.143-2.315 3.724-2.315 1.58 0 3.023.897 3.724 2.315l11.346 22.99 25.371 3.686c1.564.228 2.863 1.323 3.352 2.826.488 1.503.081 3.153-1.05 4.257l-18.359 17.895 4.334 25.269c.267 1.558-.374 3.132-1.652 4.061-.727.525-1.584.793-2.445.793z" fill="#98bce5"/><path d="m243.287 117.146 4.334-25.269-18.358-17.895c-1.033-1.008-1.454-2.47-1.149-3.861l-12.554 1.824c-1.564.228-2.864 1.323-3.353 2.826-.488 1.503-.081 3.153 1.051 4.257l18.358 17.895-4.334 25.269c-.267 1.558.374 3.132 1.652 4.061.724.526 1.581.793 2.441.793.661 0 1.324-.158 1.932-.477l11.098-5.834c-.913-.941-1.344-2.269-1.118-3.589z" fill="#7bacdf"/><path d="m247.891 269.008.418-.033 7.582-9.036-153.93-183.446c-20.403 16.519-38.11 36.236-52.332 58.407l135.842 161.89c17.035-16.132 38.948-25.948 62.42-27.782z" fill="#fe0364"/><path d="m231.87 271.571-149.159-177.763c-6.16 6.164-11.98 12.664-17.458 19.452l141.137 168.202c7.993-4.419 16.555-7.742 25.48-9.891z" fill="#0078c8"/><path d="m247.891 269.008.418-.033 7.582-9.036-153.93-183.446c-6.716 5.437-13.149 11.21-19.251 17.315l149.16 177.763c5.232-1.26 10.581-2.138 16.021-2.563z" fill="#fd3581"/><path d="m256 268.69c26.861 0 51.342 10.375 69.657 27.323l136.043-162.131c-14.32-22.082-32.101-41.708-52.572-58.121l-162.228 193.337c3-.265 6.034-.408 9.1-.408z" fill="#fd3581"/><path d="m304.545 280.914 141.456-168.581c-5.507-6.757-11.364-13.215-17.549-19.345l-149.586 178.272c9.073 2.072 17.692 5.349 25.679 9.654z" fill="#0078c8"/><path d="m256 268.69c7.857 0 15.51.891 22.866 2.57l149.586-178.271c-6.13-6.075-12.582-11.824-19.323-17.228l-162.229 193.337c3-.265 6.034-.408 9.1-.408z" fill="#fe0364"/><path d="m256 267.69c-57.247 0-103.655 46.408-103.655 103.655 0 20.142 5.751 38.938 15.691 54.847 9.6-4.023 12.367-9.946 16.029-25.519.371-1.573 1.758-2.672 3.374-2.672s3.003 1.099 3.375 2.673c4.989 21.214 8.299 24.524 29.513 29.513 1.573.371 2.672 1.758 2.672 3.374s-1.099 3.003-2.673 3.374c-16.401 3.857-22.099 6.718-26.146 17.618 17.261 12.844 38.652 20.447 61.82 20.447 57.247 0 103.655-46.408 103.655-103.655.001-57.247-46.407-103.655-103.655-103.655z" fill="#ffb100"/><path d="m256 291.684c-43.996 0-79.661 35.665-79.661 79.661 0 11.592 2.496 22.594 6.948 32.529.257-1.022.515-2.082.778-3.201.371-1.573 1.758-2.672 3.374-2.672s3.003 1.099 3.375 2.673c4.989 21.214 8.299 24.524 29.513 29.513 1.573.371 2.672 1.758 2.672 3.374s-1.099 3.003-2.673 3.374c-2.535.596-4.807 1.168-6.864 1.75 12.309 7.793 26.89 12.321 42.537 12.321 43.995 0 79.661-35.666 79.661-79.661s-35.664-79.661-79.66-79.661z" fill="#fee45a"/><path d="m184.066 400.672c.371-1.573 1.758-2.672 3.374-2.672s3.003 1.099 3.375 2.673c4.805 20.432 8.06 24.256 27.248 28.968-15.613-14.543-25.384-35.276-25.384-58.296 0-41.237 31.333-75.156 71.491-79.246-2.686-.274-5.411-.415-8.169-.415-43.996 0-79.661 35.665-79.661 79.661 0 11.592 2.496 22.594 6.948 32.529.256-1.023.515-2.082.778-3.202z" fill="#fed402"/><path d="m220.327 436.935c-2.535.596-4.807 1.168-6.864 1.75 12.309 7.793 26.89 12.321 42.537 12.321 2.758 0 5.483-.141 8.169-.415-15.475-1.576-29.628-7.595-41.194-16.742-.123 1.489-1.17 2.737-2.648 3.086z" fill="#fed402"/><path d="m286.027 422.619c-.805 0-1.613-.193-2.354-.582l-27.673-14.549-27.673 14.548c-.741.389-1.549.582-2.355.582-1.049 0-2.095-.326-2.978-.968-1.559-1.133-2.339-3.052-2.014-4.952l5.285-30.814-22.387-21.822c-1.38-1.346-1.877-3.358-1.282-5.191.596-1.833 2.181-3.169 4.088-3.446l30.939-4.495 13.836-28.036c.852-1.729 2.613-2.823 4.54-2.823s3.687 1.094 4.541 2.823l13.836 28.036 30.939 4.495c1.908.277 3.492 1.613 4.087 3.446s.099 3.845-1.28 5.191l-22.389 21.822 5.285 30.814c.325 1.9-.456 3.819-2.015 4.952-.88.643-1.925.969-2.976.969z" fill="#ffc900"/><path d="m242.632 411.627 5.285-30.814-22.387-21.822c-1.38-1.346-1.877-3.358-1.282-5.191.115-.354.276-.681.46-.994l-18.023 2.619c-1.908.277-3.493 1.613-4.088 3.446s-.099 3.845 1.282 5.191l22.387 21.822-5.285 30.814c-.325 1.9.456 3.819 2.014 4.952.883.642 1.929.968 2.978.968.806 0 1.614-.193 2.355-.582l14.596-7.673c-.342-.851-.453-1.796-.292-2.736z" fill="#ffb100"/><path d="m127.56 319.12c-1.449 0-2.707-.997-3.04-2.407-3.436-14.609-5.504-16.677-20.113-20.113-1.41-.332-2.407-1.59-2.407-3.039s.997-2.707 2.407-3.04c14.609-3.436 16.677-5.504 20.113-20.113.333-1.41 1.59-2.407 3.04-2.407 1.449 0 2.707.997 3.04 2.407 3.436 14.609 5.504 16.677 20.113 20.113 1.41.332 2.407 1.59 2.407 3.04 0 1.449-.997 2.707-2.407 3.039-14.609 3.436-16.677 5.504-20.113 20.113-.333 1.41-1.591 2.407-3.04 2.407z" fill="#fed402"/><path d="m117.049 285.995c-2.734 1.924-6.622 3.11-12.642 4.526-1.41.332-2.407 1.59-2.407 3.04 0 1.449.997 2.707 2.407 3.039 14.609 3.436 16.677 5.504 20.113 20.113.333 1.41 1.59 2.407 3.04 2.407 1.449 0 2.707-.997 3.04-2.407 1.416-6.02 2.602-9.908 4.526-12.642-3.09-12.593-5.484-14.986-18.077-18.076z" fill="#fe860a"/><path d="m400.44 407c-1.449 0-2.707-.997-3.039-2.407-3.436-14.609-5.504-16.677-20.113-20.113-1.41-.333-2.407-1.59-2.407-3.04 0-1.449.997-2.707 2.407-3.039 14.609-3.436 16.677-5.504 20.113-20.113.332-1.41 1.59-2.407 3.039-2.407s2.707.997 3.04 2.407c3.436 14.609 5.504 16.677 20.113 20.113 1.41.332 2.407 1.59 2.407 3.039s-.997 2.707-2.407 3.04c-14.609 3.436-16.677 5.504-20.113 20.113-.333 1.41-1.591 2.407-3.04 2.407z" fill="#fed402"/><path d="m389.929 373.875c-2.734 1.924-6.622 3.11-12.642 4.526-1.41.332-2.407 1.59-2.407 3.039s.997 2.707 2.407 3.04c14.609 3.436 16.677 5.504 20.113 20.113.332 1.41 1.59 2.407 3.039 2.407s2.707-.997 3.04-2.407c1.416-6.02 2.602-9.908 4.526-12.642-3.09-12.593-5.483-14.987-18.076-18.076z" fill="#fe860a"/><path d="m187.44 470.12c-2.073 0-3.872-1.426-4.348-3.443-4.915-20.897-7.873-23.854-28.769-28.769-2.017-.476-3.443-2.275-3.443-4.348s1.426-3.872 3.443-4.348c20.896-4.914 23.854-7.873 28.769-28.769.476-2.017 2.275-3.443 4.348-3.443s3.872 1.426 4.348 3.443c4.914 20.896 7.873 23.854 28.769 28.769 2.017.476 3.443 2.275 3.443 4.348s-1.426 3.872-3.443 4.348c-20.896 4.915-23.855 7.873-28.769 28.769-.476 2.017-2.275 3.443-4.348 3.443z" fill="#fff"/><path d="m194.092 455.677c-4.915-20.897-7.873-23.854-28.769-28.769-.358-.085-.688-.223-1.005-.385-2.788.915-6.076 1.768-9.995 2.69-2.017.476-3.443 2.275-3.443 4.348s1.426 3.872 3.443 4.348c20.896 4.915 23.854 7.873 28.769 28.769.476 2.017 2.275 3.443 4.348 3.443s3.872-1.426 4.348-3.443c.922-3.919 1.774-7.207 2.69-9.995-.163-.318-.301-.648-.386-1.006z" fill="#e3f3ff"/></svg>