<svg id="Capa_1" enable-background="new 0 0 512 512" height="512" viewBox="0 0 512 512" width="512" xmlns="http://www.w3.org/2000/svg"><circle cx="256" cy="267" fill="#6bd9e7" r="245"/><circle cx="256" cy="267" fill="#a7e8f1" r="245"/><path d="m413.092 318c2.48-4.082 3.908-8.874 3.908-14v-149.366c-1.379.86-3.002 1.366-4.744 1.366h-7.512c-1.742 0-3.365-.506-4.744-1.366v116.366h-57c-14.912 0-27 12.088-27 27v6c0 5.126 1.428 9.918 3.908 14z" fill="#98bce5"/><path d="m334.908 318c-2.48-4.082-3.908-8.874-3.908-14v-6c0-14.912 12.088-27 27-27h-15c-14.912 0-27 12.088-27 27v6c0 5.126 1.428 9.918 3.908 14z" fill="#7bacdf"/><path d="m394.744 65.064v81.936c0 5.5 4.5 10 10 10h7.512c5.5 0 10-4.5 10-10v-59.935c-8.62-7.969-17.813-15.325-27.512-22.001z" fill="#0078c8"/><path d="m405.488 147v-74.103c-3.507-2.705-7.09-5.317-10.744-7.833v81.936c0 5.5 4.5 10 10 10h7.512c.551 0 1.089-.057 1.616-.144-4.737-.78-8.384-4.907-8.384-9.856z" fill="#0078c8"/><g fill="#e3f3ff"><path d="m400 179h17v19h-17z"/><path d="m392.972 297h-51.268c-3.683 0-6.667-2.985-6.667-6.667s2.984-6.666 6.667-6.666h51.268c3.683 0 6.667 2.985 6.667 6.666 0 3.682-2.985 6.667-6.667 6.667z"/><path d="m338.204 318h58.268c1.898-1.175 3.167-3.27 3.167-5.666 0-3.682-2.984-6.667-6.667-6.667h-51.268c-3.683 0-6.667 2.985-6.667 6.667 0 2.396 1.269 4.491 3.167 5.666z"/></g><path d="m282 217c-19.33 0-35 15.67-35 35 0 13.465 7.607 25.147 18.755 31h32.49c11.148-5.853 18.755-17.535 18.755-31 0-19.33-15.67-35-35-35z" fill="#fff"/><path d="m274.5 306.432v11.568h15v-11.568l14.36-17.163c1.103-1.319 1.344-3.157.616-4.715-.729-1.558-2.292-2.554-4.012-2.554h-36.93c-1.72 0-3.283.996-4.012 2.554-.728 1.558-.487 3.396.616 4.715z" fill="#fed402"/><path d="m274.5 306.432v11.568h10.893v-11.568l-14.36-17.163c-1.103-1.319-1.344-3.157-.616-4.715s2.292-2.554 4.012-2.554h-10.892c-1.72 0-3.283.996-4.012 2.554-.728 1.558-.487 3.396.616 4.715z" fill="#fed402"/><path d="m355.083 71.157-163.983-64.445v137.698l163.983-64.445c1.811-.711 3.001-2.458 3.001-4.404 0-1.945-1.19-3.692-3.001-4.404z" fill="#fe5694"/><path d="m191.1 6.712v137.698l22.932-9.012v-119.673z" fill="#fd3581"/><path d="m16.113 317c23.087 111.33 121.713 195 239.887 195s216.801-83.67 239.887-195z" fill="#01998d"/><ellipse cx="181.1" cy="414" fill="#006e66" rx="62.1" ry="18"/><path d="m170.1 149h22v63h-22z" fill="#fff"/><path d="m170.1 275h22v63h-22z" fill="#fff"/><path d="m187.1 0h-12c-2.75 0-5 2.25-5 5v145h22v-145c0-2.75-2.25-5-5-5z" fill="#fe0364"/><path d="m170.1 211h22v65h-22z" fill="#fe0364"/><path d="m170.1 431.713c3.572.185 7.244.287 11 .287s7.428-.102 11-.287v-94.713h-22z" fill="#fe0364"/><path d="m264.948 340h-27.615c-4.584 0-8.333 3.375-8.333 7.5s3.749 7.5 8.333 7.5h27.615c4.583 0 8.334-3.375 8.334-7.5s-3.751-7.5-8.334-7.5z" fill="#00c285"/><path d="m415.948 343h-27.615c-4.584 0-8.333 3.375-8.333 7.5s3.749 7.5 8.333 7.5h27.615c4.583 0 8.334-3.375 8.334-7.5s-3.751-7.5-8.334-7.5z" fill="#00c285"/><path d="m117.948 359h-27.615c-4.584 0-8.333 3.375-8.333 7.5s3.749 7.5 8.333 7.5h27.615c4.583 0 8.334-3.375 8.334-7.5s-3.751-7.5-8.334-7.5z" fill="#00c285"/><path d="m326.666 389h-27.615c-4.584 0-8.333 3.375-8.333 7.5s3.749 7.5 8.333 7.5h27.615c4.583 0 8.334-3.375 8.334-7.5s-3.751-7.5-8.334-7.5z" fill="#008b81"/><path d="m403.948 420h-27.615c-4.584 0-8.333 3.375-8.333 7.5s3.749 7.5 8.333 7.5h27.615c4.583 0 8.334-3.375 8.334-7.5s-3.751-7.5-8.334-7.5z" fill="#00c285"/><path d="m280.948 459h-27.615c-4.584 0-8.333 3.375-8.333 7.5s3.749 7.5 8.333 7.5h27.615c4.583 0 8.334-3.375 8.334-7.5s-3.751-7.5-8.334-7.5z" fill="#008b81"/></svg>