<svg id="Capa_1" enable-background="new 0 0 512 512" height="512" viewBox="0 0 512 512" width="512" xmlns="http://www.w3.org/2000/svg"><circle cx="256" cy="267" fill="#01998d" r="245"/><g fill="#a7e8f1"><path d="m171.132 37.543c.011.142 1.333 15.353 10.443 30.346 5.652 9.303 13.074 16.493 22.061 21.369l2.431 1.319-1.025-2.569c-6.042-15.136-10.205-32.447-12.376-51.452l-.1-.887h-17.406c-1.342.469-2.684.94-4.016 1.432-.018.135-.025.28-.012.442z"/><path d="m319.435 35.67-.1.887c-2.171 19.009-6.336 36.324-12.381 51.464l-1.025 2.568 2.431-1.318c9.115-4.944 16.623-12.277 22.315-21.796 8.803-14.725 10.14-29.311 10.192-29.925.013-.165.007-.313-.011-.449-1.331-.492-2.673-.962-4.015-1.431z"/><path d="m352.103 41.576c-.881 5.79-3.603 18.802-11.422 31.881-6.675 11.163-19.362 25.792-41.897 32.092l-.386.108-.204.344c-8.302 13.98-18.366 23.61-29.105 27.85l-.779.308 8.626 42.558h14.363c2.206 0 4 1.794 4 4v19h19c2.206 0 4 1.794 4 4v8.283c0 2.206-1.794 4-4 4h-2v23.236h16.928c2.206 0 4 1.795 4 4v15.409c0 2.206-1.794 4-4 4h-5.173v37.355h174.726c1.454-10.794 2.22-21.807 2.22-33 0-101.197-61.358-188.056-148.897-225.424z"/><path d="m60.274 295.693c0-2.206 1.794-4 4-4h123.673v-29.048h-5.173c-2.206 0-4-1.794-4-4v-15.409c0-2.205 1.794-4 4-4h16.928v-23.236h-2c-2.206 0-4-1.794-4-4v-8.283c0-2.206 1.794-4 4-4h19v-19c0-2.206 1.794-4 4-4h12.363l8.777-43.303-.726-.329c-10.049-4.553-19.492-13.918-27.311-27.084l-.204-.344-.386-.108c-22.535-6.3-35.223-20.929-41.897-32.092-7.819-13.078-10.541-26.09-11.422-31.881-87.538 37.368-148.896 124.227-148.896 225.424 0 11.193.766 22.206 2.22 33h47.055v-4.307z"/></g><path d="m349.751 27.608c-2.697-2.921-6.567-4.596-10.613-4.596h-18.625c-.28 4.639-.677 9.196-1.186 13.658h19.811c.259 0 .452.068.576.203.125.135.178.334.157.592-.013.147-1.273 14.808-10.055 29.497-5.908 9.881-13.685 17.266-23.253 22.131-2.648 6.504-5.611 12.469-8.849 17.808 22.992-5.989 36.32-20.381 43.824-32.93 10.401-17.397 11.889-34.689 11.947-35.417.324-4.035-1.039-8.025-3.734-10.946z" fill="#ffb100"/><path d="m205.432 89.08c-9.431-4.798-17.126-12.039-23.002-21.711-8.922-14.683-10.291-29.77-10.301-29.905-.021-.258.031-.457.156-.592.124-.135.317-.203.577-.203h19.811c-.51-4.462-.906-9.018-1.186-13.658h-18.625c-4.049 0-7.917 1.675-10.613 4.596s-4.058 6.911-3.735 10.945c.059.728 1.546 18.02 11.947 35.417 7.504 12.549 20.832 26.94 43.824 32.93-3.239-5.341-6.203-11.31-8.853-17.819z" fill="#ffb100"/><path d="m277.955 176.717-8.699-42.918c-4.269 1.699-8.7 2.588-13.256 2.588-5.214 0-10.265-1.17-15.096-3.38l-8.859 43.71z" fill="#ffc900"/><path d="m248.341 176.717 8.178-40.342c-.173.002-.345.013-.519.013-5.214 0-10.265-1.17-15.096-3.38l-8.859 43.71h16.296z" fill="#ffb100"/><path d="m296.298 199.717v-19c0-2.75-2.25-5-5-5h-70.596c-2.75 0-5 2.25-5 5v19z" fill="#fed402"/><path d="m243 199.717v-19c0-2.75 2.25-5 5-5h-27.298c-2.75 0-5 2.25-5 5v19z" fill="#ffc900"/><path d="m198.702 216h114.596v23.236h-114.596z" fill="#015a9a"/><path d="m198.702 216h27.298v23.236h-27.298z" fill="#015a9a"/><path d="m319.298 212c0 2.75-2.25 5-5 5h-116.596c-2.75 0-5-2.25-5-5v-8.283c0-2.75 2.25-5 5-5h116.596c2.75 0 5 2.25 5 5z" fill="#015a9a"/><path d="m220 212v-8.283c0-2.75 2.25-5 5-5h-27.298c-2.75 0-5 2.25-5 5v8.283c0 2.75 2.25 5 5 5h27.298c-2.75 0-5-2.25-5-5z" fill="#015a9a"/><path d="m69.397 315.102v110.64c13.619 15.994 29.264 30.203 46.525 42.258h72.024v-152.898z" fill="#fd3581"/><path d="m69.397 315.102v110.64c6.723 7.895 13.944 15.35 21.603 22.334v-132.974z" fill="#fe0364"/><path d="m187.947 290.693h-123.673c-2.75 0-5 2.25-5 5v15.409c0 2.75 2.25 5 5 5h123.673z" fill="#fe0364"/><path d="m86.549 311.102v-15.409c0-2.75 2.25-5 5-5h-27.275c-2.75 0-5 2.25-5 5v15.409c0 2.75 2.25 5 5 5h27.274c-2.749 0-4.999-2.25-4.999-5z" fill="#c20148"/><path d="m324.053 355.265v112.735h72.027c17.028-11.892 32.485-25.879 45.974-41.609v-71.126z" fill="#fd3581"/><path d="m324.053 355.265h23.841v112.735h-23.841z" fill="#fe0364"/><path d="m447.726 330.856h-123.673v25.409h123.673c2.75 0 5-2.25 5-5v-15.409c0-2.75-2.25-5-5-5z" fill="#fe0364"/><path d="m351 330.856h-26.947v25.409h26.947c-2.75 0-5-2.25-5-5v-15.409c0-2.75 2.25-5 5-5z" fill="#c20148"/><path d="m186.947 262.646h138.105v205.354h-138.105z" fill="#fd3581"/><path d="m186.947 262.646h27.053v205.354h-27.053z" fill="#fe0364"/><path d="m334.226 258.646c0 2.75-2.25 5-5 5h-146.452c-2.75 0-5-2.25-5-5v-15.409c0-2.75 2.25-5 5-5h146.451c2.75 0 5 2.25 5 5v15.409z" fill="#fe0364"/><path d="m205 258.646v-15.409c0-2.75 2.25-5 5-5h-27.226c-2.75 0-5 2.25-5 5v15.409c0 2.75 2.25 5 5 5h27.226c-2.75 0-5-2.25-5-5z" fill="#c20148"/><path d="m114.463 467c39.973 28.339 88.809 45 141.537 45s101.565-16.661 141.537-45z" fill="#eb6000"/><path d="m256 137.388c-37.01 0-66-57.39-66-130.653 0-3.72 3.016-6.735 6.734-6.735h118.531c3.719 0 6.735 3.015 6.735 6.735 0 73.263-28.99 130.653-66 130.653z" fill="#fed402"/><path d="m210 6.735c0-3.72 3.016-6.735 6.734-6.735h-20c-3.718 0-6.734 3.015-6.734 6.735 0 73.263 28.99 130.653 66 130.653 3.407 0 6.745-.49 10-1.431-32.101-9.274-56-62.703-56-129.222z" fill="#ffc900"/><circle cx="256" cy="64" fill="#fee45a" r="31"/><path d="m240 64c0-14.534 10.004-26.727 23.5-30.081-2.402-.597-4.913-.919-7.5-.919-17.121 0-31 13.879-31 31s13.879 31 31 31c2.587 0 5.098-.322 7.5-.919-13.496-3.354-23.5-15.547-23.5-30.081z" fill="#fedf30"/><path d="m254.824 372c-.553 0-1-.448-1-1v-51.206h-7.701c-.553 0-1-.448-1-1v-11.052c0-.552.447-1 1-1h12.053c5.773 0 8.701 2.928 8.701 8.701v55.557c0 .552-.447 1-1 1z" fill="#fff"/><path d="m103.794 420c-.553 0-1-.448-1-1v-29.497c0-5.745 2.928-8.658 8.701-8.658h30.454v-13.051l-38.155.043c-.265 0-.52-.105-.707-.293s-.293-.442-.293-.707v-11.094c0-.552.447-1 1-1h42.505c5.773 0 8.701 2.928 8.701 8.701v21.752c0 5.745-2.928 8.658-8.701 8.658h-30.453v13.095l38.154-.043c.265 0 .52.105.707.292s.293.442.293.708v11.094c0 .552-.447 1-1 1z" fill="#fff"/><path d="m361.494 439c-.553 0-1-.448-1-1v-11.052c0-.552.447-1 1-1h29.454v-13.051h-20.753c-.553 0-1-.448-1-1v-11.052c0-.552.447-1 1-1h20.753v-13.051h-29.454c-.553 0-1-.448-1-1v-11.052c0-.552.447-1 1-1h33.805c5.773 0 8.701 2.928 8.701 8.701v47.855c0 5.773-2.928 8.701-8.701 8.701h-33.805z" fill="#fff"/></svg>