<svg id="Capa_1" enable-background="new 0 0 512 512" height="512" viewBox="0 0 512 512" width="512" xmlns="http://www.w3.org/2000/svg"><circle cx="245" cy="256" fill="#a7e8f1" r="245"/><path d="m466.111 253-22.121 21.713c-5.834 5.835-14.443 7.262-21.671 4.341-21.39 15.091-48.987 17.48-72.347 7.165l-16.701 16.702 23.544 23.614h-257.112l73.012-73.012-.41-.523h-172.267c-.013 1-.038 1.997-.038 3 0 135.31 109.689 245 245 245 135.309 0 245-109.69 245-245 0-1.003-.025-2-.038-3z" fill="#0078c8"/><path d="m149.233 326.535h-138.909c3.678 12.254 8.292 24.102 13.754 35.465h4.414c-3.107-1.573-5.22-4.566-5.22-7.986 0-5.037 4.579-9.16 10.177-9.16h115.784c5.6 0 10.178-4.123 10.178-9.16s-4.578-9.159-10.178-9.159z" fill="#3c87d0"/><path d="m15.059 251.5c0-2.265.567-4.397 1.557-6.274-2.341-4.861-7.3-8.225-13.057-8.225h-2.831c-.481 6.27-.728 12.605-.728 18.999 0 3.351.086 6.682.22 10h3.339c5.757 0 10.716-3.364 13.057-8.226-.991-1.876-1.557-4.009-1.557-6.274z" fill="#fd3581"/><path d="m76.059 251.5c0-2.265.567-4.397 1.557-6.274-2.341-4.861-7.3-8.225-13.057-8.225h-36c-8.008 0-14.5 6.492-14.5 14.499 0 8.008 6.492 14.5 14.5 14.5h36c5.754 0 10.711-3.36 13.054-8.218-.996-1.893-1.554-4.033-1.554-6.282z" fill="#fe0364"/><path d="m484.5 237.001h-11.421l-4.69 4.689.184.579c1.02 3.22.173 6.699-2.209 9.082l-14.924 14.649h33.06c1.88 0 3.671-.369 5.319-1.02.107-2.982.181-5.972.181-8.98 0-6.108-.231-12.162-.67-18.158-1.514-.535-3.134-.841-4.83-.841z" fill="#fe0364"/><path d="m161.036 237.001h-10.478c-5.763 0-10.726 3.371-13.064 8.24 1.001 1.895 1.564 4.033 1.564 6.259 0 2.265-.566 4.398-1.557 6.274 2.341 4.862 7.3 8.226 13.057 8.226h11.094l12.396-12.396z" fill="#fe0364"/><path d="m313.19 248.117c-1.604-3.634-2.89-7.338-3.876-11.078-.252-.013-.5-.038-.756-.038h-36c-1.904 0-3.718.377-5.384 1.044l27.873 27.955h1.164l17.256-17.257z" fill="#fe0364"/><path d="m328.31 270.185c-6.558-6.558-11.693-14.154-15.291-22.408l-18.098 18.098 37.643 37.753 18.152-18.152c-8.251-3.599-15.848-8.734-22.406-15.291z" fill="#fdb97e"/><path d="m488.598 109.898c-31.203-31.204-81.795-31.204-113 0l-20.236 20.238c1.147.241 2.246.684 3.23 1.357l3.744 2.562.567-.402c5.717-4.045 11.264-6.011 16.958-6.011 15.505 0 30.275 14.923 47.379 32.202l11.424 11.423c23.471 23.23 42.009 41.579 26.392 64.031l-.394.566 2.766 4.041c.611.894 1.042 1.865 1.296 2.867l19.874-19.874c31.203-31.205 31.203-81.796 0-113z" fill="#01998d"/><path d="m359.156 130.667 3.17 2.168c10.925-7.73 20.866-7.654 30.771-2.932l8.626-8.627c20.302-20.301 48.808-27.381 74.844-21.266-31.061-20.854-73.516-17.566-100.97 9.887l-19.396 19.398c1.031.289 2.031.74 2.955 1.372z" fill="#037e73"/><path d="m331.88 158.455c-2.566-3.595-2.163-8.471.96-11.594l4.063-4.062c-1.838.928-3.563 2.148-5.092 3.677l-8.029 8.029c-6.125 6.126-7.404 15.314-3.882 22.745 2.478-3.567 5.274-6.949 8.411-10.085l5.711-5.711z" fill="#fdb97e"/><path d="m452.06 265.655c-1.7 1.699-3.961 2.635-6.367 2.635-1.885 0-3.692-.58-5.228-1.676l-3.245-2.318-5.888 5.888c-3.137 3.136-6.517 5.934-10.086 8.411 7.432 3.522 16.619 2.243 22.744-3.882l8.029-8.029c1.267-1.267 2.315-2.67 3.168-4.157z" fill="#fea95c"/><path d="m391.191 153.798c.458.314.89.673 1.281 1.064.101.101.2.205.296.311 6.987 7.696 8.726 18.773 4.432 28.223l-.287.631 17.693 17.694.636-.298c3.424-1.607 7.24-2.456 11.036-2.456 6.464 0 12.667 2.4 17.467 6.757.108.098.213.198.315.299.392.392.75.824 1.063 1.282l20.134 29.426c18.532-25.394-5.166-45.413-31.622-71.87-26.563-26.562-46.635-50.348-72.173-31.405z" fill="#fdb97e"/><path d="m408.511 243.791c-.401-.287-.783-.61-1.135-.96-.086-.087-.176-.18-.262-.274-6.986-7.614-8.813-18.62-4.658-28.043l.276-.626-17.837-17.837-.631.288c-3.396 1.547-7.016 2.331-10.756 2.331-6.506 0-12.744-2.436-17.565-6.859-.099-.09-.191-.179-.282-.27-.348-.348-.671-.73-.957-1.13l-21.272-29.781-5.828 5.829c-28.84 28.839-28.838 75.596 0 104.435s75.596 28.839 104.436 0l6.006-6.006z" fill="#fdb97e"/><path d="m379.909 146.078c8.81-7.464 16.942-9.841 24.863-8.688-14.211-11.154-27.745-15.479-43.31-3.934z" fill="#fea95c"/><path d="m331.998 255.558-3.369-3.37c-5.893-5.892-6.379-15.124-1.494-21.589-.355-18.432 6.15-36.973 19.517-51.464l-13.22-18.507-5.828 5.829c-28.84 28.839-28.838 75.596 0 104.435 8.809 8.809 19.294 14.913 30.426 18.34-3.253-2.33-6.365-4.94-9.287-7.861-7.582-7.582-13.15-16.407-16.745-25.813z" fill="#fea95c"/><path d="m431.416 143.124c-.56-.562-.844-1.372-.713-2.197.186-1.164 1.145-2.049 2.32-2.137l16.414-1.244 1.246-16.411c.088-1.176.973-2.135 2.137-2.319.824-.131 1.635.15 2.197.713.232.232.422.512.553.831l13.953 33.953c.389.949.17 2.039-.555 2.764-.725.726-1.816.944-2.764.555l-33.957-13.955c-.317-.13-.597-.321-.831-.553z" fill="#00c285"/><path d="m380.585 217.097 12.679-12.679-8.368-8.368-.631.288c-1.941.884-3.957 1.51-6.024 1.892l-10.03 10.029c-4.872 4.874-4.872 12.803.001 17.678l7.885 7.883c1.464 1.464 3.384 2.196 5.303 2.196 1.92 0 3.839-.732 5.304-2.197 2.929-2.929 2.929-7.678-.001-10.606z" fill="#eb6000"/><path d="m407.886 206.591c2.259-2.259 4.86-4.045 7.683-5.323l-18.215-18.215c-1.267 2.898-3.08 5.614-5.449 7.983-2.34 2.339-5.044 4.173-7.978 5.46l18.372 18.372c1.271-3.008 3.135-5.825 5.587-8.277z" fill="#015a9a"/><path d="m354.957 192.251c.102.101.205.2.311.296 10.685 9.805 27.088 9.452 37.344-.804 10.201-10.202 10.598-26.559.9-37.239-.107-.119-.219-.236-.332-.349-.438-.437-.914-.832-1.424-1.182l-32.6-22.306c-3.971-2.717-9.316-2.221-12.719 1.182l-14.305 14.305c-3.455 3.456-3.906 8.905-1.066 12.882l22.824 31.955c.321.449.678.87 1.067 1.26z" fill="#015a9a"/><path d="m367.475 136.359 24.281 16.614c.51.35.986.745 1.424 1.182.113.113.225.23.332.349 9.697 10.68 9.301 27.037-.9 37.239-10.256 10.256-26.658 10.609-37.344.804-.105-.096-.209-.195-.311-.296-.389-.39-.746-.811-1.066-1.26l-16.791-23.51s3.9-26.481 30.375-31.122z" fill="#0078c8"/><path d="m376.113 142.27-8.639-5.911c-26.474 4.641-30.374 31.122-30.374 31.122l6.127 8.579c1.475-6.443 8.279-28.467 32.886-33.79z" fill="#0078c8"/><path d="m369.641 269.866c-6.443 6.444-16.891 6.443-23.334 0l-17.678-17.678c-6.443-6.443-6.443-16.891 0-23.335 6.443-6.444 16.891-6.443 23.334 0l17.678 17.678c6.443 6.444 6.443 16.891 0 23.335z" fill="#f46700"/><path d="m339.084 239.76c5.283-5.284 12.963-6.688 19.537-4.248l-6.658-6.659c-6.443-6.443-16.891-6.444-23.334 0s-6.443 16.891 0 23.335l5.752 5.752c-1.782-6.251-.22-13.256 4.703-18.18z" fill="#eb6000"/><path d="m356.815 326.535-205.737-206.348h84.319c3.192 3.837 7.706 6.573 12.876 7.397.182.029.35.116.482.247l23.873 23.875c2.094 2.094 4.852 3.295 7.57 3.295 2.135 0 4.068-.759 5.447-2.139 1.559-1.559 2.307-3.762 2.109-6.198-.199-2.458-1.391-4.944-3.266-6.819l-10.494-10.496c-.254-.251-.328-.627-.193-.958.139-.329.457-.542.814-.542h56.619c4.365 0 7.916-2.959 7.916-6.598 0-3.638-3.551-6.597-7.916-6.597h-35.554c-.484 0-.879-.395-.879-.88v-4.398c0-.485.395-.879.879-.879h46.494c4.367 0 7.918-2.959 7.918-6.597s-3.551-6.598-7.918-6.598h-46.494c-.484 0-.879-.394-.879-.879v-4.398c0-.485.395-.88.879-.88h50.141c4.365 0 7.918-2.959 7.918-6.597s-3.553-6.597-7.918-6.597h-50.141c-.484 0-.879-.395-.879-.879v-4.398c0-.485.395-.88.879-.88h30.904c4.365 0 7.918-2.96 7.918-6.597 0-3.638-3.553-6.597-7.918-6.597h-75c-4.84 0-9.291 1.654-12.855 4.403h-141.34c-25.143-.003-34.059 16.803-36.192 21.953s-7.713 23.337 10.066 41.118l101.451 129.449-73.012 73.012z" fill="#fea95c"/><path d="m98.448 124.074c-17.779-17.781-12.199-35.968-10.066-41.118s11.049-21.956 36.191-21.956h-27.184c-25.143 0-34.059 16.806-36.192 21.956s-7.713 23.337 10.066 41.118l101.451 129.449-73.012 73.012h27.185l73.012-73.012z" fill="#ff9240"/><path d="m441.118 364.036h-10.236c2.111 1.254 3.874 3.023 5.118 5.141 1.244-2.118 3.007-3.887 5.118-5.141z" fill="#7bacdf"/><path d="m448.5 391c-5.333 0-9.981-2.888-12.5-7.177-2.519 4.29-7.167 7.177-12.5 7.177h-36c-5.333 0-9.981-2.888-12.5-7.177-1.529 2.604-3.84 4.688-6.619 5.924h9.232c7.855 0 14.281 5.785 14.281 12.854 0 7.071-6.426 12.854-14.281 12.854h-162.494c-7.859 0-14.285 5.785-14.285 12.856s6.426 12.855 14.285 12.855h190.293c16.855-14.617 31.692-31.498 44.043-50.167h-.955z" fill="#3c87d0"/><g fill="#7bacdf"><path d="m380.118 364.036h-10.236c2.111 1.254 3.874 3.023 5.118 5.141 1.244-2.118 3.007-3.887 5.118-5.141z"/><path d="m204.5 391c-5.333 0-9.981-2.888-12.5-7.177-2.519 4.29-7.167 7.177-12.5 7.177h-11.533c1.902 4.099 6.406 7 11.629 7h41.742c5.222 0 9.726-2.901 11.628-7z"/><path d="m433.404 326.822h-41.742c-6.928 0-12.596 5.102-12.596 11.336 0 6.235 5.668 11.336 12.596 11.336h41.742c6.926 0 12.596-5.102 12.596-11.336 0-6.235-5.67-11.336-12.596-11.336z"/><path d="m101.404 414.167h-43.504c6.783 8.016 14.072 15.589 21.816 22.672h21.688c6.926 0 12.596-5.102 12.596-11.336s-5.67-11.336-12.596-11.336z"/><circle cx="86.5" cy="215.5" r="10.5"/></g><path d="m130.533 237.895c-2.66 3.12-6.612 5.105-11.033 5.105-4.829 0-9.095-2.37-11.729-5.999h-18.212c-8.008 0-14.5 6.492-14.5 14.499 0 6.442 4.205 11.897 10.018 13.786.602-5.226 5.034-9.286 10.423-9.286 5.63 0 10.212 4.435 10.475 10h19.584c8.008 0 14.5-6.492 14.5-14.5 0-6.257-3.972-11.573-9.526-13.605z" fill="#fd3581"/><path d="m69 376.5c0-2.265.567-4.397 1.557-6.274-2.341-4.861-7.3-8.225-13.057-8.225h-33.441c4.84 10.07 10.359 19.75 16.479 28.999h16.962c5.757 0 10.716-3.364 13.057-8.226-.991-1.876-1.557-4.009-1.557-6.274z" fill="#fd3581"/><path d="m130 376.5c0-2.265.567-4.397 1.557-6.274-2.341-4.861-7.3-8.225-13.057-8.225h-36c-8.008 0-14.5 6.492-14.5 14.499 0 8.008 6.492 14.5 14.5 14.5h36c5.757 0 10.716-3.364 13.057-8.226-.991-1.876-1.557-4.009-1.557-6.274z" fill="#fe0364"/><path d="m191 376.5c0-2.265.567-4.397 1.557-6.274-2.341-4.861-7.3-8.225-13.057-8.225h-36c-8.008 0-14.5 6.492-14.5 14.499 0 8.008 6.492 14.5 14.5 14.5h36c5.757 0 10.716-3.364 13.057-8.226-.991-1.876-1.557-4.009-1.557-6.274z" fill="#fd3581"/><path d="m252 376.5c0-2.265.567-4.397 1.557-6.274-2.341-4.861-7.3-8.225-13.057-8.225h-36c-8.008 0-14.5 6.492-14.5 14.499 0 8.008 6.492 14.5 14.5 14.5h36c5.757 0 10.716-3.364 13.057-8.226-.991-1.876-1.557-4.009-1.557-6.274z" fill="#fe0364"/><path d="m313 376.5c0-2.265.566-4.397 1.557-6.274-2.341-4.861-7.3-8.225-13.057-8.225h-36c-8.008 0-14.5 6.492-14.5 14.499 0 8.008 6.492 14.5 14.5 14.5h36c5.757 0 10.716-3.364 13.057-8.226-.991-1.876-1.557-4.009-1.557-6.274z" fill="#fd3581"/><path d="m374 376.5c0-2.265.566-4.397 1.557-6.274-2.341-4.861-7.3-8.225-13.057-8.225h-36c-8.008 0-14.5 6.492-14.5 14.499 0 8.008 6.492 14.5 14.5 14.5h36c5.757 0 10.716-3.364 13.057-8.226-.991-1.876-1.557-4.009-1.557-6.274z" fill="#fe0364"/><path d="m435 376.5c0-2.265.566-4.397 1.557-6.274-2.341-4.861-7.3-8.225-13.057-8.225h-36c-8.008 0-14.5 6.492-14.5 14.499 0 8.008 6.492 14.5 14.5 14.5h36c5.757 0 10.716-3.364 13.057-8.226-.991-1.876-1.557-4.009-1.557-6.274z" fill="#fd3581"/><path d="m448.5 362.001c-8.008 0-14.5 6.492-14.5 14.499 0 8.008 6.492 14.5 14.5 14.5h.962c6.119-9.249 11.64-18.929 16.479-28.999z" fill="#fe0364"/><path d="m406.67 243.538c-.101-.102-.2-.205-.296-.311-9.805-10.686-9.451-27.088.805-37.344 10.201-10.201 26.559-10.598 37.238-.9.119.107.236.219.35.332.436.438.832.914 1.182 1.424l22.305 32.6c2.718 3.971 2.221 9.316-1.182 12.719l-14.305 14.305c-3.456 3.455-8.905 3.906-12.883 1.066l-31.954-22.824c-.449-.321-.87-.678-1.26-1.067z" fill="#015a9a"/><path d="m462.561 231.021-16.613-24.281c-.35-.51-.745-.986-1.182-1.424-.113-.113-.23-.225-.35-.332-10.68-9.697-27.037-9.301-37.238.9-10.256 10.256-10.609 26.658-.805 37.344.096.105.195.209.296.311.39.389.812.746 1.26 1.066l23.51 16.791c.001 0 26.482-3.901 31.122-30.375z" fill="#0078c8"/><path d="m415.416 214.121c8.839-8.839 22.297-10.311 32.682-4.24l-2.149-3.142c-.35-.51-.745-.986-1.182-1.424-.113-.113-.23-.225-.35-.332-10.68-9.697-27.037-9.301-37.238.9-10.256 10.256-10.609 26.658-.805 37.344.096.105.195.209.296.311.39.389.812.746 1.26 1.066l3.36 2.4c-6.218-10.411-4.789-23.968 4.126-32.883z" fill="#0078c8"/><circle cx="119.5" cy="228.5" fill="#7bacdf" r="14.5"/></svg>