<svg id="Capa_1" enable-background="new 0 0 512 512" height="512" viewBox="0 0 512 512" width="512" xmlns="http://www.w3.org/2000/svg"><circle cx="256" cy="267" fill="#0078c8" r="245"/><circle cx="256" cy="267" fill="#7bacdf" r="245"/><path d="m89.584 387h-47.209c12.569 22.332 28.542 42.488 47.209 59.779z" fill="#5ee2c5"/><path d="m418.446 325.001v41c0 3.257-.884 6.479-2.558 9.317l-.139.235v37.447c0 1.259-.595 2.425-1.633 3.198l-.367.273v37.966c39.165-33.002 67.849-78.047 80.325-129.436z" fill="#5ee2c5"/><path d="m370.383 416.198c-1.038-.773-1.633-1.939-1.633-3.198v-29.2l-.594-.264c-3.74-1.663-6.156-5.369-6.156-9.442 0-3.275 1.515-6.288 4.155-8.266.688-.518 1.099-1.338 1.099-2.195 0-.858-.41-1.679-1.098-2.195-2.434-1.822-3.894-4.489-4.111-7.51l-.066-.928h-37.8c-2.206 0-4-1.794-4-4v-49h-18.068v57.673c0 .69-.15 1.263-.422 1.611-.212.273-.495.405-.862.405-.418 0-.917-.172-1.441-.497l-50.903-31.491-10.414 13.162c-.632.798-1.455 1.238-2.318 1.238s-1.686-.44-2.318-1.238l-10.414-13.162-50.902 31.49c-.525.325-1.023.497-1.441.497-1.16 0-1.285-1.41-1.285-2.016v-57.672h-48.391v171.443c38.709 25.621 85.104 40.557 135 40.557 41.467 0 80.517-10.319 114.75-28.507v-67.018z" fill="#c7e7ff"/><path d="m89.584 300h-76.364c4.262 31.649 14.56 61.382 29.709 88h46.655z" fill="#554e56"/><g fill="#433f43"><path d="m370.75 416.475-.367-.277c-1.038-.773-1.633-1.939-1.633-3.198v-29.2l-.594-.264c-3.74-1.663-6.156-5.369-6.156-9.442 0-3.275 1.515-6.288 4.155-8.266.688-.518 1.099-1.338 1.099-2.195 0-.858-.41-1.679-1.098-2.195-2.434-1.822-3.894-4.489-4.111-7.51l-.066-.928h-11.479v140.1c6.922-2.896 13.668-6.122 20.25-9.619z"/><path d="m320.179 349v-49h-18.068v57.673c0 .69-.15 1.263-.422 1.611-.212.273-.495.405-.862.405-.418 0-.917-.172-1.441-.497l-15.823-9.789v161.044c13.089-1.465 25.867-3.956 38.25-7.401v-150.839c-.986-.729-1.634-1.89-1.634-3.207z"/><path d="m248.482 327.701-10.414 13.162c-.632.798-1.455 1.238-2.318 1.238s-1.686-.44-2.318-1.238l-10.414-13.162-6.393 3.955v177.179c12.461 2.014 25.234 3.092 38.25 3.151v-180.33z"/><path d="m172.115 359.191c-.525.325-1.023.497-1.441.497-1.16 0-1.285-1.41-1.285-2.016v-57.672h-19.702v187.793c12.219 5.895 25.006 10.795 38.25 14.618v-153.008z"/><path d="m88.584 300v145.82c10.341 9.686 21.516 18.49 33.416 26.283v-172.103z"/></g><path d="m210.201 311.502c-1.565-1.977-2.887-5.778-2.887-8.3v-19.549c-7.1-2.403-13.798-5.683-19.971-9.705l-14.624 8.443c-2.381 1.375-4.33 4.75-4.33 7.5v67.781c0 2.75 1.913 3.816 4.252 2.37l51.001-31.552z" fill="#6c646d"/><path d="m298.781 282.391-14.624-8.443c-6.173 4.022-12.871 7.302-19.971 9.705v19.549c0 2.522-1.322 6.323-2.887 8.3l-13.441 16.988 51.001 31.552c2.338 1.447 4.252.38 4.252-2.37v-67.782c0-2.749-1.949-6.124-4.33-7.499z" fill="#6c646d"/><path d="m187.343 273.948-14.624 8.443c-2.381 1.375-4.33 4.75-4.33 7.5v67.781c0 2.75 1.913 3.816 4.252 2.37l17.637-10.911v-53.928c0-2.75 1.949-6.125 4.33-7.5l9.213-5.319c-5.81-2.244-11.328-5.08-16.478-8.436z" fill="#554e56"/><path d="m235.75 288.316c-10.313 0-20.218-1.771-29.436-5.015v19.9c0 2.75 1.396 6.765 3.103 8.921l23.231 29.36c1.706 2.156 4.498 2.156 6.205 0l23.231-29.36c1.707-2.156 3.103-6.171 3.103-8.921v-19.9c-9.219 3.244-19.124 5.015-29.437 5.015z" fill="#c5573a"/><path d="m228.128 303.202v-15.216c-7.581-.647-14.892-2.249-21.814-4.684v19.9c0 2.75 1.396 6.765 3.103 8.921l23.231 29.36c1.706 2.156 4.498 2.156 6.205 0l7.805-9.864-15.427-19.497c-1.707-2.155-3.103-6.17-3.103-8.92z" fill="#a94b30"/><path d="m136.49 150.299c-.818.841-1.741 1.54-2.74 2.085v8.744c1.716-.579 3.546-.906 5.455-.906h7.631v-19.566c-3.576 3.019-7.029 6.236-10.346 9.643z" fill="#554e56"/><path d="m335.01 150.299c-3.317-3.407-6.77-6.624-10.346-9.643v19.567h7.631c1.909 0 3.739.327 5.455.906v-8.744c-.999-.546-1.921-1.245-2.74-2.086z" fill="#554e56"/><path d="m146.836 199.402v-40.179h-7.631c-9.972 0-18.13 8.159-18.13 18.131v24.476c0 9.972 8.158 18.13 18.13 18.13h10.035c-1.569-6.602-2.404-13.484-2.404-20.558z" fill="#a94b30"/><path d="m332.295 159.223h-7.631v40.179c0 7.074-.835 13.957-2.404 20.558h10.035c9.972 0 18.13-8.159 18.13-18.13v-24.476c.001-9.973-8.157-18.131-18.13-18.131z" fill="#c5573a"/><path d="m235.75 108c-33.215 0-64.693 11.823-89.914 33.522v57.88c0 49.658 40.256 89.915 89.914 89.915s89.914-40.257 89.914-89.915v-57.88c-25.221-21.699-56.699-33.522-89.914-33.522z" fill="#d8694b"/><path d="m167.172 199.402v-73.046c-7.498 4.332-14.637 9.402-21.336 15.166v57.88c0 49.658 40.256 89.915 89.914 89.915 3.61 0 7.169-.219 10.668-.633-44.628-5.277-79.246-43.235-79.246-89.282z" fill="#c5573a"/><path d="m200.167 178.954c0 7.725-6.321 14.046-14.045 14.046-7.725 0-14.046-6.321-14.046-14.046v-14.046c0-7.725 6.321-14.045 14.046-14.045 7.725 0 14.045 6.32 14.045 14.045z" fill="#554e56"/><path d="m299.424 178.954c0 7.725-6.321 14.046-14.046 14.046-7.725 0-14.045-6.321-14.045-14.046v-14.046c0-7.725 6.321-14.045 14.045-14.045 7.725 0 14.046 6.32 14.046 14.045z" fill="#554e56"/><path d="m244.645 212.542h-13.109c-6.717 0-12.182-5.464-12.182-12.181v-23.41c0-4.142 3.358-7.5 7.5-7.5s7.5 3.358 7.5 7.5v20.591h10.291c4.142 0 7.5 3.358 7.5 7.5s-3.357 7.5-7.5 7.5z" fill="#a94b30"/><path d="m257.287 245.315h-43.073c-4.142 0-7.5-3.358-7.5-7.5s3.358-7.5 7.5-7.5h43.073c4.142 0 7.5 3.358 7.5 7.5 0 4.143-3.358 7.5-7.5 7.5z" fill="#a94b30"/><path d="m235.75 85c38.292 0 74.579 13.422 103.774 38.1v-19.325c0-57.314-46.46-103.775-103.774-103.775s-103.774 46.461-103.774 103.774v19.326c29.195-24.678 65.482-38.1 103.774-38.1z" fill="#c7e7ff"/><path d="m159 104.549v-.774c0-52.734 39.333-96.277 90.262-102.899-4.423-.576-8.932-.876-13.512-.876-57.314 0-103.774 46.461-103.774 103.774v19.326c8.454-7.146 17.504-13.346 27.024-18.551z" fill="#b4dbff"/><path d="m235.75 85c4.362 0 8.697.182 13 .527v-84.718c-4.259-.533-8.597-.809-13-.809s-8.741.276-13 .809v84.718c4.303-.345 8.638-.527 13-.527z" fill="#b4dbff"/><path d="m343.251 154.777c-3.256 0-6.507-1.264-8.958-3.781-26.364-27.081-61.361-41.996-98.543-41.996s-72.179 14.915-98.544 41.997c-4.816 4.947-12.73 5.053-17.676.237-4.947-4.815-5.053-12.729-.237-17.676 31.111-31.958 72.47-49.558 116.457-49.558s85.346 17.6 116.457 49.558c4.816 4.946 4.709 12.86-.237 17.676-2.43 2.365-5.576 3.543-8.719 3.543z" fill="#fff"/><path d="m369.75 417v67.029c16.147-8.48 31.23-18.707 45-30.434v-36.595z" fill="#d8694b"/><path d="m369.75 417v67.029c6.959-3.655 13.707-7.653 20.25-11.936v-55.093z" fill="#c5573a"/><path d="m400.02 384.427h-27.688c-1.647 0-3.199-.397-4.582-1.085v29.658c0 2.75 2.25 5 5 5h39c2.75 0 5-2.25 5-5v-39.324c-2.918 6.334-9.311 10.751-16.73 10.751z" fill="#6c646d"/><path d="m372.332 384.427c-1.647 0-3.199-.397-4.582-1.085v29.658c0 2.75 2.25 5 5 5h17.05v-33.573z" fill="#554e56"/><path d="m362 353.173c0-3.275 1.515-6.286 4.155-8.264.688-.515 1.099-1.336 1.099-2.195 0-.857-.41-1.677-1.097-2.193-2.642-1.979-4.157-4.993-4.157-8.268 0-3.274 1.515-6.287 4.155-8.265.688-.517 1.099-1.337 1.099-2.195s-.41-1.679-1.098-2.195c-2.642-1.978-4.156-4.99-4.156-8.265 0-5.697 4.635-10.332 10.332-10.332h20.418v-45c0-2.75-2.25-5-5-5h-63.571c-2.75 0-5 2.25-5 5v93c0 2.75 2.25 5 5 5h37.869c-.022-.275-.048-.549-.048-.828z" fill="#fee45a"/><path d="m346.429 349v-93c0-2.75 2.25-5 5-5h-27.25c-2.75 0-5 2.25-5 5v93c0 2.75 2.25 5 5 5h27.25c-2.75 0-5-2.25-5-5z" fill="#fed402"/><path d="m400.02 385.427c10.711 0 19.426-8.715 19.426-19.427v-46.574c0-10.712-8.715-19.426-19.426-19.426h-27.688c-6.249 0-11.332 5.084-11.332 11.332 0 3.593 1.66 6.896 4.556 9.065.438.329.698.847.698 1.396 0 .548-.26 1.065-.698 1.395-2.896 2.169-4.556 5.474-4.556 9.065 0 3.593 1.66 6.897 4.556 9.066.438.33.698.846.698 1.395 0 .548-.26 1.067-.698 1.395-2.896 2.169-4.556 5.472-4.556 9.065s1.66 6.897 4.556 9.065c.438.329.698.846.698 1.396 0 .549-.26 1.065-.698 1.395-2.896 2.169-4.556 5.473-4.556 9.066 0 6.247 5.084 11.333 11.332 11.333h27.688z" fill="#d8694b"/><path d="m382.762 374.095c0-3.593 1.66-6.897 4.556-9.066.438-.33.698-.846.698-1.395s-.26-1.066-.698-1.396c-2.896-2.168-4.556-5.472-4.556-9.065 0-3.592 1.66-6.896 4.556-9.065.438-.328.698-.847.698-1.395s-.26-1.065-.698-1.395c-2.896-2.169-4.556-5.474-4.556-9.066s1.66-6.896 4.556-9.065c.438-.329.698-.846.698-1.395s-.26-1.067-.698-1.396c-2.896-2.169-4.556-5.471-4.556-9.065 0-6.248 5.084-11.332 11.332-11.332h-21.762c-6.249 0-11.332 5.084-11.332 11.332 0 3.593 1.66 6.896 4.556 9.065.438.329.698.847.698 1.396 0 .548-.26 1.065-.698 1.395-2.896 2.169-4.556 5.474-4.556 9.065 0 3.593 1.66 6.897 4.556 9.066.438.33.698.846.698 1.395 0 .548-.26 1.067-.698 1.395-2.896 2.169-4.556 5.472-4.556 9.065s1.66 6.897 4.556 9.065c.438.329.698.846.698 1.396 0 .549-.26 1.065-.698 1.395-2.896 2.169-4.556 5.473-4.556 9.066 0 6.247 5.084 11.333 11.332 11.333h21.762c-6.248-.001-11.332-5.086-11.332-11.333z" fill="#c5573a"/></svg>