<svg id="Capa_1" enable-background="new 0 0 512 512" height="512" viewBox="0 0 512 512" width="512" xmlns="http://www.w3.org/2000/svg"><ellipse cx="256" cy="267" fill="#fee45a" rx="245" ry="245" transform="matrix(.707 -.707 .707 .707 -113.817 259.222)"/><path d="m256 9.996c-17.221 0-31.182 13.961-31.182 31.182 0 11.373 6.092 21.321 15.188 26.768v-23.768c0-2.205 1.794-3.999 3.999-3.999h23.991c2.205 0 3.999 1.794 3.999 3.999v23.769c9.096-5.447 15.188-15.395 15.188-26.768-.001-17.222-13.962-31.183-31.183-31.183z" fill="#fed402"/><path d="m256 0c-22.706 0-41.178 18.473-41.178 41.178 0 14.885 7.939 27.95 19.805 35.185 1.786-.199 3.579-.373 5.379-.523v-20.81c-3.224-3.718-5.191-8.554-5.191-13.851 0-11.682 9.503-21.186 21.186-21.186 11.682 0 21.186 9.504 21.186 21.186 0 5.297-1.968 10.133-5.192 13.851v20.81c1.8.151 3.593.325 5.379.523 11.866-7.235 19.805-20.3 19.805-35.185-.001-22.705-18.473-41.178-41.179-41.178z" fill="#004281"/><path d="m256 75.167c5.727 0 11.392.267 16.994.761v-31.75c0-2.749-2.249-4.998-4.998-4.998h-23.991c-2.749 0-4.998 2.249-4.998 4.998v31.749c5.601-.494 11.265-.76 16.993-.76z" fill="#3c87d0"/><path d="m254.001 75.192v-31.014c0-2.749 2.249-4.998 4.998-4.998h-14.995c-2.749 0-4.998 2.249-4.998 4.998v31.749c4.948-.436 9.948-.684 14.995-.735z" fill="#015a9a"/><path d="m397.251 115.542-10.857 10.858c7.684 7.127 14.787 14.871 21.225 23.157l11.824-11.824z" fill="#3c87d0"/><path d="m429.667 142.303c-1.944 1.944-5.124 1.944-7.069 0l-29.917-29.917c-1.944-1.944-1.944-5.125 0-7.069l30.615-30.615c1.944-1.944 5.125-1.944 7.068 0l29.918 29.917c1.944 1.944 1.944 5.125 0 7.068z" fill="#015a9a"/><path d="m406.94 121.509 32.351-32.352c1.099-1.099 2.569-1.59 4.016-1.514l-12.941-12.941c-1.944-1.944-5.124-1.944-7.068 0l-30.615 30.615c-1.944 1.944-1.944 5.125 0 7.069l12.73 12.73c.03-1.311.532-2.613 1.527-3.607z" fill="#004281"/><path d="m338.969 416.037c0-32.52 26.457-58.978 58.978-58.978 9.148 0 17.817 2.094 25.552 5.828 16.177-28.225 25.428-60.929 25.428-95.793 0-106.55-86.376-192.926-192.926-192.926-40.446 0-77.979 12.456-108.99 33.728.009.42.032.836.032 1.258 0 31.736-25.2 57.684-56.639 58.918-17.348 28.949-27.329 62.818-27.329 99.022 0 106.55 86.377 192.926 192.926 192.926 31.553 0 61.334-7.577 87.629-21.006-3.001-7.066-4.661-14.831-4.661-22.977z" fill="#015a9a"/><path d="m85.065 267.093c0-39.473 11.866-76.169 32.21-106.737-7.983 4.572-17.124 7.333-26.873 7.715-17.348 28.949-27.329 62.818-27.329 99.022 0 106.55 86.377 192.926 192.926 192.926 3.691 0 7.355-.114 10.996-.318-101.432-5.701-181.93-89.75-181.93-192.608z" fill="#004281"/><path d="m147.01 107.895c.009.42.032.836.032 1.258 0 6.794-1.168 13.316-3.292 19.395 32.272-31.271 75.431-51.374 123.247-54.062-3.641-.205-7.305-.319-10.996-.319-40.447 0-77.98 12.456-108.991 33.728z" fill="#004281"/><path d="m379.041 360.185c19.608-25.876 31.249-58.123 31.249-93.092 0-85.211-69.078-154.29-154.29-154.29s-154.29 69.079-154.29 154.29 69.078 154.289 154.29 154.289c32.305 0 62.286-9.935 87.068-26.907 6.338-16.075 19.535-28.71 35.973-34.29z" fill="#fff"/><path d="m129.048 267.093c0-80.604 61.813-146.76 140.62-153.68-4.504-.396-9.061-.61-13.668-.61-85.211 0-154.29 69.079-154.29 154.29s69.078 154.289 154.29 154.289c4.607 0 9.164-.214 13.668-.609-78.806-6.92-140.62-73.076-140.62-153.68z" fill="#c7e7ff"/><path d="m224.751 404.401c-4.039-.91-6.567-4.929-5.658-8.967.92-4.039 4.938-6.567 8.977-5.648 4.028.91 6.567 4.928 5.648 8.967-.79 3.479-3.879 5.837-7.297 5.837-.55 0-1.11-.059-1.67-.189zm53.661-5.668c-.92-4.039 1.609-8.057 5.647-8.977 4.028-.919 8.047 1.609 8.967 5.648.919 4.028-1.599 8.046-5.638 8.966-.56.13-1.12.19-1.68.19-3.418.001-6.507-2.359-7.296-5.827zm-110.119-21.502c-3.238-2.579-3.769-7.297-1.19-10.526 2.579-3.239 7.297-3.779 10.536-1.19 3.238 2.579 3.769 7.297 1.189 10.536-1.479 1.849-3.668 2.818-5.868 2.818-1.638.001-3.288-.528-4.667-1.638zm164.988-1.259c-2.589-3.239-2.059-7.957 1.179-10.536 3.228-2.589 7.947-2.059 10.536 1.18 2.579 3.228 2.059 7.947-1.18 10.536-1.379 1.1-3.039 1.64-4.678 1.64-2.199-.002-4.378-.971-5.857-2.82zm-204.103-47.662c-1.8-3.728-.24-8.207 3.488-10.006 3.719-1.81 8.207-.25 10.006 3.478 1.809 3.729.24 8.216-3.479 10.016-1.05.51-2.169.75-3.259.75-2.788 0-5.466-1.559-6.756-4.238zm243.697 3.368c-3.728-1.799-5.298-6.278-3.498-10.006 1.799-3.729 6.277-5.298 10.016-3.499 3.728 1.799 5.288 6.278 3.488 10.006-1.289 2.679-3.968 4.248-6.757 4.248-1.09.001-2.199-.239-3.249-.749zm-257.672-64.435c0-4.139 3.349-7.497 7.487-7.507 4.148 0 7.507 3.349 7.507 7.497.01 4.139-3.349 7.497-7.487 7.497-4.138.01-7.497-3.339-7.507-7.487zm266.599-.15c0-.03 0-.06 0-.1 0-.05 0-.109 0-.169-.01-4.148 3.339-7.508 7.477-7.518 4.139-.01 7.508 3.339 7.518 7.478v.01.16.14c0 4.138-3.359 7.497-7.498 7.497-4.138-.001-7.497-3.36-7.497-7.498zm-249.245-50.941c-3.738-1.8-5.298-6.278-3.508-10.016 1.799-3.729 6.277-5.298 10.006-3.499 3.729 1.789 5.298 6.268 3.509 10.006-1.29 2.679-3.969 4.248-6.767 4.248-1.091.001-2.191-.239-3.24-.739zm236.71-3.879c-1.81-3.718-.26-8.207 3.468-10.016 3.729-1.799 8.217-.25 10.017 3.479 1.809 3.729.26 8.208-3.469 10.016-1.059.51-2.169.75-3.268.75-2.78 0-5.459-1.549-6.748-4.229zm-202.373-44.602c-2.589-3.239-2.059-7.957 1.169-10.536 3.229-2.589 7.947-2.07 10.536 1.159 2.589 3.239 2.069 7.957-1.16 10.536-1.389 1.11-3.039 1.649-4.688 1.649-2.199.001-4.378-.959-5.857-2.808zm167.366.919h-.01c-3.238-2.579-3.769-7.297-1.2-10.536 2.579-3.239 7.297-3.779 10.536-1.2 3.239 2.579 3.779 7.297 1.2 10.536-1.479 1.859-3.659 2.829-5.868 2.829-1.639.001-3.278-.529-4.658-1.629zm-115.426-29.769c-.93-4.028 1.6-8.057 5.628-8.977 4.038-.919 8.057 1.6 8.987 5.638.92 4.028-1.6 8.057-5.638 8.977-.56.13-1.129.19-1.68.19-3.419 0-6.508-2.349-7.297-5.828zm64.965 5.549c-4.038-.91-6.578-4.918-5.668-8.956.91-4.039 4.928-6.578 8.967-5.669 4.039.91 6.578 4.928 5.668 8.967-.79 3.479-3.878 5.848-7.307 5.848-.55 0-1.1-.06-1.66-.19z" fill="#015a9a"/><ellipse cx="256" cy="267.093" fill="#6bd9e7" rx="93.313" ry="93.312" transform="matrix(.162 -.987 .987 .162 -49.11 476.336)"/><path d="m190.025 267.093c0-46.891 34.589-85.699 79.644-92.313-4.461-.655-9.025-1-13.668-1-51.535 0-93.313 41.778-93.313 93.313s41.778 93.313 93.313 93.313c4.644 0 9.207-.344 13.668-1-45.055-6.614-79.644-45.422-79.644-92.313z" fill="#2ed1e2"/><path d="m224.085 272.277-8.789 4.096c-3.753 1.749-5.378 6.21-3.628 9.962 1.271 2.729 3.976 4.332 6.8 4.332 1.06 0 2.138-.227 3.163-.704l8.247-3.844c-2.934-4.015-4.965-8.728-5.793-13.842z" fill="#015a9a"/><path d="m360.758 216.85c-1.749-3.752-6.21-5.376-9.963-3.628l-70.32 32.774c3.265 3.782 5.671 8.322 6.91 13.322l69.745-32.505c3.753-1.749 5.377-6.21 3.628-9.963z" fill="#015a9a"/><path d="m256 234.757c2.581 0 5.089.313 7.497.887v-106.498c0-4.141-3.357-7.498-7.497-7.498-4.141 0-7.497 3.357-7.497 7.498v106.498c2.408-.574 4.916-.887 7.497-.887z" fill="#fe0364"/><ellipse cx="256" cy="267.093" fill="#fd3581" rx="33.335" ry="33.335" transform="matrix(.899 -.438 .438 .899 -91.079 138.989)"/><path d="m269.697 267.093c0 7.565-6.132 13.698-13.697 13.698s-13.697-6.132-13.697-13.698c0-7.565 6.132-13.697 13.697-13.697s13.697 6.132 13.697 13.697z" fill="#fe0364"/><ellipse cx="397.946" cy="416.036" fill="#fe5694" rx="59.977" ry="59.977" transform="matrix(.255 -.967 .967 .255 -105.871 694.633)"/><path d="m352.963 416.037c0-30.584 22.897-55.802 52.48-59.494-2.458-.307-4.956-.483-7.497-.483-33.125 0-59.978 26.852-59.978 59.977s26.853 59.977 59.978 59.977c2.541 0 5.039-.176 7.497-.483-29.583-3.693-52.48-28.911-52.48-59.494z" fill="#fd3581"/><ellipse cx="88.064" cy="109.153" fill="#fd3581" rx="59.977" ry="59.977" transform="matrix(1 -.033 .033 1 -3.535 2.949)"/><path d="m43.081 109.153c0-30.583 22.896-55.802 52.48-59.494-2.458-.307-4.956-.483-7.497-.483-33.125 0-59.978 26.853-59.978 59.977s26.853 59.977 59.978 59.977c2.541 0 5.039-.176 7.497-.483-29.584-3.692-52.48-28.911-52.48-59.494z" fill="#fe0364"/><g fill="#fff"><path d="m377.202 448.653c-.552 0-1-.448-1-1v-11.047c0-.552.448-1 1-1h29.442v-13.046h-20.745c-.552 0-1-.448-1-1v-11.047c0-.552.448-1 1-1h20.745v-13.046h-29.442c-.552 0-1-.448-1-1v-11.047c0-.552.448-1 1-1h33.792c5.771 0 8.698 2.926 8.698 8.698v47.837c0 5.771-2.926 8.698-8.698 8.698z"/><path d="m62.971 141.77c-.552 0-1-.448-1-1v-29.485c0-5.743 2.926-8.655 8.698-8.655h30.442v-13.047l-38.14.043c-.265 0-.519-.105-.707-.293-.188-.187-.293-.442-.293-.707v-11.09c0-.552.448-1 1-1h42.488c5.771 0 8.698 2.926 8.698 8.698v21.744c0 5.743-2.926 8.654-8.698 8.654h-30.441v13.09s38.139-.043 38.139-.043c.265 0 .519.105.707.293s.293.442.293.707v11.089c0 .552-.448 1-1 1h-50.186z"/></g></svg>