<svg id="Capa_1" enable-background="new 0 0 512 512" height="512" viewBox="0 0 512 512" width="512" xmlns="http://www.w3.org/2000/svg"><circle cx="256" cy="256" fill="#6bd9e7" r="245"/><path d="m33.19 358c38.694 84.384 123.902 143 222.81 143s184.115-58.616 222.81-143z" fill="#00c285"/><path d="m512 121v-42c0-2.75-2.25-5-5-5h-502c-2.75 0-5 2.25-5 5v42z" fill="#015a9a"/><path d="m30 74h-25c-2.75 0-5 2.25-5 5v42h25v-42c0-2.75 2.25-5 5-5z" fill="#004281"/><path d="m227.5 412.253v87.088c9.352 1.083 18.858 1.659 28.5 1.659 9.643 0 19.148-.576 28.5-1.659v-87.088z" fill="#7bacdf"/><path d="m253 412.253h-25.5v87.088c8.378.971 16.887 1.508 25.5 1.615z" fill="#5f99d7"/><path d="m137 375.253v33c0 2.75 2.25 5 5 5h228c2.75 0 5-2.25 5-5v-33z" fill="#015a9a"/><path d="m162 408.253v-33h-25v33c0 2.75 2.25 5 5 5h25c-2.75 0-5-2.25-5-5z" fill="#004281"/><path d="m0 120v246.253c0 5.5 4.5 10 10 10h492c5.5 0 10-4.5 10-10v-246.253z" fill="#3c87d0"/><path d="m25 366.253v-246.253h-25v246.253c0 5.5 4.5 10 10 10h25c-5.5 0-10-4.5-10-10z" fill="#0268b4"/><path d="m208 334c0 5.5-4.5 10-10 10h-148c-5.5 0-10-4.5-10-10v-172c0-5.5 4.5-10 10-10h148c5.5 0 10 4.5 10 10z" fill="#015a9a"/><path d="m60.729 334v-172c0-5.5 4.5-10 10-10h-20.729c-5.5 0-10 4.5-10 10v172c0 5.5 4.5 10 10 10h20.729c-5.5 0-10-4.5-10-10z" fill="#004281"/><path d="m472 334c0 5.5-4.5 10-10 10h-148c-5.5 0-10-4.5-10-10v-172c0-5.5 4.5-10 10-10h148c5.5 0 10 4.5 10 10z" fill="#015a9a"/><path d="m324.272 334v-172c0-5.5 4.5-10 10-10h-20.272c-5.5 0-10 4.5-10 10v172c0 5.5 4.5 10 10 10h20.272c-5.5 0-10-4.5-10-10z" fill="#004281"/><path d="m78.679 294.111c-1.657 0-3-1.343-3-3v-77.543h-9.288c-.961 0-1.864-.46-2.428-1.238s-.723-1.78-.424-2.693l4.617-14.136c.403-1.234 1.554-2.068 2.852-2.068h11.383c8.907 0 13.423 4.517 13.423 13.424v84.255c0 1.657-1.343 3-3 3h-14.135z" fill="#fd3581"/><path d="m108.233 294.044c-.965 0-1.871-.464-2.435-1.247-.563-.783-.717-1.79-.41-2.705l4.706-14.072c.409-1.222 1.553-2.047 2.842-2.048l51.538-.064v-20.136h-46.983c-8.907 0-13.424-4.494-13.424-13.357v-44.05c0-1.657 1.343-3 3-3h74.543c1.656 0 3 1.343 3 3v14.199c0 .796-.316 1.559-.88 2.122-.562.562-1.325.878-2.12.878-.001 0-57.411-.064-57.411-.064l.004 20.203h46.983c8.907 0 13.424 4.494 13.424 13.357v33.56c0 8.907-4.517 13.424-13.424 13.424z" fill="#fd3581"/><path d="m342.678 294.111c-1.656 0-3-1.343-3-3v-77.543h-9.287c-.961 0-1.865-.46-2.43-1.239-.564-.778-.721-1.779-.422-2.693l4.617-14.136c.404-1.234 1.555-2.068 2.852-2.068h11.383c8.906 0 13.424 4.517 13.424 13.424v84.255c0 1.657-1.344 3-3 3z" fill="#00c285"/><path d="m381.492 294.111c-8.906 0-13.424-4.517-13.424-13.424v-73.831c0-8.907 4.518-13.424 13.424-13.424h53.695c8.908 0 13.424 4.517 13.424 13.424v73.831c0 8.907-4.516 13.424-13.424 13.424zm6.709-80.543.004 60.407h40.271v-60.407h-40.271z" fill="#00c285"/><path d="m285 261c0 5.5-4.5 10-10 10h-38c-5.5 0-10-4.5-10-10v-38c0-5.5 4.5-10 10-10h38c5.5 0 10 4.5 10 10z" fill="#7bacdf"/><path d="m247 261v-38c0-5.5 4.5-10 10-10h-20c-5.5 0-10 4.5-10 10v38c0 5.5 4.5 10 10 10h20c-5.5 0-10-4.5-10-10z" fill="#5f99d7"/><g fill="#fff"><path d="m270.5 178.501h-29c-4.142 0-7.5-3.358-7.5-7.5s3.358-7.5 7.5-7.5h29c4.143 0 7.5 3.358 7.5 7.5s-3.357 7.5-7.5 7.5z"/><path d="m270.5 313.5h-29c-4.142 0-7.5-3.358-7.5-7.5s3.358-7.5 7.5-7.5h29c4.143 0 7.5 3.358 7.5 7.5s-3.357 7.5-7.5 7.5z"/><path d="m270.5 339.5h-29c-4.142 0-7.5-3.358-7.5-7.5s3.358-7.5 7.5-7.5h29c4.143 0 7.5 3.358 7.5 7.5s-3.357 7.5-7.5 7.5z"/></g><path d="m249 171.001c0-4.142 3.358-7.5 7.5-7.5h-15c-4.142 0-7.5 3.358-7.5 7.5s3.358 7.5 7.5 7.5h15c-4.142 0-7.5-3.358-7.5-7.5z" fill="#c7e7ff"/><path d="m249 306c0-4.142 3.358-7.5 7.5-7.5h-15c-4.142 0-7.5 3.358-7.5 7.5s3.358 7.5 7.5 7.5h15c-4.142 0-7.5-3.358-7.5-7.5z" fill="#c7e7ff"/><path d="m249 332c0-4.142 3.358-7.5 7.5-7.5h-15c-4.142 0-7.5 3.358-7.5 7.5s3.358 7.5 7.5 7.5h15c-4.142 0-7.5-3.358-7.5-7.5z" fill="#c7e7ff"/><circle cx="462.5" cy="98.5" fill="#fed402" r="7.5"/><circle cx="488.5" cy="98.5" fill="#fedf30" r="7.5"/></svg>