<svg id="Capa_1" enable-background="new 0 0 512 512" height="512" viewBox="0 0 512 512" width="512" xmlns="http://www.w3.org/2000/svg"><circle cx="256" cy="267" fill="#00c285" r="245"/><g fill="#fff"><path d="m250.377 357.558h11.246v45.765h-11.246z"/><path d="m208.356 357.558c-.094 0-.182-.027-.273-.04l17.382 45.804h12.029l-17.368-45.765h-11.77z"/><path d="m230.019 357.558 8.525 45.765h11.438l-8.525-45.765z"/><path d="m303.645 357.558h-11.77l-17.368 45.765h12.028l17.383-45.804c-.091.012-.179.039-.273.039z"/><path d="m270.542 357.558-8.525 45.765h11.44l8.524-45.765z"/></g><path d="m288.499 419v-13.067c0-1.985-1.624-3.61-3.611-3.61h-57.777c-1.985 0-3.611 1.625-3.611 3.61v13.067z" fill="#f46700"/><path d="m251 419v-13.067c0-1.985 1.626-3.61 3.611-3.61h-27.5c-1.985 0-3.611 1.625-3.611 3.61v13.067z" fill="#eb6000"/><path d="m223.5 418v16.646c0 17.949 14.551 32.5 32.5 32.5s32.499-14.551 32.499-32.5v-16.646z" fill="#c7e7ff"/><path d="m127.173 392.17c.703-.773 1.635-1.198 2.625-1.198s1.922.425 2.625 1.198l5.673 6.236v-147.406h-15v145.651z" fill="#0268b4"/><path d="m130.597 239.12c-4.746 0-9.418-.358-14-1.042v8.922c0 2.75 2.25 5 5 5h18c2.75 0 5-2.25 5-5v-8.922c-4.582.684-9.255 1.042-14 1.042z" fill="#0078c8"/><path d="m127 247v-7.956c-3.513-.132-6.984-.456-10.403-.966v8.922c0 2.75 2.25 5 5 5h10.403c-2.75 0-5-2.25-5-5z" fill="#015a9a"/><path d="m146.798 420.799v-9.314c0-2.75-1.514-6.664-3.365-8.698l-10.27-11.289c-1.851-2.034-4.879-2.034-6.729 0l-10.271 11.289c-1.851 2.034-3.365 5.948-3.365 8.698v9.314z" fill="#fe0364"/><path d="m128 420.799v-9.314c0-2.75 1.514-6.664 3.365-8.698l6.035-6.633-4.236-4.656c-1.851-2.034-4.879-2.034-6.729 0l-10.271 11.289c-1.851 2.034-3.365 5.948-3.365 8.698v9.314z" fill="#c20148"/><ellipse cx="130.597" cy="120.06" fill="#00c285" rx="92.903" ry="106.06"/><path d="m198.201 182.664v-13.601h13.601v2.466c1.875-3.84 3.547-7.825 5-11.938v-9.13h2.803c.433-1.65.832-3.317 1.196-5h-3.998v-13.601h6.12c.161-1.656.288-3.322.382-5h-6.502v-13.601h6.502c-.094-1.677-.221-3.344-.382-5h-6.12v-13.601h3.998c-.363-1.683-.762-3.35-1.196-5h-2.802v-9.129c-1.453-4.113-3.125-8.098-5-11.938v2.466h-13.601v-13.601h7.338c-1.096-1.705-2.231-3.374-3.413-5h-3.926v-5.064c-1.226-1.485-2.488-2.932-3.786-4.335-.725.438-1.214 1.226-1.214 2.134v7.266h-12.789l.066-13.601h8.247c.445 0 .857-.126 1.219-.33-1.712-1.627-3.476-3.185-5.288-4.67h-4.153l.016-3.206c-1.583-1.156-3.201-2.254-4.848-3.301-.083.247-.139.505-.14.779l-.028 5.728h-14.503v-14.018c-1.647-.653-3.313-1.261-5-1.809v15.826h-13.601v-19.003c-1.653-.24-3.321-.427-5-.566v19.57h-13.602v-19.57c-1.679.14-3.347.326-5 .566v19.003h-13.601v-15.826c-1.688.548-3.353 1.156-5 1.809v14.017h-13.602v-7.183c-1.7 1.048-3.366 2.159-5 3.322v3.861h-5.056c-1.813 1.486-3.576 3.043-5.289 4.67.362.204.774.33 1.219.33h9.125v13.601h-13.6v-10.689c-1.728 1.802-3.395 3.68-5 5.625v5.064h-3.926c-1.181 1.626-2.317 3.295-3.413 5h7.338v13.601h-13.6v-2.466c-1.875 3.84-3.547 7.825-5 11.938v9.129h-2.802c-.434 1.65-.833 3.317-1.196 5h3.998v13.601h-6.12c-.161 1.656-.288 3.323-.382 5h6.502v13.601h-6.502c.094 1.678.221 3.344.382 5h6.12v13.601h-3.999c.364 1.683.763 3.35 1.196 5h2.803v9.13c1.453 4.113 3.125 8.098 5 11.938v-2.466h13.601v13.601h-7.338c1.096 1.705 2.231 3.374 3.413 5h3.926v5.064c1.605 1.945 3.272 3.823 5 5.625v-10.689h13.601v13.601h-10.687c1.819 1.746 3.696 3.415 5.63 5h5.056v3.861c1.634 1.163 3.3 2.273 5 3.322v-7.183h13.601v14.017c1.647.653 3.313 1.261 5 1.809v-15.826h13.601v19.003c1.653.24 3.321.427 5 .566v-19.57h13.602v19.57c1.679-.14 3.347-.326 5-.566v-19.003h13.601v15.826c1.688-.548 3.353-1.156 5-1.809v-14.017h13.666l-.035 7.164c1.706-1.052 3.377-2.168 5.017-3.336l.018-3.827h4.99c1.934-1.585 3.811-3.254 5.63-5h-10.596l.066-13.601h13.445v10.689c1.728-1.802 3.395-3.68 5-5.625v-5.064h3.926c1.181-1.626 2.317-3.295 3.413-5h-7.338zm0-106.607h13.601v13.601h-13.601zm0 18.601h13.601v13.601h-13.601zm0 18.601h13.601v13.601h-13.601zm0 18.601h13.601v13.601h-13.601zm0 18.601h13.601v13.602h-13.601zm-135.208 13.602h-13.601v-13.602h13.601zm0-18.602h-13.601v-13.601h13.601zm0-18.601h-13.601v-13.601h13.601zm0-18.601h-13.601v-13.601h13.601zm0-18.601h-13.601v-13.601h13.601zm18.601 93.006h-13.601v-13.601h13.601zm0-18.601h-13.601v-13.602h13.601zm0-18.602h-13.601v-13.601h13.601zm0-18.601h-13.601v-13.601h13.601zm0-18.601h-13.601v-13.601h13.601zm0-18.601h-13.601v-13.601h13.601zm0-18.601h-13.601v-13.601h13.601zm18.601 130.208h-13.601v-13.601h13.601zm0-18.601h-13.601v-13.601h13.601zm0-18.601h-13.601v-13.602h13.601zm0-18.602h-13.601v-13.601h13.601zm0-18.601h-13.601v-13.601h13.601zm0-18.601h-13.601v-13.601h13.601zm0-18.601h-13.601v-13.601h13.601zm0-18.601h-13.601v-13.601h13.601zm0-18.601h-13.601v-13.601h13.601zm18.601 148.809h-13.601v-13.601h13.601zm0-18.601h-13.601v-13.601h13.601zm0-18.601h-13.601v-13.602h13.601zm0-18.602h-13.601v-13.601h13.601zm0-18.601h-13.601v-13.601h13.601zm0-18.601h-13.601v-13.601h13.601zm0-18.601h-13.601v-13.601h13.601zm0-18.601h-13.601v-13.601h13.601zm0-18.601h-13.601v-13.601h13.601zm18.602 148.809h-13.602v-13.601h13.602zm0-18.601h-13.602v-13.601h13.602zm0-18.601h-13.602v-13.602h13.602zm0-18.602h-13.602v-13.601h13.602zm0-18.601h-13.602v-13.601h13.602zm0-18.601h-13.602v-13.601h13.602zm0-18.601h-13.602v-13.601h13.602zm0-18.601h-13.602v-13.601h13.602zm0-18.601h-13.602v-13.601h13.602zm18.601 148.809h-13.601v-13.601h13.601zm0-18.601h-13.601v-13.601h13.601zm0-18.601h-13.601v-13.602h13.601zm0-18.602h-13.601v-13.601h13.601zm0-18.601h-13.601v-13.601h13.601zm0-18.601h-13.601v-13.601h13.601zm0-18.601h-13.601v-13.601h13.601zm0-18.601h-13.601v-13.601h13.601zm0-18.601h-13.601v-13.601h13.601zm18.69 148.809h-13.691v-13.601h13.757zm.091-18.601h-13.781v-13.601h13.847zm.09-18.601h-13.872v-13.602h13.938zm.09-18.602h-13.962v-13.601h14.028zm.091-18.601h-14.052v-13.601h14.118zm.09-18.601h-14.143v-13.601h14.208zm.09-18.601h-14.233v-13.601h14.299zm.09-18.601h-14.323v-13.601h14.389zm.091-18.601h-14.413v-13.601h14.479zm17.789 130.208h-13.421l.066-13.601h13.355zm0-18.601h-13.331l.066-13.602h13.265zm0-18.602h-13.24l.066-13.601h13.174zm0-18.601h-13.15l.066-13.601h13.084zm0-18.601h-13.06l.066-13.601h12.994zm0-18.601h-12.969l.066-13.601h12.903zm0-18.601h-12.879l.066-13.601h12.813z" fill="#eaf9fa"/><path d="m130.597 240.12c-58.947 0-106.903-53.859-106.903-120.06-.001-66.201 47.956-120.06 106.903-120.06s106.903 53.859 106.903 120.06-47.956 120.06-106.903 120.06zm0-225.12c-50.676 0-91.903 47.13-91.903 105.06s41.227 105.06 91.903 105.06 91.903-47.13 91.903-105.06-41.227-105.06-91.903-105.06z" fill="#015a9a"/><path d="m112.798 465.796c10.716 7.732 22.082 14.616 34 20.561v-66.559h-34z" fill="#0078c8"/><path d="m128 419.799h-15.202v45.998c4.931 3.558 10.005 6.927 15.202 10.117z" fill="#015a9a"/><path d="m377.98 392.17c.703-.773 1.635-1.198 2.625-1.198s1.922.425 2.625 1.198l5.673 6.236v-147.406h-15v145.651z" fill="#fe0364"/><path d="m381.403 239.12c-4.746 0-9.418-.358-14-1.042v8.922c0 2.75 2.25 5 5 5h18c2.75 0 5-2.25 5-5v-8.922c-4.582.684-9.254 1.042-14 1.042z" fill="#fe5694"/><path d="m378 247v-7.944c-3.579-.129-7.114-.458-10.597-.978v8.922c0 2.75 2.25 5 5 5h10.597c-2.75 0-5-2.25-5-5z" fill="#fd3581"/><path d="m397.605 420.799v-9.314c0-2.75-1.514-6.664-3.365-8.698l-10.271-11.289c-1.851-2.034-4.879-2.034-6.729 0l-10.27 11.289c-1.851 2.034-3.365 5.948-3.365 8.698v9.314z" fill="#0078c8"/><path d="m379 420.799v-9.314c0-2.75 1.514-6.664 3.365-8.698l5.938-6.526-4.333-4.763c-1.851-2.034-4.879-2.034-6.729 0l-10.27 11.289c-1.851 2.034-3.365 5.948-3.365 8.698v9.314z" fill="#015a9a"/><ellipse cx="381.403" cy="120.06" fill="#00c285" rx="92.903" ry="106.06"/><path d="m449.007 182.664v-13.601h13.601v2.466c1.875-3.84 3.547-7.825 5-11.938v-9.13h2.803c.433-1.65.832-3.317 1.196-5h-3.999v-13.601h6.12c.161-1.656.288-3.322.382-5h-6.502v-13.601h6.502c-.094-1.677-.221-3.344-.382-5h-6.12v-13.601h3.998c-.363-1.683-.762-3.35-1.196-5h-2.802v-9.129c-1.453-4.113-3.125-8.098-5-11.938v2.466h-13.601v-13.601h7.338c-1.096-1.705-2.231-3.374-3.413-5h-3.926v-5.064c-1.226-1.485-2.488-2.932-3.786-4.335-.725.438-1.214 1.226-1.214 2.134v7.266h-12.788l.066-13.601h8.247c.445 0 .857-.126 1.219-.33-1.712-1.627-3.476-3.185-5.289-4.67h-4.153l.016-3.206c-1.583-1.156-3.201-2.254-4.848-3.301-.083.247-.139.505-.14.779l-.028 5.728h-14.503v-14.018c-1.647-.653-3.313-1.261-5-1.809v15.826h-13.601v-19.003c-1.653-.24-3.321-.427-5-.566v19.57h-13.602v-19.57c-1.679.14-3.347.326-5 .566v19.003h-13.601v-15.826c-1.688.548-3.353 1.156-5 1.809v14.017h-13.601v-7.183c-1.7 1.048-3.366 2.159-5 3.322v3.861h-5.056c-1.813 1.486-3.576 3.043-5.288 4.67.362.204.774.33 1.219.33h9.125v13.601h-13.601v-10.689c-1.728 1.802-3.395 3.68-5 5.625v5.064h-3.926c-1.181 1.626-2.317 3.295-3.413 5h7.338v13.601h-13.601v-2.466c-1.875 3.84-3.547 7.825-5 11.938v9.129h-2.802c-.434 1.65-.832 3.317-1.196 5h3.998v13.601h-6.12c-.161 1.656-.288 3.323-.382 5h6.502v13.601h-6.502c.094 1.678.221 3.344.382 5h6.12v13.601h-3.997c.364 1.683.763 3.35 1.196 5h2.803v9.13c1.453 4.113 3.125 8.098 5 11.938v-2.466h13.601v13.601h-7.338c1.096 1.705 2.232 3.374 3.413 5h3.926v5.064c1.605 1.945 3.272 3.823 5 5.625v-10.689h13.599v13.601h-10.686c1.819 1.746 3.696 3.415 5.63 5h5.056v3.861c1.634 1.163 3.3 2.273 5 3.322v-7.183h13.601v14.017c1.647.653 3.313 1.261 5 1.809v-15.826h13.601v19.003c1.653.24 3.321.427 5 .566v-19.57h13.602v19.57c1.679-.14 3.347-.326 5-.566v-19.003h13.601v15.826c1.688-.548 3.353-1.156 5-1.809v-14.017h13.667l-.035 7.164c1.706-1.052 3.377-2.168 5.017-3.336l.019-3.827h4.99c1.934-1.585 3.811-3.254 5.63-5h-10.596l.066-13.601h13.445v10.689c1.728-1.802 3.395-3.68 5-5.625v-5.064h3.926c1.181-1.626 2.317-3.295 3.413-5h-7.34zm0-106.607h13.601v13.601h-13.601zm0 18.601h13.601v13.601h-13.601zm0 18.601h13.601v13.601h-13.601zm0 18.601h13.601v13.601h-13.601zm0 18.601h13.601v13.602h-13.601zm-135.208 13.602h-13.601v-13.602h13.601zm0-18.602h-13.601v-13.601h13.601zm0-18.601h-13.601v-13.601h13.601zm0-18.601h-13.601v-13.601h13.601zm0-18.601h-13.601v-13.601h13.601zm18.601 93.006h-13.601v-13.601h13.601zm0-18.601h-13.601v-13.602h13.601zm0-18.602h-13.601v-13.601h13.601zm0-18.601h-13.601v-13.601h13.601zm0-18.601h-13.601v-13.601h13.601zm0-18.601h-13.601v-13.601h13.601zm0-18.601h-13.601v-13.601h13.601zm18.601 130.208h-13.601v-13.601h13.601zm0-18.601h-13.601v-13.601h13.601zm0-18.601h-13.601v-13.602h13.601zm0-18.602h-13.601v-13.601h13.601zm0-18.601h-13.601v-13.601h13.601zm0-18.601h-13.601v-13.601h13.601zm0-18.601h-13.601v-13.601h13.601zm0-18.601h-13.601v-13.601h13.601zm0-18.601h-13.601v-13.601h13.601zm18.602 148.809h-13.601v-13.601h13.601zm0-18.601h-13.601v-13.601h13.601zm0-18.601h-13.601v-13.602h13.601zm0-18.602h-13.601v-13.601h13.601zm0-18.601h-13.601v-13.601h13.601zm0-18.601h-13.601v-13.601h13.601zm0-18.601h-13.601v-13.601h13.601zm0-18.601h-13.601v-13.601h13.601zm0-18.601h-13.601v-13.601h13.601zm18.601 148.809h-13.602v-13.601h13.602zm0-18.601h-13.602v-13.601h13.602zm0-18.601h-13.602v-13.602h13.602zm0-18.602h-13.602v-13.601h13.602zm0-18.601h-13.602v-13.601h13.602zm0-18.601h-13.602v-13.601h13.602zm0-18.601h-13.602v-13.601h13.602zm0-18.601h-13.602v-13.601h13.602zm0-18.601h-13.602v-13.601h13.602zm18.601 148.809h-13.601v-13.601h13.601zm0-18.601h-13.601v-13.601h13.601zm0-18.601h-13.601v-13.602h13.601zm0-18.602h-13.601v-13.601h13.601zm0-18.601h-13.601v-13.601h13.601zm0-18.601h-13.601v-13.601h13.601zm0-18.601h-13.601v-13.601h13.601zm0-18.601h-13.601v-13.601h13.601zm0-18.601h-13.601v-13.601h13.601zm18.691 148.809h-13.691v-13.601h13.757zm.09-18.601h-13.781v-13.601h13.847zm.091-18.601h-13.872v-13.602h13.938zm.09-18.602h-13.962v-13.601h14.028zm.09-18.601h-14.052v-13.601h14.118zm.091-18.601h-14.143v-13.601h14.208zm.09-18.601h-14.233v-13.601h14.299zm.09-18.601h-14.323v-13.601h14.389zm.09-18.601h-14.413v-13.601h14.479zm17.789 130.208h-13.421l.066-13.601h13.355zm0-18.601h-13.331l.066-13.602h13.265zm0-18.602h-13.24l.066-13.601h13.174zm0-18.601h-13.15l.066-13.601h13.084zm0-18.601h-13.059l.066-13.601h12.994v13.601zm0-18.601h-12.969l.066-13.601h12.903zm0-18.601h-12.879l.066-13.601h12.813z" fill="#eaf9fa"/><path d="m381.403 240.12c-58.947 0-106.903-53.859-106.903-120.06s47.957-120.06 106.903-120.06 106.903 53.859 106.903 120.06c.001 66.201-47.956 120.06-106.903 120.06zm0-225.12c-50.675 0-91.903 47.13-91.903 105.06s41.228 105.06 91.903 105.06 91.903-47.13 91.903-105.06c.001-57.93-41.227-105.06-91.903-105.06z" fill="#c20148"/><path d="m363.605 487.151c11.906-5.831 23.275-12.589 34-20.198v-47.154h-34z" fill="#fe0364"/><path d="m379 419.799h-15.395v67.352c5.241-2.566 10.371-5.324 15.395-8.243z" fill="#c20148"/><path d="m251 434.646v-16.646h-27.5v16.646c0 17.949 14.551 32.5 32.5 32.5 4.916 0 9.573-1.098 13.75-3.051-11.074-5.18-18.75-16.415-18.75-29.449z" fill="#b4dbff"/><path d="m208.356 358.558c-1.205 0-2.3-.702-2.802-1.798l-24.051-52.469c-.189-.414-.285-.865-.28-1.32.138-11.998 10.013-21.758 22.014-21.758 5.81 0 11.289 2.239 15.427 6.305l2.16 2.123 2.161-2.123c4.138-4.066 9.617-6.305 15.427-6.305 5.811 0 11.289 2.239 15.427 6.305l2.16 2.122 2.16-2.122c4.138-4.066 9.617-6.305 15.428-6.305 5.81 0 11.289 2.239 15.427 6.305l2.161 2.122 2.16-2.122c4.138-4.066 9.617-6.305 15.427-6.305 12.001 0 21.877 9.761 22.015 21.759.005.455-.091.906-.28 1.32l-24.05 52.469c-.502 1.096-1.597 1.798-2.802 1.798h-95.289z" fill="#eaf9fa"/><path d="m232.777 356.76-24.051-52.469c-.189-.414-.285-.865-.28-1.32.079-6.887 3.371-13.032 8.427-17.022-3.87-3.064-8.627-4.736-13.636-4.736-12.001 0-21.876 9.761-22.014 21.758-.005.456.091.906.28 1.32l24.051 52.469c.502 1.096 1.597 1.798 2.802 1.798h27.223c-1.205 0-2.3-.702-2.802-1.798z" fill="#c7e7ff"/></svg>