<svg id="Capa_1" enable-background="new 0 0 512 512" height="512" viewBox="0 0 512 512" width="512" xmlns="http://www.w3.org/2000/svg"><circle cx="256" cy="256" fill="#3c87d0" r="245"/><path d="m309.385 321c-10.632 18.486-30.572 30.971-53.385 30.971-22.814 0-42.753-12.485-53.385-30.971h-182.882c28.482 103.759 123.464 180 236.267 180s207.785-76.241 236.267-180z" fill="#00c285"/><path d="m84.56 81h342.879c-15.019-14.715-31.917-27.517-50.312-38h-242.255c-18.395 10.483-35.293 23.285-50.312 38z" fill="#004281"/><path d="m84.503 162.105v22.069c13.896 7.343 23.394 21.939 23.394 38.72 0 12.297-5.104 23.419-13.297 31.377 1.024 1.948 1.61 4.159 1.61 6.508v17.605c19.138-11.108 32.045-31.814 32.045-55.49-.001-28.237-18.354-52.252-43.752-60.789z" fill="#e3f3ff"/><path d="m32.046 260.779c0-2.349.586-4.56 1.61-6.508-8.193-7.958-13.298-19.08-13.298-31.377 0-16.781 9.497-31.377 23.394-38.72v-22.069c-25.399 8.537-43.752 32.552-43.752 60.79 0 23.676 12.908 44.382 32.046 55.49z" fill="#e3f3ff"/><path d="m42.751 135.316v8.684h42.751v-63.92c-16.738 16.226-31.169 34.816-42.751 55.236z" fill="#c7e7ff"/><path d="m42.751 143v48.34c0 5.599 4.581 10.179 10.179 10.179h22.394c5.598 0 10.179-4.58 10.179-10.179v-48.34z" fill="#004281"/><path d="m118.619 357.382c-14.245 0-27.019 6.262-35.746 16.175v-85.914c-.234-.241-.458-.496-.663-.771-.443-.59-1.146-.941-1.88-.941-.735 0-1.438.352-1.88.94-1.49 1.989-3.757 3.129-6.222 3.129s-4.731-1.14-6.219-3.128c-.444-.59-1.147-.941-1.881-.941-.733 0-1.435.351-1.878.938-1.492 1.991-3.759 3.131-6.225 3.131-2.464 0-4.731-1.14-6.221-3.128-.442-.589-1.145-.941-1.88-.941-.734 0-1.437.351-1.88.938-.527.704-1.155 1.296-1.851 1.774v86.936c0 21.89 18 39.698 40.125 39.698h75.091l-12.464-48.542c-7.916-5.872-17.712-9.353-28.326-9.353z" fill="#fa9775"/><path d="m60.199 375.579v-86.8c-1.229.79-2.663 1.222-4.173 1.222-2.464 0-4.731-1.14-6.221-3.128-.442-.589-1.145-.941-1.88-.941-.734 0-1.437.351-1.88.938-.527.704-1.155 1.296-1.851 1.774v86.936c0 21.89 18 39.698 40.125 39.698h16.005c-22.125-.002-40.125-17.81-40.125-39.699z" fill="#f78157"/><path d="m465.958 286.872c-.444-.59-1.147-.941-1.882-.941s-1.438.352-1.88.94c-1.49 1.989-3.758 3.129-6.222 3.129-2.465 0-4.733-1.14-6.221-3.128-.446-.591-1.148-.941-1.881-.941-.734 0-1.438.351-1.88.939-1.489 1.99-3.756 3.13-6.221 3.13s-4.732-1.14-6.221-3.128c-.442-.59-1.145-.941-1.881-.941-.733 0-1.435.351-1.879.938-.206.275-.43.53-.664.772v85.915c-8.727-9.912-21.501-16.175-35.746-16.175-10.614 0-20.41 3.481-28.327 9.353l-12.464 48.542h75.091c22.125 0 40.125-17.808 40.125-39.698v-86.935c-.694-.478-1.321-1.068-1.847-1.771z" fill="#fa9775"/><path d="m415.791 260.779c0-2.349.586-4.56 1.61-6.508-8.193-7.958-13.297-19.08-13.297-31.377 0-16.781 9.497-31.377 23.394-38.72v-22.069c-25.398 8.536-43.751 32.552-43.751 60.789 0 23.676 12.907 44.382 32.045 55.49v-17.605z" fill="#e3f3ff"/><path d="m468.248 162.105v22.069c13.897 7.343 23.394 21.939 23.394 38.72 0 12.297-5.105 23.419-13.298 31.377 1.023 1.948 1.61 4.159 1.61 6.508v17.605c19.138-11.108 32.046-31.813 32.046-55.489 0-28.238-18.354-52.253-43.752-60.79z" fill="#e3f3ff"/><path d="m426.497 80.08v63.921h42.751v-8.684c-11.582-20.421-26.012-39.011-42.751-55.237z" fill="#c7e7ff"/><path d="m426.497 143v48.34c0 5.599 4.581 10.179 10.179 10.179h22.393c5.599 0 10.179-4.58 10.179-10.179v-48.34z" fill="#004281"/><path d="m414.791 260.779c0-8.297 6.75-15.046 15.046-15.046h36.072c8.296 0 15.045 6.749 15.045 15.046v21.443c0 4.84-3.937 8.777-8.777 8.777-2.783 0-5.341-1.285-7.02-3.529-.255-.339-.656-.54-1.081-.54s-.826.202-1.08.54c-1.681 2.244-4.24 3.529-7.022 3.529s-5.342-1.285-7.021-3.529c-.256-.339-.656-.54-1.081-.54-.424 0-.826.202-1.081.54-1.679 2.244-4.238 3.529-7.02 3.529-2.783 0-5.341-1.285-7.021-3.529-.254-.339-.655-.54-1.081-.54-.425 0-.825.202-1.08.54-1.68 2.244-4.239 3.529-7.022 3.529-4.839 0-8.777-3.938-8.777-8.777v-21.443z" fill="#f78157"/><path d="m436 282.223v-21.443c0-8.297 6.75-15.046 15.046-15.046h-21.209c-8.296 0-15.046 6.749-15.046 15.046v21.443c0 4.84 3.939 8.777 8.777 8.777 2.783 0 5.342-1.285 7.022-3.529.255-.339.655-.54 1.08-.54s.826.202 1.081.54c1.68 2.244 4.238 3.529 7.021 3.529.859 0 1.692-.136 2.489-.372-3.616-1.085-6.261-4.44-6.261-8.405z" fill="#f46b38"/><path d="m366.366 360.153c-.629-1.064-1.655-1.835-2.853-2.142-26.127-6.708-52.849-10.951-79.749-12.684-8.349 4.238-17.778 6.644-27.764 6.644s-19.415-2.405-27.764-6.644c-26.9 1.733-53.622 5.976-79.749 12.684-2.494.64-3.997 3.181-3.356 5.675l31.918 124.309c24.773 8.429 51.327 13.005 78.951 13.005s54.178-4.576 78.951-13.004l31.917-124.309c.308-1.198.128-2.469-.502-3.534z" fill="#c7e7ff"/><path d="m155.819 405.314 23.113-11.377-10.414-40.559c-6.711 1.386-13.39 2.93-20.031 4.635-2.494.64-3.997 3.181-3.356 5.675z" fill="#b4dbff"/><path d="m277.885 366.772v.343c0 12.087-9.798 21.885-21.885 21.885-12.086 0-21.885-9.798-21.885-21.885v-.343l-78.296 38.541 21.23 82.683c24.773 8.428 51.327 13.004 78.951 13.004s54.178-4.576 78.951-13.004l21.229-82.683z" fill="#015a9a"/><path d="m178.932 393.936-23.113 11.378 21.23 82.683c9.107 3.098 18.457 5.671 28.009 7.692z" fill="#004281"/><path d="m256 351.971c-7.706 0-15.08-1.436-21.885-4.034v19.178c0 12.087 9.798 21.885 21.885 21.885 12.086 0 21.885-9.798 21.885-21.885v-19.178c-6.805 2.598-14.179 4.034-21.885 4.034z" fill="#f78157"/><path d="m250.23 367.115v-15.423c-5.625-.525-11.029-1.814-16.115-3.755v19.178c0 12.087 9.798 21.885 21.885 21.885 2.847 0 5.563-.549 8.058-1.538-8.098-3.21-13.828-11.107-13.828-20.347z" fill="#f46b38"/><path d="m186.931 263.194c1.16-.269 2.362-.426 3.602-.426h3.912v-4.894c0-30.385 23.011-48.526 61.555-48.526s61.555 18.141 61.555 48.526v4.894h3.912c1.24 0 2.443.157 3.602.426v-45.714c0-20.729-12.688-38.483-34.834-49.176l-50.383-23.536c-1.112-.685-2.435-.885-3.673-.591-.412.098-.815.251-1.198.458-1.53.831-2.498 2.418-2.538 4.159-.006.241-.069 3.845.85 9.282l-20.384-12.56c-1.112-.685-2.435-.885-3.673-.591-.411.098-.813.25-1.194.456-1.53.831-2.499 2.415-2.541 4.155-.008.338-.106 5.771 1.675 13.448l-7.484-4.612c-1.112-.685-2.435-.885-3.673-.59-.411.098-.813.249-1.194.456-1.53.831-2.499 2.415-2.541 4.155-.02.837-.168 12.706 5.977 26.34-7.018 7.566-11.328 17.674-11.328 28.745v45.716z" fill="#554e56"/><path d="m186.931 263.194c1.16-.269 2.362-.426 3.602-.426h3.912v-4.894c0-16.608 6.888-29.546 19.416-37.876v-8.565c0-11.07 4.31-21.178 11.328-28.745-6.145-13.635-5.997-25.504-5.977-26.34.042-1.74 1.011-3.324 2.541-4.155.381-.207.783-.359 1.194-.457.016-.004.032-.003.047-.006l-10.086-6.215c-1.112-.685-2.435-.885-3.673-.591-.411.098-.813.25-1.194.456-1.53.831-2.499 2.415-2.541 4.155-.008.338-.106 5.771 1.675 13.448l-7.484-4.612c-1.112-.685-2.435-.885-3.673-.59-.411.098-.813.249-1.194.456-1.53.831-2.499 2.415-2.541 4.155-.02.837-.168 12.706 5.977 26.34-7.018 7.566-11.328 17.674-11.328 28.745v45.717z" fill="#433f43"/><path d="m194.445 290.417v-28.648h-3.912c-9.319 0-16.942 7.625-16.942 16.942v9.763c0 9.318 7.623 16.942 16.942 16.942h5.769c-1.207-4.804-1.857-9.826-1.857-14.999z" fill="#fa9775"/><path d="m321.467 261.769h-3.912v28.648c0 5.173-.649 10.195-1.857 14.999h5.769c9.318 0 16.942-7.624 16.942-16.942v-9.763c0-9.318-7.624-16.942-16.942-16.942z" fill="#f78157"/><path d="m318.555 290.417c0 34.548-28.007 62.554-62.555 62.554-34.547 0-62.555-28.006-62.555-62.554v-32.542c0-34.548 28.007-49.526 62.555-49.526 34.547 0 62.555 14.978 62.555 49.526z" fill="#fa9775"/><path d="m215 290.417v-32.542c0-30.871 22.369-46.105 51.777-49.001-3.503-.345-7.1-.525-10.777-.525-34.547 0-62.555 14.978-62.555 49.526v32.542c0 34.548 28.007 62.554 62.555 62.554 3.677 0 7.274-.335 10.777-.944-29.408-5.11-51.777-30.739-51.777-61.61z" fill="#f78157"/><path d="m262.189 301.841h-8.142c-6.471 0-11.736-5.265-11.736-11.735v-15.308c0-4.142 3.358-7.5 7.5-7.5s7.5 3.358 7.5 7.5v12.043h4.878c4.142 0 7.5 3.358 7.5 7.5s-3.358 7.5-7.5 7.5z" fill="#eb6000"/><path d="m234.177 252.982h-22.148c-4.142 0-7.5-3.358-7.5-7.5s3.358-7.5 7.5-7.5h22.148c4.142 0 7.5 3.358 7.5 7.5s-3.358 7.5-7.5 7.5z" fill="#433f43"/><path d="m299.973 252.982h-22.148c-4.142 0-7.5-3.358-7.5-7.5s3.358-7.5 7.5-7.5h22.148c4.142 0 7.5 3.358 7.5 7.5s-3.358 7.5-7.5 7.5z" fill="#433f43"/><path d="m270.166 329.696h-28.332c-4.142 0-7.5-3.358-7.5-7.5s3.358-7.5 7.5-7.5h28.332c4.142 0 7.5 3.358 7.5 7.5s-3.358 7.5-7.5 7.5z" fill="#eb6000"/><path d="m289.227 260.466c-4.659 0-8.471 3.812-8.471 8.471v12.374c0 4.659 3.812 8.471 8.471 8.471h2.601c4.658 0 8.471-3.812 8.471-8.471v-12.374c0-4.659-3.813-8.471-8.471-8.471z" fill="#554e56"/><path d="m220.173 260.466c-4.659 0-8.471 3.812-8.471 8.471v12.374c0 4.659 3.812 8.471 8.471 8.471h2.601c4.658 0 8.47-3.812 8.47-8.471v-12.374c0-4.659-3.812-8.471-8.47-8.471z" fill="#554e56"/><path d="m97.209 260.779c0-8.297-6.75-15.046-15.046-15.046h-36.072c-8.296 0-15.045 6.749-15.045 15.046v21.443c0 4.84 3.937 8.777 8.777 8.777 2.783 0 5.341-1.285 7.02-3.529.255-.339.656-.54 1.081-.54s.826.202 1.08.54c1.681 2.244 4.24 3.529 7.021 3.529 2.782 0 5.342-1.285 7.021-3.529.256-.339.656-.54 1.081-.54.424 0 .826.202 1.081.54 1.679 2.244 4.238 3.529 7.02 3.529 2.783 0 5.342-1.285 7.021-3.529.254-.339.655-.54 1.081-.54.425 0 .825.202 1.08.54 1.68 2.244 4.239 3.529 7.022 3.529 4.838 0 8.777-3.938 8.777-8.777z" fill="#f78157"/><path d="m53 282.223v-21.443c0-8.297 6.749-15.046 15.045-15.046h-21.954c-8.296 0-15.045 6.749-15.045 15.046v21.443c0 4.84 3.937 8.777 8.777 8.777 2.783 0 5.341-1.285 7.02-3.529.255-.339.656-.54 1.081-.54s.826.202 1.08.54c1.681 2.244 4.24 3.529 7.021 3.529 1.001 0 1.972-.172 2.885-.49-3.434-1.192-5.91-4.452-5.91-8.287z" fill="#f46b38"/><path d="m236.113 459c-4.319 0-6.086-3.06-3.926-6.8l19.887-34.445c2.159-3.74 5.692-3.74 7.852 0l19.887 34.445c2.159 3.74.393 6.8-3.926 6.8z" fill="#fff"/><path d="m248.453 452.2 15.68-27.159-4.207-7.287c-2.159-3.74-5.692-3.74-7.852 0l-19.887 34.446c-2.159 3.74-.393 6.8 3.926 6.8h16.266c-4.319 0-6.086-3.06-3.926-6.8z" fill="#e3f3ff"/></svg>