<svg id="Capa_1" enable-background="new 0 0 512 512" height="512" viewBox="0 0 512 512" width="512" xmlns="http://www.w3.org/2000/svg"><circle cx="256" cy="267" fill="#01998d" r="245"/><path d="m256 22c-135.31 0-245 109.69-245 245 0 23.961 3.455 47.112 9.868 69h42.744c-25.37-14.569-40.976-41.202-41.077-70.754-.154-45.196 36.49-82.091 81.687-82.245l.286-.001c45.039 0 81.806 36.644 81.959 81.686.017 5.083-.436 10.175-1.344 15.134l-.217 1.18h25.122v5.857c0 5.962 2.249 11.638 6.332 15.982l22.638 24.085c4.391 4.672 10.588 7.353 17.002 7.353 6.411 0 12.608-2.681 17.004-7.354l22.635-24.082c4.084-4.343 6.333-10.019 6.333-15.983v-5.858h50.528c2.206 0 4 1.794 4 4v4.217l59.883 46.783h74.749c6.413-21.888 9.868-45.039 9.868-69 0-135.31-109.691-245-245-245z" fill="#6bd9e7"/><g fill="#015a9a"><path d="m477.408 162c-3.399-7.157-7.137-14.122-11.189-20.877v10.877h-17v-12h16.336c-2.058-3.388-4.195-6.722-6.41-10h-9.926v-12h1.258c-3.59-4.68-7.346-9.226-11.258-13.63v3.63h-17v-9.7h11.441c-.097-.102-.197-.199-.294-.3h-90.01l.022.3h14.84v9.7h-14.565v10h14.565v12h-14.565v10h14.565v12h-3.74c5.545 2.579 9.408 8.189 9.408 14.697v23.241c0 8.225-6.16 15.022-14.105 16.062h8.438v13.764h-17v-13.611h-5.756l-.188.761c-1.041 4.23-2.412 8.304-4.057 12.216v.634h-.26c-1.496 3.477-3.225 6.813-5.155 10h172.384c-.512-3.358-1.108-6.688-1.755-10h-20.214v-13.764h17.124c-.862-3.364-1.806-6.694-2.806-10h-14.318v-12h10.352c-1.214-3.369-2.503-6.701-3.857-10h-6.494v-12zm-92.189 57.764h-17v-13.764h17zm0-23.764h-17v-12h17zm0-22h-17v-12h17zm0-22h-17v-12h17zm0-22h-17v-12h17zm0-22h-17v-9.7h17zm27 111.764h-17v-13.764h17zm0-23.764h-17v-12h17zm0-22h-17v-12h17zm0-22h-17v-12h17zm0-22h-17v-12h17zm0-22h-17v-9.7h17zm27 111.764h-17v-13.764h17zm0-23.764h-17v-12h17zm0-22h-17v-12h17zm0-22h-17v-12h17zm0-22h-17v-12h17zm27 89.764h-17v-13.764h17zm0-23.764h-17v-12h17zm0-22h-17v-12h17z"/><path d="m178.49 229.764h7.706c-1.931-3.188-3.659-6.523-5.155-10h-1.822v-4.652c-.959-2.667-1.805-5.396-2.494-8.198l-.188-.761h-7.318v8.634c3.597 4.628 6.717 9.64 9.271 14.977z"/><path d="m44.219 209.452v-3.452h3.383c3.907-3.774 8.123-7.115 12.594-10h-15.977v-12h17v11.347c3.214-2.007 6.555-3.776 10-5.308v-6.039h17v.61c5.213-1.045 10.566-1.591 16.003-1.61l.286-.001c7.15 0 14.091.931 20.711 2.665v-1.664h17v8.247c2.521 1.314 4.967 2.749 7.326 4.309-.91-2.023-1.432-4.258-1.432-6.618v-23.241c0-6.508 3.863-12.118 9.408-14.697h-5.303v-12h16.127v-10h-16.127v-12h16.127v-10h-16.127v-9.7h16.402l.023-.3h-90.011c-.097.101-.196.199-.292.3h9.879v9.7h-17v-1.869c-3.465 3.976-6.795 8.07-10 12.266v11.603h-8.364c-2.214 3.278-4.352 6.612-6.409 10h14.773v12h-17v-8.234c-3.602 6.177-6.938 12.527-10 19.032v11.202h-4.932c-1.354 3.299-2.645 6.631-3.857 10h8.789v12h-12.756c-1 3.306-1.943 6.636-2.806 10h15.562v13.764h-18.652c-.646 3.312-1.243 6.642-1.755 10h16.63c3.5-7.349 8.125-14.186 13.777-20.312zm81-111.152h17v9.7h-17zm0 19.7h17v12h-17zm0 22h17v12h-17zm0 22h17v12h-17zm-27-63.7h17v9.7h-17zm0 19.7h17v12h-17zm0 22h17v12h-17zm0 22h17v12h-17zm-27-44h17v12h-17zm0 22h17v12h-17zm0 22h17v12h-17zm-27 0h17v12h-17z"/></g><path d="m343.411 99h90.9c-9.234-9.797-19.267-18.829-29.993-27h-68.552c4.369 7.857 6.916 16.878 7.645 27z" fill="#e3f3ff"/><path d="m176.233 72h-68.552c-10.727 8.171-20.76 17.203-29.993 27h90.9c.73-10.122 3.277-19.143 7.645-27z" fill="#e3f3ff"/><path d="m139.096 339.221c.005.116.018.229.018.346v23.372c0 6.646-4.203 12.304-10.113 14.458v86.603c0 9.27-5.287 17.324-13 21.32v1.114c5.121-2.508 9.423-6.759 11.894-12.39l27.606-62.926v-82.056c-5.021 4.003-10.528 7.411-16.405 10.159z" fill="#a94b30"/><path d="m123.713 378.338h-39.316c-1.52 0-2.984-.229-4.372-.642-.014.333-.025.665-.025 1.001v85.303c0 13.807 11.192 25 25 25s25-11.193 25-25v-85.303c0-.567-.025-1.128-.063-1.685-1.906.846-4.008 1.326-6.224 1.326z" fill="#d8694b"/><path d="m100 464v-85.303c0-.121.012-.239.014-.359h-15.617c-1.52 0-2.984-.229-4.372-.642-.014.333-.025.665-.025 1.001v85.303c0 13.807 11.192 25 25 25 3.557 0 6.938-.748 10-2.086-8.828-3.858-15-12.664-15-22.914z" fill="#c5573a"/><path d="m442.511 355.143-86.011-67.195v63.449l37.964 29.659-37.964 29.829v63.586l86.081-67.635c8.145-6.398 12.809-15.826 12.795-25.865-.014-10.037-4.703-19.452-12.865-25.828z" fill="#d8694b"/><path d="m412.147 377.978-55.647-43.475v16.894l37.964 29.659-37.964 29.829v16.99l55.656-43.73c2.162-1.699 2.159-4.474-.009-6.167z" fill="#c5573a"/><path d="m352.5 280h-51.528v6.857c0 5.708-2.152 11.141-6.062 15.298l-22.635 24.082c-4.207 4.474-10.139 7.039-16.275 7.039-6.139 0-12.07-2.565-16.273-7.038l-22.638-24.085c-3.908-4.158-6.061-9.59-6.061-15.296v-6.857h-25.972c-3.719 19.796-14.651 37.595-30.557 49.879v160.164c30.928 14.097 65.295 21.957 101.501 21.957s70.573-7.86 101.5-21.957v-205.043c0-2.75-2.25-5-5-5z" fill="#fe0364"/><path d="m185.057 280c-3.719 19.796-14.651 37.595-30.557 49.879v160.164c9.835 4.483 20.02 8.329 30.5 11.498v-216.541c0-2.75 2.25-5 5-5z" fill="#c20148"/><path d="m285.972 280v6.857c0 1.874-.707 3.658-1.99 5.023l-22.636 24.084c-1.382 1.469-3.33 2.312-5.346 2.312s-3.964-.842-5.345-2.312l-22.637-24.084c-1.283-1.365-1.99-3.149-1.99-5.023v-6.857h-16v6.857c0 5.962 2.249 11.638 6.332 15.982l22.638 24.085c4.392 4.673 10.589 7.353 17.002 7.353 6.412 0 12.608-2.68 17.004-7.354l22.635-24.082c4.084-4.344 6.333-10.02 6.333-15.983v-6.858z" fill="#fff"/><path d="m256 268.989c-10.959 0-21.414-2.185-30.972-6.118v23.986c0 2.129.803 4.156 2.262 5.708l22.637 24.084c1.569 1.669 3.783 2.626 6.073 2.626s4.504-.957 6.074-2.627l22.636-24.084c1.459-1.552 2.262-3.579 2.262-5.708v-23.986c-9.558 3.934-20.013 6.119-30.972 6.119z" fill="#c5573a"/><path d="m247 281.585v-13.103c-7.694-.848-15.067-2.77-21.972-5.611v23.986c0 2.129.803 4.156 2.262 5.708l22.637 24.084c1.569 1.669 3.783 2.626 6.073 2.626s4.504-.957 6.074-2.627l7.39-7.862-20.202-21.494c-1.459-1.551-2.262-3.578-2.262-5.707z" fill="#a94b30"/><path d="m256 35.974c16.48 0 31.286 2.418 43.813 7.056 1.406-3.572 2.187-7.459 2.187-11.53 0-17.397-14.103-31.5-31.5-31.5h-29c-17.396 0-31.5 14.103-31.5 31.5 0 4.071.781 7.958 2.188 11.53 12.526-4.638 27.332-7.056 43.812-7.056z" fill="#554e56"/><path d="m235.548 37.334c-.355-1.892-.548-3.839-.548-5.834 0-17.397 14.104-31.5 31.5-31.5h-25c-17.396 0-31.5 14.103-31.5 31.5 0 4.071.781 7.958 2.188 11.53 7.09-2.626 14.914-4.533 23.36-5.696z" fill="#433f43"/><path d="m174.346 150.482v-6.145c0-21.286 8.004-37.779 23.789-49.023 14.159-10.085 34.169-15.415 57.865-15.415s43.706 5.331 57.865 15.416c15.785 11.244 23.789 27.737 23.789 49.023v6.145h7v-45.319c0-48.961-39.692-70.188-88.654-70.188s-88.654 21.227-88.654 70.188v45.319h7z" fill="#554e56"/><path d="m174.346 150.482v-6.145c0-19.836 6.959-35.506 20.681-46.649 3.481-39.274 34.64-58.646 74.647-62.133-4.457-.388-9.023-.581-13.673-.581-48.962 0-88.654 21.227-88.654 70.188v45.319h6.999z" fill="#433f43"/><path d="m256 78.899c-45.648 0-82.654 19.791-82.654 65.438v6.145h1.922c8.109-33.689 41.165-48.572 80.732-48.572s72.623 14.883 80.732 48.572h1.922v-6.145c0-45.648-37.006-65.438-82.654-65.438z" fill="#fff"/><path d="m256 78.899c-45.648 0-82.654 19.791-82.654 65.438v6.145h1.906c3.826-15.882 13.203-27.579 26.189-35.511 11.175-22.236 35.826-33.508 65.386-35.67-3.546-.26-7.154-.402-10.827-.402z" fill="#e3f3ff"/><path d="m162.4 207.037c.635.072 1.275.116 1.928.116h12.462c-1.589-6.348-2.444-12.984-2.444-19.817v-19.988c0-6.395.737-12.349 2.176-17.866h-12.193c-9.469 0-17.215 7.747-17.215 17.215v23.241c0 1.997.362 3.91.995 5.697 5.178 3.272 9.978 7.091 14.291 11.402z" fill="#d8694b"/><path d="m347.672 149.482h-12.193c1.439 5.518 2.176 11.471 2.176 17.866v19.988c0 6.833-.855 13.469-2.444 19.817h12.462c9.469 0 17.215-7.747 17.215-17.215v-23.241c-.001-9.468-7.747-17.215-17.216-17.215z" fill="#c5573a"/><path d="m256 101.91c-45.648 0-82.654 19.791-82.654 65.438v19.988c0 45.648 37.006 82.653 82.654 82.653s82.654-37.005 82.654-82.653v-19.988c0-45.648-37.006-65.438-82.654-65.438z" fill="#d8694b"/><path d="m189.691 187.336v-19.988c0-42.889 32.67-62.949 74.482-65.217-2.69-.146-5.414-.222-8.173-.222-45.648 0-82.654 19.791-82.654 65.438v19.988c0 45.648 37.006 82.653 82.654 82.653 2.759 0 5.483-.142 8.173-.406-41.812-4.103-74.482-39.356-74.482-82.246z" fill="#c5573a"/><path d="m223.291 167.089c0 7.101-5.811 12.911-12.912 12.911-7.102 0-12.912-5.81-12.912-12.911v-12.912c0-7.102 5.811-12.912 12.912-12.912 7.102 0 12.912 5.81 12.912 12.912z" fill="#554e56"/><path d="m314.533 167.089c0 7.101-5.811 12.911-12.912 12.911-7.102 0-12.912-5.81-12.912-12.911v-12.912c0-7.102 5.81-12.912 12.912-12.912 7.102 0 12.912 5.81 12.912 12.912z" fill="#554e56"/><path d="m263.135 198.374h-10.514c-6.206 0-11.256-5.049-11.256-11.255v-18.775c0-4.142 3.357-7.5 7.5-7.5s7.5 3.358 7.5 7.5v15.029h6.77c4.143 0 7.5 3.358 7.5 7.5 0 4.143-3.358 7.501-7.5 7.501z" fill="#a94b30"/><path d="m275.798 230.148h-39.596c-4.143 0-7.5-3.358-7.5-7.5s3.357-7.5 7.5-7.5h39.596c4.142 0 7.5 3.358 7.5 7.5s-3.358 7.5-7.5 7.5z" fill="#a94b30"/><path d="m104.219 182.001c-45.822.156-82.84 37.427-82.684 83.248.113 33.016 19.498 61.457 47.465 74.719v-.401c0-4.724 3.843-8.567 8.566-8.567 2.715 0 5.212 1.256 6.851 3.446.466.62 1.205.99 1.979.99s1.515-.37 1.979-.99c1.641-2.19 4.139-3.446 6.852-3.446 2.717 0 5.214 1.256 6.853 3.446.468.621 1.207.99 1.978.99.773 0 1.514-.37 1.979-.988 1.64-2.191 4.137-3.447 6.853-3.447 2.714 0 5.211 1.256 6.851 3.446.466.62 1.206.99 1.979.99.771 0 1.51-.369 1.976-.987 1.642-2.193 4.139-3.449 6.855-3.449 4.724 0 8.566 3.843 8.566 8.567v.796c28.625-13.163 48.467-42.117 48.354-75.68-.16-45.823-37.432-82.84-83.252-82.683z" fill="#b4dbff"/><path d="m119.106 215.224c-14.335 22.305-14.646 49.438-14.646 49.438s44.053 21.443 44.292 70.469c8.478-5.359 15.921-12.203 21.952-20.178 2.211-57.321-35.527-88.921-51.598-99.729z" fill="#c7e7ff"/><path d="m104.461 264.662s.608-53.95 40.296-72.237c-12.004-6.676-25.826-10.475-40.538-10.424-45.822.156-82.84 37.427-82.684 83.248.013 3.848.307 7.626.831 11.331 21.251 6.875 56.836 12.808 82.095-11.918z" fill="#e3f3ff"/><path d="m58.753 282.567c.466-10.675 5.008-78.17 45.781-100.561-.104 0-.21-.007-.315-.006-45.822.156-82.84 37.427-82.684 83.248.013 3.847.307 7.626.83 11.331 9.864 3.192 22.815 6.174 36.388 5.988z" fill="#c7e7ff"/><path d="m69 339.567c0-4.724 3.843-8.567 8.566-8.567 2.715 0 5.212 1.256 6.851 3.446.466.62 1.205.99 1.979.99s1.515-.37 1.979-.99c1.641-2.19 4.139-3.446 6.852-3.446 2.717 0 5.214 1.256 6.853 3.446.468.621 1.207.99 1.978.99.773 0 1.514-.37 1.979-.988 1.64-2.191 4.137-3.447 6.853-3.447 2.714 0 5.211 1.256 6.851 3.446.466.62 1.206.99 1.979.99.771 0 1.51-.369 1.976-.987 1.642-2.193 4.139-3.449 6.855-3.449 4.724 0 8.566 3.843 8.566 8.567v.798c3.338-1.537 6.559-3.283 9.64-5.23-.237-49.028-44.292-70.472-44.292-70.472-25.26 24.727-60.846 18.793-82.097 11.917 3.938 28.098 21.938 51.654 46.636 63.375v-.389z" fill="#b4dbff"/><path d="m69 339.567c0-4.724 3.843-8.567 8.566-8.567 2.715 0 5.212 1.256 6.851 3.446.466.62 1.205.99 1.979.99s1.515-.37 1.979-.99c1.641-2.19 4.139-3.446 6.852-3.446 2.717 0 5.214 1.256 6.853 3.446.468.621 1.207.99 1.978.99.773 0 1.514-.37 1.979-.988 1.64-2.191 4.137-3.447 6.853-3.447 2.714 0 5.211 1.256 6.851 3.446.466.62 1.206.99 1.979.99.771 0 1.51-.369 1.976-.987 1.642-2.193 4.139-3.449 6.855-3.449 4.724 0 8.566 3.843 8.566 8.567v.798c3.334-1.535 6.552-3.279 9.63-5.225-.072-14.697-4.066-26.927-9.649-36.832-26.977 24.19-65.495 25.759-97.836 20.335 7.592 8.934 17.038 16.237 27.742 21.318v-.395z" fill="#e3f3ff"/><path d="m140.113 362.939c0 9.043-7.356 16.399-16.4 16.399h-39.316c-9.042 0-16.397-7.356-16.397-16.399v-23.372c0-5.275 4.29-9.567 9.566-9.567 3.033 0 5.821 1.401 7.651 3.847.277.369.714.589 1.178.589s.901-.22 1.178-.589c1.833-2.446 4.622-3.847 7.652-3.847 3.033 0 5.823 1.401 7.653 3.847.278.369.716.589 1.177.589.464 0 .901-.22 1.179-.589 1.83-2.446 4.619-3.847 7.652-3.847 3.032 0 5.82 1.401 7.651 3.847.277.369.715.589 1.179.589.462 0 .898-.22 1.177-.589 1.831-2.446 4.619-3.847 7.653-3.847 5.274 0 9.566 4.292 9.566 9.567v23.372z" fill="#c5573a"/><path d="m84.887 362.939v-23.372c0-1.889.558-3.647 1.506-5.132-.463-.001-.898-.22-1.175-.588-1.83-2.446-4.618-3.847-7.652-3.847-5.276 0-9.566 4.292-9.566 9.567v23.372c0 9.043 7.355 16.399 16.397 16.399h16.887c-9.042 0-16.397-7.356-16.397-16.399z" fill="#a94b30"/><path d="m231.969 439.951c-1.286 0-2.494-.619-3.246-1.663s-.955-2.386-.548-3.605l2.256-6.747c.545-1.63 2.07-2.73 3.789-2.732l36.573-.046v-14.793h-34.518c-6.544 0-9.862-3.302-9.862-9.813v-30.567c0-2.209 1.791-4 4-4h51.174c2.209 0 4 1.791 4 4v6.838c0 1.061-.422 2.08-1.173 2.83-.75.749-1.768 1.17-2.827 1.17-.002 0-40.385-.045-40.385-.045l.004 14.843h34.519c6.544 0 9.862 3.302 9.862 9.813v24.656c0 6.636-3.226 9.862-9.862 9.862h-43.756z" fill="#fff"/></svg>