<svg id="Capa_1" enable-background="new 0 0 512 512" height="512" viewBox="0 0 512 512" width="512" xmlns="http://www.w3.org/2000/svg"><circle cx="256" cy="267" fill="#006e66" r="245"/><path d="m450.115 343v34.147c0 10.947-8.905 19.853-19.852 19.853h-13.036l-.039.959c-.438 10.677-9.14 19.041-19.809 19.041h-306.527c-10.947 0-19.852-8.906-19.852-19.853v-54.147h-47.965c31.985 98.102 124.188 169 232.965 169 108.776 0 200.98-70.898 232.965-169z" fill="#c7e7ff"/><path d="m95.396 452h321.208c33.123-28.785 58.444-66.316 72.361-109h-38.85v34.147c0 10.947-8.905 19.853-19.852 19.853h-13.036l-.039.959c-.438 10.677-9.14 19.041-19.809 19.041h-306.527c-10.947 0-19.852-8.906-19.852-19.853v-54.147h-47.965c13.917 42.685 39.238 80.215 72.361 109z" fill="#eb6000"/><path d="m123.351 473c38.229 24.673 83.763 39 132.649 39s94.42-14.327 132.649-39z" fill="#eb6000"/><path d="m193.24 1c2.206 0 4 1.794 4 4v110h33.885v-110c0-2.75-2.25-5-5-5h-32.885z" fill="#fea95c"/><path d="m204.539 142.965c0 2.206-1.794 4-4 4h-3.299v82.72l1.981.191.618-3.169c.62-3.178 2.789-5.783 5.803-6.969 1.103-.434 2.263-.653 3.447-.653 2.007 0 3.925.624 5.546 1.805 3.297 2.398 6.827 5.266 9.818 7.766 1.449-.809 2.862-1.65 4.194-2.559l.339-.231 2.138-10.958v-80.012h-26.586v8.069z" fill="#e3f3ff"/><path d="m199.84 226.708c.62-3.178 2.789-5.783 5.803-6.969 1.103-.434 2.263-.653 3.447-.653 2.007 0 3.925.624 5.546 1.805.044.032.089.066.132.098v-86.093h-10.229v8.069c0 2.206-1.794 4-4 4h-3.299v93.069z" fill="#b4dbff"/><path d="m417.23 360.509v36.639c0 .288-.031.568-.043.853h13.076c11.469 0 20.852-9.384 20.852-20.853v-16.639z" fill="#004281"/><path d="m228.615 232.175c6.214 5.292 12.051 10.262 16.156 12.224l121.042 57.891c12.068-5.446 23.974-13.353 32.86-21.12l-120.586-57.673c-3.995-1.909-9.789-6.846-15.939-12.083-3.369-2.871-9.01-7.674-14.039-11.332-1.81-1.317-3.962-1.996-6.135-1.996-1.287 0-2.581.238-3.813.723-3.315 1.305-5.735 4.21-6.418 7.708l-3.659 18.755c-1.401.957-2.89 1.857-4.441 2.71 1.897 1.575 3.623 3.043 4.972 4.193z" fill="#0199b1"/><g fill="#fff"><path d="m273.106 240.491c-1.919 0-3.839-.732-5.304-2.197-2.929-2.929-2.929-7.678 0-10.606l10.671-10.671c2.93-2.929 7.678-2.929 10.607 0s2.929 7.678 0 10.606l-10.671 10.671c-1.464 1.465-3.384 2.197-5.303 2.197z"/><path d="m299.655 253.04c-1.919 0-3.839-.732-5.304-2.197-2.929-2.929-2.929-7.678 0-10.607l10.708-10.708c2.93-2.929 7.678-2.929 10.607 0s2.929 7.678 0 10.607l-10.708 10.708c-1.464 1.465-3.384 2.197-5.303 2.197z"/><path d="m326.204 265.589c-1.919 0-3.839-.732-5.304-2.197-2.929-2.929-2.929-7.678 0-10.606l10.746-10.746c2.93-2.929 7.678-2.929 10.607 0s2.929 7.678 0 10.606l-10.746 10.746c-1.464 1.464-3.384 2.197-5.303 2.197z"/><path d="m352.754 278.139c-1.919 0-3.838-.732-5.303-2.196-2.93-2.929-2.93-7.677-.001-10.607l10.782-10.784c2.928-2.93 7.677-2.93 10.607-.001s2.93 7.677.001 10.606l-10.782 10.784c-1.464 1.465-3.385 2.198-5.304 2.198z"/></g><path d="m432.304 297.254-34.54-16.52c-9.1 8.329-20.331 15.456-33.117 20.997l34.341 16.424c10.06 4.811 18.243 17.796 18.243 28.947v14.406h33.885v-34.406c-.001-11.468-8.466-24.9-18.812-29.848z" fill="#a7e8f1"/><path d="m197.24 127.069h3.299c2.206 0 4 1.795 4 4v4.826h28.885c2.75 0 5-2.25 5-5v-11.895c0-2.75-2.25-5-5-5h-36.184z" fill="#c7e7ff"/><path d="m198.24 127.069v-122.069c0-2.75-2.25-5-5-5h-98.431c-2.75 0-5 2.25-5 5v122.069z" fill="#fdb97e"/><path d="m117 127.069v-122.069c0-2.75 2.25-5 5-5h-27.191c-2.75 0-5 2.25-5 5v122.069z" fill="#fea95c"/><path d="m89.809 146.965v88.589c.348-.018.691-.053 1.043-.053h11.326c1.311 0 2.524.593 3.326 1.627 9.567 12.311 29.19 20.267 49.989 20.267 14.952 0 29.635-4.143 40.281-11.366l.341-.232 2.125-10.892v-87.942h-108.431z" fill="#e3f3ff"/><path d="m102.32 146.965v88.552c1.255.042 2.41.616 3.184 1.611 3.796 4.884 9.178 9.08 15.584 12.368v-102.531z" fill="#c7e7ff"/><path d="m134.642 146.965v107.707c5.929 1.594 12.274 2.53 18.767 2.696v-110.403z" fill="#c7e7ff"/><path d="m166.962 146.965v109.614c6.635-.943 13.005-2.694 18.768-5.143v-104.471z" fill="#c7e7ff"/><path d="m90.852 380.509c-10.946 0-19.852-8.906-19.852-19.852h-1v36.491c0 11.468 9.383 20.852 20.852 20.852h306.527c11.469 0 20.852-9.384 20.852-20.853v-16.639h-327.379z" fill="#0078c8"/><path d="m169.047 380.509v37.491h228.332c11.469 0 20.852-9.384 20.852-20.853v-16.639h-249.184z" fill="#015a9a"/><path d="m399.419 317.254-154.216-73.757c-3.995-1.909-9.789-6.846-15.939-12.083-3.369-2.871-9.01-7.674-14.039-11.332-1.81-1.317-3.962-1.996-6.135-1.996-1.287 0-2.581.238-3.813.723-3.315 1.305-5.735 4.21-6.418 7.708l-3.645 18.686c-10.311 6.995-24.701 11.193-39.72 11.193-20.503 0-39.814-7.804-49.199-19.881-.987-1.271-2.507-2.014-4.116-2.014h-11.327c-11.498 0-20.852 9.354-20.852 20.852v105.303c0 11.498 9.354 20.852 20.852 20.852h327.378v-34.406c0-11.498-8.438-24.887-18.811-29.848z" fill="#fff"/><path d="m179.665 252.725c-.02-.02-.038-.039-.058-.059-7.433 2.402-15.674 3.73-24.114 3.73-20.503 0-39.814-7.804-49.199-19.881-.987-1.271-2.507-2.014-4.116-2.014h-11.326c-11.498 0-20.852 9.354-20.852 20.852v35.448c25.783 13.345 63.401 20.853 105.303 20.853 28.366 0 54.762-11.581 76.859-24.257z" fill="#d4f2f6"/><path d="m97.77 301.654c-10.279-3-19.617-6.633-27.77-10.853v31.5c9.886.693 19.256 3.18 27.77 7.117z" fill="#e3f3ff"/><path d="m246.87 331.091c-8.109-8.11-21.38-8.11-29.49 0l-14.82 14.82c-8.11 8.11-24.129 14.745-35.598 14.745h-27.107c-2.41 0-4.777.432-7.037 1.186 3.37 6.101 5.897 12.704 7.424 19.666h177.899z" fill="#02c7dd"/><path d="m95.022 277.248c-5.183 0-9.384-4.201-9.384-9.384s4.201-9.384 9.384-9.384c.956 0 1.878.145 2.747.411v-3.538c0-7.354 3.835-13.815 9.601-17.529 0 0-.001-.001-.001-.001-.37-.431-.731-.866-1.075-1.309-.987-1.271-2.507-2.014-4.116-2.014h-11.326c-11.498 0-20.852 9.354-20.852 20.852v35.448c8.152 4.219 17.49 7.853 27.77 10.853v-24.817c-.87.267-1.791.412-2.748.412z" fill="#6bd9e7"/><path d="m70 322.302v38.355c0 11.469 9.383 20.852 20.852 20.852h49.39c-7.06-32.209-35.474-56.77-70.242-59.207z" fill="#a7e8f1"/><path d="m327.095 323.663h.001c14.731-5.772 27.591-13.599 37.783-22.928l-119.676-57.237c-3.995-1.909-9.789-6.846-15.939-12.083-3.369-2.871-9.01-7.674-14.039-11.332-1.81-1.317-3.962-1.996-6.135-1.996-1.287 0-2.581.238-3.813.723-3.315 1.305-5.735 4.21-6.418 7.708l-3.659 18.755c-4.457 3.044-9.706 5.578-15.534 7.453l143.644 68.699c1.294.619 2.561 1.372 3.785 2.238z" fill="#02c7dd"/><path d="m233.689 267.023c-1.919 0-3.839-.732-5.304-2.197-2.929-2.929-2.929-7.678 0-10.606l17.203-17.203c2.93-2.929 7.678-2.929 10.607 0s2.929 7.678 0 10.606l-17.203 17.203c-1.464 1.465-3.384 2.197-5.303 2.197z" fill="#fff"/><path d="m260.275 279.535c-1.919 0-3.839-.732-5.304-2.197-2.929-2.929-2.929-7.678 0-10.607l17.203-17.203c2.93-2.929 7.678-2.929 10.607 0s2.929 7.678 0 10.607l-17.203 17.203c-1.464 1.465-3.384 2.197-5.303 2.197z" fill="#fff"/><path d="m286.862 292.046c-1.919 0-3.839-.732-5.304-2.197-2.929-2.929-2.929-7.678 0-10.606l17.203-17.203c2.93-2.929 7.678-2.929 10.607 0s2.929 7.678 0 10.606l-17.203 17.203c-1.464 1.465-3.384 2.197-5.303 2.197z" fill="#fff"/><path d="m313.449 304.558c-1.919 0-3.839-.732-5.303-2.197-2.93-2.929-2.93-7.677-.001-10.606l17.202-17.203c2.93-2.929 7.679-2.93 10.606 0 2.93 2.929 2.93 7.677.001 10.606l-17.202 17.203c-1.464 1.464-3.384 2.197-5.303 2.197z" fill="#fff"/><path d="m104.405 267.864c0 5.183-4.2 9.384-9.383 9.384-5.183 0-9.384-4.201-9.384-9.384 0-5.183 4.201-9.384 9.384-9.384 5.183 0 9.383 4.202 9.383 9.384z" fill="#02c7dd"/><path d="m133.599 278.29c0 5.183-4.201 9.384-9.384 9.384-5.182 0-9.383-4.201-9.383-9.384 0-5.183 4.201-9.383 9.383-9.383 5.183 0 9.384 4.2 9.384 9.383z" fill="#02c7dd"/><path d="m128.386 406.732h-30.236c-4.143 0-7.5-3.358-7.5-7.5s3.357-7.5 7.5-7.5h30.235c4.143 0 7.5 3.358 7.5 7.5.001 4.143-3.357 7.5-7.499 7.5z" fill="#fff"/><path d="m399.419 317.254-34.54-16.52c-10.192 9.329-23.052 17.156-37.783 22.928 8.547 6.044 15.024 17.579 15.024 27.611v30.235h76.11v-34.406c0-11.468-8.464-24.9-18.811-29.848z" fill="#d4f2f6"/><path d="m205.539 131.069c0-2.75-2.25-5-5-5h-113.028c-2.75 0-5 2.25-5 5v11.895c0 2.75 2.25 5 5 5h113.028c2.75 0 5-2.25 5-5z" fill="#b4dbff"/><path d="m109.972 142.965v-11.895c0-2.75 2.25-5 5-5h-27.461c-2.75 0-5 2.25-5 5v11.895c0 2.75 2.25 5 5 5h27.461c-2.75 0-5-2.25-5-5z" fill="#98bce5"/><path d="m97.77 360.656v-31.237c-8.514-3.938-17.884-6.424-27.77-7.117v38.355c0 11.469 9.383 20.852 20.852 20.852h27.77c-11.499 0-20.852-9.355-20.852-20.853z" fill="#6bd9e7"/></svg>