<svg id="Capa_1" enable-background="new 0 0 512 512" height="512" viewBox="0 0 512 512" width="512" xmlns="http://www.w3.org/2000/svg"><circle cx="256" cy="267" fill="#fed402" r="245"/><path d="m414.498 253.798c-1.809 0-3.28-1.472-3.28-3.28v-8.705h-25.328v8.705c0 1.809-1.472 3.28-3.28 3.28h-15.126v14.202h76.585l-9.717-14.202z" fill="#6bd9e7"/><path d="m343.802 253.798h-15.125c-1.809 0-3.281-1.472-3.281-3.28v-8.705h-5.067c-2.157 0-5.499-1.006-7.296-2.197l-11.697-7.748c-2.142-1.418-5.832-2.529-8.401-2.529h-29.963c-2.912 0-5.28 2.369-5.28 5.281v3.913c0 1.809-1.472 3.28-3.281 3.28h-9.774v8.705c0 1.809-1.472 3.28-3.281 3.28h-15.125v14.145l.068.058h117.503z" fill="#6bd9e7"/><path d="m166.707 171c.172 1.252-.412 2.542-1.578 3.199l-5.388 3.038.369.831c2.299 5.174 7.321 15.785 15.134 28.716l1.852-.6c-.703-8.486-.946-21.078 1.392-35.185h-11.781z" fill="#6bd9e7"/><path d="m80.223 222.088-2.336 1.317c-.471.266-1.006.406-1.546.406-1.152 0-2.216-.617-2.776-1.611l-13.122-23.265c-.859-1.524-.319-3.464 1.205-4.323l41.864-23.612h-72.981c-12.568 29.482-19.531 61.927-19.531 96 0 .334.013.666.014 1h69.209z" fill="#6bd9e7"/><path d="m481.469 171h-46.978c14.13 7.102 30.062 20.088 31.152 42.753l.046.952h2.743c1.809 0 3.28 1.472 3.28 3.281v32.531c0 1.809-1.471 3.28-3.28 3.28h-5.384s4.331 6.329 4.332 6.331c1.604 2.449 2.845 5.103 3.714 7.871h29.893c.001-.334.014-.666.014-1-.001-34.072-6.963-66.517-19.532-95.999z" fill="#6bd9e7"/><g fill="#a7e8f1"><path d="m267.487 379.744v8.512c0 1.75-1.423 3.174-3.173 3.174h-14.772v31.214h71.401c4.065 0 7.488-3.045 7.962-7.084.272-2.32-.479-4.093-1.156-5.17-.532-.78-12.973-18.96-12.973-18.96h-19.37c-1.75 0-3.173-1.424-3.173-3.174v-8.512z"/><path d="m367.484 285.76h73.206c4.157 0 7.657-3.113 8.141-7.241.279-2.373-.489-4.185-1.182-5.286l-4.265-6.233h-75.9z"/><path d="m343.802 267h-117.571v.942l.355.299c7.832 6.614 15.981 12.461 24.221 17.377l.236.142h92.759z"/><path d="m226.501 391.429h-14.773c-1.75 0-3.173-1.424-3.173-3.174v-8.512h-4.965c-2.099 0-5.351-.98-7.101-2.139l-11.404-7.554c-2.092-1.386-5.696-2.471-8.205-2.471h-29.213c-2.853 0-5.174 2.321-5.174 5.174v3.815c0 1.75-1.423 3.174-3.173 3.174h-9.555v8.512c0 1.75-1.424 3.174-3.174 3.174h-14.772v31.214h114.682z"/><path d="m470.76 267c1.593 4.542 2.16 9.432 1.591 14.277-1.884 16.058-15.496 28.166-31.662 28.166h-124.022l-.463 1.887c12.665 6.618 27.986 19.117 29.042 41.081l.046.952h2.698c1.75 0 3.173 1.424 3.173 3.174v31.718c0 1.75-1.423 3.174-3.173 3.174h-5.297s4.197 6.132 4.24 6.195c3.975 6.069 5.702 13.396 4.854 20.62-1.836 15.643-15.096 27.439-30.846 27.439h-232.542c43.822 41.121 102.766 66.317 167.601 66.317 135.31 0 245-109.69 245-245z"/><path d="m88.779 422.643v-31.214h-14.773c-1.75 0-3.173-1.424-3.173-3.174v-8.512h-6.634c-1.75 0-3.173-1.424-3.173-3.174v-20.032c0-1.626 1.231-2.975 2.864-3.138l1.043-.104-.154-1.037c-1.603-10.823-5.239-48.725 15.294-82.002l.149-.242v-3.014h-69.222c0 59.105 20.933 113.321 55.785 155.643z"/></g><path d="m383.895 413.678h-30.917c.046 1.558-.013 3.122-.196 4.683-.853 7.27-4.102 13.728-8.894 18.64h40.008c7.125 0 12.957-5.247 12.957-11.661-.001-6.414-5.833-11.662-12.958-11.662z" fill="#d4f2f6"/><path d="m376.656 325.945c-6.117 0-11.123 4.504-11.123 10.009s5.006 10.01 11.123 10.01h79.243c6.116 0 11.12 4.504 11.12 10.009s-5.004 10.01-11.12 10.01h-25.025c-6.116 0-11.12 4.504-11.12 10.01 0 5.504 5.003 10.009 11.12 10.009h39.315c10.388-18.656 18.406-38.809 23.655-60.056h-117.188z" fill="#d4f2f6"/><path d="m230.895 458.678h-42.938c-7.126 0-12.957 5.248-12.957 11.661 0 6.414 5.831 11.661 12.957 11.661h42.938c7.125 0 12.957-5.247 12.957-11.661 0-6.413-5.832-11.661-12.957-11.661z" fill="#d4f2f6"/><path d="m227.231 268.786v-14.987h-16.084c4.99 5.146 10.348 10.184 16.084 14.987z" fill="#7bacdf"/><path d="m468.198 259.553c-.004-.006-1.557-2.275-3.938-5.755h-31.12c6.642 9.706 13.119 19.172 13.662 19.967.605.962 1.279 2.559 1.035 4.638-.425 3.624-3.498 6.358-7.147 6.358h-72.206v-30.962h-25.683v30.962h-93.394c13.176 8.038 27.853 14.544 44.092 18.494.251.045 9.886 1.825 20.78 7.19h126.41c16.674 0 30.712-12.488 32.655-29.05.898-7.648-.93-15.404-5.146-21.842z" fill="#7bacdf"/><path d="m410.219 241.813v8.705c0 2.354 1.925 4.28 4.28 4.28h53.934c2.354 0 4.28-1.927 4.28-4.28v-8.705z" fill="#eaf9fa"/><path d="m432 250.518v-8.705h-21.782v8.705c0 2.354 1.925 4.28 4.28 4.28h21.782c-2.354 0-4.28-1.926-4.28-4.28z" fill="#c7e7ff"/><path d="m324.396 241.813v8.705c0 2.354 1.926 4.28 4.281 4.28h53.933c2.353 0 4.28-1.927 4.28-4.28v-8.705z" fill="#eaf9fa"/><path d="m346 250.518v-8.705h-21.605v8.705c0 2.354 1.926 4.28 4.281 4.28h21.604c-2.354 0-4.28-1.926-4.28-4.28z" fill="#c7e7ff"/><path d="m212.119 254.798h29.237c2.354 0 4.281-1.927 4.281-4.28v-8.705h-45.335c3.686 4.359 7.622 8.712 11.817 12.985z" fill="#eaf9fa"/><path d="m412.786 162.341c-85.494-20.797-128.709-110.872-136.52-128.735l-83.493 47.091v48.257c-18.718 30.336-17.971 64.561-16.47 79.568l3.902 6.184h286.485c-1.253-43.166-53.904-52.365-53.904-52.365z" fill="#c7e7ff"/><path d="m220.054 65.31-27.281 15.387v48.257c-24.827 40.236-15.41 87.321-15.41 87.321h27.281s-9.417-47.085 15.41-87.321z" fill="#b4dbff"/><path d="m412.786 162.341c-85.494-20.797-128.709-110.872-136.52-128.735l-21.787 12.288c1.427 3.111 4.004 8.493 7.732 15.377 1.565-1.048 3.445-1.66 5.469-1.66 5.437 0 9.845 4.408 9.845 9.845 0 3.852-2.215 7.177-5.437 8.795 2.617 4.202 5.511 8.631 8.67 13.192 1.62-1.171 3.604-1.868 5.755-1.868 5.437 0 9.845 4.406 9.845 9.844 0 3.196-1.53 6.029-3.891 7.828 3.316 4.183 6.838 8.393 10.574 12.572.741-.178 1.51-.282 2.306-.282 5.437 0 9.845 4.408 9.845 9.846 0 .951-.142 1.868-.394 2.738 21.395 20.908 48.353 39.409 80.886 47.322 0 0 38.138 6.666 50.269 35.263h20.736c-1.252-43.166-53.903-52.365-53.903-52.365z" fill="#eaf9fa"/><path d="m181.241 216.275h98.565c.187-2.26.286-4.542.286-6.85 0-45.389-36.795-82.184-82.184-82.184-1.726 0-3.438.059-5.136.165v1.547c-18.713 30.328-17.971 64.542-16.471 79.556 1.546 2.517 3.189 5.109 4.94 7.766z" fill="#eaf9fa"/><path d="m180.217 214.706h24.155c-1.342-8.395-6.36-48.977 14.997-84.615-6.843-1.847-14.033-2.849-21.46-2.849-1.726 0-3.438.059-5.136.165v1.547c-18.712 30.327-17.971 64.541-16.472 79.555 1.24 2.017 2.543 4.085 3.916 6.197z" fill="#c7e7ff"/><path d="m468.432 213.706h-288.863c5.906 9.174 13.084 19.169 21.578 29.107h53.264c2.354 0 4.281-1.926 4.281-4.28v-3.913c0-2.354 1.926-4.281 4.28-4.281h29.963c2.354 0 5.886 1.064 7.849 2.363l11.697 7.748c1.962 1.3 5.495 2.363 7.849 2.363h152.383v-24.826c-.001-2.356-1.927-4.281-4.281-4.281z" fill="#015a9a"/><path d="m210.281 213.706h-30.712c5.906 9.174 13.084 19.169 21.578 29.107h9.134c-2.354 0-4.28-1.926-4.28-4.28v-20.546c-.001-2.356 1.925-4.281 4.28-4.281z" fill="#015a9a"/><path d="m186.075 80.708c1.156 2.05 3.781 2.782 5.831 1.626l89.479-50.468c2.051-1.156 2.782-3.78 1.626-5.832l-13.458-23.859c-1.156-2.052-3.78-2.782-5.831-1.627l-89.479 50.468c-2.05 1.156-2.781 3.78-1.626 5.832z" fill="#7bacdf"/><path d="m200.058 56.848c-1.156-2.052-.425-4.676 1.626-5.832l72.389-40.829-4.52-8.012c-1.156-2.052-3.78-2.782-5.831-1.627l-89.479 50.468c-2.05 1.156-2.781 3.78-1.626 5.832l13.458 23.86c1.156 2.05 3.781 2.782 5.831 1.626l17.09-9.639z" fill="#3c87d0"/><path d="m257.835 69.456c0 5.439 4.408 9.846 9.845 9.846s9.845-4.407 9.845-9.846c0-5.436-4.408-9.845-9.845-9.845s-9.845 4.408-9.845 9.845z" fill="#b4dbff"/><path d="m276.669 99.418c0 5.438 4.408 9.846 9.845 9.846s9.845-4.408 9.845-9.846-4.408-9.844-9.845-9.844c-5.437.001-9.845 4.407-9.845 9.844z" fill="#b4dbff"/><path d="m295.503 129.382c0 5.438 4.407 9.844 9.845 9.844 5.437 0 9.845-4.406 9.845-9.844 0-5.437-4.408-9.846-9.845-9.846-5.438.001-9.845 4.409-9.845 9.846z" fill="#b4dbff"/><path d="m347.762 397.065c-.003-.006-1.525-2.229-3.856-5.636h-30.342c6.482 9.472 12.808 18.717 13.338 19.492.589.938 1.246 2.496 1.009 4.522-.415 3.534-3.411 6.2-6.969 6.2h-70.401v-30.214h-25.04v30.214h-112.682v-30.214h-25.04v30.214h-28.25c-1.268 0-2.467.576-3.259 1.566l-13.355 16.693c-1.002 1.252-1.198 2.969-.503 4.415.695 1.445 2.157 2.365 3.761 2.365h274.769c16.256 0 29.944-12.176 31.839-28.322.875-7.456-.908-15.019-5.019-21.295z" fill="#7bacdf"/><path d="m64.412 444.318c-.695-1.446-.5-3.163.502-4.415l13.355-16.693c.792-.99 1.991-1.566 3.259-1.566h-22c-1.268 0-2.467.576-3.259 1.566l-13.355 16.693c-1.002 1.252-1.198 2.969-.503 4.415.695 1.445 2.157 2.365 3.761 2.365h22c-1.602 0-3.065-.92-3.76-2.365z" fill="#5f99d7"/><path d="m291.232 379.744v8.512c0 2.295 1.878 4.174 4.173 4.174h52.585c2.295 0 4.173-1.879 4.173-4.174v-8.512z" fill="#eaf9fa"/><path d="m313.069 388.255v-8.512h-21.836v8.512c0 2.295 1.878 4.174 4.173 4.174h21.836c-2.295 0-4.173-1.879-4.173-4.174z" fill="#c7e7ff"/><path d="m207.555 379.744v8.512c0 2.295 1.878 4.174 4.173 4.174h52.585c2.295 0 4.173-1.879 4.173-4.174v-8.512z" fill="#eaf9fa"/><path d="m229.069 388.255v-8.512h-21.513v8.512c0 2.295 1.878 4.174 4.173 4.174h21.513c-2.295 0-4.173-1.879-4.173-4.174z" fill="#c7e7ff"/><path d="m69.833 379.744v8.512c0 2.295 1.878 4.174 4.173 4.174h52.585c2.295 0 4.174-1.879 4.174-4.174v-8.512z" fill="#eaf9fa"/><path d="m91.068 388.255v-8.512h-21.235v8.512c0 2.295 1.878 4.174 4.173 4.174h21.235c-2.294 0-4.173-1.879-4.173-4.174z" fill="#c7e7ff"/><path d="m64.199 353.364h282.094c-1.202-42.108-52.557-51.081-52.557-51.081-83.392-20.284-125.528-108.175-133.117-125.539l-81.396 45.908v47.079c-21.65 35.088-16.591 75.513-15.281 83.659.086-.008.169-.026.257-.026z" fill="#c7e7ff"/><path d="m106.733 207.136-27.51 15.516v47.079c-24.206 39.23-15.024 85.138-15.024 85.138h27.51s-9.182-45.908 15.024-85.138z" fill="#b4dbff"/><path d="m277.062 318.957s37.178 6.516 49.001 34.406h20.23c-1.202-42.108-52.557-51.081-52.557-51.081-83.392-20.284-125.528-108.175-133.117-125.539l-21.242 11.98c8.051 17.564 53.943 109.865 137.685 130.234z" fill="#eaf9fa"/><path d="m64.199 353.364h99.977c.111-1.712.185-3.434.185-5.173 0-44.255-35.875-80.13-80.129-80.13-1.682 0-3.351.058-5.008.161v1.509c-21.65 35.088-16.591 75.513-15.281 83.659.085-.008.168-.026.256-.026z" fill="#eaf9fa"/><path d="m64.199 353.364h27.248c-1.299-8.109-6.208-47.572 14.485-82.305-6.904-1.939-14.177-2.998-21.701-2.998-1.682 0-3.351.058-5.008.161v1.509c-21.65 35.088-16.591 75.513-15.281 83.659.086-.008.169-.026.257-.026z" fill="#c7e7ff"/><path d="m64.199 352.364h283.791c2.295 0 4.173 1.878 4.173 4.174v24.206h-148.573c-2.295 0-5.739-1.037-7.653-2.305l-11.404-7.554c-1.914-1.268-5.357-2.305-7.653-2.305h-29.213c-2.295 0-4.174 1.878-4.174 4.174v3.815c0 2.295-1.878 4.174-4.173 4.174h-75.121c-2.295 0-4.173-1.879-4.173-4.174v-20.032c0-2.295 1.878-4.173 4.173-4.173z" fill="#015a9a"/><path d="m87.862 376.57v-20.032c0-2.296 1.878-4.174 4.173-4.174h-27.836c-2.295 0-4.173 1.878-4.173 4.174v20.032c0 2.295 1.878 4.174 4.173 4.174h27.837c-2.296 0-4.174-1.879-4.174-4.174z" fill="#015a9a"/><path d="m72.693 222.692c1.127 1.999 3.686 2.713 5.685 1.585l87.242-49.206c1.999-1.127 2.712-3.686 1.585-5.686l-13.122-23.264c-1.127-2-3.686-2.713-5.685-1.586l-87.242 49.206c-1.999 1.128-2.712 3.687-1.585 5.686z" fill="#7bacdf"/><path d="m86.831 199.427c-1.128-1.999-.414-4.558 1.585-5.686l70.196-39.592-4.528-8.028c-1.127-2-3.686-2.713-5.685-1.586l-87.242 49.206c-1.999 1.128-2.712 3.687-1.585 5.686l13.122 23.265c1.127 1.999 3.686 2.713 5.685 1.585l17.046-9.614z" fill="#3c87d0"/><path d="m142.659 211.72c0 5.302 4.298 9.599 9.599 9.599s9.599-4.297 9.599-9.599-4.298-9.599-9.599-9.599c-5.301.001-9.599 4.297-9.599 9.599z" fill="#b4dbff"/><path d="m161.022 240.934c0 5.302 4.298 9.599 9.599 9.599s9.599-4.297 9.599-9.599-4.298-9.599-9.599-9.599-9.599 4.297-9.599 9.599z" fill="#b4dbff"/><path d="m179.385 270.148c0 5.302 4.297 9.599 9.599 9.599s9.599-4.297 9.599-9.599-4.298-9.599-9.599-9.599-9.599 4.297-9.599 9.599z" fill="#b4dbff"/></svg>