<svg id="Capa_1" enable-background="new 0 0 512 512" height="512" viewBox="0 0 512 512" width="512" xmlns="http://www.w3.org/2000/svg"><circle cx="256" cy="256" fill="#2ed1e2" r="245"/><path d="m305.999 446.742h-87c-.338 0-.671-.022-.999-.059v51.379c12.385 1.929 25.074 2.938 38 2.938 17.49 0 34.547-1.848 51-5.331v-48.985c-.329.036-.662.058-1.001.058z" fill="#fea95c"/><path d="m218.999 446.742c-.338 0-.671-.022-.999-.059v51.379c8.206 1.277 16.547 2.143 25 2.587v-53.907z" fill="#ff9240"/><path d="m327 234.177v22.705c0 7.72-6.28 14-14 14h-6c-7.72 0-14-6.28-14-14v-3h-2c0 7.72-6.28 14-14 14h-6c-7.72 0-14-6.28-14-14v-8h-2c0 7.72-6.28 14-14 14h-6c-7.72 0-14-6.28-14-14v-4h-2c0 7.72-6.28 14-14 14h-6c-7.72 0-14-6.28-14-14v-7.705h-10.663v16.85l27.854 27.855h135.472v-44.705z" fill="#e3f3ff"/><path d="m313 215.882h-6c-8.25 0-15 6.75-15 15v-14c0-8.25-6.75-15-15-15h-6c-8.25 0-15 6.75-15 15v-13c0-8.25-6.75-15-15-15h-6c-8.25 0-15 6.75-15 15v-5c0-8.25-6.75-15-15-15h-6c-8.25 0-15 6.75-15 15v43c0 8.25 6.75 15 15 15h6c8.25 0 15-6.75 15-15v4c0 8.25 6.75 15 15 15h6c8.25 0 15-6.75 15-15v8c0 8.25 6.75 15 15 15h6c8.25 0 15-6.75 15-15v3c0 8.25 6.75 15 15 15h6c8.25 0 15-6.75 15-15v-26c0-8.25-6.75-15-15-15z" fill="#fdb97e"/><path d="m30.839 234.177h-20.839c-5.5 0-10 4.5-10 10v24.705c0 5.5 4.5 10 10 10h20.839z" fill="#e3f3ff"/><path d="m60.016 191.823h-5.177c-13.75 0-25 11.25-25 25v79.412c0 13.75 11.25 25 25 25h5.177z" fill="#3c87d0"/><path d="m147.361 274.135c-2.632-2.633-4.082-6.148-4.082-9.899s1.45-7.267 4.082-9.9l5.242-5.242c2.633-2.632 6.149-4.082 9.9-4.082s7.267 1.45 9.899 4.082l2.934 2.934v-74.028c0-13.75-11.25-25-25-25h-8.161c-13.75 0-25 11.25-25 25 0-13.75-11.25-25-25-25h-8.16c-13.75 0-25 11.25-25 25v157.059c0 13.75 11.25 25 25 25h8.16c13.75 0 25-11.25 25-25 0 13.75 11.25 25 25 25h8.161c13.75 0 25-11.25 25-25v-32.949z" fill="#3c87d0"/><path d="m117.176 178c0-13.75-11.25-25-25-25h-8.16c-13.75 0-25 11.25-25 25v157.059c0 13.75 11.25 25 25 25h8.16c13.75 0 25-11.25 25-25z" fill="#0268b4"/><path d="m86.84 335.059v-157.059c0-10.264 6.27-19.132 15.168-22.971-3.022-1.304-6.346-2.029-9.832-2.029h-8.16c-13.75 0-25 11.25-25 25v157.059c0 13.75 11.25 25 25 25h8.16c3.486 0 6.81-.726 9.832-2.029-8.898-3.84-15.168-12.708-15.168-22.971z" fill="#015a9a"/><path d="m502 234.177h-20.839v44.705h20.839c5.5 0 10-4.5 10-10v-24.705c0-5.5-4.5-10-10-10z" fill="#e3f3ff"/><path d="m457.161 191.823h-5.177v129.412h5.177c13.75 0 25-11.25 25-25v-79.412c0-13.75-11.25-25-25-25z" fill="#3c87d0"/><path d="m361.663 360.059h8.161c13.75 0 25-11.25 25-25 0 13.75 11.25 25 25 25h8.16c13.75 0 25-11.25 25-25v-157.059c0-13.75-11.25-25-25-25h-8.16c-13.75 0-25 11.25-25 25 0-13.75-11.25-25-25-25h-8.161c-13.75 0-25 11.25-25 25v157.059c0 13.75 11.25 25 25 25z" fill="#3c87d0"/><path d="m363.679 335.059v-157.059c0-10.419 6.461-19.396 15.573-23.139-2.914-1.196-6.096-1.861-9.427-1.861h-8.161c-13.75 0-25 11.25-25 25v157.059c0 13.75 11.25 25 25 25h8.161c3.332 0 6.514-.665 9.427-1.861-9.112-3.743-15.573-12.72-15.573-23.139z" fill="#0078c8"/><path d="m394.824 178c0-13.75 11.25-25 25-25h8.16c13.75 0 25 11.25 25 25v157.059c0 13.75-11.25 25-25 25h-8.16c-13.75 0-25-11.25-25-25z" fill="#0268b4"/><path d="m421.84 335.059v-157.059c0-10.418 6.461-19.396 15.572-23.138-2.914-1.197-6.096-1.862-9.428-1.862h-8.16c-13.75 0-25 11.25-25 25v157.059c0 13.75 11.25 25 25 25h8.16c3.332 0 6.514-.665 9.428-1.862-9.111-3.742-15.572-12.72-15.572-23.138z" fill="#015a9a"/><g fill="#fea95c"><path d="m307 256.882v-26c0-6.684 4.431-12.38 10.5-14.304-1.422-.45-2.934-.696-4.5-.696h-6c-8.25 0-15 6.75-15 15v26c0 8.25 6.75 15 15 15h6c1.566 0 3.078-.246 4.5-.696-6.069-1.924-10.5-7.621-10.5-14.304z"/><path d="m271 253.882v-37c0-6.684 4.431-12.38 10.5-14.304-1.422-.45-2.934-.696-4.5-.696h-6c-8.25 0-15 6.75-15 15v37c0 8.25 6.75 15 15 15h6c1.566 0 3.078-.246 4.5-.696-6.069-1.924-10.5-7.621-10.5-14.304z"/><path d="m235 245.882v-42c0-6.684 4.431-12.38 10.5-14.304-1.422-.45-2.934-.696-4.5-.696h-6c-8.25 0-15 6.75-15 15v42c0 8.25 6.75 15 15 15h6c1.566 0 3.078-.246 4.5-.696-6.069-1.924-10.5-7.621-10.5-14.304z"/><path d="m199 241.882v-43c0-6.684 4.431-12.38 10.5-14.304-1.422-.45-2.934-.696-4.5-.696h-6c-8.25 0-15 6.75-15 15v43c0 8.25 6.75 15 15 15h6c1.566 0 3.078-.246 4.5-.696-6.069-1.924-10.5-7.621-10.5-14.304z"/></g><path d="m325 61.037c-46-2.957-92-2.957-138 0v38.926c46 2.957 92 2.957 138 0z" fill="#fd3581"/><path d="m121 44.327h-.654c-5.5 0-10 4.5-10 10v52.346c0 5.5 4.5 10 10 10h.654z" fill="#fe5694"/><path d="m188 127.5c0 5.5-4.5 10-10 10h-48c-5.5 0-10-4.5-10-10v-94c0-5.5 4.5-10 10-10h48c5.5 0 10 4.5 10 10z" fill="#fe5694"/><path d="m145 127.5v-94c0-5.5 4.5-10 10-10h-25c-5.5 0-10 4.5-10 10v94c0 5.5 4.5 10 10 10h25c-5.5 0-10-4.5-10-10z" fill="#fd3581"/><path d="m391.654 44.327h-.654v72.346h.654c5.5 0 10-4.5 10-10v-52.346c0-5.5-4.5-10-10-10z" fill="#fd3581"/><path d="m324 33.5c0-5.5 4.5-10 10-10h48c5.5 0 10 4.5 10 10v94c0 5.5-4.5 10-10 10h-48c-5.5 0-10-4.5-10-10z" fill="#fe5694"/><path d="m349 127.5v-94c0-5.5 4.5-10 10-10h-25c-5.5 0-10 4.5-10 10v94c0 5.5 4.5 10 10 10h25c-5.5 0-10-4.5-10-10z" fill="#fd3581"/><ellipse cx="256" cy="80.5" fill="#fff" rx="31.5" ry="10"/><path d="m204 278.882v.395l-30.89-30.89c-5.833-5.833-15.379-5.833-21.213 0l-5.242 5.242c-5.834 5.833-5.834 15.38 0 21.213l71.345 71.346v9.613c.329-.036.661-.059.999-.059h87c.338 0 .671.022 1.001.059v-4.315c12.635-8.198 21-22.42 21-38.604v-34z" fill="#fea95c"/><path d="m264 334c-4.142 0-7.5-3.357-7.5-7.5 0-15.715-12.785-28.5-28.5-28.5-4.142 0-7.5-3.357-7.5-7.5s3.358-7.5 7.5-7.5c23.986 0 43.5 19.514 43.5 43.5 0 4.143-3.358 7.5-7.5 7.5z" fill="#fdb97e"/><path d="m218.999 354.742c-5.5 0-10 4.5-10 10v73c0 5.5 4.5 10 10 10h87c5.5 0 10-4.5 10-10v-73c0-5.5-4.5-10-10-10z" fill="#015a9a"/><path d="m234 437.742v-73c0-5.5 4.5-10 10-10h-25.001c-5.5 0-10 4.5-10 10v73c0 5.5 4.5 10 10 10h25.001c-5.5 0-10-4.5-10-10z" fill="#004281"/></svg>