<svg id="Capa_1" enable-background="new 0 0 512 512" height="512" viewBox="0 0 512 512" width="512" xmlns="http://www.w3.org/2000/svg"><circle cx="256" cy="267" fill="#a7e8f1" r="245"/><path d="m309.772 168.227h-33.105l5.183 14.467c2.829-2.394 6.48-3.844 10.468-3.844 8.956 0 16.242 7.286 16.242 16.241 0 3.173-.929 6.127-2.508 8.631l3.721 1.829c3.172 0 5.742-2.569 5.742-5.742v-25.84c0-3.17-2.571-5.742-5.743-5.742z" fill="#fdb97e"/><path d="m309.772 168.227h-33.105l3.859 10.773h29.246c3.172 0 5.742 2.571 5.742 5.742v-10.772c.001-3.171-2.57-5.743-5.742-5.743z" fill="#fea95c"/><path d="m160.529 299v41.994l1.525-.939c5.128-3.162 11.035-4.834 17.081-4.834 17.976 0 32.6 14.624 32.6 32.599 0 13.538-8.521 25.814-21.204 30.548l-.96.358.382.951c.43 1.071.648 2.189.648 3.323v6.574c0 4.963-4.038 9-9 9h-46.431c-4.962 0-9-4.037-9-9v-110.574h-113.09c15.679 120.188 118.457 213 242.92 213 124.462 0 227.24-92.813 242.92-213z" fill="#e3f3ff"/><path d="m210.22 358c.981 3.101 1.514 6.398 1.514 9.819 0 13.538-8.521 25.814-21.204 30.548l-.96.358.382.951c.43 1.071.648 2.189.648 3.323v6.574c0 4.963-4.038 9-9 9h-46.431c-4.962 0-9-4.037-9-9v-51.573h-97.7c36.129 90.247 124.38 154 227.531 154 103.15 0 191.402-63.753 227.53-154z" fill="#b4dbff"/><path d="m326.52 237.88h-9.588l12.388 31.907c5.482-1.279 9.601-6.211 9.601-12.067v-7.439c-.001-6.821-5.581-12.401-12.401-12.401z" fill="#fe860a"/><path d="m160.529 270.723v33.738l48.487-43.116h-47.387l-2.532 2.532c.916 2.1 1.432 4.412 1.432 6.846z" fill="#fea95c"/><path d="m214.991 210.794h-28.838l.001 37.551h37.481l3.711-3.3c4.273-3.552 6.998-8.906 6.998-14.896 0-10.689-8.663-19.355-19.353-19.355z" fill="#fea95c"/><path d="m153.032 248.345h34.122l-.001-38.242c0-1.368-1.105-2.476-2.472-2.474l-32.543-.001-19.911 19.912z" fill="#004281"/><path d="m183.911 105.007 13.425 13.368 7-7c2.655.558 5.405.855 8.227.855 17.763 0 32.81-11.612 37.978-27.656l5.057-2.252c2.063-.918 2.988-3.335 2.071-5.397l-5.205-11.682v-11.481h-60.416l-9.794 10.371c-.94.994-2.965 1.867-4.333 1.867h-5.26l-.001 24.98-6.159 6.293c6.579.326 12.719 3.041 17.41 7.734z" fill="#fdb97e"/><path d="m176.218 98.561 7.419-7.58v-7.16c-.51.009-.987.006-1.416.006h-9.562v7.154l-5.244 5.358c3.012.246 5.989.987 8.803 2.222z" fill="#fea95c"/><path d="m218.083 111.844c-.932-.129-1.858-.277-2.769-.469l-.804.804c1.206-.058 2.397-.172 3.573-.335z" fill="#fea95c"/><path d="m213.258 53.762h-6.355l3.178 6.634z" fill="#fe860a"/><path d="m195.815 53.762h-3.768l-9.794 10.371c-.94.994-2.965 1.867-4.333 1.867h-5.261v17.826h9.562c3.386 0 9.699.174 12.699-6.132l8.189-8.704z" fill="#fe860a"/><path d="m182.98 64.819c-1.133 1.199-3.41 2.181-5.06 2.181h-5.261v16.826h9.562.779v-19.028z" fill="#fe7701"/><path d="m213.258 53.762-3.177 6.634-3.178-6.634h-11.088l9.266 19.346v38.404c2.425.462 4.922.719 7.481.719.847 0 1.685-.034 2.519-.087v-39.038l9.265-19.345h-11.088z" fill="#0078c8"/><path d="m282.681 182.049-5.761-16.082h-30.373l-61.929-61.667c-10.745-10.746-28.168-10.746-38.912 0l-68.361 68.358 55.589 55.589 67.378-67.379 27.18 27.18c2.55 4.197 7.152 7.008 12.423 7.008h36.163c.013-5.33 2.615-10.052 6.603-13.007z" fill="#fff"/><path d="m145.706 104.3-68.361 68.358 8.324 8.323 76.685-76.682c3.228-3.229 7.06-5.479 11.131-6.768-9.48-3-20.262-.749-27.779 6.769z" fill="#eaf9fa"/><path d="m25.557 282.39c-4.769 0-9.437.427-13.986 1.202 3.801 56.817 26.955 108.334 62.949 147.998 20.419-15.046 33.674-39.253 33.674-66.563 0-45.638-36.997-82.637-82.637-82.637z" fill="#554e56"/><path d="m25.557 304.427c-3.943 0-7.795.392-11.53 1.114 6.399 40.493 22.715 77.686 46.388 109.014 15.556-10.98 25.744-29.081 25.744-49.527 0-33.416-27.186-60.601-60.602-60.601z" fill="#7bacdf"/><path d="m43.965 357.527 71.973-71.78-10.607-10.608-72.76 72.567c6.842 2.781 11.683 9.491 11.683 17.32 0 2.671-.577 5.203-1.593 7.5h83.508v-15h-82.204z" fill="#fd3581"/><path d="m300.225 247.345h-148.193l5.518 5.518c.361.36.559.84.559 1.349s-.199.988-.56 1.349l-2.553 2.553.683.707c.004.004.007.009.011.013l.018-.017c1.04 1.074 1.906 2.265 2.621 3.53h132.957l-86.113 85.885c3.238 4.293 5.436 9.409 6.229 14.973l96.455-96.199z" fill="#fd3581"/><ellipse cx="356.107" cy="365.028" fill="#554e56" rx="82.638" ry="82.637" transform="matrix(.072 -.997 .997 .072 -33.492 694.071)"/><path d="m356.107 425.629c-33.416 0-60.602-27.186-60.602-60.602 0-33.415 27.186-60.601 60.602-60.601 33.415 0 60.601 27.186 60.601 60.601 0 33.416-27.186 60.602-60.601 60.602z" fill="#98bce5"/><path d="m343.486 311.799c6.328-3.449 13.336-5.806 20.767-6.809-2.666-.36-5.382-.563-8.146-.563-5.095 0-10.042.64-14.773 1.829z" fill="#7bacdf"/><path d="m311.798 365.027c0-17.384 7.364-33.071 19.132-44.127l-3.574-9.205c-18.949 10.256-31.85 30.315-31.85 53.332 0 33.416 27.186 60.602 60.602 60.602 2.764 0 5.48-.203 8.146-.564-29.576-3.993-52.456-29.385-52.456-60.038z" fill="#7bacdf"/><path d="m356.107 347.329c.404 0 .8.034 1.197.06l-24.67-63.539c-.228.089-.468.149-.719.149h-15.313l26.721 68.822c3.225-3.376 7.758-5.492 12.784-5.492z" fill="#fd3581"/><path d="m298.353 235h15.315l-10.733-27.644c-2.851 2.471-6.558 3.979-10.617 3.979-1.435 0-2.819-.205-4.145-.557l9.462 24.37c.228-.087.468-.148.718-.148z" fill="#fd3581"/><path d="m179.135 334.221c-6.882 0-13.279 2.073-18.606 5.624v54.155h21.072c3.771 0 7.003 2.334 8.34 5.632 13.253-4.5 22.794-17.038 22.794-31.813-.001-18.554-15.044-33.598-33.6-33.598z" fill="#554e56"/><path d="m160.529 394h13.83c-7.653-6.156-12.556-15.593-12.556-26.181 0-15.75 10.84-28.965 25.465-32.602-2.605-.647-5.328-.997-8.133-.997-6.882 0-13.279 2.073-18.606 5.624z" fill="#433f43"/><path d="m161.529 394v-123.277c0-5.266-2.251-9.994-5.829-13.314l-30.531 30.534v106.057z" fill="#fdb97e"/><path d="m141.641 394v-122.53l-16.472 16.472v106.058z" fill="#fea95c"/><path d="m158.257 252.155-80.203-80.204-23.444 23.444c-8.391 8.392-8.391 22.043 0 30.437l64.986 64.986c1.137 1.136 2.977 1.134 4.113 0l34.548-34.552c1.136-1.135 1.137-2.974 0-4.111z" fill="#015a9a"/><path d="m71.293 225.832c-8.391-8.393-8.391-22.045 0-30.437l15.102-15.102-8.342-8.342-23.444 23.444c-8.391 8.392-8.391 22.043 0 30.437l64.986 64.986c1.137 1.136 2.977 1.134 4.113 0l6.285-6.286z" fill="#004281"/><path d="m181.601 393h-56.431v16.574c0 5.5 4.5 10 10 10h46.431c5.5 0 10-4.5 10-10v-6.574c0-5.5-4.5-10-10-10z" fill="#015a9a"/><path d="m141.569 409.574v-16.574h-16.399v16.574c0 5.5 4.5 10 10 10h16.399c-5.5 0-10-4.5-10-10z" fill="#004281"/><path d="m237.849 59c-2.976 0-5.41 2.433-5.41 5.407v7.902c0 2.975 2.435 5.409 5.41 5.409h1.662c2.975 0 5.409-2.435 5.409-5.409v-7.902c0-2.975-2.434-5.407-5.409-5.407z" fill="#eb6000"/><path d="m309.56 195.092c0 9.525-7.721 17.243-17.242 17.243s-17.24-7.718-17.24-17.243c0-9.521 7.719-17.241 17.24-17.241s17.242 7.719 17.242 17.241z" fill="#015a9a"/><path d="m286 195.092c0-7.61 4.937-14.058 11.779-16.344-1.719-.574-3.551-.897-5.462-.897-9.522 0-17.24 7.72-17.24 17.241 0 9.525 7.719 17.243 17.24 17.243 1.911 0 3.743-.323 5.462-.898-6.842-2.286-11.779-8.732-11.779-16.345z" fill="#015a9a"/><path d="m356.107 383.727c-10.309 0-18.698-8.388-18.698-18.699 0-10.31 8.389-18.698 18.698-18.698 10.311 0 18.698 8.389 18.698 18.698.001 10.311-8.387 18.699-18.698 18.699z" fill="#554e56"/><path d="m348 365.027c0-8.47 5.666-15.632 13.403-17.923-1.681-.497-3.456-.775-5.296-.775-10.309 0-18.698 8.389-18.698 18.698 0 10.312 8.389 18.699 18.698 18.699 1.84 0 3.615-.277 5.296-.775-7.737-2.29-13.403-9.453-13.403-17.924z" fill="#433f43"/><path d="m25.557 346.329c-.471 0-.933.036-1.395.07 3.847 11.235 8.483 22.103 13.851 32.535 3.82-3.427 6.242-8.383 6.242-13.907-.001-10.309-8.388-18.698-18.698-18.698z" fill="#554e56"/><path d="m315.825 285c-1.238 0-2.349-.761-2.797-1.914l-17.472-45c-.358-.923-.238-1.964.321-2.78.56-.817 1.485-1.306 2.476-1.306h16.091c1.238 0 2.349.761 2.797 1.914l17.472 45c.358.923.238 1.964-.321 2.78-.56.817-1.485 1.306-2.476 1.306z" fill="#fe0364"/><path d="m214.92 0c-25.364 0-46 20.636-46 46v18c0 1.65 1.35 3 3 3h6c1.65 0 3.927-.981 5.06-2.181l9.498-10.058h63.442c2.762 0 5-2.238 5-5v-3.761c0-25.364-20.636-46-46-46z" fill="#015a9a"/><path d="m184 46c0-22.796 16.671-41.762 38.46-45.371-2.455-.407-4.972-.629-7.54-.629-25.364 0-46 20.636-46 46v18c0 1.65 1.35 3 3 3h6c1.65 0 3.927-.981 5.06-2.181l1.02-1.08z" fill="#004281"/><g fill="#0078c8"><circle cx="196.5" cy="26" r="4.5"/><circle cx="218.5" cy="26" r="4.5"/><circle cx="240.5" cy="26" r="4.5"/></g></svg>