<svg id="Capa_1" enable-background="new 0 0 512 512" height="512" viewBox="0 0 512 512" width="512" xmlns="http://www.w3.org/2000/svg"><circle cx="256" cy="256" fill="#6bd9e7" r="245"/><g fill="#a7e8f1"><path d="m342.92 133.508h-32.202c-5.346 0-9.718 3.937-9.718 8.746 0 4.811 4.372 8.746 9.718 8.746h32.202c5.344 0 9.718-3.936 9.718-8.746s-4.374-8.746-9.718-8.746z"/><path d="m289.673 29.508h-29.708c-4.932 0-8.965 3.632-8.965 8.068 0 4.438 4.033 8.068 8.965 8.068h29.708c4.93 0 8.965-3.63 8.965-8.068 0-4.437-4.035-8.068-8.965-8.068z"/><path d="m218.334 62h-111.957c-2.381 1.839-4.717 3.73-7.026 5.653h5.012c19.091 0 34.713 15.621 34.713 34.715v5.425h34.015c4.766 0 8.664-3.51 8.664-7.799s-3.898-7.799-8.664-7.799h-19.498c-4.766 0-8.664-3.51-8.664-7.799s3.898-7.799 8.664-7.799h61.742c4.766 0 8.666-3.51 8.666-7.799-.001-4.288-3.901-7.798-5.667-6.798z"/><path d="m433.381 87h-62.489c-4.766 0-8.666 3.51-8.666 7.799s3.9 7.799 8.666 7.799h61.742c4.766 0 8.664 3.51 8.664 7.799s-3.898 7.799-8.664 7.799h-19.498c-4.766 0-8.664 3.51-8.664 7.799s3.898 7.799 8.664 7.799h55.253c-9.796-16.988-21.569-32.693-35.008-46.794z"/></g><path d="m216 261.428v32.244l3.585 4.902h165.903v-37.146z" fill="#0078c8"/><path d="m25.688 191.751 4.803 6.938v27.311c.326.487.657 4.879 1 5.315v17.142h57.509v-10.76c26.571-2.802 46.967-16.427 48.543-43.304h7.133c2.537 0 4.934-1.346 6.257-3.511 1.323-2.166 1.423-4.912.265-7.169l-13.548-26.384v-17.746h-74.65v6.417c0 1.452-.714 3.678-1.558 4.86l-4.012 5.617c-1.083 1.516-1.931 4.161-1.931 6.023v14.5c0 1.102-.897 2-2 2h-8.648v-15.5c0-7.444-6.056-13.5-13.5-13.5-6.834 0-12.865 5.795-13.445 12.919l-.055 15.935.033 1.34c.269 5.059 3.25 9.451 7.804 11.557z" fill="#fdb97e"/><path d="m11 256c0 135.31 109.69 245 245 245 135.309 0 245-109.69 245-245z" fill="#00c285"/><path d="m408.666 387h-18.136c-2.548 5.076-5.256 10.076-8.115 15h26.251c4.583 0 8.334-3.375 8.334-7.5s-3.751-7.5-8.334-7.5z" fill="#92dfb7"/><path d="m197.43 261.428v6.849l18.57 25.395h.512v-32.244z" fill="#0078c8"/><path d="m197.242 281.572c-.906 4.743-5.08 8.342-10.084 8.342h-17.711c-4.315 0-8.011-2.679-9.529-6.457h-147.384c10.897 97.694 79.229 178.04 170.466 206.481v-191.364h26.676z" fill="#0078c8"/><path d="m109.614 155.164c-4.321 0-7.857 3.535-7.857 7.857v12.121c0 4.322 3.535 7.857 7.857 7.857h2.844c4.322 0 7.857-3.535 7.857-7.857v-12.121c0-4.322-3.535-7.857-7.857-7.857z" fill="#a94b30"/><path d="m153.648 283.457h-29.448l-38.665 66.969c.542.296 1.005.732 1.321 1.28l9.719 16.832c.234.405.375.84.43 1.277l85.995 27.332v-44.194z" fill="#004281"/><path d="m86.856 351.706 9.719 16.832c.196.34.313.702.383 1.068l49.738-86.149h-22.496l-38.665 66.969c.542.296 1.005.732 1.321 1.28z" fill="#00366d"/><path d="m56.454 369.259c-.056-.096-.089-.198-.134-.297l-13.521 7.807c3.207 5.65 6.632 11.16 10.264 16.518l12.948-7.476z" fill="#00366d"/><path d="m97.441 368.038c1.215 2.104.487 4.819-1.617 6.034l-24.483 14.136c-2.104 1.215-4.819.487-6.034-1.616l-9.719-16.833c-1.215-2.104-.486-4.819 1.617-6.034l24.483-14.136c2.104-1.215 4.819-.487 6.034 1.617z" fill="#7bacdf"/><path d="m60.45 374.47 28.596-16.51c.694-.4 1.445-.602 2.198-.655l-3.521-6.099c-1.215-2.104-3.93-2.832-6.034-1.617l-24.483 14.136c-2.104 1.215-2.832 3.93-1.617 6.034l3.437 5.951c.386-.484.857-.912 1.424-1.24z" fill="#5f99d7"/><path d="m216 261.428v32.244l3.585 4.902h165.903v-37.146z" fill="#0078c8"/><path d="m297.099 261.428h11v6.638h-11z" fill="#015a9a"/><path d="m297.099 286.083v10.491c0 2.75 2.25 5 5 5h1c2.75 0 5-2.25 5-5v-10.491z" fill="#015a9a"/><path d="m338.099 261.428h11v6.638h-11z" fill="#015a9a"/><path d="m338.099 286.083v10.491c0 2.75 2.25 5 5 5h1c2.75 0 5-2.25 5-5v-10.491z" fill="#015a9a"/><path d="m419.171 252.428c.037 1.876.071 3.752.071 5.628 0 1.457-.033 2.915-.056 4.372h12.635v-10z" fill="#00366d"/><path d="m211.913 252.428c-.592 4.523-4.46 8.029-9.141 8.029h-5.343v1.971h188.059v-10z" fill="#004281"/><path d="m444.821 252.428h34.028v10h-34.028z" fill="#00366d"/><path d="m325.533 455.241c0-1.736.676-3.368 1.903-4.597.888-.888 1.753-1.792 2.627-2.689l-132.633-181.373v13.062c0 1.111-.183 2.179-.511 3.182l128.614 176.419z" fill="#fff"/><path d="m327.436 69.594c-1.227-1.229-1.903-2.86-1.903-4.597v-7.879l-134.986 184.882h12.226c.053 0 .104.007.157.008l125.409-171.49c-.304-.306-.598-.62-.903-.924z" fill="#fff"/><path d="m419.675 318.851c-1.771 0-3.378-.698-4.574-1.827l-.494.521c.059-.284.106-.571.164-.855-1.095-1.19-1.771-2.771-1.771-4.513 0-2.116.978-4.063 2.685-5.34.546-.408.873-1.06.873-1.745s-.327-1.337-.874-1.745c-1.705-1.276-2.684-3.222-2.684-5.338 0-2.115.978-4.061 2.685-5.338.547-.41.873-1.064.873-1.746 0-.679-.325-1.33-.869-1.742-1.71-1.279-2.689-3.226-2.689-5.342 0-2.115.978-4.061 2.685-5.338.548-.413.873-1.064.873-1.745 0-.684-.326-1.337-.873-1.746-1.706-1.277-2.685-3.223-2.685-5.338 0-3.68 2.994-6.674 6.675-6.674h.71c.01-.961.036-1.919.036-2.881 0-19.518-1.981-38.73-5.814-57.426l11.569 12.188c2.479 2.611 4.824 8.486 4.824 12.089v36.03h7.424c2.864 0 5.496 1.002 7.576 2.666v-38.695c0-7.407-3.846-17.045-8.945-22.416l-30.374-31.999c-13.317-41.119-36.064-78.887-67.147-110.642v-23.287c0-4.143-3.357-7.5-7.5-7.5s-7.5 3.357-7.5 7.5v26.37c0 1.989.79 3.896 2.196 5.304 25.103 25.103 44.616 54.288 57.938 86.045v207.547c-13.321 31.757-32.835 60.942-57.938 86.045-1.406 1.407-2.196 3.315-2.196 5.304v22.258c0 4.143 3.357 7.5 7.5 7.5s7.5-3.357 7.5-7.5v-19.176c31.083-31.755 53.83-69.522 67.147-110.643l27.367-28.83z" fill="#eb6000"/><path d="m477.85 241.665c0-2.59 1.835-3.649 4.078-2.354l28.39 16.392c2.243 1.295 2.243 3.414 0 4.709l-28.39 16.389c-2.243 1.296-4.078.236-4.078-2.354z" fill="#004281"/><path d="m488.85 243.306-6.922-3.996c-2.243-1.295-4.078-.235-4.078 2.354v32.78c0 2.591 1.835 3.65 4.078 2.354l6.922-3.996z" fill="#00366d"/><path d="m438.424 319.851c7.255 0 13.155-5.902 13.155-13.156v-31.54c0-7.255-5.9-13.155-13.155-13.155h-18.749c-4.232 0-7.675 3.442-7.675 7.674 0 2.434 1.123 4.669 3.085 6.138.297.223.473.574.473.946 0 .371-.176.721-.473.944-1.962 1.469-3.085 3.707-3.085 6.139 0 2.433 1.123 4.671 3.085 6.14.297.225.473.572.473.944s-.176.723-.473.945c-1.962 1.469-3.085 3.706-3.085 6.139 0 2.434 1.123 4.671 3.085 6.139.297.222.473.573.473.944 0 .372-.176.723-.473.944-1.962 1.47-3.085 3.708-3.085 6.141 0 4.23 3.442 7.675 7.675 7.675h18.749z" fill="#fdb97e"/><path d="m428.421 312.177c0-2.433 1.123-4.671 3.085-6.141.297-.222.473-.572.473-.944 0-.371-.176-.723-.473-.944-1.962-1.468-3.085-3.705-3.085-6.139 0-2.433 1.123-4.67 3.085-6.139.297-.223.473-.573.473-.945s-.176-.72-.473-.944c-1.962-1.469-3.085-3.707-3.085-6.14 0-2.432 1.123-4.67 3.085-6.139.297-.224.473-.573.473-.944 0-.372-.176-.724-.473-.946-1.962-1.469-3.085-3.704-3.085-6.138 0-4.231 3.442-7.674 7.675-7.674h-16.421c-4.232 0-7.675 3.442-7.675 7.674 0 2.434 1.123 4.669 3.085 6.138.297.223.473.574.473.946 0 .371-.176.721-.473.944-1.962 1.469-3.085 3.707-3.085 6.139 0 2.433 1.123 4.671 3.085 6.14.297.225.473.572.473.944s-.176.723-.473.945c-1.962 1.469-3.085 3.706-3.085 6.139 0 2.434 1.123 4.671 3.085 6.139.297.222.473.573.473.944 0 .372-.176.723-.473.944-1.962 1.47-3.085 3.708-3.085 6.141 0 4.23 3.442 7.675 7.675 7.675h16.421c-4.233-.001-7.675-3.445-7.675-7.675z" fill="#fea95c"/><path d="m159.176 279.643v-27.373c0-1.739.438-3.376 1.204-4.813h-149.216c-.097 2.837-.164 5.682-.164 8.543 0 9.627.574 19.119 1.654 28.457h147.726c-.767-1.438-1.204-3.074-1.204-4.814z" fill="#5f99d7"/><path d="m202.773 241h-33.325c-6.226 0-11.271 5.045-11.271 11.27v27.373c0 6.225 5.046 11.271 11.271 11.271h17.711c6.226 0 11.271-5.045 11.271-11.271v-18.187h4.343c5.648 0 10.227-4.58 10.227-10.229 0-5.648-4.579-10.227-10.227-10.227z" fill="#fea95c"/><path d="m175 279.643v-27.373c0-6.226 5.046-11.27 11.271-11.27h-16.824c-6.226 0-11.271 5.045-11.271 11.27v27.373c0 6.225 5.046 11.271 11.271 11.271h16.824c-6.225 0-11.271-5.045-11.271-11.271z" fill="#ff9240"/><path d="m268 279h-25c-7.18 0-13 5.82-13 13v6.574h51v-6.574c0-7.18-5.82-13-13-13z" fill="#0078c8"/><circle cx="399.5" cy="208.5" fill="#eb6000" r="7.5"/><circle cx="399.5" cy="233.5" fill="#eb6000" r="7.5"/><circle cx="399.5" cy="293.5" fill="#eb6000" r="7.5"/><circle cx="399.5" cy="318.5" fill="#eb6000" r="7.5"/><path d="m283.296 277.663c0 5.182 4.238 9.42 9.42 9.42h60.766c5.182 0 9.42-4.238 9.42-9.42v-1.178c0-5.182-4.238-9.42-9.42-9.42h-60.766c-5.182 0-9.42 4.238-9.42 9.42z" fill="#015a9a"/><path d="m299.395 277.663v-1.178c0-5.182 4.238-9.42 9.42-9.42h-16.099c-5.182 0-9.42 4.238-9.42 9.42v1.178c0 5.182 4.238 9.42 9.42 9.42h16.099c-5.182 0-9.42-4.238-9.42-9.42z" fill="#015a9a"/><path d="m0 140.584v35.916c0 5.5 2.587 13.682 5.75 18.182l25.741 36.634v-32.939l-5.139-7.423c-4.22-1.845-7.211-5.95-7.468-10.785l-.006-.008c-.009-.435-.027-.867-.027-1.304v-16.393l.052.013c.523-6.424 5.891-11.477 12.449-11.477 6.903 0 12.5 5.597 12.5 12.5v16.5h9.648c1.65 0 3-1.35 3-3v-14.5c0-1.65.785-4.099 1.744-5.441l4.012-5.617c.959-1.344 1.744-3.792 1.744-5.442v-5.416z" fill="#a94b30"/><path d="m18.885 180.168-.006-.008c-.009-.435-.027-.867-.027-1.304v-16.393l.052.013c.337-4.148 2.702-7.715 6.097-9.728v-12.164h-25.001v35.916c0 5.5 2.587 13.682 5.75 18.182l25.741 36.634v-32.939l-5.139-7.423c-4.219-1.846-7.21-5.951-7.467-10.786z" fill="#a94b30"/><path d="m184 125.584h-44.925v-23.216c0-19.094-15.622-34.715-34.713-34.715h-69.647c-19.095 0-34.715 15.621-34.715 34.715v38.216h79 60.075 44.925c2.75 0 5-2.25 5-5v-5c0-2.75-2.25-5-5-5z" fill="#fe7701"/><path d="m59.715 67.653h-25c-19.095 0-34.715 15.621-34.715 34.715v38.216h25v-38.216c0-19.094 15.62-34.715 34.715-34.715z" fill="#eb6000"/><path d="m332.948 335h-27.615c-4.584 0-8.333 3.375-8.333 7.5s3.749 7.5 8.333 7.5h27.615c4.583 0 8.334-3.375 8.334-7.5s-3.751-7.5-8.334-7.5z" fill="#43cd8e"/><path d="m248.666 408h-27.615c-4.584 0-8.333 3.375-8.333 7.5s3.749 7.5 8.333 7.5h27.615c4.583 0 8.334-3.375 8.334-7.5s-3.751-7.5-8.334-7.5z" fill="#92dfb7"/><path d="m462.051 341c-4.584 0-8.333 3.375-8.333 7.5s3.749 7.5 8.333 7.5h17.668c2.201-4.917 4.245-9.918 6.125-15z" fill="#43cd8e"/></svg>