<svg id="Capa_1" enable-background="new 0 0 512 512" height="512" viewBox="0 0 512 512" width="512" xmlns="http://www.w3.org/2000/svg"><circle cx="256" cy="267" fill="#fd3581" r="245"/><path d="m366 454.397c-2.206 0-4-1.794-4-4v-10.604c0-2.206 1.794-4 4-4h2v-16.793h-4.674c-5.099 0-9.246-4.147-9.246-9.246 0-2.931 1.355-5.628 3.718-7.397.645-.481 1.032-1.252 1.032-2.062s-.388-1.582-1.036-2.063c-2.359-1.767-3.714-4.462-3.714-7.393s1.355-5.626 3.718-7.396c.645-.482 1.032-1.254 1.032-2.063 0-.803-.385-1.572-1.029-2.059-2.366-1.771-3.721-4.467-3.721-7.398 0-2.93 1.355-5.625 3.718-7.395.646-.486 1.032-1.257 1.032-2.061 0-.808-.386-1.58-1.032-2.064-2.362-1.771-3.718-4.465-3.718-7.395 0-.127.009-.252.017-.377l.069-1.064-1.063-.068h-14.252c-1.021 0-1.998-.438-2.681-1.2-.682-.762-1.006-1.781-.892-2.796 2.337-20.821 18.51-36.951 39.329-39.228l.892-.098v-17.25c-5.389-10.072-16.007-16.927-28.229-16.927h-32.404c3.713 6.544 7.332 12.757 10.842 18.607 1.21 2.018 1.48 4.456.744 6.688-.738 2.234-2.407 4.031-4.58 4.931-35.719 14.796-73.435 22.298-112.102 22.298-38.669 0-76.385-7.502-112.102-22.298-2.173-.899-3.842-2.696-4.58-4.931-.736-2.231-.466-4.67.744-6.688 3.51-5.85 7.129-12.063 10.842-18.606h-32.404c-17.674 0-32 14.327-32 32v77.211c41.395 76.682 122.475 128.788 215.73 128.788 44.946 0 87.059-12.115 123.27-33.24v-24.363z" fill="#b4dbff"/><path d="m66 306c0-17.673 14.326-32 32-32h-25.73c-17.674 0-32 14.327-32 32v77.211c7.369 13.65 16.002 26.518 25.73 38.455z" fill="#7bacdf"/><path d="m404.92 360.328v42.107c0 4.584-1.851 8.855-5.211 12.027l1.229 1.567c8.67-5.607 13.847-15.091 13.847-25.368v-16.454c0-1.916-.191-3.814-.549-5.67l-9.385-9.385c.028.392.069.781.069 1.176z" fill="#e3f3ff"/><path d="m422.785 377.087v13.575c0 18.09-12.769 33.72-30.437 37.385l24.103 24.103c14.54-12.611 27.573-26.911 38.81-42.587z" fill="#e3f3ff"/><path d="m304.27 391v-80.15c-30.426 10.395-62.127 15.674-94.5 15.674-32.374 0-64.075-5.279-94.5-15.674v80.15z" fill="#e3f3ff"/><path d="m115.27 467.559c39.823 27.996 88.353 44.441 140.73 44.441 16.524 0 32.662-1.647 48.27-4.766v-117.234h-189z" fill="#c7e7ff"/><path d="m326.565 292.093c-11.723-19.539-23.711-41.465-35.689-64.667-18.179 25.164-47.76 41.574-81.106 41.574-33.347 0-62.928-16.41-81.106-41.574-11.978 23.202-23.966 45.128-35.688 64.667-1.357 2.265-1.664 5.008-.836 7.516s2.707 4.531 5.146 5.541c35.842 14.848 73.688 22.374 112.484 22.374 38.795 0 76.641-7.526 112.484-22.374 2.439-1.01 4.318-3.033 5.146-5.541s.522-5.252-.835-7.516z" fill="#c7e7ff"/><path d="m128.663 227.426c-11.978 23.202-23.966 45.128-35.688 64.667-1.357 2.265-1.664 5.008-.836 7.516s2.707 4.531 5.146 5.541c7.104 2.943 14.291 5.586 21.545 7.952.023-1.58.456-3.146 1.287-4.532 10.563-17.604 21.34-37.149 32.131-57.815-9.093-6.417-17.07-14.312-23.585-23.329z" fill="#b4dbff"/><path d="m209.77 270c-55.691 0-101-45.309-101-101v-68c0-55.691 45.309-101 101-101s101 45.309 101 101v68c0 55.691-45.309 101-101 101z" fill="#b4dbff"/><path d="m295.77 169c0 47.496-38.504 86-86 86-47.496 0-86-38.504-86-86v-68c0-47.496 38.504-86 86-86 47.496 0 86 38.504 86 86z" fill="#015a9a"/><path d="m209.77 245c-41.906 0-76-34.094-76-76v-68c0-41.906 34.094-76 76-76s76 34.094 76 76v68c0 41.906-34.094 76-76 76z" fill="#5f99d7"/><path d="m133.77 148h152v10h-152z" fill="#3c87d0"/><path d="m133.77 169c0 1.682.074 3.346.182 5h151.635c.109-1.654.184-3.318.184-5v-5h-152v5z" fill="#015a9a"/><path d="m133.77 132h152v10h-152z" fill="#015a9a"/><path d="m155.373 222h108.793c3.012-3.092 5.768-6.435 8.223-10h-125.24c2.456 3.565 5.21 6.908 8.224 10z" fill="#3c87d0"/><path d="m136.744 190h146.051c.938-3.252 1.672-6.587 2.168-10h-150.387c.496 3.413 1.231 6.748 2.168 10z" fill="#3c87d0"/><path d="m143.418 206h132.701c1.791-3.199 3.357-6.539 4.678-10h-142.055c1.321 3.461 2.885 6.801 4.676 10z" fill="#015a9a"/><path d="m134.104 94h151.33c-.313-3.404-.857-6.739-1.605-10h-148.12c-.748 3.261-1.293 6.596-1.605 10z" fill="#3c87d0"/><path d="m144.57 62h130.399c-2.119-3.531-4.523-6.871-7.17-10h-116.061c-2.646 3.129-5.049 6.469-7.168 10z" fill="#3c87d0"/><g fill="#015a9a"><path d="m157.402 46h104.734c-3.965-3.775-8.318-7.143-13.021-10h-78.693c-4.701 2.857-9.057 6.225-13.02 10z"/><path d="m257.605 228h-95.672c4.881 3.965 10.264 7.33 16.033 10h63.605c5.771-2.67 11.154-6.035 16.034-10z"/><path d="m137.336 78h144.867c-1.098-3.444-2.426-6.786-3.98-10h-136.907c-1.556 3.214-2.884 6.556-3.98 10z"/><path d="m133.77 101v9h152v-9c0-.335-.022-.666-.025-1h-151.95c-.004.334-.025.665-.025 1z"/></g><path d="m133.77 116h152v10h-152z" fill="#3c87d0"/><path d="m416.51 351.5h-13.59c6.621 5.359 10.865 13.546 10.865 22.708v16.454c0 13.897-9.761 25.552-22.785 28.487v10.185c18.573-3.074 32.785-19.24 32.785-38.672v-16.454c0-8.46-2.702-16.295-7.275-22.708z" fill="#015a9a"/><path d="m392 435.793v-17.21c-1.174.265-2.39.417-3.643.417h-21.357v16.793z" fill="#3c87d0"/><path d="m367 419h10v16.793h-10z" fill="#015a9a"/><path d="m353.204 351.5c-.073.494-.124.995-.124 1.51 0 3.25 1.5 6.233 4.118 8.194.397.298.632.767.632 1.264 0 .496-.234.962-.632 1.261-2.618 1.961-4.118 4.949-4.118 8.195 0 3.248 1.5 6.236 4.118 8.197.397.3.632.765.632 1.26 0 .497-.234.965-.632 1.262-2.618 1.961-4.118 4.949-4.118 8.196 0 3.249 1.5 6.236 4.118 8.196.397.295.632.765.632 1.26 0 .496-.234.965-.632 1.261-2.618 1.962-4.118 4.95-4.118 8.198 0 5.647 4.596 10.246 10.246 10.246h25.031c9.686 0 17.563-7.88 17.563-17.565v-42.107c0-3.221-.886-6.23-2.404-8.828z" fill="#b4dbff"/><path d="m374.911 411.156c0-3.438 1.477-6.6 4.055-8.677.391-.313.622-.809.622-1.334 0-.524-.231-1.021-.622-1.333-2.578-2.074-4.055-5.236-4.055-8.675 0-3.437 1.477-6.599 4.055-8.675.391-.314.622-.809.622-1.335 0-.524-.231-1.016-.622-1.333-2.578-2.075-4.055-5.238-4.055-8.676 0-3.436 1.477-6.598 4.055-8.674.391-.316.622-.809.622-1.334 0-.526-.231-1.022-.622-1.337-2.578-2.075-4.055-5.233-4.055-8.673 0-.545.05-1.075.122-1.598h-21.584c-.072.523-.122 1.053-.122 1.598 0 3.44 1.477 6.597 4.055 8.673.391.315.622.811.622 1.337 0 .525-.231 1.018-.622 1.334-2.578 2.076-4.055 5.238-4.055 8.674 0 3.438 1.477 6.601 4.055 8.676.391.317.622.809.622 1.333 0 .526-.231 1.021-.622 1.335-2.578 2.075-4.055 5.238-4.055 8.675 0 3.439 1.477 6.6 4.055 8.675.391.312.622.809.622 1.333 0 .525-.231 1.021-.622 1.334-2.578 2.076-4.055 5.239-4.055 8.677 0 5.977 4.525 10.844 10.089 10.844h21.584c-5.564 0-10.089-4.867-10.089-10.844z" fill="#7bacdf"/><path d="m379.5 308c1.69 0 3.356.105 5 .289v-293.054c-1.371 1.102-3.108 1.765-5 1.765s-3.629-.663-5-1.765v293.054c1.644-.184 3.31-.289 5-.289z" fill="#3c87d0"/><circle cx="379.5" cy="9" fill="#006e66" r="9"/><path d="m338.852 352.5c-1.307 0-2.553-.558-3.426-1.533-.871-.975-1.287-2.275-1.14-3.575 2.584-23.028 22.023-40.392 45.214-40.392s42.63 17.364 45.214 40.392c.147 1.3-.269 2.601-1.14 3.575-.873.976-2.119 1.533-3.428 1.533z" fill="#015a9a"/><path d="m361.543 347.392c2.057-18.322 14.787-33.049 31.586-38.306-4.314-1.35-8.891-2.086-13.629-2.086-23.191 0-42.63 17.364-45.214 40.392-.147 1.3.269 2.601 1.14 3.575.873.976 2.119 1.533 3.426 1.533h27.257c-1.307 0-2.553-.558-3.426-1.533-.872-.975-1.287-2.276-1.14-3.575z" fill="#004281"/><path d="m398 439.793c0-2.75-2.25-5-5-5h-27c-2.75 0-5 2.25-5 5v10.604c0 2.75 2.25 5 5 5h27c2.75 0 5-2.25 5-5z" fill="#015a9a"/><path d="m376 450.397v-10.604c0-2.75 2.25-5 5-5h-15c-2.75 0-5 2.25-5 5v10.604c0 2.75 2.25 5 5 5h15c-2.75 0-5-2.25-5-5z" fill="#004281"/><path d="m148.77 426c0 2.75 2.25 5 5 5h112c2.75 0 5-2.25 5-5v-6.25c0-2.75-2.25-5-5-5h-112c-2.75 0-5 2.25-5 5z" fill="#e3f3ff"/><path d="m174 426v-6.25c0-2.75 2.25-5 5-5h-25.23c-2.75 0-5 2.25-5 5v6.25c0 2.75 2.25 5 5 5h25.23c-2.75 0-5-2.25-5-5z" fill="#b4dbff"/><path d="m148.77 456c0 2.75 2.25 5 5 5h112c2.75 0 5-2.25 5-5v-6.25c0-2.75-2.25-5-5-5h-112c-2.75 0-5 2.25-5 5z" fill="#e3f3ff"/><path d="m174 456v-6.25c0-2.75 2.25-5 5-5h-25.23c-2.75 0-5 2.25-5 5v6.25c0 2.75 2.25 5 5 5h25.23c-2.75 0-5-2.25-5-5z" fill="#b4dbff"/></svg>