<svg id="Capa_1" enable-background="new 0 0 512 512" height="512" viewBox="0 0 512 512" width="512" xmlns="http://www.w3.org/2000/svg"><circle cx="256" cy="267" fill="#6bd9e7" r="245"/><circle cx="256" cy="267" fill="#a7e8f1" r="245"/><path d="m162.681 135c13.331-12.396 31.179-20 50.776-20 19.598 0 37.445 7.604 50.776 20h198.176c-6.064-9.463-12.755-18.485-20.025-27h-372.768c-7.27 8.515-13.961 17.537-20.025 27z" fill="#e3f3ff"/><path d="m133.991 228-.001-4.145c0-3.049 1.654-5.875 4.317-7.374l.509-.286v-26.554c0-22.091 9.655-41.962 24.957-55.641h-113.552c-18.092 27.934-30.647 59.785-36.123 94z" fill="#b4dbff"/><path d="m288.098 189.641v26.553l.509.287c2.663 1.5 4.316 4.326 4.316 7.374v4.145h204.979c-5.477-34.215-18.032-66.066-36.124-94h-198.637c15.302 13.679 24.957 33.55 24.957 55.641z" fill="#b4dbff"/><g fill="#e3f3ff"><path d="m74.147 185.02c2.468 0 4.487-2.02 4.487-4.487v-26.025c0-2.468-2.019-4.487-4.487-4.487h-33.465c-6.08 11.168-11.303 22.867-15.61 35h49.075z"/><path d="m149.022 150.02h-47.055c-2.468 0-4.487 2.02-4.487 4.487v26.025c0 2.468 2.02 4.487 4.487 4.487h36.002c.772-12.783 4.711-24.708 11.053-34.999z"/><path d="m277.892 150.02c6.342 10.292 10.281 22.217 11.052 35h19.847v-35z"/><path d="m412.48 168.563v-14.056c0-2.468-2.019-4.487-4.487-4.487h-55.641c-2.468 0-4.487 2.02-4.487 4.487v14.056z"/><path d="m440.852 185.02h46.076c-4.308-12.133-9.53-23.832-15.61-35h-30.466z"/><path d="m116.596 227v-18.493c0-2.468-2.019-4.487-4.487-4.487h-55.641c-2.468 0-4.487 2.02-4.487 4.487v18.493z"/><path d="m32.615 227v-18.493c0-2.468-2.019-4.487-4.487-4.487h-8.941c-1.996 7.523-3.632 15.191-4.911 22.98z"/><path d="m328.79 213.557h38.19v-5.05c0-2.468-2.019-4.487-4.487-4.487h-33.703z"/><path d="m308.79 227v-22.98h-1.938c-2.468 0-4.487 2.02-4.487 4.487v18.493z"/><path d="m440.852 227h9.589v-18.493c0-2.468-2.019-4.487-4.487-4.487h-5.103v22.98z"/><path d="m420.852 213.557v-9.537h-30.538c-2.468 0-4.487 2.02-4.487 4.487v5.05z"/><path d="m497.724 227c-1.278-7.789-2.915-15.457-4.911-22.98h-19.038c-2.468 0-4.487 2.02-4.487 4.487v18.493z"/></g><path d="m440.852 52.063c0-28.708-23.354-52.063-52.062-52.063-28.707 0-52.062 23.355-52.062 52.063v26.512h-7.938v20h7.938v9.425h20v-9.426h64.124v24.994h-92.062v20h92.062v24.994h-92.062v20h92.062v24.994h-92.062v13.444h112.062zm-20 26.511h-64.124v-26.511c0-17.68 14.383-32.063 32.062-32.063s32.062 14.383 32.062 32.063z" fill="#015a9a"/><path d="m327.79 213.557h93.062v13.443h-93.062z" fill="#015a9a"/><path d="m328.79 213.557h17.21v13.443h-17.21z" fill="#015a9a"/><path d="m133.99 251v-24h-119.721c-1.295 7.881-2.213 15.887-2.741 24z" fill="#6bd9e7"/><path d="m500.473 251c-.528-8.113-1.447-16.119-2.741-24h-204.809v24z" fill="#6bd9e7"/><path d="m327.79 168.563h93.062v20h-93.062z" fill="#015a9a"/><path d="m327.79 123.568h93.062v20h-93.062z" fill="#015a9a"/><path d="m327.79 78.574h93.062v20h-93.062z" fill="#015a9a"/><path d="m275.729 212.586-26.281-4.926c-.575-.109-1.159-.163-1.744-.163-.151 0-.304.003-.457.011-10.481.506-19.21 7.248-22.694 16.539h-22.192c-3.484-9.291-12.213-16.033-22.694-16.539-.153-.008-.306-.011-.456-.011-.586 0-1.169.054-1.745.163l-27.374 5.131c-3.616 5.204-5.741 11.523-5.741 18.339v3.786c0 7.127 2.32 13.707 6.24 19.042l26.978 4.496c.515.087 1.036.129 1.557.129.135 0 .271-.003.406-.009 10.552-.454 19.339-7.201 22.833-16.541h22.184c3.494 9.34 12.281 16.087 22.834 16.541.135.006.271.009.406.009.521 0 1.042-.042 1.557-.129l25.903-4.319c4-5.363 6.368-12.013 6.368-19.219v-3.786c0-6.906-2.184-13.301-5.888-18.544z" fill="#006e66"/><path d="m336.728 98.574h20v9.426h-20z" fill="#015a9a"/><path d="m500.403 250h-207.48l.001 4.186c0 7.188-4.314 13.663-10.992 16.494l-.502.213-.093.538c-5.714 33.089-34.261 57.105-67.88 57.105s-62.167-24.017-67.88-57.105l-.093-.538-.502-.213c-6.677-2.831-10.992-9.306-10.992-16.494v-4.186h-122.393c-.385 5.618-.597 11.284-.597 17 0 135.31 109.69 245 245 245 135.309 0 245-109.69 245-245 0-5.716-.212-11.382-.597-17z" fill="#02c7dd"/><path d="m147.787 283.654c-1.219-.416-2.534-.654-3.91-.654h-132.343c1.344 20.836 5.289 40.961 11.52 60.056h66.606c6.116 0 11.12-4.505 11.12-10.009 0-5.506-5.003-10.01-11.12-10.01h-25.025c-6.116 0-11.12-4.505-11.12-10.01s5.003-10.009 11.12-10.009h79.243c4.666 0 8.679-2.626 10.323-6.313-2.565-4.089-4.731-8.451-6.414-13.051z" fill="#6bd9e7"/><path d="m500.82 275.944h-70.361c-6.119 0-11.122 4.504-11.122 10.009s5.003 10.01 11.122 10.01h27.534c6.116 0 11.12 4.504 11.12 10.009s-5.003 10.01-11.12 10.01h-126.521c-6.119 0-11.123 4.504-11.123 10.01 0 5.504 5.003 10.009 11.123 10.009h159.66c5.611-19.151 8.942-39.273 9.688-60.057z" fill="#07b2cd"/><path d="m360.895 266.678h-42.938c-7.126 0-12.957 5.248-12.957 11.661 0 6.414 5.831 11.661 12.957 11.661h42.938c7.125 0 12.957-5.247 12.957-11.661 0-6.413-5.832-11.661-12.957-11.661z" fill="#6bd9e7"/><path d="m215.043 437.678h-42.938c-7.127 0-12.957 5.248-12.957 11.661 0 6.414 5.831 11.661 12.957 11.661h42.938c7.125 0 12.957-5.247 12.957-11.661 0-6.413-5.832-11.661-12.957-11.661z" fill="#6bd9e7"/><path d="m131.895 398h-82.955c5.142 8.11 10.75 15.895 16.781 23.322h66.173c7.125 0 12.957-5.247 12.957-11.661.001-6.413-5.831-11.661-12.956-11.661z" fill="#07b2cd"/><path d="m240.565 350.416v-27.445c-8.325 3.577-17.488 5.565-27.108 5.565-9.621 0-18.783-1.988-27.109-5.565v27.445z" fill="#c5573a"/><path d="m208 350.416v-22.116c-7.63-.601-14.918-2.436-21.652-5.329v27.445z" fill="#a94b30"/><path d="m140.896 215.532 36.753-6.89c.511-.097 1.035-.145 1.561-.145.134 0 .269.003.405.01 9.808.473 18.367 6.711 21.809 15.892l.244.648h23.578l.244-.648c3.442-9.181 12.001-15.419 21.806-15.892.139-.007.274-.01.409-.01.526 0 1.05.049 1.557.145l36.755 6.89c1.129.212 2.167.648 3.081 1.249v-27.141c0-41.775-33.865-75.641-75.641-75.641s-75.641 33.865-75.641 75.641v27.141c.914-.6 1.952-1.037 3.08-1.249z" fill="#fd3581"/><path d="m140.712 214.55 3.589-.673c2.291-13.339 9.787-19.973 20.698-23.232v-1.005c0-37.133 26.764-67.993 62.049-74.398-4.411-.802-8.948-1.242-13.591-1.242-41.775 0-75.641 33.865-75.641 75.641v25.969c.883-.498 1.854-.865 2.896-1.06z" fill="#fe0364"/><path d="m144.549 259.628v-7.69l-3.484-.581c-4.099-.684-7.074-4.197-7.074-8.352v-5.576c-.639 1.893-1 3.908-1 6.009v10.749c0 8.229 5.329 15.256 12.699 17.85-.736-4.029-1.141-8.172-1.141-12.409z" fill="#d8694b"/><path d="m292.923 237.428v5.576c0 4.155-2.975 7.668-7.074 8.352l-3.484.581v7.69c0 4.237-.405 8.38-1.141 12.407 7.371-2.594 12.699-9.621 12.699-17.85v-10.749c0-2.099-.361-4.115-1-6.007z" fill="#c5573a"/><path d="m177.649 208.643c.511-.097 1.035-.145 1.561-.145.134 0 .269.003.405.01 9.808.473 18.367 6.711 21.809 15.892l.244.648h23.578l.244-.648c3.442-9.181 12.001-15.419 21.806-15.892.139-.007.274-.01.409-.01.526 0 1.05.049 1.557.145l33.539 6.287c-4.385-29.836-33.759-27.346-69.343-27.346s-64.959-2.49-69.343 27.345z" fill="#d8694b"/><path d="m249.181 257.468c-.454.076-.921.115-1.392.115-.121 0-.242-.003-.362-.008-9.876-.425-18.488-6.663-21.941-15.893l-.243-.649h-23.571l-.243.649c-3.453 9.229-12.065 15.468-21.94 15.893-.121.005-.242.008-.363.008-.471 0-.939-.039-1.391-.115l-34.186-5.697v7.857c0 38.609 31.299 69.908 69.908 69.908s69.908-31.299 69.908-69.908v-7.857z" fill="#d8694b"/><path d="m165.893 210.847c3.553-15.463 14.712-21.214 30.214-23.309-27.413.123-48.343 2.579-51.991 27.391z" fill="#c5573a"/><path d="m164.683 259.646v-4.353l-21.134-3.523v7.857c0 38.609 31.299 69.908 69.908 69.908 2.511 0 4.988-.145 7.431-.405-32.112-6.827-56.205-35.337-56.205-69.484z" fill="#c5573a"/><path d="m197.422 174.518c-.753 0-1.484-.355-1.948-.992-.656-.904-.606-2.138.122-2.985l10.156-11.819-10.153-11.819c-.727-.847-.777-2.081-.121-2.984.463-.637 1.194-.992 1.948-.992.31 0 .625.061.927.186l32.067 13.387c.896.372 1.479 1.25 1.479 2.221 0 .972-.583 1.847-1.479 2.222l-32.071 13.389c-.301.125-.616.186-.927.186z" fill="#fff"/><path d="m221.1 257.661h-7.787v-16.628h-11.642l-.243.649c-.784 2.095-1.845 4.026-3.115 5.779v12.152c0 7.194 5.853 13.047 13.047 13.047h9.74c4.142 0 7.5-3.357 7.5-7.5 0-4.141-3.358-7.499-7.5-7.499z" fill="#a94b30"/><path d="m225.619 242.033c-1.092-2.787-1.695-5.82-1.695-8.995 0-3.172.604-6.204 1.699-8.991h-24.333c1.095 2.787 1.699 5.819 1.699 8.991 0 3.175-.604 6.208-1.695 8.995z" fill="#004281"/><path d="m286.201 214.55-10.897-2.043c3.655 5.283 5.811 11.682 5.811 18.591v3.85c0 7.203-2.337 13.852-6.278 19.257l11.176-1.862c4.564-.762 7.91-4.711 7.91-9.339v-19.149c0-4.556-3.244-8.466-7.722-9.305z" fill="#004281"/><path d="m144.85 234.947v-3.85c0-6.82 2.101-13.145 5.67-18.387l-9.808 1.839c-4.477.839-7.722 4.749-7.722 9.305v19.149c0 4.628 3.346 8.577 7.91 9.339l10.104 1.684c-3.865-5.374-6.154-11.954-6.154-19.079z" fill="#004281"/><path d="m179.666 207.508c-.153-.008-.306-.011-.456-.011-.586 0-1.169.054-1.745.163l-27.374 5.131c-3.616 5.204-5.741 11.523-5.741 18.339v3.786c0 7.127 2.32 13.707 6.24 19.042l26.978 4.496c.515.087 1.036.129 1.557.129.135 0 .271-.003.406-.009 13.715-.59 24.458-11.807 24.458-25.536.001-13.658-10.683-24.872-24.323-25.53z" fill="#015a9a"/><path d="m247.704 207.497c-.151 0-.304.003-.457.011-13.64.658-24.323 11.872-24.323 25.53 0 13.729 10.743 24.946 24.459 25.536.135.006.271.009.406.009.521 0 1.042-.042 1.557-.129l25.903-4.319c4-5.363 6.368-12.013 6.368-19.219v-3.786c0-6.906-2.184-13.301-5.887-18.544l-26.281-4.926c-.576-.109-1.159-.163-1.745-.163z" fill="#015a9a"/><path d="m353.914 398v-12.28c0-16.925-13.72-30.646-30.645-30.646-3.927 0-7.677.747-11.127 2.092-5.499-4.82-12.697-7.75-20.585-7.75h-156.2c-7.888 0-15.086 2.93-20.584 7.752-3.451-1.347-7.201-2.094-11.128-2.094-16.924 0-30.645 13.721-30.645 30.646v12.28z" fill="#d8694b"/><path d="m100.086 374.72c0-7.384 2.613-14.158 6.963-19.449-1.119-.124-2.253-.196-3.405-.196-16.923-.001-30.644 13.72-30.644 30.645v12.28h27.086z" fill="#c5573a"/><path d="m232.865 303.327h-38.817c-4.142 0-7.5-3.357-7.5-7.5 0-4.142 3.358-7.5 7.5-7.5h38.817c4.142 0 7.5 3.358 7.5 7.5 0 4.143-3.358 7.5-7.5 7.5z" fill="#a94b30"/><path d="m352.804 444.645c-7.127 0-12.956-5.247-12.956-11.66 0-6.414 5.829-11.661 12.956-11.661h5.446c7.126 0 12.957-5.247 12.957-11.661s-5.831-11.662-12.957-11.662h-105.293c-7.125 0-12.957 5.248-12.957 11.662s5.832 11.661 12.957 11.661h42.686c7.125 0 12.957 5.247 12.957 11.661 0 6.413-5.832 11.66-12.957 11.66h-7.698c-7.126 0-12.957 5.248-12.957 11.661s5.831 11.661 12.957 11.661h108.197c10.106-7.06 19.662-14.855 28.574-23.322z" fill="#07b2cd"/><path d="m328.79 78.574h17.21v20h-17.21z" fill="#015a9a"/><path d="m328.79 123.568h17.21v20h-17.21z" fill="#015a9a"/><path d="m328.79 168.563h17.21v20h-17.21z" fill="#015a9a"/><path d="m244.666 52.063c0-17.68 14.383-32.063 32.062-32.063s32.062 14.383 32.062 32.063v174.937h20v-174.937c0-28.708-23.355-52.063-52.062-52.063s-52.062 23.355-52.062 52.063v55.937h20z" fill="#015a9a"/></svg>