<svg id="Capa_1" enable-background="new 0 0 512 512" height="512" viewBox="0 0 512 512" width="512" xmlns="http://www.w3.org/2000/svg"><circle cx="256" cy="267" fill="#6bd9e7" r="245"/><path d="m398.638 16.335h-285.276c-11.703 0-21.225 9.521-21.225 21.225v200.44h1.682c13.522-8.764 29.5-13.722 46.18-13.722 17.037 0 32.906 5.057 46.222 13.722h44.83c-.001-.127-.007-.252-.007-.379v-10.614l-.981-.019c-12.23-.234-22.18-10.374-22.18-22.604v-13.406c0-9.882 6.628-18.786 16.118-21.654l.711-.215v-20.574c0-45.51 37.025-82.535 82.536-82.535 45.51 0 82.534 37.025 82.534 82.535v20.573l.711.215c9.49 2.869 16.119 11.775 16.119 21.655v13.406c0 12.23-9.949 22.369-22.18 22.604l-.98.019v10.614c0 .127-.006.252-.007.379h36.416v-200.44c.001-11.704-9.52-21.225-21.223-21.225z" fill="#6bd9e7"/><g fill="#fff"><path d="m418.048 52.056c.642 0 1.251-.132 1.814-.352v-9.297c-.564-.22-1.173-.352-1.814-.352h-24.21v-25.72h-10v25.721h-23.531v-25.721h-10v25.721h-23.533v-25.721h-10v25.721h-23.53v-25.721h-10v25.721h-23.532v-25.721h-10v25.721h-23.532v-25.721h-10v25.721h-23.532v-25.721h-10v25.721h-23.53v-25.721h-10v25.721h-23.533v-25.721h-10v25.721h-21.631c-.643 0-1.252.132-1.816.353v9.295c.564.221 1.174.353 1.816.353h21.629v23.533h-21.629c-.643 0-1.252.132-1.816.353v9.295c.564.221 1.174.353 1.816.353h21.629v23.533h-21.629c-.643 0-1.252.132-1.816.353v9.295c.564.221 1.174.353 1.816.353h21.629v23.53h-21.629c-.643 0-1.252.132-1.816.353v9.295c.564.221 1.174.352 1.816.352h21.629v23.533h-21.629c-.643 0-1.252.132-1.816.353v9.295c.564.221 1.174.353 1.816.353h21.629v23.531h-21.629c-.643 0-1.252.132-1.816.353v9.295c.564.221 1.174.352 1.816.352h21.629v8.183c3.269-.987 6.607-1.781 10-2.37v-5.813h23.533v5.057c3.399.364 6.732.945 10 1.699v-6.756h23.53v16.081c1.211.706 2.403 1.439 3.575 2.202h6.425v-18.283h21.303c-2.585-2.786-4.484-6.213-5.416-10h-15.887v-23.531h15.78c.824-3.719 2.571-7.158 5.035-10h-20.814v-23.533h23.532v20.882c2.266-1.874 4.908-3.329 7.823-4.21l.711-.215v-20.574c0-5.271.517-10.42 1.466-15.418v-13.995h3.971c1.32-3.447 2.849-6.792 4.6-10h-8.57v-23.537h23.532v3.853c5.616-5.469 12.002-10.147 18.984-13.853h-8.984v-23.533h23.532v17.516c3.252-.99 6.593-1.773 10-2.358v-15.158h23.53v14.511c3.4.393 6.737.992 10 1.787v-16.298h23.533v23.533h-4.504c5.281 2.803 10.219 6.162 14.744 10h23.291v23.533h-4.091c6.396 11.719 10.036 25.148 10.036 39.413v20.573l.711.215c1.16.351 2.276.794 3.344 1.316v-17.987h24.21c.642 0 1.251-.132 1.814-.352v-9.297c-.564-.22-1.173-.352-1.814-.352h-24.21v-23.53h24.21c.642 0 1.251-.132 1.814-.352v-9.297c-.564-.22-1.173-.352-1.814-.352h-24.21v-23.531h24.21c.642 0 1.251-.132 1.814-.352v-9.297c-.564-.22-1.173-.352-1.814-.352h-24.21v-23.532zm-268.932 157.661h-23.533v-23.531h23.533zm0-33.531h-23.533v-23.533h23.533zm0-33.534h-23.533v-23.53h23.533zm0-33.53h-23.533v-23.533h23.533zm0-33.533h-23.533v-23.533h23.533zm33.53 134.128h-23.53v-23.531h23.53zm0-33.531h-23.53v-23.533h23.53zm0-33.534h-23.53v-23.53h23.53zm0-33.53h-23.53v-23.533h23.53zm0-33.533h-23.53v-23.533h23.53zm33.533 67.063h-23.532v-23.53h23.532zm0-33.53h-23.532v-23.533h23.532zm0-33.533h-23.532v-23.533h23.532zm33.532 0h-23.532v-23.533h23.532zm134.127 0h-23.531v-23.533h23.531z"/><path d="m419.862 185.834v-9.297c-.564-.22-1.173-.352-1.814-.352h-17.013c2.465 2.843 4.211 6.281 5.035 10h11.978c.642.001 1.251-.131 1.814-.351z"/><path d="m419.862 219.365v-9.297c-.564-.22-1.173-.352-1.814-.352h-12.084c-.932 3.787-2.83 7.214-5.416 10h17.5c.642.001 1.251-.131 1.814-.351z"/><path d="m383.838 227v11h10v-13.29c-2.857 1.397-6.044 2.214-9.404 2.278z"/><path d="m216.179 238h10v-11.434c-3.739-.735-7.156-2.401-10-4.746z"/></g><path d="m93.138 238v-200.44c0-11.151 9.073-20.225 20.225-20.225h285.275c11.152 0 20.225 9.073 20.225 20.225v200.44h17.335v-200.44c0-20.711-16.849-37.56-37.56-37.56h-285.276c-20.71 0-37.56 16.849-37.56 37.56v200.44z" fill="#fe0364"/><path d="m500.986 268c.002-.334.014-.666.014-1 0-10.157-.63-20.167-1.831-30h-115.716v.621c0 10.654-2.241 20.961-6.346 30.379z" fill="#7bacdf"/><path d="m184.663 237c12.311 7.635 22.53 18.322 29.605 31h23.122c-4.105-9.418-6.346-19.725-6.346-30.379v-.621z" fill="#7bacdf"/><path d="m95.393 237h-82.562c-1.201 9.833-1.831 19.843-1.831 30 0 .334.012.666.013 1h54.706c7.165-12.861 17.468-23.461 29.674-31z" fill="#7bacdf"/><path d="m500.593 253h-118.725c-5.692 27.386-26.272 50.158-53.904 57.948l-.226.064-.174.157c-5.581 5.049-12.795 7.83-20.316 7.83s-14.734-2.78-20.314-7.829l-.174-.157-.225-.065c-27.633-7.79-48.213-30.563-53.906-57.949h-29.006c13.287 15.004 21.377 34.71 21.377 56.279 0 10.374-1.864 20.523-5.542 30.188l-5.392-5.391c-1.803-1.804-4.206-2.797-6.765-2.797s-4.962.993-6.765 2.797c-2.145 2.145-3.126 5.11-2.69 8.137.063.453-.093.92-.417 1.244-.273.272-.653.43-1.04.43-.07 0-.14-.005-.209-.015-.463-.066-.936-.101-1.403-.101-2.538 0-4.927.991-6.728 2.792-2.145 2.145-3.126 5.11-2.69 8.135.063.454-.093.921-.419 1.247-.273.272-.653.43-1.042.43 0 0-1.546-.113-1.55-.113-2.604 0-4.989.991-6.787 2.79-2.144 2.143-3.125 5.106-2.691 8.132.064.456-.091.922-.415 1.246-.276.276-.656.434-1.045.434-.069 0-.139-.005-.209-.015-.466-.067-.939-.102-1.404-.102-2.535 0-4.923.991-6.723 2.792-1.805 1.804-2.798 4.207-2.798 6.765s.994 4.959 2.798 6.764l4.602 4.603c-8.883 3.06-18.186 4.609-27.677 4.609-33.417 0-63.635-19.529-77.416-49.887h7.187c5.275 0 9.566-4.291 9.566-9.566 0-3.034-1.403-5.823-3.848-7.652-.367-.275-.587-.716-.587-1.177 0-.462.22-.901.588-1.177 2.446-1.833 3.848-4.622 3.848-7.653 0-3.036-1.403-5.826-3.85-7.655-.365-.275-.585-.716-.585-1.175 0-.461.221-.902.59-1.18 2.443-1.827 3.845-4.616 3.845-7.651 0-3.033-1.403-5.822-3.848-7.652-.367-.275-.587-.717-.587-1.178 0-.459.221-.899.592-1.179 2.442-1.827 3.844-4.617 3.844-7.651 0-5.275-4.292-9.566-9.566-9.566h-6.293c3.43-7.08 7.791-13.542 12.88-19.278h-64.952c-.261 4.633-.407 9.298-.407 13.998 0 135.31 109.69 245 245 245 135.309 0 245-109.69 245-245 0-4.7-.146-9.365-.407-14z" fill="#0078c8"/><path d="m380.904 284.828h-12.586c-5.55 7.168-12.328 13.329-20.025 18.172h32.611c5.552 0 10.096-4.089 10.096-9.086s-4.544-9.086-10.096-9.086z" fill="#7bacdf"/><path d="m436.793 300.207c-4.768 0-8.666 3.51-8.666 7.799s3.898 7.799 8.666 7.799h21.453c4.766 0 8.664 3.51 8.664 7.799s-3.898 7.799-8.664 7.799h-44.72c5.428 3.877 9.682 9.285 12.134 15.598h61.967c5.177-14.991 8.935-30.643 11.124-46.793h-61.958z" fill="#5f99d7"/><path d="m338.612 307.063c-3.47 1.573-7.083 2.883-10.806 3.928-5.436 5.016-12.673 8.01-20.558 8.01s-15.122-2.994-20.558-8.01c-3.724-1.045-7.336-2.354-10.807-3.928v18.924h62.728v-18.924z" fill="#f78157"/><path d="m297.272 317.326c-3.959-1.366-7.548-3.537-10.581-6.336-3.724-1.045-7.336-2.354-10.807-3.928v18.924h21.388z" fill="#f46b38"/><path d="m278.002 296.631-.106-.391c-28.078-11.553-47.852-39.168-47.852-71.412v12.793c0 36.201 24.921 66.571 58.542 74.92-5.027-3.934-8.83-9.438-10.584-15.91z" fill="#015a9a"/><path d="m336.602 296.24-.105.391c-1.754 6.473-5.557 11.976-10.584 15.909 33.619-8.348 58.541-38.718 58.541-74.919v-12.793c-.001 32.244-19.774 59.858-47.852 71.412z" fill="#015a9a"/><path d="m307.249 302.032c-10.834 0-21.142-2.241-30.499-6.27 3.209 13.885 15.641 24.238 30.499 24.238s27.29-10.353 30.499-24.237c-9.357 4.028-19.665 6.269-30.499 6.269z" fill="#015a9a"/><path d="m384.453 225.828c0 42.638-34.565 77.204-77.204 77.204-42.64 0-77.204-34.566-77.204-77.204v-40.164c0-42.639 34.564-39.4 77.204-39.4 42.639 0 77.204-3.238 77.204 39.4z" fill="#fa9775"/><path d="m254.684 225.874v-41.7c0-23.507 10.119-33.584 26.238-37.865-29.676.708-50.877 5.963-50.877 39.355v40.164c0 42.638 34.564 77.204 77.204 77.204 1.749 0 3.479-.079 5.2-.194-33.368-9.692-57.765-40.47-57.765-76.964z" fill="#f78157"/><path d="m229.137 194.952 6.6-14.392c-.001-2.146.834-4.165 2.352-5.683s3.536-2.355 5.682-2.355h48.841c12.783 0 24.875-5.682 33.176-15.589 1.531-1.826 3.776-2.874 6.158-2.874 2.383 0 4.628 1.047 6.158 2.873 8.185 9.766 20.107 15.447 32.708 15.586 4.38.048 7.944 3.651 7.944 8.033l6.606 14.4c1.909 0 3.73.378 5.404 1.048v-41.196c0-35.789-29.014-64.804-64.804-64.804h-37.423c-35.791 0-64.805 29.014-64.805 64.804v41.197c1.674-.669 3.494-1.048 5.403-1.048z" fill="#a94b30"/><path d="m390.783 168.366v-19.831c0-46.135-37.399-83.535-83.534-83.535-46.136 0-83.536 37.4-83.536 83.535v19.832c-9.708 2.934-16.829 11.979-16.829 22.611v13.406c0 12.988 10.626 23.615 23.616 23.615h.6c-.021-.724-.055-1.443-.055-2.172v-40.164c0-35.698 24.793-38.457 59.818-38.457h32.772c35.025 0 59.818 2.759 59.818 38.457v40.164c0 .729-.035 1.448-.055 2.172h.6c12.988 0 23.615-10.627 23.615-23.615v-13.406c0-10.632-7.122-19.677-16.83-22.612z" fill="#015a9a"/><path d="m230.045 225.828v-40.164c0-20.371 7.894-30.267 20.784-35.051v-2.078c0-41.517 30.293-75.943 69.978-82.423-4.414-.721-8.94-1.112-13.558-1.112-46.136 0-83.536 37.4-83.536 83.535v19.832c-9.708 2.934-16.829 11.979-16.829 22.611v13.406c0 12.854 10.41 23.389 23.216 23.605-.02-.719-.055-1.436-.055-2.161z" fill="#004281"/><path d="m289.54 131.834c-.831 0-1.638-.392-2.15-1.096-.725-.998-.669-2.36.134-3.297l11.215-13.053-11.212-13.052c-.804-.937-.858-2.3-.134-3.297.512-.704 1.32-1.096 2.151-1.096.343 0 .69.067 1.025.206l35.414 14.785c.989.412 1.633 1.38 1.633 2.453s-.643 2.04-1.633 2.454l-35.419 14.785c-.332.141-.68.208-1.024.208z" fill="#0078c8"/><path d="m315.69 239.439h-11.884c-6.893 0-12.5-5.607-12.5-12.5v-21.655c0-4.143 3.357-7.5 7.5-7.5s7.5 3.357 7.5 7.5v19.155h9.384c4.143 0 7.5 3.357 7.5 7.5 0 4.142-3.357 7.5-7.5 7.5z" fill="#eb6000"/><path d="m393.5 324.986h-169.96c-.952 5.065-2.366 10.041-4.24 14.894l-.235.607 10.822 10.82c4.631 4.632 5.813 11.715 2.94 17.626l-.311.641 39.425 39.426h156.059v-49.513c0-19.054-15.445-34.501-34.5-34.501z" fill="#fa9775"/><path d="m372 324.986v1.65c0 27.263-22.101 49.364-49.363 49.364h-30.775c-27.263 0-49.363-22.101-49.363-49.364v-1.65h-13.499v25.435l.887.886c4.631 4.632 5.813 11.715 2.94 17.626l-.312.641 39.426 39.426h114.059v-84.014z" fill="#6bd9e7"/><path d="m329.727 270.003h-44.955c-4.143 0-7.5-3.357-7.5-7.5 0-4.142 3.357-7.5 7.5-7.5h44.955c4.143 0 7.5 3.358 7.5 7.5 0 4.143-3.358 7.5-7.5 7.5z" fill="#eb6000"/><path d="m348.98 184.184c-5.75 0-10.454 4.705-10.454 10.455v16.129c0 5.75 4.704 10.454 10.454 10.454h3.784c5.749 0 10.454-4.704 10.454-10.454v-16.129c0-5.75-4.705-10.455-10.454-10.455z" fill="#554e56"/><path d="m261.733 184.184c-5.751 0-10.455 4.705-10.455 10.455v16.129c0 5.75 4.704 10.454 10.455 10.454h3.782c5.75 0 10.455-4.704 10.455-10.454v-16.129c0-5.75-4.705-10.455-10.455-10.455z" fill="#554e56"/><path d="m140 223.278c-34.639 0-64.475 20.489-78.101 50h7.872c4.724 0 8.566 3.843 8.566 8.566 0 2.716-1.256 5.214-3.446 6.853-.621.468-.99 1.207-.99 1.978 0 .773.37 1.514.988 1.978 2.191 1.64 3.447 4.137 3.447 6.852 0 2.716-1.256 5.214-3.446 6.852-.62.466-.99 1.206-.99 1.979 0 .771.369 1.51.987 1.976 2.193 1.64 3.449 4.138 3.449 6.854 0 2.714-1.256 5.211-3.446 6.853-.619.463-.989 1.203-.989 1.978 0 .773.37 1.513.988 1.978 2.191 1.639 3.447 4.136 3.447 6.852 0 4.724-3.843 8.566-8.566 8.566h-8.725c13.206 30.523 43.579 51.887 78.953 51.887 10.366 0 20.302-1.835 29.504-5.196l-5.722-5.723c-1.615-1.615-2.505-3.767-2.505-6.057 0-2.291.889-4.442 2.505-6.058 1.611-1.611 3.748-2.499 6.016-2.499.419 0 .845.031 1.265.092.118.017.233.024.349.024.652 0 1.291-.265 1.751-.726.546-.544.808-1.328.699-2.096-.389-2.711.489-5.365 2.408-7.283 1.612-1.612 3.749-2.5 6.018-2.5l1.611.116c.652 0 1.29-.264 1.75-.723.546-.547.808-1.33.701-2.097-.391-2.712.487-5.365 2.407-7.285 1.612-1.611 3.749-2.499 6.021-2.499.418 0 .842.03 1.261.091.116.017.234.024.351.024.65 0 1.286-.263 1.747-.723.545-.545.806-1.327.7-2.094-.39-2.713.488-5.367 2.408-7.287 1.615-1.615 3.766-2.504 6.058-2.504s4.443.889 6.058 2.504l6.474 6.473c3.964-9.888 6.167-20.672 6.167-31.977 0-47.496-38.503-85.999-86-85.999z" fill="#b4dbff"/><path d="m206.242 332.351c-8.365-41.354-37.237-65.305-50.927-74.58-14.938 23.069-15.356 51.193-15.356 51.193s30.545 15.005 41.669 48.326l2.271.084c.652 0 1.29-.264 1.75-.723.546-.547.808-1.33.701-2.097-.391-2.712.487-5.365 2.407-7.285 1.612-1.611 3.749-2.499 6.021-2.499.418 0 .842.03 1.261.091.116.017.234.024.351.024.65 0 1.286-.263 1.747-.723.545-.545.806-1.327.7-2.094-.39-2.713.488-5.367 2.408-7.287 1.361-1.362 3.108-2.2 4.997-2.43z" fill="#c7e7ff"/><path d="m181.984 234.227c-12.42-6.963-26.733-10.949-41.984-10.949-34.639 0-64.475 20.489-78.101 50h7.872c4.724 0 8.566 3.843 8.566 8.566 0 2.716-1.256 5.214-3.446 6.853-.621.468-.99 1.207-.99 1.978 0 .773.37 1.514.988 1.978 2.191 1.64 3.447 4.137 3.447 6.852 0 2.716-1.256 5.214-3.446 6.852-.62.466-.99 1.206-.99 1.979 0 .771.369 1.51.987 1.976 2.193 1.64 3.449 4.138 3.449 6.854 0 2.714-1.256 5.211-3.446 6.853-.567.425-.911 1.085-.967 1.788 20.844 3.561 46.398 2.248 66.034-16.843.002 0 .824-55.921 42.027-74.737z" fill="#e3f3ff"/><path d="m61.899 273.278h7.872c4.724 0 8.566 3.843 8.566 8.566 0 2.716-1.256 5.214-3.446 6.853-.621.468-.99 1.207-.99 1.978 0 .773.37 1.514.988 1.978 2.191 1.64 3.447 4.137 3.447 6.852 0 2.716-1.256 5.214-3.446 6.852-.62.466-.99 1.206-.99 1.979 0 .771.369 1.51.987 1.976 2.193 1.64 3.449 4.138 3.449 6.854 0 2.714-1.256 5.211-3.446 6.853-.566.423-.909 1.081-.966 1.781 5.901 1.007 12.176 1.628 18.591 1.563.521-11.064 5.468-81.011 47.812-104.076-.109 0-.218-.008-.328-.008-34.638-.001-64.474 20.489-78.1 49.999z" fill="#c7e7ff"/><path d="m163.782 384.359c-1.615-1.615-2.505-3.767-2.505-6.057 0-2.291.889-4.442 2.505-6.058 1.611-1.611 3.748-2.499 6.016-2.499.419 0 .845.031 1.265.092.118.017.233.024.349.024.652 0 1.291-.265 1.751-.726.546-.544.808-1.328.699-2.096-.389-2.711.489-5.365 2.408-7.283 1.454-1.455 3.338-2.313 5.358-2.468-11.123-33.321-41.669-48.326-41.669-48.326-19.636 19.091-45.19 20.403-66.034 16.843-.005.063-.022.125-.022.189 0 .773.37 1.513.988 1.978 2.191 1.639 3.447 4.136 3.447 6.852 0 4.724-3.843 8.566-8.566 8.566h-8.716c13.201 30.524 43.57 51.887 78.944 51.887 10.364 0 20.294-1.845 29.491-5.209z" fill="#b4dbff"/><path d="m163.782 384.359c-1.615-1.615-2.505-3.767-2.505-6.057 0-2.291.889-4.442 2.505-6.058 1.611-1.611 3.748-2.499 6.016-2.499.419 0 .845.031 1.265.092.118.017.233.024.349.024.652 0 1.291-.265 1.751-.726.546-.544.808-1.328.699-2.096-.389-2.711.489-5.365 2.408-7.283 1.453-1.454 3.336-2.312 5.355-2.468-1.606-4.821-3.613-9.265-5.885-13.327-28.048 24.98-67.98 26.469-101.483 20.733 15.775 18.695 39.366 30.582 65.744 30.582 10.364 0 20.294-1.844 29.492-5.209z" fill="#e3f3ff"/><path d="m46.398 272.278c-9.043 0-16.398 7.357-16.398 16.4v39.315c0 9.042 7.355 16.397 16.398 16.397h23.373c5.274 0 9.566-4.29 9.566-9.566 0-3.033-1.4-5.821-3.847-7.651-.369-.277-.589-.714-.589-1.178s.22-.901.589-1.178c2.446-1.833 3.847-4.622 3.847-7.652 0-3.033-1.4-5.823-3.847-7.653-.369-.278-.589-.716-.589-1.177 0-.464.22-.901.589-1.179 2.446-1.83 3.847-4.619 3.847-7.652 0-3.032-1.4-5.82-3.847-7.651-.369-.277-.589-.715-.589-1.179 0-.462.22-.898.589-1.177 2.446-1.831 3.847-4.619 3.847-7.653 0-5.274-4.292-9.566-9.566-9.566z" fill="#f78157"/><path d="m46.662 327.994v-39.315c0-9.044 7.355-16.4 16.398-16.4h-16.662c-9.043 0-16.398 7.357-16.398 16.4v39.315c0 9.042 7.355 16.397 16.398 16.397h16.662c-9.042.001-16.398-7.355-16.398-16.397z" fill="#f46b38"/><path d="m273.355 409-39.629-39.629c2.971-6.114 1.938-13.699-3.133-18.771l-16.527-16.525c-3.729-3.729-9.8-3.729-13.529 0-2.146 2.146-3.126 5.106-2.691 8.132.064.457-.089.922-.415 1.248-.328.327-.793.482-1.25.416-3.025-.434-5.986.547-8.131 2.691s-3.126 5.107-2.69 8.131c.064.457-.089.922-.417 1.25-.327.326-.791.48-1.249.416-3.023-.436-5.987.547-8.131 2.691-2.144 2.143-3.125 5.105-2.691 8.131.065.457-.089.922-.417 1.248-.329.329-.792.482-1.249.418-3.024-.436-5.985.545-8.13 2.69-3.731 3.73-3.73 9.799.001 13.528l16.526 16.527c5.071 5.07 12.656 6.104 18.77 3.134l4.273 4.272h70.709z" fill="#f78157"/><path d="m213.095 388.449c-6.114 2.971-13.699 1.937-18.77-3.134l-16.526-16.527c-2.59-2.59-3.378-6.306-2.372-9.585-2.044 2.13-2.98 5.022-2.556 7.979.065.457-.089.922-.417 1.248-.329.329-.792.482-1.249.418-3.024-.436-5.985.545-8.13 2.69-3.731 3.73-3.73 9.799.001 13.528l16.526 16.527c5.071 5.07 12.656 6.104 18.77 3.134l4.273 4.272h31.002z" fill="#f46b38"/><path d="m358.127 416.799c0 4.289 3.898 7.799 8.666 7.799h21.453c4.766 0 8.664 3.51 8.664 7.799s-3.898 7.799-8.664 7.799h-98.58c-4.768 0-8.666 3.51-8.666 7.799s3.898 7.799 8.666 7.799h122.484c16.457-13.626 31.103-29.361 43.523-46.793h-88.88c-4.768-.001-8.666 3.509-8.666 7.798z" fill="#7bacdf"/><path d="m280.334 409h-185.658c-4.766 0-8.664 3.51-8.664 7.799s3.898 7.799 8.664 7.799h19.498c4.766 0 8.664 3.51 8.664 7.799s-3.898 7.799-8.664 7.799h-31.46c5.46 5.463 11.18 10.667 17.134 15.598h103.358c4.768 0 8.666-3.51 8.666-7.799s-3.898-7.799-8.666-7.799h-21.453c-4.766 0-8.664-3.51-8.664-7.799s3.898-7.799 8.664-7.799h98.58c4.768 0 8.666-3.51 8.666-7.799.001-4.289-3.897-7.799-8.665-7.799z" fill="#5f99d7"/></svg>