<svg id="Capa_1" enable-background="new 0 0 512 512" height="512" viewBox="0 0 512 512" width="512" xmlns="http://www.w3.org/2000/svg"><circle cx="250.505" cy="267" fill="#6bd9e7" r="245"/><path d="m452.665 74.273-20.434-20.433c-65.283-65.282-171.691-65.096-237.201.414l-101.922 101.922c-65.51 65.51-65.695 171.918-.414 237.2l20.434 20.434c27.665 27.665 62.717 43.567 98.91 47.729l-38.207 38.207c24.121 7.942 49.893 12.254 76.674 12.254.412 0 .822-.014 1.234-.016l200.51-200.51c65.512-65.51 65.697-171.918.416-237.201z" fill="#fd3581"/><path d="m231.348 441.65c-39.13 0-75.841-15.161-103.37-42.69l-20.434-20.434c-57.094-57.095-56.908-150.18.414-207.501l101.922-101.921c27.795-27.796 64.777-43.104 104.132-43.104 39.13 0 75.842 15.16 103.37 42.689l20.434 20.434c27.598 27.597 42.758 64.4 42.689 103.629-.069 39.257-15.377 76.146-43.105 103.873l-101.92 101.921c-27.796 27.796-64.778 43.104-104.132 43.104z" fill="#fe5694"/><path d="m231.348 420.15c-33.388 0-64.699-12.925-88.167-36.394l-20.434-20.434c-23.541-23.541-36.469-54.942-36.402-88.42.067-33.509 13.142-65.001 36.815-88.675l101.923-101.92c23.733-23.736 55.315-36.807 88.929-36.807 33.388 0 64.699 12.924 88.167 36.392l20.434 20.435c23.526 23.525 36.451 54.916 36.393 88.389-.06 33.528-13.131 65.031-36.808 88.707l-101.922 101.92c-23.736 23.735-55.318 36.807-88.928 36.807z" fill="#fe93bb"/><path d="m137.925 348.145c-40.492-40.493-40.379-106.26.258-146.896l101.92-101.921c40.637-40.637 106.404-40.75 146.896-.258l20.434 20.434c40.494 40.494 40.379 106.261-.256 146.896l-101.922 101.922c-40.635 40.635-106.402 40.749-146.896.256z" fill="#00c285"/><path d="m151.757 216.132 103.966-103.967c34.046-34.045 85.381-40.198 125.524-18.431-40.746-35.059-102.38-33.171-141.144 5.594l-101.92 101.921c-39.901 39.9-40.728 104.028-2.411 144.671-24.62-40.713-19.279-94.525 15.985-129.788z" fill="#00b37b"/><path d="m129.577 269.026c-1.943-1.944-1.943-5.126 0-7.07l171.234-171.233c1.943-1.944 5.125-1.944 7.07 0l107.9 107.9c1.943 1.944 1.943 5.126 0 7.07l-171.233 171.234c-1.943 1.944-5.125 1.944-7.07 0z" fill="#01998d"/><path d="m144.361 278.961 173.603-173.603c.867-.868 1.979-1.331 3.119-1.435l-13.201-13.201c-1.945-1.944-5.127-1.944-7.07 0l-171.235 171.234c-1.943 1.944-1.943 5.126 0 7.07l13.324 13.324c.047-1.233.524-2.453 1.46-3.389z" fill="#008b81"/><path d="m456.2 70.738-20.434-20.434c-32.439-32.439-75.679-50.304-121.755-50.304-46.299 0-89.81 18.012-122.516 50.719l-101.922 101.922c-67.461 67.459-67.646 177.039-.414 244.27l20.433 20.434c25.299 25.3 57.168 41.732 91.827 47.742l-32.857 32.856c3.51 1.245 7.057 2.416 10.637 3.504l34.666-34.666c5.77.574 11.602.869 17.48.869.369 0 .737-.011 1.106-.014l-37.931 37.931c1.922.449 3.854.874 5.793 1.278l39.394-39.396c8.879-.418 17.635-1.505 26.21-3.23l-45.894 45.895c2.113.263 4.236.496 6.365.704l48.716-48.716c10.517-2.723 20.723-6.419 30.503-11.061l-60.885 60.885c1.922.045 3.848.073 5.779.073 2.83 0 5.644-.065 8.451-.161l201.391-201.586c62.862-67.758 61.532-173.838-4.143-239.514zm-265.133-5.451 9.723 9.723-10.938 10.938-9.723-9.723zm117.698 306.596c.008-.009.017-.017.025-.025l17.23-17.23 9.721 9.722-7.385 7.385-9.846 9.846c-14.159 14.159-31.172 24.432-49.744 30.302zm-7.071-7.07c-18.756 18.74-43.656 29.06-70.123 29.06-26.34 0-51.084-10.238-69.678-28.83l-20.434-20.434c-38.478-38.479-38.363-101.205.258-139.825l101.92-101.921c18.758-18.757 43.67-29.088 70.148-29.088 26.34 0 51.086 10.239 69.678 28.83l20.434 20.434c38.478 38.479 38.363 101.205-.256 139.826zm27.862-13.721 10.938-10.939 9.722 9.722-10.939 10.939zm14.473-14.474 66.683-66.683c42.52-42.519 42.633-111.589.256-153.967l-20.434-20.434c-20.48-20.48-47.736-31.76-76.748-31.76-29.148 0-56.572 11.371-77.219 32.018l-3.962 3.962-9.722-9.722 3.963-3.963c23.229-23.228 54.131-36.02 87.016-36.02 32.717 0 63.418 12.683 86.447 35.712l20.434 20.434c23.086 23.087 35.768 53.864 35.711 86.662-.057 32.803-12.85 63.628-36.022 86.8l-66.682 66.683zm-114.959-233.328-10.938 10.938-9.722-9.722 10.938-10.938zm-14.472 14.473-79.95 79.951c-42.519 42.519-42.635 111.588-.258 153.966l20.434 20.434c20.48 20.48 47.738 31.76 76.748 31.76 13.086 0 25.82-2.299 37.754-6.691l-18.99 18.99c-6.178.942-12.471 1.428-18.838 1.428-32.717 0-63.418-12.683-86.447-35.712l-20.434-20.434c-47.738-47.738-47.6-125.553.309-173.462l79.951-79.951zm-93.208 66.694c-49.859 49.857-49.998 130.845-.309 180.532l20.434 20.434c23.973 23.974 55.93 37.177 89.982 37.177 4.395 0 8.754-.223 13.066-.657l-16.882 16.883c-36.989-.935-71.563-15.715-97.708-41.861l-20.433-20.435c-56.023-56.023-55.861-147.341.361-203.562l79.951-79.951 11.488 11.488zm140.197 234.603c11.117-2.662 21.781-6.8 31.759-12.315l-28.185 28.185c-7.504 1.785-15.188 2.985-22.997 3.555zm70.305-43.791 7.385-7.385 11.489 11.49-17.229 17.229c-16.677 16.676-36.727 28.758-58.613 35.635zm10.919-10.92 10.939-10.938 11.489 11.489-10.939 10.939zm14.475-14.474 66.682-66.683c49.859-49.858 49.998-130.845.311-180.532l-20.434-20.434c-23.975-23.974-55.93-37.177-89.982-37.177-34.221 0-66.379 13.313-90.551 37.485l-3.963 3.963-11.489-11.487 3.963-3.963c27.258-27.259 63.523-42.271 102.113-42.271 38.395 0 74.422 14.884 101.449 41.909l20.434 20.434c27.094 27.094 41.977 63.213 41.91 101.703-.068 38.494-15.08 74.669-42.272 101.86l-66.683 66.683zm-141.473-259.842-10.938 10.938-11.488-11.488 10.938-10.938zm-5.6 366.26c-35.371-4.549-68.017-20.485-93.55-46.019l-20.434-20.434c-63.332-63.333-63.146-166.569.414-230.13l79.951-79.951 9.723 9.723-79.951 79.951c-58.172 58.17-58.334 152.659-.361 210.632l20.434 20.434c25.956 25.956 59.934 41.081 96.442 43.127zm21.134 1.357c-2.729 0-5.445-.067-8.15-.199l13.686-13.686c7.379-.263 14.662-1.058 21.809-2.367l-15.849 15.85c-3.81.263-7.642.402-11.496.402zm19.291-1.128 17.054-17.054c13.567-3.364 26.544-8.625 38.617-15.637l-26.563 26.563c-9.437 2.913-19.17 4.967-29.108 6.128zm96.094-46.602c-16.256 16.239-35.343 28.625-56.149 36.707l46.488-46.488 17.229-17.229 9.722 9.722zm20.826-20.824-9.722-9.722 4.333-4.333 6.607-6.606 9.722 9.722zm81.157-81.157-66.683 66.683-9.722-9.722 66.683-66.683c28.135-28.134 43.666-65.561 43.736-105.387.068-39.83-15.336-77.207-43.375-105.247l-20.434-20.434c-27.971-27.971-65.254-43.374-104.984-43.374-39.926 0-77.445 15.532-105.648 43.736l-3.963 3.963-9.723-9.723 3.963-3.963c30.819-30.816 71.817-47.788 115.446-47.788 43.404 0 84.135 16.824 114.686 47.375l20.434 20.434c63.331 63.334 63.143 166.568-.416 230.13z" fill="#e3f3ff"/><g fill="#c7e7ff"><path d="m422.239 202.158c0-2.675-1.037-5.186-2.922-7.07l-107.9-107.9c-1.885-1.885-4.397-2.923-7.07-2.923-2.676 0-5.186 1.038-7.07 2.923l-171.235 171.233c-3.898 3.898-3.898 10.242 0 14.141l107.9 107.9c1.885 1.885 4.396 2.923 7.07 2.923 2.676 0 5.186-1.038 7.07-2.923l171.234-171.233c1.886-1.885 2.923-4.396 2.923-7.071zm-41.41-31.418-17.18 17.182c-.307.306-.668.351-.857.351-.186 0-.543-.044-.842-.343l-43.375-43.375c-.459-.459-.455-1.236.008-1.699l17.18-17.182zm-216.299 126.168 17.182-17.18c.305-.306.666-.351.855-.351.186 0 .543.045.842.343l43.375 43.375c.459.458.455 1.236-.008 1.699l-17.18 17.181zm76.496 76.476c-.002 0-.006.001-.014.001v.007l-27.881-27.882 17.18-17.18c2.42-2.419 2.424-6.354.008-8.771l-43.375-43.375c-1.166-1.165-2.721-1.808-4.377-1.808-1.662 0-3.223.645-4.393 1.816l-17.18 17.18-27.883-27.882 83.85-83.85 29.518 29.519c-5.482 6.314-8.491 14.285-8.507 22.716-.016 9.272 3.58 17.983 10.125 24.528 6.529 6.529 15.221 10.125 24.469 10.125 8.453 0 16.446-3.009 22.776-8.506l29.52 29.521zm50.774-116.905c-5.378 4.56-12.115 7.05-19.232 7.05-7.914 0-15.348-3.075-20.934-8.66-5.598-5.599-8.674-13.051-8.66-20.984.012-7.098 2.504-13.816 7.051-19.18zm-38.241-45.309c5.378-4.56 12.113-7.051 19.232-7.051 7.912 0 15.346 3.075 20.932 8.66 10.967 10.967 11.49 28.486 1.609 40.164zm74.839 74.839-29.521-29.521c11.823-13.637 11.298-34.326-1.619-47.243-6.529-6.529-15.219-10.125-24.467-10.125-8.453 0-16.446 3.009-22.776 8.506l-29.519-29.519 83.85-83.849 27.881 27.881-17.18 17.182c-2.42 2.42-2.424 6.355-.008 8.77l43.375 43.375c1.166 1.166 2.721 1.808 4.377 1.808 1.662 0 3.221-.645 4.392-1.816l17.18-17.182 27.883 27.883z"/><path d="m241.013 383.385c-2.674 0-5.186-1.038-7.07-2.923l-107.9-107.9c-3.898-3.898-3.898-10.242 0-14.141l171.233-171.233c1.885-1.885 4.395-2.923 7.07-2.923 2.674 0 5.186 1.038 7.07 2.923l107.9 107.9c1.885 1.885 2.922 4.395 2.922 7.07s-1.037 5.186-2.922 7.07l-171.233 171.234c-1.885 1.885-4.395 2.923-7.07 2.923zm63.334-289.127-171.235 171.233 107.9 107.9v-.007c.008 0 .012-.001.014-.001l171.221-171.226z"/></g></svg>