<svg id="Capa_1" enable-background="new 0 0 512 512" height="512" viewBox="0 0 512 512" width="512" xmlns="http://www.w3.org/2000/svg"><circle cx="256" cy="267" fill="#a7e8f1" r="245"/><path d="m101.467 403.583c-1.83-5.634.579-13.048 5.37-16.528l56.163-40.805v-32.705c-28.346-3.365-32.398-18.13-67.918-18.13-39.867 0-40.096 18.597-79.518 18.805 13.054 66.849 53.286 123.972 108.725 159.393z" fill="#02c7dd"/><path d="m495.975 314.225c-40.092 0-40.092-18.81-80.183-18.81-35.045 0-39.456 14.373-66.792 17.99v32.845l56.163 40.805c4.791 3.48 7.2 10.895 5.37 16.528l-22.77 69.994c55.411-35.423 95.623-92.531 108.672-159.359-.154.001-.305.007-.46.007z" fill="#02c7dd"/><path d="m327 253.349v-16.512c-.22-.182-.434-.374-.638-.578-1.7-1.7-2.636-3.96-2.636-6.364s.936-4.664 2.636-6.364l.638-.638v-31.044h-32.017v56.017c0 18.186-12.519 33.5-29.391 37.786l84.408 61.325v-62.159h-1c-13.216-4.814-22-17.291-22-31.469z" fill="#01998d"/><path d="m217.017 247.865v-56.017h-32.017v30.965l1.364 1.364c1.7 1.7 2.636 3.96 2.636 6.364s-.936 4.664-2.636 6.364c-.422.422-.88.797-1.364 1.121v15.321c0 14.179-8.784 26.655-22 31.469h-1v62.159l84.407-61.325c-16.872-4.285-29.39-19.599-29.39-37.785z" fill="#01998d"/><path d="m162 286.216v60.761l20-14.531v-62.967c-4.187 7.898-11.352 13.976-20 16.737z" fill="#008b81"/><path d="m185 222.814 1.364 1.364c1.083 1.082 1.852 2.393 2.27 3.822h28.382v-36.151h-32.016z" fill="#5de1c4"/><path d="m326.362 223.53.638-.638v-31.044h-32.017v36.152h28.947c.359-1.681 1.188-3.226 2.432-4.47z" fill="#5de1c4"/><path d="m245.366 286.408 1.945-1.414c2.298-1.669 5.384-2.589 8.689-2.589s6.391.92 8.689 2.589l1.945 1.414c16.919-4.658 29.35-20.145 29.35-38.543v-56.017h-17.649v8.588c0 11.315-9.204 20.519-20.519 20.519h-3.63c-11.314 0-20.518-9.204-20.518-20.519v-8.588h-17.65v56.017c-.001 18.399 12.429 33.885 29.348 38.543z" fill="#fff"/><path d="m247.311 284.994c2.298-1.669 5.384-2.589 8.689-2.589s6.391.92 8.689 2.589l1.953 1.419c5.56-1.532 10.635-4.233 14.942-7.825-3.041-11.282-13.34-19.588-25.584-19.588s-22.543 8.306-25.584 19.588c4.308 3.592 9.383 6.293 14.942 7.825z" fill="#e3f3ff"/><path d="m278.334 191.849v8.588c0 11.315-9.204 20.519-20.519 20.519h-3.63c-11.314 0-20.518-9.204-20.518-20.519v-8.588h-11v8.588c0 17.38 14.14 31.519 31.518 31.519h3.63c17.379 0 31.519-14.139 31.519-31.519v-8.588z" fill="#c7e7ff"/><path d="m101.467 403.583c-1.83-5.634.579-13.048 5.37-16.528l28.542-20.736c-46.038-2.102-48.387-24.702-98.903-24.702-5.008 0-9.534.226-13.686.628 17.636 54.7 53.983 100.992 101.493 131.353z" fill="#07b2cd"/><path d="m460.303 341.616c-45.107 0-51.816 18.018-85.512 23.372l30.372 22.066c4.791 3.48 7.2 10.895 5.37 16.528l-22.767 69.986c46.798-29.917 82.759-75.295 100.668-128.938-7.6-1.838-16.612-3.014-28.131-3.014z" fill="#07b2cd"/><path d="m405.751 386.246-140.475-102.061c-5.102-3.707-13.451-3.707-18.553 0l-140.474 102.061c-5.102 3.706-7.682 11.647-5.733 17.646l22.356 68.803c38.33 24.859 84.039 39.305 133.128 39.305s94.799-14.447 133.129-39.307l22.355-68.802c1.949-5.997-.631-13.939-5.733-17.645z" fill="#fe860a"/><path d="m256 188.459c-8.282 0-16.169-1.717-23.333-4.804v16.781c0 11.835 9.684 21.519 21.518 21.519h3.63c11.835 0 21.519-9.684 21.519-21.519v-16.781c-7.164 3.087-15.051 4.804-23.334 4.804z" fill="#fea95c"/><path d="m254.333 200.436v-12.019c-7.673-.214-14.985-1.884-21.666-4.762v16.781c0 11.835 9.684 21.519 21.518 21.519h3.63c3.22 0 6.269-.737 9.019-2.019-7.358-3.429-12.501-10.884-12.501-19.5z" fill="#ff9240"/><path d="m196.829 124.888c-3.209-2.108-5.674-6.246-5.674-9.912v-10.328c0-3.53 2.42-6.498 5.686-7.353.004-.189.004-.375.01-.566-9.846.143-17.857 8.229-17.857 18.106v10.286c0 9.966 8.153 18.118 18.119 18.118h1.393c-1.087-4.477-1.677-9.146-1.677-13.951z" fill="#fdb97e"/><path d="m315.149 96.729c.005.191.006.377.011.566 3.265.855 5.685 3.823 5.685 7.353v10.328c0 3.666-2.464 7.804-5.673 9.913v4.399c0 4.806-.59 9.475-1.677 13.951h1.392c9.966 0 18.119-8.152 18.119-18.118v-10.286c0-9.877-8.012-17.964-17.857-18.106z" fill="#fea95c"/><path d="m198.762 97.04h114.477c1.037 0 2.025.21 2.926.587-.01-1.203-.06-2.353-.138-3.466-16.88-14.368-37.879-22.189-60.027-22.189-22.149 0-43.148 7.821-60.025 22.188-.078 1.113-.129 2.264-.138 3.467.9-.377 1.889-.587 2.925-.587z" fill="#fdb97e"/><path d="m313.466 125.789-23.563 9.219c-1.149.45-2.518.688-3.955.688h-.001c-3.439 0-7.001-1.34-9.074-3.413l-11.927-11.928c-2.378-2.376-4.554-6.696-5.414-10.751l-.169-.792h-6.727l-.169.792c-.86 4.055-3.035 8.375-5.412 10.752l-11.928 11.927c-2.074 2.074-5.636 3.414-9.074 3.414-1.438 0-2.807-.238-3.957-.689l-23.561-9.22c-.95-.372-1.863-.939-2.706-1.64v5.14c0 33.231 26.939 60.171 60.171 60.171s60.172-26.939 60.172-60.171v-5.139c-.844.701-1.756 1.268-2.706 1.64z" fill="#fdb97e"/><path d="m198.762 97.04h18.909c.137-8.598 2.141-14.727 5.63-19.091-9.861 3.745-19.085 9.195-27.326 16.211-.078 1.113-.129 2.264-.138 3.467.9-.377 1.889-.587 2.925-.587z" fill="#fea95c"/><path d="m217.807 133.329-19.271-7.541c-.95-.372-1.863-.939-2.706-1.64v5.14c0 33.231 26.939 60.171 60.171 60.171 3.728 0 7.373-.357 10.914-1.006-26.727-4.9-47.271-27.447-49.108-55.124z" fill="#fea95c"/><path d="m262.579 126.551h-5.657v-17.739h-4.285l-.169.792c-.86 4.055-3.035 8.375-5.412 10.752l-5.134 5.133v3.788c0 6.769 5.506 12.274 12.274 12.274h8.383c4.143 0 7.5-3.357 7.5-7.5s-3.357-7.5-7.5-7.5z" fill="#eb6000"/><path d="m313.238 96.04h-114.476c-4.733 0-8.606 3.873-8.606 8.607v10.328c0 4.734 3.607 10.019 8.016 11.744l23.562 9.22c4.41 1.725 10.754.398 14.103-2.95l11.928-11.927c2.591-2.591 4.81-7.134 5.684-11.251h5.107c.874 4.117 3.094 8.66 5.686 11.25l11.927 11.928c3.348 3.349 9.693 4.675 14.102 2.95l23.563-9.22c4.409-1.727 8.015-7.01 8.015-11.744v-10.328c-.004-4.734-3.877-8.607-8.611-8.607z" fill="#015a9a"/><path d="m237.888 128.899-23.561-9.22c-4.408-1.726-8.016-7.01-8.016-11.744v-10.328c0-.535.056-1.059.15-1.567h-7.699c-4.733 0-8.606 3.873-8.606 8.607v10.328c0 4.734 3.607 10.019 8.016 11.744l23.562 9.22c4.41 1.725 10.754.398 14.103-2.95l3.624-3.624c-.545-.119-1.072-.269-1.573-.466z" fill="#004281"/><path d="m272.705 167.945h-33.41c-4.143 0-7.5-3.357-7.5-7.5s3.357-7.5 7.5-7.5h33.41c4.143 0 7.5 3.357 7.5 7.5s-3.357 7.5-7.5 7.5z" fill="#eb6000"/><path d="m256 57.235c25.648 0 49.95 9.028 69.475 25.614v-13.375c0-38.37-31.106-69.474-69.475-69.474s-69.473 31.104-69.473 69.474v13.375c19.524-16.586 43.825-25.614 69.473-25.614z" fill="#01998d"/><path d="m208.073 68.561c.444-34.298 25.726-62.601 58.689-67.728-3.507-.546-7.101-.833-10.762-.833-38.369 0-69.473 31.104-69.473 69.474v13.375c6.67-5.666 13.899-10.446 21.546-14.288z" fill="#008b81"/><path d="m327.969 103.618c-2.18 0-4.358-.846-5.998-2.531-17.65-18.131-41.079-28.115-65.971-28.115s-48.323 9.984-65.971 28.115c-3.225 3.312-8.523 3.383-11.834.158-3.311-3.223-3.384-8.521-.159-11.832 20.829-21.394 48.517-33.178 77.964-33.178s57.135 11.783 77.964 33.178c3.225 3.311 3.152 8.609-.159 11.832-1.626 1.584-3.733 2.373-5.836 2.373z" fill="#5de1c4"/><path d="m488.054 204.182c-3.099-7.467-10.388-12.333-18.472-12.333h-143.582v32.081c.119-.135.234-.271.362-.399l22.628-22.628c1.7-1.699 3.961-2.635 6.364-2.635s4.664.936 6.364 2.635c1.7 1.7 2.636 3.96 2.636 6.364s-.936 4.664-2.636 6.364l-4.949 4.949 13.268 13.269h51.36l-19.014 18.897c1.386.6 2.661 1.454 3.759 2.553l22.303 22.302c1.032 1.032 1.825 2.21 2.408 3.463l52.892-53.094c5.708-5.725 7.408-14.322 4.309-21.788z" fill="#fff"/><path d="m344.041 231.309-4.95 4.95c-1.7 1.699-3.961 2.636-6.364 2.636s-4.664-.937-6.364-2.636c-.128-.128-.243-.265-.362-.399v17.489c0 15.392 10.082 28.425 24 32.867v-48.948z" fill="#fff"/><path d="m143.337 231.849 12.62-12.62-4.949-4.95c-1.7-1.7-2.636-3.96-2.636-6.364s.936-4.664 2.636-6.364c1.7-1.699 3.961-2.635 6.364-2.635s4.664.936 6.364 2.635l22.264 22.263v-31.965h-143.582c-8.084 0-15.373 4.866-18.472 12.333-3.1 7.466-1.399 16.064 4.309 21.788l53.659 53.853c.592-1.442 1.471-2.795 2.641-3.965l22.303-22.302c.928-.928 1.984-1.678 3.123-2.253l-19.378-19.454z" fill="#fff"/><path d="m180 239.542c-2.403 0-4.664-.937-6.364-2.636l-4.95-4.949-6.686 6.686v47.573c13.918-4.442 24-17.476 24-32.867v-16.112c-1.653 1.484-3.762 2.305-6 2.305z" fill="#fff"/><path d="m84.555 275.857 7.509-7.509-42.226-42.378c-5.708-5.725-7.408-14.322-4.309-21.788 3.099-7.467 10.388-12.333 18.472-12.333h-21.583c-8.084 0-15.373 4.866-18.472 12.333-3.1 7.466-1.399 16.064 4.309 21.788l53.659 53.853c.592-1.443 1.471-2.796 2.641-3.966z" fill="#e3f3ff"/><path d="m246.724 284.185-140.475 102.061c-5.102 3.706-7.682 11.647-5.733 17.646l22.356 68.803c38.33 24.859 84.039 39.305 133.128 39.305v-230.595c-3.363 0-6.726.927-9.276 2.78z" fill="#fe7701"/><path d="m122.516 381.892c-.725-2.229-.82-4.727-.396-7.176l-15.87 11.53c-5.102 3.706-7.682 11.647-5.733 17.646l22.356 68.803c11.219 7.276 23.073 13.651 35.456 19.043z" fill="#f46700"/><g fill="#006e66"><path d="m442.505 329.772 12.727-12.728c.238-.238.49-.457.75-.665l-25.799-25.8c-.484.785-1.056 1.531-1.735 2.212l-12.17 12.169 25.562 25.562c.206-.258.426-.51.665-.75z"/><path d="m474.282 334.681c-.206.259-.426.51-.665.749l-12.728 12.728c-.238.238-.491.458-.751.665l19.15 19.15c2.982-6.586 5.669-13.334 8.07-20.215z"/><path d="m388.953 253.299c.674-.674 1.42-1.247 2.211-1.737l-33.688-33.688-14.143 14.143 33.451 33.451z"/><path d="m442.505 329.772 4.599-4.599-25.519-25.52-5.307 5.307 25.562 25.562c.206-.258.426-.51.665-.75z"/><path d="m465.488 343.559-4.599 4.599c-.238.238-.491.458-.751.665l19.15 19.15c1.109-2.449 2.164-4.929 3.191-7.422z"/><path d="m382.092 260.161-32.929-32.929c-.177-.177-.336-.363-.497-.549l-5.332 5.332 33.451 33.451z"/><path d="m51.309 348.805-12.728-12.728c-.15-.149-.284-.309-.421-.466l-13.162 13.163c2.428 6.856 5.145 13.574 8.149 20.135l19.215-19.215c-.369-.269-.724-.56-1.053-.889z"/><path d="m82.861 290.911-26.359 26.359c.157.138.316.272.465.422l12.727 12.727c.331.331.621.688.89 1.054l26.198-26.198-12.229-12.227c-.659-.658-1.217-1.379-1.692-2.137z"/><path d="m121.909 251.862c.764.48 1.484 1.04 2.138 1.693l12.227 12.228 33.119-33.119-14.143-14.143z"/><path d="m38.581 336.077c-.15-.149-.284-.309-.421-.466l-13.162 13.163c1.315 3.714 2.723 7.384 4.207 11.013l16.543-16.543z"/><path d="m82.861 290.911-26.359 26.359c.157.138.316.272.465.422l7.166 7.167 26.115-26.115-5.695-5.695c-.659-.659-1.217-1.38-1.692-2.138z"/><path d="m121.909 251.862c.764.48 1.484 1.04 2.138 1.693l5.694 5.694 33.119-33.119-7.61-7.609z"/></g><path d="m429.154 293.499c5.129-5.13 5.127-13.476-.002-18.605l-22.303-22.302c-5.129-5.131-13.473-5.131-18.604 0l-13.258 13.258c-2.992 2.992-2.992 7.86 0 10.852 1.721 1.721 4.096 2.507 6.521 2.159.367-.053.74.071 1.002.334.264.263.387.635.334 1.002-.348 2.426.439 4.803 2.16 6.522 1.721 1.72 4.096 2.509 6.521 2.16.369-.052.74.07 1.002.333.264.264.387.636.336 1.003-.35 2.426.438 4.802 2.158 6.523s4.098 2.509 6.521 2.159c.367-.054.74.071 1.002.333.264.264.387.636.334 1.002-.348 2.427.441 4.804 2.162 6.523 2.99 2.992 7.859 2.993 10.854 0z" fill="#fdb97e"/><path d="m429.154 293.499c5.129-5.13 5.127-13.476-.002-18.605l-22.303-22.302c-5.129-5.131-13.473-5.131-18.604 0l-13.258 13.258c-2.992 2.992-2.992 7.86 0 10.852 1.721 1.721 4.096 2.507 6.521 2.159.367-.053.74.071 1.002.334.264.263.387.635.334 1.002-.348 2.426.439 4.803 2.16 6.522 1.721 1.72 4.096 2.509 6.521 2.16.369-.052.74.07 1.002.333.264.264.387.636.336 1.003-.35 2.426.438 4.802 2.158 6.523s4.098 2.509 6.521 2.159c.367-.054.74.071 1.002.333.264.264.387.636.334 1.002-.348 2.427.441 4.804 2.162 6.523 2.99 2.992 7.859 2.993 10.854 0z" fill="#fdb97e"/><path d="m414.58 298.293c-1.782-1.781-2.6-4.243-2.239-6.757.055-.379-.073-.765-.346-1.038-.271-.27-.657-.4-1.038-.345-2.511.362-4.973-.454-6.755-2.236s-2.597-4.243-2.235-6.755c.053-.381-.074-.766-.348-1.039-.271-.272-.655-.398-1.037-.345-2.513.36-4.973-.456-6.755-2.237s-2.598-4.243-2.237-6.756c.055-.38-.073-.766-.346-1.038-.271-.272-.658-.4-1.038-.346-2.513.36-4.973-.454-6.755-2.236-2.095-2.095-2.768-5.077-2.03-7.748l-6.433 6.433c-2.992 2.992-2.992 7.86 0 10.852 1.721 1.721 4.096 2.507 6.521 2.159.367-.053.74.071 1.002.334.264.263.387.635.334 1.002-.348 2.426.439 4.803 2.16 6.522 1.721 1.72 4.096 2.509 6.521 2.16.369-.052.74.07 1.002.333.264.264.387.636.336 1.003-.35 2.426.438 4.802 2.158 6.523s4.098 2.509 6.521 2.159c.367-.054.74.071 1.002.333.264.264.387.636.334 1.002-.348 2.427.441 4.804 2.162 6.523 2.99 2.992 7.859 2.993 10.854 0l6.434-6.433c-2.671.739-5.655.067-7.749-2.029z" fill="#fea95c"/><path d="m83.846 293.756c-5.129-5.13-5.127-13.476.002-18.605l22.303-22.302c5.129-5.131 13.473-5.131 18.604 0l13.258 13.258c2.992 2.992 2.992 7.86 0 10.853-1.721 1.721-4.096 2.507-6.521 2.159-.367-.053-.74.071-1.002.334-.264.263-.387.635-.334 1.002.348 2.426-.439 4.803-2.16 6.522-1.721 1.72-4.096 2.509-6.521 2.16-.369-.052-.74.07-1.002.333-.264.264-.387.636-.336 1.003.35 2.426-.438 4.802-2.158 6.522-1.721 1.721-4.098 2.509-6.521 2.159-.367-.054-.74.071-1.002.333-.264.264-.387.636-.334 1.002.348 2.427-.441 4.804-2.162 6.523-2.99 2.992-7.859 2.993-10.854 0z" fill="#fdb97e"/><path d="m93.618 286.011 23.394-23.393c3.845-3.846 9.406-4.928 14.234-3.277l-6.492-6.492c-5.131-5.131-13.475-5.131-18.604 0l-22.302 22.301c-5.129 5.13-5.131 13.476-.002 18.605l6.497 6.496c-1.653-4.828-.57-10.394 3.275-14.24z" fill="#fea95c"/><path d="m454.524 316.338c3.889-3.89 10.254-3.89 14.143 0l5.657 5.656c3.89 3.89 3.89 10.253 0 14.143l-12.727 12.728c-3.89 3.89-10.253 3.89-14.143 0l-5.656-5.656c-3.89-3.89-3.889-10.253 0-14.143z" fill="#7bacdf"/><path d="m457.76 338.778-5.898-5.898c-3.192-3.192-3.859-7.979-2.026-11.852l-8.037 8.037c-3.889 3.89-3.89 10.253 0 14.143l5.656 5.656c3.89 3.89 10.253 3.89 14.143 0l8.097-8.097c-3.888 1.882-8.72 1.226-11.935-1.989z" fill="#5f99d7"/><path d="m57.674 316.985c-3.89-3.89-10.254-3.89-14.143 0l-5.657 5.656c-3.89 3.89-3.89 10.253 0 14.143l12.728 12.727c3.89 3.89 10.253 3.89 14.143 0l5.656-5.656c3.89-3.89 3.89-10.253 0-14.143z" fill="#7bacdf"/><path d="m45.861 331.12 5.899-5.897c3.342-3.344 8.435-3.924 12.394-1.756l-6.48-6.481c-3.89-3.89-10.254-3.89-14.143 0l-5.657 5.656c-3.89 3.89-3.89 10.253 0 14.143l5.765 5.765c-1.591-3.795-.854-8.354 2.222-11.43z" fill="#5f99d7"/><path d="m77.361 191.849c2.076 12.565 12.986 22.151 26.139 22.151s24.063-9.586 26.139-22.151z" fill="#6bd9e7"/><path d="m379 191.849c2.075 12.565 12.985 22.151 26.139 22.151s24.063-9.586 26.139-22.151z" fill="#fed402"/><ellipse cx="256" cy="33" fill="#fff" rx="21" ry="13"/><path d="m250 33c0-5.541 5.611-10.261 13.5-12.131-2.332-.553-4.853-.869-7.5-.869-11.598 0-21 5.82-21 13s9.402 13 21 13c2.647 0 5.168-.316 7.5-.869-7.889-1.87-13.5-6.59-13.5-12.131z" fill="#c7e7ff"/><path d="m332.727 239.895c-2.56 0-5.118-.977-7.071-2.929-3.905-3.905-3.905-10.237 0-14.143l22.628-22.628c3.906-3.904 10.236-3.904 14.143 0 3.905 3.905 3.905 10.237 0 14.143l-22.628 22.628c-1.954 1.952-4.513 2.929-7.072 2.929z" fill="#006e66"/><path d="m180 240.542c-2.56 0-5.118-.977-7.071-2.929l-22.628-22.628c-3.905-3.905-3.905-10.237 0-14.143 3.906-3.904 10.236-3.904 14.143 0l22.628 22.628c3.905 3.905 3.905 10.237 0 14.143-1.954 1.952-4.512 2.929-7.072 2.929z" fill="#006e66"/></svg>