<svg id="Capa_1" enable-background="new 0 0 512 512" height="512" viewBox="0 0 512 512" width="512" xmlns="http://www.w3.org/2000/svg"><circle cx="256" cy="267" fill="#a7e8f1" r="245"/><path d="m445.604 234.311h-2.878v191.281c17.059-20.068 30.949-42.914 40.878-67.774v-85.508c0-20.986-17.012-37.999-38-37.999z" fill="#fd3581"/><path d="m362.678 234.311v12.508c0 8.645-7.033 15.677-15.678 15.677h-22.514c-1.911 0-3.829-.378-5.703-1.123l-1.549-.617-.011.001c2.52 21.908 3.8 44.256 3.8 66.796 0 64.004-10.355 126.55-29.952 180.932v1.019c61.04-8.752 114.813-40.009 152.654-85.09v-190.103z" fill="#fe0364"/><path d="m362.894 321h-41.906c.024 2.182.036 4.366.036 6.552 0 11.881-.358 23.711-1.065 35.448h42.935c5.5 0 10-4.5 10-10v-22c0-5.5-4.5-10-10-10z" fill="#fff"/><path d="m362.678 234.311v12.508c0 8.645-7.033 15.677-15.678 15.677h-22.514c-1.911 0-3.829-.378-5.703-1.123l-1.549-.617.186 1.657c.472 4.214.898 8.443 1.269 12.588h-.033c.141 1.577.303 3.147.432 4.728 1.758.287 3.56.443 5.398.443h22.514c18.392 0 33.354-14.962 33.354-33.354v-12.508h-17.676z" fill="#fd3581"/><path d="m311.37 222.774.483 1.701c2.248 12.285 4.083 24.765 5.508 37.39 2.167 1.033 4.577 1.63 7.125 1.63h22.514c9.173 0 16.678-7.504 16.678-16.677v-25.291c-8.691 3.294-18.103 5.112-27.935 5.112-8.504.001-16.692-1.366-24.373-3.865z" fill="#fea95c"/><path d="m329.132 246.818v-20.477c-6.148-.512-12.093-1.734-17.765-3.575l.485 1.709c2.248 12.285 4.083 24.765 5.508 37.39 2.167 1.033 4.577 1.63 7.125 1.63h21.322c-9.17 0-16.675-7.504-16.675-16.677z" fill="#ff9240"/><path d="m264.065 181c-2.125-4.579-3.84-9.414-5.085-14.47l-.188-.761h-11.853c-8.644 0-15.677-7.032-15.677-15.677v-22.515c0-8.645 7.033-15.677 15.677-15.677h1.398v-51.831c-17.388-24.822-37.16-44.812-58.714-59.133-.939-.624-2.019-.936-3.099-.936s-2.159.312-3.099.937c-38.801 25.781-71.844 69.904-95.555 127.597-6.871 16.718-12.815 34.266-17.806 52.466z" fill="#02c7dd"/><path d="m75.253 275c-.436.524-.937 1.005-1.501 1.428-.625.468-.998 1.213-.996 1.991-.001.775.371 1.521.996 1.988 2.214 1.658 3.483 4.185 3.483 6.931 0 4.776-3.886 8.662-8.663 8.662h-16.709c-.553 10.442-.839 20.966-.839 31.552 0 27.916 1.949 55.412 5.746 82.056 44.455 61.995 117.122 102.392 199.23 102.392 12.165 0 24.119-.9 35.809-2.613 19.802-54.718 30.215-117.161 30.215-181.835 0-17.723-.784-35.277-2.327-52.552z" fill="#02c7dd"/><path d="m87.871 128.533c-6.747 16.413-12.601 33.623-17.536 51.467h116.189v-180c-1.08 0-2.159.312-3.099.937-38.801 25.781-71.844 69.904-95.554 127.596z" fill="#07b2cd"/><path d="m186.524 324v-48h-112.264c-.167.145-.329.294-.508.428-.625.468-.998 1.213-.996 1.991-.001.775.371 1.521.996 1.988 2.214 1.658 3.483 4.185 3.483 6.931 0 4.776-3.886 8.662-8.663 8.662h-16.708c-.555 10.441-.84 20.966-.84 31.552 0 27.916 1.949 55.412 5.746 82.056 31.388 43.773 76.843 76.764 129.754 92.383v-87.991c-24.853 0-45-20.147-45-45s20.147-45 45-45z" fill="#07b2cd"/><path d="m68.57 225.149c2.311 0 4.486.902 6.125 2.541s2.541 3.813 2.541 6.122c0 2.748-1.27 5.275-3.483 6.935-.621.462-.995 1.206-.996 1.987.001.783.374 1.526.996 1.992 2.215 1.656 3.485 4.182 3.485 6.93 0 2.746-1.27 5.271-3.485 6.929-.622.466-.994 1.21-.996 1.99-.001.772.369 1.515.99 1.987 2.219 1.661 3.489 4.188 3.489 6.935.001 2.523-1.082 4.853-2.976 6.503h245.522c-1.57-17.938-3.966-35.57-7.151-52.782-21.687-6.591-39.645-22.274-49.013-43.218h-193.283c-4.053 14.651-7.478 29.733-10.272 45.149z" fill="#0078c8"/><path d="m70.335 180c-4.053 14.651-7.478 29.733-10.272 45.149h8.508c2.311 0 4.486.902 6.125 2.541s2.541 3.813 2.541 6.122c0 2.748-1.27 5.275-3.483 6.935-.621.462-.995 1.206-.996 1.987.001.783.374 1.526.996 1.992 2.215 1.656 3.485 4.182 3.485 6.93 0 2.746-1.27 5.271-3.485 6.929-.622.466-.994 1.21-.996 1.99-.001.772.369 1.515.99 1.987 2.219 1.661 3.489 4.188 3.489 6.935.001 2.523-1.082 4.853-2.976 6.503h112.264v-96z" fill="#015a9a"/><circle cx="186.524" cy="369" fill="#0078c8" r="45"/><path d="m167 369c0-20.428 13.615-37.664 32.262-43.16-4.04-1.19-8.312-1.84-12.738-1.84-24.853 0-45 20.147-45 45s20.147 45 45 45c4.426 0 8.698-.649 12.738-1.84-18.647-5.496-32.262-22.732-32.262-43.16z" fill="#015a9a"/><path d="m44.96 224.149c-9.135 0-16.564 7.433-16.564 16.566v39.718c-.002 9.138 7.429 16.567 16.566 16.566h23.61c5.329 0 9.663-4.333 9.663-9.662 0-3.064-1.414-5.881-3.884-7.73-.374-.28-.597-.723-.596-1.19-.001-.467.222-.909.596-1.189 2.47-1.85 3.885-4.668 3.884-7.73 0-3.065-1.414-5.882-3.885-7.732-.373-.283-.596-.721-.595-1.189.001-.47.221-.911.595-1.191 2.471-1.849 3.886-4.666 3.886-7.729 0-3.064-1.415-5.883-3.886-7.73-.373-.279-.594-.723-.595-1.189.001-.469.221-.91.596-1.189 2.47-1.851 3.884-4.669 3.884-7.734.001-5.327-4.335-9.663-9.665-9.663h-23.61z" fill="#fea95c"/><path d="m50.159 280.434v-39.718c0-9.134 7.43-16.566 16.564-16.566h-21.763c-9.135 0-16.564 7.433-16.564 16.566v39.718c-.002 9.138 7.429 16.567 16.566 16.566h21.764c-9.138.001-16.569-7.429-16.567-16.566z" fill="#ff9240"/><path d="m256.675 111.901v-5.983c0-20.609 7.749-36.579 23.032-47.464 13.711-9.766 33.088-14.928 56.037-14.928s42.326 5.162 56.037 14.928c15.283 10.885 23.032 26.854 23.032 47.464v5.983h9.339v-70.209c-.002-22.93-18.763-41.692-41.694-41.692h-93.429c-22.932 0-41.692 18.762-41.692 41.692v70.209z" fill="#a94b30"/><path d="m256.675 111.901v-5.983c0-18.365 6.17-33.035 18.325-43.717v-20.509c0-22.93 18.761-41.692 41.692-41.692h-27.663c-22.932 0-41.692 18.762-41.692 41.692v70.209z" fill="#8c3d27"/><path d="m256.675 147.571v-36.67h-9.736c-9.172 0-16.677 7.505-16.677 16.677v22.515c0 9.172 7.505 16.677 16.677 16.677h12.105c-1.54-6.15-2.369-12.579-2.369-19.199z" fill="#fdb97e"/><path d="m424.548 110.901h-9.736v36.67c0 6.62-.829 13.049-2.369 19.198h12.105c9.173 0 16.677-7.505 16.677-16.677v-22.515c0-9.171-7.504-16.676-16.677-16.676z" fill="#fea95c"/><path d="m415.811 147.571c0 44.221-35.848 80.068-80.068 80.068-44.22 0-80.068-35.848-80.068-80.068v-41.653c0-44.221 35.849-63.392 80.068-63.392 44.221 0 80.068 19.171 80.068 63.392z" fill="#fdb97e"/><path d="m282.863 147.571v-4.355c-2.35-2.277-3.821-5.457-3.821-8.968v-12.508c0-3.511 1.471-6.689 3.821-8.967v-6.856c0-2.898.172-5.677.473-8.362h-3.877c-4.142 0-7.5-3.358-7.5-7.5 0-4.143 3.358-7.5 7.5-7.5h7.414c9.148-24.069 33.072-36.529 62.464-39.377-4.421-.429-8.957-.652-13.594-.652-44.22 0-80.068 19.171-80.068 63.392v41.653c0 44.221 35.849 80.068 80.068 80.068 4.637 0 9.173-.416 13.594-1.173-37.741-6.458-66.474-39.311-66.474-78.895z" fill="#fea95c"/><path d="m304.058 134.249c0 6.88-5.629 12.508-12.508 12.508-6.88 0-12.508-5.628-12.508-12.508v-12.508c0-6.879 5.628-12.507 12.508-12.507 6.879 0 12.508 5.628 12.508 12.507z" fill="#006e66"/><path d="m392.445 134.249c0 6.88-5.629 12.508-12.508 12.508-6.88 0-12.508-5.628-12.508-12.508v-12.508c0-6.879 5.628-12.507 12.508-12.507 6.879 0 12.508 5.628 12.508 12.507z" fill="#006e66"/><path d="m343.665 160.094h-11.674c-6.434 0-11.669-5.234-11.669-11.669v-20.847c0-4.143 3.358-7.5 7.5-7.5s7.5 3.357 7.5 7.5v17.516h8.343c4.142 0 7.5 3.357 7.5 7.5 0 4.142-3.358 7.5-7.5 7.5z" fill="#eb6000"/><path d="m335.744 198.393c-10.946 0-21.892-4.166-30.225-12.499-2.929-2.93-2.929-7.678 0-10.607 2.929-2.928 7.678-2.928 10.606 0 10.817 10.818 28.419 10.818 39.236 0 2.929-2.928 7.678-2.928 10.606 0 2.929 2.93 2.929 7.678 0 10.607-8.332 8.333-19.277 12.499-30.223 12.499z" fill="#eb6000"/><path d="m307.81 97.556h-28.351c-4.142 0-7.5-3.358-7.5-7.5 0-4.143 3.358-7.5 7.5-7.5h28.351c4.142 0 7.5 3.357 7.5 7.5 0 4.142-3.358 7.5-7.5 7.5z" fill="#8c3d27"/><path d="m392.028 97.556h-28.351c-4.142 0-7.5-3.358-7.5-7.5 0-4.143 3.358-7.5 7.5-7.5h28.351c4.142 0 7.5 3.357 7.5 7.5 0 4.142-3.358 7.5-7.5 7.5z" fill="#8c3d27"/><path d="m483.604 276c-13.977 1.024-25 12.68-25 26.918s11.023 25.893 25 26.918z" fill="#fff"/><path d="m469 302.918c0-10.441 5.932-19.486 14.604-23.977v-2.941c-13.977 1.024-25 12.68-25 26.918s11.023 25.893 25 26.918v-2.941c-8.672-4.491-14.604-13.536-14.604-23.977z" fill="#c7e7ff"/></svg>