<svg id="Capa_1" enable-background="new 0 0 512 512" height="512" viewBox="0 0 512 512" width="512" xmlns="http://www.w3.org/2000/svg"><circle cx="245" cy="265.255" fill="#a7e8f1" r="245"/><path d="m36.657 275.276c2.367 0 4.293 1.926 4.293 4.292v1.683h113.006l-3.431-3.431c-.946-.947-.946-2.489.001-3.437l10.901-10.901c-8.954.053-16.988 3.977-22.517 10.184v-2.861c0-16.785-13.606-30.392-30.392-30.392-15.745 0-28.692 11.973-30.237 27.311-5.316-4.561-12.221-7.323-19.774-7.323-7.48 0-14.325 2.708-19.62 7.189v-2.958c0-16.785-13.606-30.392-30.392-30.392-2.279 0-4.497.259-6.633.734-1.222 9.924-1.862 20.027-1.862 30.281 0 3.357.076 6.697.209 10.021z" fill="#00b37b"/><path d="m137 380.745v-57.113l.031-1.493h-96.08v18.7c0 5.953-4.843 10.796-10.795 10.796h-14.452c3.783 10.034 8.211 19.751 13.22 29.11z" fill="#00b37b"/><path d="m327.175 281.996c0 .648-.253 1.258-.712 1.717l-2.868 2.868.683.707c3.708 3.838 5.75 8.875 5.75 14.184v79.273h131.087c13.669-25.527 22.952-53.757 26.832-83.683-4.027-1.971-8.553-3.08-13.339-3.08-9.027 0-17.131 3.94-22.698 10.189v-2.861c0-16.785-13.606-30.392-30.392-30.392-15.745 0-28.692 11.973-30.237 27.31-5.316-4.561-12.221-7.323-19.774-7.323-7.48 0-14.325 2.708-19.62 7.189v-2.958c0-16.785-13.606-30.392-30.392-30.392-3.192 0-6.269.495-9.159 1.407l14.126 14.126c.46.461.713 1.071.713 1.719z" fill="#00b37b"/><path d="m349.895 380.745v-27.876c0-13.085-8.269-24.236-19.867-28.518v56.393h19.867z" fill="#00c285"/><path d="m289.141 380.745v-59.707l-3.43 3.432c-.459.457-1.071.71-1.721.71-.649 0-1.259-.253-1.718-.711l-23.957-23.957c-11.895 3.281-20.869 13.607-22.138 26.212-5.316-4.561-12.221-7.323-19.774-7.323-7.48 0-14.325 2.708-19.62 7.189v-2.958c0-2.209-.242-4.36-.689-6.436l-1.377 1.377c-.46.459-1.069.712-1.717.712s-1.259-.253-1.718-.712l-2.868-2.868-.707.684c-3.837 3.708-8.874 5.75-14.184 5.75h-37.486c-.024.495-.038.992-.038 1.493v57.113z" fill="#00c285"/><path d="m28.361 379.745c41.106 77.62 122.689 130.51 216.639 130.51 93.948 0 175.531-52.89 216.638-130.51z" fill="#e3f3ff"/><path d="m331.028 405.745v28.299h-42.887v-28.299h-243.853c44.308 63.19 117.676 104.51 200.712 104.51 83.035 0 156.403-41.32 200.711-104.51z" fill="#b4dbff"/><path d="m152.956 280.251h-112.005v42.888h132.573c6.146 0 11.673-2.6 15.583-6.741z" fill="#f78157"/><path d="m40.951 297h128.756l-16.751-16.749h-112.005z" fill="#f46b38"/><path d="m40.951 280.251h33.621v42.888h-33.621z" fill="#fff"/><path d="m40.951 280.251h33.621v16.749h-33.621z" fill="#e3f3ff"/><path d="m205.62 247.815c-6.405-6.407-8.475-15.518-6.248-23.691l-49.553 49.553c-1.339 1.341-1.336 3.512 0 4.851l40.756 40.753c1.339 1.339 3.508 1.341 4.849 0l40.831-40.83z" fill="#015a9a"/><path d="m205.62 247.815c-6.405-6.407-8.475-15.518-6.248-23.691l-49.553 49.553c-1.339 1.341-1.336 3.512 0 4.851l14.919 14.918 43.256-43.256z" fill="#004281"/><path d="m477.625 218.16.001-28.191c0-.84.106-1.653.289-2.438h-56.228l-35.548-35.55c-.881 6.605-3.848 12.982-8.913 18.047l-10.781 10.781 32.768 32.768c4.477 4.478 6.787 8.266 14.654 8.266h64.417c-.426-1.166-.659-2.405-.659-3.683z" fill="#006e66"/><path d="m477.625 218.16v-12.506h-52.845c-7.867 0-10.177-3.788-14.654-8.266l-30.309-30.309c-.795 1.021-1.653 2.01-2.591 2.948l-10.781 10.781 32.768 32.768c4.477 4.478 6.787 8.266 14.654 8.266h64.417c-.426-1.165-.659-2.404-.659-3.682z" fill="#006e66"/><path d="m452.319 72.882-6.139-13.78v-31.461c-1.61.497-2.816.675-3.243.726-.071.008-.15.014-.229.014h-41.28v27.63c0 1.08-.879 1.959-1.958 1.959h-2.959c-1.08 0-1.958-.879-1.958-1.959v-7.396l-.086-.193c-2.104-4.757-6.045-7.711-10.285-7.711-6.533 0-11.849 6.864-11.849 15.301 0 3.178.794 6.353 2.237 8.939.25.446.315.964.183 1.457l-5.252 19.694c-.228.857-1.007 1.456-1.893 1.456h-15.558v6.918l-3.704 3.721c1.046.65 2.032 1.409 2.925 2.302.684.684 1.287 1.424 1.829 2.2l24.129 22.849c.026.026.05.054.076.079l12.11-12.11c3.132.658 6.376 1.011 9.704 1.011 20.952 0 38.7-13.698 44.795-32.622l5.965-2.656c2.43-1.088 3.522-3.937 2.44-6.368z" fill="#f78157"/><path d="m368.311 87.413c-.06.023-.121.038-.184.056-.167.051-.339.088-.521.088h-15.558v6.918l-3.704 3.721c1.046.65 2.032 1.409 2.925 2.302.683.684 1.286 1.424 1.829 2.199l3.611 3.419 11.604-11.641z" fill="#f46b38"/><path d="m462.68 2.706c-.56-.601-1.345-.943-2.167-.943l-84.559-.018c-2.306 0-10.403.364-17.762 5.047-9.229 5.871-13.924 16.077-13.957 30.33 0 .099.004.194.014.291l4.661 48.468c.146 1.519 1.421 2.676 2.945 2.676h15.75c1.341 0 2.514-.901 2.859-2.198l5.252-19.694c.198-.741.099-1.531-.275-2.202-1.361-2.44-2.11-5.443-2.11-8.452 0-7.887 4.867-14.301 10.849-14.301 3.838 0 7.428 2.726 9.37 7.115v7.186c0 1.634 1.325 2.959 2.958 2.959h2.959c1.634 0 2.958-1.325 2.958-2.959v-26.631h40.28c.116 0 .231-.008.347-.021 1.926-.228 18.859-2.844 20.411-24.425.061-.82-.223-1.624-.783-2.228z" fill="#a94b30"/><path d="m365.438 85.881-4.661-48.468c-.009-.097-.014-.192-.014-.291.032-14.253 4.728-24.459 13.957-30.33 7.064-4.495 14.792-5.01 17.442-5.044l-16.207-.003c-2.306 0-10.403.364-17.762 5.047-9.229 5.871-13.924 16.077-13.957 30.33 0 .099.004.194.014.291l4.661 48.468c.146 1.519 1.421 2.676 2.945 2.676h15.75c.14 0 .276-.016.412-.034-1.356-.169-2.446-1.248-2.58-2.642z" fill="#8c3d27"/><path d="m377.934 124.839-19.669-19.669c-2.696-2.696-5.75-4.813-9.007-6.362.706.509 1.384 1.063 2.011 1.689 3.051 3.052 4.731 7.109 4.731 11.425-.001 8.908-7.247 16.155-16.154 16.155l-44.598-.002c-.012 1.093-.902 1.98-1.998 1.98h-5.77l-55.622 55.619 65.568 65.568 80.506-80.507c12.675-12.672 12.675-33.22.002-45.896z" fill="#fff"/><path d="m245.377 199.191 71.118-71.115-21.247-.001c-.012 1.093-.902 1.98-1.998 1.98h-5.77l-55.622 55.619z" fill="#e3f3ff"/><path d="m331.028 434.044v-132.572c0-6.147-2.599-11.673-6.741-15.583l-36.146 36.15v112.005z" fill="#f78157"/><path d="m305 434.044v-128.865l-16.859 16.86v112.005z" fill="#f46b38"/><path d="m288.141 400.423h42.887v33.621h-42.887z" fill="#fff"/><path d="m288.141 400.423h16.859v33.621h-16.859z" fill="#e3f3ff"/><path d="m327.169 279.571-94.603-94.603-27.653 27.652c-9.896 9.899-9.898 26.001 0 35.902l76.653 76.654c1.341 1.339 3.511 1.335 4.852 0l40.751-40.757c1.341-1.338 1.342-3.507 0-4.848z" fill="#0078c8"/><path d="m232.423 248.523c-9.898-9.901-9.897-26.003 0-35.902l13.898-13.897-13.754-13.755-27.653 27.652c-9.896 9.899-9.898 26.001 0 35.902l76.653 76.654c1.341 1.339 3.511 1.335 4.852 0l11.328-11.33z" fill="#015a9a"/><path d="m428.941 41.82c-3.51 0-6.381 2.868-6.381 6.378v9.319c0 3.51 2.871 6.382 6.381 6.382h1.961c3.509 0 6.38-2.872 6.38-6.382v-9.319c0-3.51-2.872-6.378-6.38-6.378z" fill="#8c3d27"/><g fill="#006e66"><path d="m272.25 128.054v-14.142h-4.5c-2.206 0-4-1.794-4-4v-15.146h-31.529c-5.931 0-11.104-.584-16.206 4.518l-40.6 40.599c1.126.524 2.167 1.235 3.07 2.139l19.932 19.934c.594.594 1.094 1.244 1.519 1.929l34.809-34.81 37.794.001c-.179-.302-.289-.648-.289-1.022z"/><path d="m339.845 94.766h-36.095v15.146c0 2.206-1.794 4-4 4h-4.5v14.143c0 .374-.11.721-.29 1.02l44.885.002c9.474 0 17.154-7.682 17.154-17.155.001-9.476-7.679-17.156-17.154-17.156z"/><path d="m263.75 109.912v-15.146h-31.529c-5.931 0-11.104-.584-16.206 4.518l-40.6 40.599c1.126.524 2.167 1.235 3.07 2.139l8.339 8.34 34.823-34.822c5.102-5.102 10.275-4.518 16.206-4.518h26.072c-.102-.356-.175-.723-.175-1.11z"/><path d="m339.845 94.766h-36.095v15.146c0 .387-.073.754-.176 1.108h41.903c4.286 0 8.194 1.582 11.201 4.18.206-1.062.321-2.156.321-3.278.001-9.476-7.679-17.156-17.154-17.156z"/></g><path d="m199.125 177.875c4.585-4.587 4.583-12.044-.001-16.628l-19.932-19.934c-4.586-4.587-12.044-4.587-16.629 0l-11.849 11.849c-2.675 2.674-2.675 7.025 0 9.699 1.538 1.539 3.66 2.242 5.828 1.932.328-.048.662.062.896.297s.345.568.298.898c-.311 2.168.393 4.292 1.931 5.827 1.539 1.537 3.661 2.242 5.83 1.933.329-.047.661.061.895.297.235.236.345.568.299.898-.313 2.167.391 4.292 1.929 5.829 1.539 1.537 3.663 2.24 5.83 1.93.328-.046.66.064.895.297.235.237.345.568.297.897-.31 2.167.395 4.29 1.933 5.829 2.673 2.676 7.025 2.674 9.7 0z" fill="#f78157"/><path d="m165.103 167.192 12.086-12.086c3.594-3.595 8.913-4.416 13.308-2.487l-11.305-11.306c-4.586-4.587-12.044-4.587-16.629 0l-11.849 11.849c-2.675 2.674-2.675 7.025 0 9.699 1.538 1.539 3.66 2.242 5.828 1.932.328-.048.662.062.896.297s.345.568.298.898c-.311 2.168.393 4.292 1.931 5.827.995.994 2.234 1.633 3.572 1.882-.515-2.267.102-4.743 1.864-6.505z" fill="#f46b38"/><path d="m282.627 463.389v4.831c0 2.713 2.219 4.932 4.931 4.932h68.497c2.712 0 4.931-2.219 4.931-4.932v-4.831z" fill="#c20148"/><path d="m349.191 433.044h-61.271c-2.923 0-5.293 2.369-5.293 5.293v26.052h78.359v-19.55c.001-6.504-5.291-11.795-11.795-11.795z" fill="#fd3581"/><path d="m302.32 450.019h-19.692v14.37h39.75c-2.847-8.354-10.742-14.37-20.058-14.37z" fill="#fe0364"/><path d="m349.191 433.044h-13.831v31.345h25.627v-19.55c0-6.504-5.292-11.795-11.796-11.795z" fill="#fd3581"/><path d="m11.605 274.276h-11.422c.826 22.806 4.777 44.809 11.423 65.61v-65.61z" fill="#c20148"/><path d="m36.657 274.276h-26.052v62.458c1.639 5.382 3.462 10.683 5.455 15.9h14.095c6.503 0 11.795-5.292 11.795-11.796v-61.271c.001-2.921-2.369-5.291-5.293-5.291z" fill="#fd3581"/><path d="m24.976 293.968v-19.691h-14.371v39.749c8.354-2.846 14.371-10.742 14.371-20.058z" fill="#fe0364"/><path d="m10.605 336.734c1.639 5.382 3.462 10.683 5.455 15.9h14.095c6.503 0 11.795-5.292 11.795-11.796v-13.831h-31.345z" fill="#fd3581"/><path d="m271.25 113.912v14.142c0 1.65 1.35 3 3 3l19 .001c1.65 0 3-1.35 3-3v-14.143z" fill="#b4dbff"/><path d="m304.75 109.912c0 2.75-2.25 5-5 5h-32c-2.75 0-5-2.25-5-5v-17c0-2.75 2.25-5 5-5h32c2.75 0 5 2.25 5 5z" fill="#e3f3ff"/><path d="m279 106.912c0 1.65 1.35 3 3 3h14.75c1.65 0 3-1.35 3-3v-11c0-1.65-1.35-3-3-3h-14.75c-1.65 0-3 1.35-3 3z" fill="#02c7dd"/><circle cx="271" cy="101.412" fill="#b4dbff" r="4"/><path d="m359.5 169.745c-19.606 0-35.5 15.894-35.5 35.5 0 5.655 1.329 10.998 3.681 15.743l47.561-47.563c-4.744-2.351-10.087-3.68-15.742-3.68z" fill="#01998d"/><path d="m488.382 178.212c-6.484 0-11.756 5.276-11.756 11.758l-.001 28.191c-.001 6.485 5.273 11.758 11.759 11.758h16.757c3.782 0 6.858-3.076 6.858-6.857 0-2.175-1.003-4.175-2.756-5.488-.266-.196-.424-.512-.423-.844-.001-.331.157-.646.423-.844 1.753-1.313 2.757-3.313 2.756-5.485 0-2.176-1.003-4.177-2.757-5.488-.265-.201-.423-.513-.422-.844 0-.334.157-.645.422-.846 1.754-1.313 2.758-3.311 2.758-5.486s-1.004-4.175-2.758-5.488c-.265-.196-.422-.513-.422-.844s.157-.646.423-.844c1.753-1.312 2.756-3.314 2.756-5.488.001-3.781-3.077-6.859-6.859-6.859h-16.758z" fill="#f78157"/><path d="m509.243 217.572c-.266-.196-.424-.512-.423-.844-.001-.331.157-.646.423-.844 1.106-.829 1.912-1.932 2.357-3.179h-24.587c-4.339 0-8.162-2.234-10.388-5.61v11.064c-.001 6.485 5.273 11.758 11.759 11.758h16.757c3.782 0 6.858-3.076 6.858-6.857 0-2.174-1.003-4.174-2.756-5.488z" fill="#f46b38"/></svg>