<svg id="Capa_1" enable-background="new 0 0 512 512" height="512" viewBox="0 0 512 512" width="512" xmlns="http://www.w3.org/2000/svg"><circle cx="256" cy="266.996" fill="#7bacdf" r="245.004"/><path d="m474.566 266.996v71.053c0 1.471-.538 2.887-1.517 3.987l-80.241 90.218c-1.139 1.279-2.772 2.013-4.483 2.013h-264.649c-1.711 0-3.345-.733-4.482-2.013l-80.244-90.218c-.979-1.1-1.517-2.516-1.517-3.987v-71.053h-26.437c0 135.311 109.692 245.004 245.004 245.004 135.31 0 245.004-109.693 245.004-245.004z" fill="#fe9738"/><path d="m357.237 70.146c4.829 12.404 7.356 25.729 7.356 39.44 0 29.006-11.297 56.277-31.807 76.787s-47.781 31.807-76.787 31.807c-29.007 0-56.277-11.297-76.787-31.807-31.38-31.379-39.495-77.34-24.363-116.271-70.037 34.127-118.415 106.041-118.415 189.049v78.898c0 1.717.628 3.369 1.77 4.652l80.243 90.218c1.327 1.492 3.233 2.348 5.229 2.348h264.648c1.996 0 3.902-.855 5.23-2.348l80.242-90.219c1.141-1.284 1.768-2.936 1.768-4.651v-78.898c.002-82.974-48.336-154.862-118.327-189.005z" fill="#c7e7ff"/><path d="m346.404 179.895h-7.642c-1.897 2.225-3.886 4.389-5.976 6.479-20.51 20.51-47.781 31.807-76.787 31.807-29.007 0-56.277-11.297-76.787-31.807-2.096-2.096-4.084-4.259-5.972-6.479h-7.647c-2.75 0-5 2.25-5 5v81.755c0 2.75 2.25 5 5 5h180.811c2.75 0 5-2.25 5-5v-81.755c0-2.75-2.25-5-5-5z" fill="#fff"/><path d="m187.999 266.65v-72.39c-3.046-2.455-5.981-5.081-8.786-7.887-2.096-2.096-4.084-4.259-5.972-6.479h-7.647c-2.75 0-5 2.25-5 5v81.755c0 2.75 2.25 5 5 5h27.405c-2.75.001-5-2.249-5-4.999z" fill="#c7e7ff"/><g fill="#fe0364"><path d="m210.265 414.688h21.556l-.039-.813c-.229-4.798-.479-9.537-.746-14.188h-23.107c.806 4.723 1.558 9.525 2.248 14.377z"/><path d="m196.444 413.78c-.688-4.743-1.441-9.45-2.254-14.092h-23.686c1.355 4.754 2.619 9.587 3.777 14.467l.127.533h22.167z"/><path d="m317.808 399.688c-.811 4.642-1.565 9.349-2.252 14.092l-.132.908h22.167l.127-.533c1.158-4.881 2.423-9.713 3.778-14.467z"/><path d="m245.422 414.688h21.156l.034-.717c.229-4.846.478-9.617.743-14.283h-22.711c.266 4.674.514 9.445.743 14.283z"/><path d="m363.894 97.217c.46 4.078.7 8.205.7 12.369 0 1.966-.057 3.924-.16 5.872 45.607 31.527 75.553 84.175 75.553 143.692v68.027l-64.492 72.51h-19.92c-1.469 4.904-2.824 9.904-4.074 15h27.361c2.142 0 4.181-.914 5.604-2.516l68.625-77.157c1.221-1.373 1.896-3.146 1.896-4.984v-70.88c-.001-68.491-36.512-128.614-91.093-161.933z"/><path d="m156.425 399.688h-19.921l-64.491-72.51v-68.027c0-59.541 29.968-112.206 75.606-143.728-.324-6.083-.141-12.187.55-18.243-54.616 33.31-91.155 93.453-91.155 161.972v70.88c0 1.838.675 3.611 1.896 4.984l68.625 77.157c1.424 1.602 3.463 2.516 5.605 2.516h27.361c-1.253-5.097-2.607-10.097-4.076-15.001z"/><path d="m280.179 414.688h21.556l.089-.623c.691-4.852 1.442-9.654 2.248-14.377h-23.107c-.267 4.654-.517 9.395-.746 14.188z"/></g><path d="m357.93 353.073c-2.707 5.682-5.219 11.418-7.518 17.206h-25.392c1.451-5.821 3.03-11.554 4.731-17.206h-16.211c-1.625 5.681-3.131 11.416-4.512 17.206h-25.044c.47-5.802.99-11.529 1.545-17.206h-15.654c-.55 5.679-1.065 11.406-1.528 17.206h-24.694c-.463-5.8-.977-11.527-1.526-17.206h-15.654c.555 5.677 1.074 11.405 1.544 17.206h-25.045c-1.381-5.79-2.887-11.525-4.512-17.206h-16.212c1.701 5.652 3.28 11.384 4.731 17.206h-25.391c-2.3-5.788-4.81-11.524-7.518-17.206h-17.387c14.521 28.229 24.229 59.871 29.418 95.961 2.259 15.712 3.576 31.684 4.256 47.567 26.662 9.948 55.514 15.399 85.643 15.399s58.98-5.451 85.641-15.399c.68-15.884 1.998-31.855 4.257-47.567 5.188-36.09 14.897-67.732 29.419-95.961zm-190.65 32.793h23.254c1.898 9.142 3.533 18.488 4.92 28.059h-20.199c-2.239-9.435-4.88-18.799-7.975-28.059zm11.312 43.645h18.89c1.059 9.152 1.916 18.505 2.601 28.057h-17.149c-1.129-9.381-2.561-18.744-4.342-28.057zm7.612 71.702c-.323-9.334-.862-18.697-1.67-28.058h16.502c.471 9.167.799 18.518.998 28.058zm20.181-115.347h22.786c.627 9.244 1.159 18.609 1.611 28.059h-19.616c-1.343-9.438-2.925-18.801-4.781-28.059zm6.783 43.645h18.289c.359 9.303.644 18.666.87 28.057h-16.567c-.675-9.383-1.524-18.746-2.592-28.057zm4.559 71.702c-.194-9.335-.521-18.697-1.004-28.058h15.928c.162 9.356.27 18.718.334 28.058zm45.701 0h-14.855c-.064-9.337-.172-18.699-.333-28.058h15.521c-.161 9.359-.269 18.721-.333 28.058zm.654-43.645h-16.163c-.225-9.387-.509-18.75-.864-28.057h17.891c-.356 9.307-.64 18.67-.864 28.057zm1.531-43.644h-19.227c-.448-9.441-.974-18.807-1.594-28.059h22.414c-.619 9.253-1.144 18.618-1.593 28.059zm28.659 87.289h-15.257c.065-9.34.173-18.701.334-28.058h15.928c-.485 9.361-.811 18.723-1.005 28.058zm1.966-43.645h-16.566c.227-9.391.512-18.754.87-28.057h18.288c-1.066 9.311-1.917 18.674-2.592 28.057zm4.595-43.644h-19.616c.452-9.449.985-18.814 1.612-28.059h22.785c-1.856 9.259-3.438 18.622-4.781 28.059zm24.961 87.289h-15.83c.199-9.54.527-18.891.998-28.058h16.504c-.809 9.361-1.348 18.724-1.672 28.058zm3.274-43.645h-17.15c.684-9.552 1.542-18.904 2.6-28.057h18.892c-1.784 9.313-3.216 18.676-4.342 28.057zm7.677-43.644h-20.2c1.386-9.57 3.021-18.917 4.919-28.059h23.256c-3.096 9.261-5.735 18.625-7.975 28.059z" fill="#7bacdf"/><path d="m346.404 172.395h-1.791c-3.512 4.933-7.458 9.61-11.826 13.979-.346.346-.697.682-1.047 1.021h12.164v76.755h-175.81v-76.755h12.166c-.35-.34-.702-.676-1.047-1.021-4.393-4.393-8.322-9.074-11.804-13.979h-1.815c-6.893 0-12.5 5.607-12.5 12.5v81.755c0 6.893 5.607 12.5 12.5 12.5h180.811c6.893 0 12.501-5.607 12.501-12.5v-81.755c-.001-6.893-5.609-12.5-12.502-12.5z" fill="#fe0364"/><path d="m364.645 95.212c-27.354 6.989-55.966.981-75.609-18.662s-25.65-48.255-18.661-75.608c-32.622-4.292-66.805 6.086-91.868 31.15-42.799 42.798-42.799 112.189 0 154.988 42.798 42.799 112.19 42.799 154.988 0 25.064-25.063 35.442-59.246 31.15-91.868z" fill="#fe9738"/><path d="m190.294 32.325c2.973-3.908 6.235-7.664 9.804-11.232 5.37-5.371 11.16-10.066 17.263-14.089-11.752 4.419-22.895 10.932-32.859 19.528z" fill="#fe860a"/><path d="m168.963 112.988c-2.986-22.647 1.089-46.049 12.252-66.631l-8.267-8.266c-19.11 22.152-27.892 50.132-26.352 77.648 7.514-1.818 15.015-2.718 22.367-2.751z" fill="#fe860a"/><path d="m244.164 202.978c-.4 5.082-1.244 10.186-2.537 15.247 25.632 3.371 52.226-2.306 74.605-17.057-23.13 8.698-48.611 9.299-72.068 1.81z" fill="#fe860a"/><path d="m289.035 76.55c19.644 19.644 48.255 25.651 75.609 18.662-3.037-23.084-13.416-45.386-31.15-63.12-17.734-17.735-40.036-28.113-63.12-31.15-6.989 27.353-.981 55.966 18.661 75.608z" fill="#fe9738"/><path d="m147.356 123.96c3.037 23.083 13.415 45.386 31.15 63.12 17.734 17.734 40.036 28.112 63.12 31.15 6.989-27.354.981-55.966-18.662-75.609-19.643-19.642-48.255-25.65-75.608-18.661z" fill="#fe9738"/><path d="m233.578 216.85c.037-.214.075-.428.13-.643 1.385-5.418 2.191-10.824 2.454-16.143-12.922-5.268-25.04-13.102-35.575-23.509l-16.078 16.078c14.458 12.471 31.394 20.543 49.069 24.217z" fill="#fe860a"/><path d="m172.953 181.077 16.863-16.863c-8.009-10.687-13.808-22.503-17.403-34.827-7.503-.309-15.258.503-23.034 2.49-.217.055-.433.094-.649.131 3.676 17.675 11.752 34.611 24.223 49.069z" fill="#fe860a"/><path d="m278.291 2.965c.056-.221.096-.439.133-.658-5.372-1.118-10.809-1.83-16.268-2.135-6.759 27.918-.954 55.695 15.623 76.079l-21.779 21.78-71.503-71.503c-2.048 1.768-4.048 3.621-5.991 5.564s-3.796 3.943-5.564 5.992l71.502 71.502-21.778 21.777c-20.386-16.576-48.161-22.381-76.08-15.622.305 5.458 1.017 10.896 2.134 16.269.22-.037.44-.077.659-.133 22.632-5.783 45.081-1.606 61.647 11.126l-38.084 38.085c1.768 2.049 3.62 4.049 5.564 5.992 1.943 1.943 3.943 3.796 5.992 5.564l38.084-38.085c12.732 16.567 16.91 39.017 11.126 61.648-.056.221-.096.439-.133.659 5.373 1.117 10.811 1.83 16.27 2.135 6.759-27.919.954-55.694-15.623-76.081l21.778-21.778 71.502 71.502c2.049-1.768 4.049-3.62 5.992-5.564s3.796-3.943 5.564-5.992l-71.502-71.502 21.779-21.779c20.384 16.578 48.161 22.382 76.079 15.624-.305-5.46-1.017-10.897-2.135-16.269-.219.037-.438.076-.658.133-22.633 5.783-45.081 1.605-61.647-11.127l38.084-38.084c-1.768-2.049-3.62-4.049-5.564-5.992-1.943-1.943-3.943-3.797-5.992-5.564l-38.084 38.085c-12.733-16.567-16.911-39.015-11.127-61.648z" fill="#eb6000"/><path d="m118.264 340.232v4.596c0 5.085 4.159 9.245 9.243 9.245h256.985c5.084 0 9.243-4.16 9.243-9.245v-4.596z" fill="#fe0364"/><path d="m145.53 344.827v-4.596h-27.267v4.596c0 5.085 4.159 9.245 9.243 9.245h27.268c-5.083.001-9.244-4.16-9.244-9.245z" fill="#c20148"/><path d="m409.002 330.964c0 5.647-4.621 10.268-10.269 10.268h-285.466c-5.648 0-10.27-4.62-10.27-10.268v-10.269c0-5.648 4.621-10.269 10.27-10.269h285.467c5.647 0 10.269 4.62 10.269 10.269v10.269z" fill="#fd3581"/><path d="m127.998 330.964v-10.269c0-5.648 4.62-10.269 10.269-10.269h-25c-5.648 0-10.27 4.62-10.27 10.269v10.269c0 5.647 4.621 10.268 10.27 10.268h25c-5.649 0-10.269-4.62-10.269-10.268z" fill="#fe0364"/></svg>