<svg id="Capa_1" enable-background="new 0 0 512 512" height="512" viewBox="0 0 512 512" width="512" xmlns="http://www.w3.org/2000/svg"><circle cx="256" cy="267" fill="#a7e8f1" r="245"/><path d="m274 417h-5c-1.103 0-2-.897-2-2v-27.366h-22v27.366c0 1.103-.898 2-2 2h-5v94.342c5.944.432 11.945.658 18 .658s12.056-.227 18-.658z" fill="#00c285"/><path d="m195 417h-5.5c-1.102 0-2-.897-2-2v-27.366h-144.776c32.397 57.153 87.098 99.998 152.276 116.704z" fill="#00c285"/><path d="m324.5 387.634v27.366c0 1.103-.897 2-2 2h-5.5v87.338c65.177-16.706 119.878-59.551 152.275-116.704z" fill="#00c285"/><path d="m195 453h-14.666c-4.584 0-8.334 3.375-8.334 7.5s3.75 7.5 8.334 7.5h14.666z" fill="#00b37b"/><path d="m274 433h-13.949c-4.584 0-8.334 3.375-8.334 7.5s3.75 7.5 8.334 7.5h13.949z" fill="#00b37b"/><path d="m203.292 75.391v-6.693c0-25.999 19.704-41.522 52.708-41.522 33.005 0 52.709 15.522 52.709 41.522v6.693h6.596v-28.44c0-32.753-26.552-46.951-59.305-46.951s-59.303 14.198-59.303 46.951v28.439h6.595z" fill="#a94b30"/><path d="m203.292 75.391v-6.693c0-13.965 5.692-24.901 16.069-32.039 4.405-22.21 23.393-33.562 47.486-36.096-3.518-.372-7.14-.563-10.847-.563-32.753 0-59.303 14.198-59.303 46.951v28.439h6.595z" fill="#8c3d27"/><path d="m325.471 103.03c-1.066 4.485-5.096 7.836-9.902 7.836h-8.226c-2.775 11.998-9.652 22.436-19.075 29.756 4.237 2.765 9.295 4.378 14.732 4.378 14.912 0 27-12.088 27-27 0-5.538-1.67-10.685-4.529-14.97z" fill="#a94b30"/><path d="m297.856 130.973c-2.769 3.614-5.994 6.856-9.589 9.649 4.238 2.765 9.296 4.378 14.733 4.378 5.844 0 11.248-1.862 15.667-5.017-.223.005-.443.017-.667.017-8.009 0-15.199-3.49-20.144-9.027z" fill="#8c3d27"/><path d="m273 417v94.402c15.436-1.058 30.48-3.538 45-7.324v-87.078z" fill="#d8694b"/><path d="m293 417h-20v94.402c6.747-.463 13.414-1.213 20-2.209z" fill="#c5573a"/><path d="m194 417v87.078c14.52 3.787 29.564 6.267 45 7.324v-94.402z" fill="#d8694b"/><path d="m214 417h-20v87.078c6.561 1.711 13.236 3.141 20 4.308z" fill="#c5573a"/><path d="m256 328.5c-23.971 0-47.365-.5-69.5-1.464v87.964c0 1.65 1.35 3 3 3h53.5c1.65 0 3-1.35 3-3v-55c0-1.65 1.35-3 3-3h14c1.65 0 3 1.35 3 3v55c0 1.65 1.35 3 3 3h53.5c1.65 0 3-1.35 3-3v-87.964c-22.135.964-45.529 1.464-69.5 1.464z" fill="#015a9a"/><path d="m212 415v-87.074c-8.654-.23-17.166-.527-25.5-.89v87.964c0 1.65 1.35 3 3 3h25.5c-1.65 0-3-1.35-3-3z" fill="#015a9a"/><path d="m424.131 173.168c-1.992-4.81-8.77-15.996-28.631-15.996h-110.576v8.39c0 11.785-9.588 21.373-21.373 21.373h-15.102c-11.785 0-21.373-9.588-21.373-21.373v-8.39h-110.576c-19.861 0-26.639 11.186-28.631 15.996-1.992 4.809-5.11 17.512 8.935 31.556l44.156 44.156c.532-1.198 1.278-2.323 2.259-3.305l20.357-20.356c.547-.548 1.145-1.025 1.779-1.439l-31.607-31.607h51.589c11.643 40.518 9.964 81.036-5.028 121.555 23.995 1.163 49.573 1.773 75.69 1.773s51.695-.61 75.69-1.773c-14.992-40.519-16.672-81.037-5.028-121.555h51.589l-32.024 32.025c.418.313.822.646 1.197 1.021l20.358 20.356c1.173 1.174 2.014 2.552 2.546 4.018l44.869-44.869c14.045-14.044 10.927-26.747 8.935-31.556z" fill="#fe0364"/><path d="m273.738 157.172v8.39c0 5.617-4.57 10.187-10.188 10.187h-15.102c-5.617 0-10.187-4.569-10.187-10.187v-8.39h-12.186v8.39c0 12.337 10.036 22.373 22.373 22.373h15.102c12.337 0 22.373-10.036 22.373-22.373v-8.39z" fill="#fd3581"/><path d="m256 151.697c-6.598 0-12.911-1.229-18.737-3.454v17.318c0 6.152 5.034 11.187 11.187 11.187h15.102c6.153 0 11.188-5.034 11.188-11.187v-17.318c-5.828 2.225-12.141 3.454-18.74 3.454z" fill="#c5573a"/><path d="m253.524 165.561v-13.927c-5.703-.266-11.169-1.447-16.262-3.392v17.318c0 6.152 5.034 11.187 11.187 11.187h15.102c.195 0 .387-.02.58-.029-5.884-.306-10.607-5.2-10.607-11.157z" fill="#a94b30"/><path d="m203.292 98.988v-24.597h-6.86c-6.152 0-11.186 5.034-11.186 11.188v15.102c0 6.152 5.034 11.187 11.186 11.187h8.458c-1.039-4.126-1.598-8.438-1.598-12.88z" fill="#c5573a"/><path d="m315.568 74.391h-6.859v24.598c0 4.441-.559 8.754-1.598 12.878h8.457c6.153 0 11.187-5.034 11.187-11.187v-15.102c0-6.153-5.033-11.187-11.187-11.187z" fill="#c5573a"/><path d="m256 42.479c-29.662 0-53.708 12.859-53.708 42.521v13.988c0 29.663 24.046 53.709 53.708 53.709s53.709-24.046 53.709-53.709v-13.988c0-29.662-24.047-42.521-53.709-42.521z" fill="#d8694b"/><path d="m224 98.988v-27.94c0-10.439 2.983-18.794 8.137-25.243-17.685 5.52-29.845 18.107-29.845 39.195v13.988c0 29.663 24.046 53.709 53.708 53.709 3.719 0 7.349-.379 10.853-1.098-24.458-5.02-42.853-26.666-42.853-52.611z" fill="#c5573a"/><path d="m256 26.176c-29.662 0-53.708 12.859-53.708 42.522v16.302c0-29.662 24.046-42.521 53.708-42.521s53.709 12.859 53.709 42.521v-16.303c0-29.662-24.047-42.521-53.709-42.521z" fill="#fff"/><path d="m264.146 26.516c-2.656-.228-5.376-.34-8.146-.34-29.662 0-53.708 12.859-53.708 42.522v16.302c0-17.088 7.989-28.589 20.427-35.277 7.097-14.241 22.665-21.602 41.427-23.207z" fill="#c7e7ff"/><path d="m234.746 82.779c0 4.615-3.775 8.39-8.391 8.39-4.614 0-8.39-3.774-8.39-8.39v-8.39c0-4.614 3.775-8.39 8.39-8.39 4.615 0 8.391 3.775 8.391 8.39z" fill="#554e56"/><path d="m294.035 82.779c0 4.615-3.776 8.39-8.39 8.39-4.616 0-8.391-3.774-8.391-8.39v-8.39c0-4.614 3.774-8.39 8.391-8.39 4.613 0 8.39 3.775 8.39 8.39z" fill="#554e56"/><path d="m261.315 105.5h-7.831c-5.678 0-10.297-4.619-10.297-10.296v-13.983c0-4.143 3.357-7.5 7.5-7.5s7.5 3.357 7.5 7.5v9.279h3.128c4.142 0 7.5 3.357 7.5 7.5s-3.358 7.5-7.5 7.5z" fill="#a94b30"/><path d="m256.001 135.547c-7.974 0-15.947-3.035-22.018-9.105-2.929-2.93-2.929-7.678 0-10.607 2.93-2.928 7.678-2.928 10.607 0 6.29 6.292 16.527 6.294 22.819 0 2.93-2.928 7.678-2.928 10.607 0 2.929 2.93 2.929 7.678 0 10.607-6.069 6.07-14.042 9.105-22.015 9.105z" fill="#a94b30"/><path d="m143.219 245.575 5.664-5.664-35.188-35.188c-14.045-14.044-10.927-26.746-8.935-31.556s8.77-15.996 28.631-15.996h-16.891c-19.861 0-26.639 11.186-28.631 15.996-1.992 4.809-5.11 17.512 8.935 31.556l44.156 44.156c.532-1.197 1.278-2.322 2.259-3.304z" fill="#c20148"/><g fill="#fff"><path d="m347.189 273.244c-1.347-1.346-1.963-3.207-1.691-5.105.092-.646-.128-1.305-.589-1.765-.386-.385-.921-.606-1.468-.606l-1.184.085c-1.589 0-3.086-.622-4.215-1.752-1.346-1.346-1.961-3.206-1.687-5.103.023-.172.022-.345.004-.514-5.551-.285-11.183-.544-16.9-.769.339 5.028.879 10.057 1.627 15.085 9.345.383 18.478.849 27.345 1.393-.448-.259-.867-.574-1.242-.949z"/><path d="m174.634 258.534c-.013.151-.012.304.009.456.275 1.904-.34 3.765-1.686 5.11-1.129 1.13-2.626 1.752-4.216 1.752l-1.184-.085c-.546 0-1.081.222-1.468.608-.46.458-.68 1.117-.588 1.763.272 1.898-.344 3.76-1.691 5.105-.408.408-.866.748-1.359 1.019 9.216-.574 18.722-1.064 28.461-1.463.748-5.028 1.289-10.057 1.627-15.085-6.062.239-12.031.514-17.905.82z"/><path d="m121 308.355v15.082c24.727 2.52 52.912 4.301 83 5.254v-15.015c-30.12-.967-58.401-2.774-83-5.321z"/><path d="m86 282.183v-15.184c-14.358 2.261-26.083 4.792-34.942 7.553-10.503 3.273-22.558 8.328-22.558 18.448s12.055 15.175 22.558 18.448c3.53 1.101 7.519 2.164 11.942 3.188v-15.41c-10.205-2.555-15.295-4.799-17.754-6.227 3.865-2.242 14.213-6.503 40.754-10.816z"/><path d="m382 309.239c-24.369 2.267-51.906 3.846-81 4.647v15.01c29.086-.789 56.546-2.344 81-4.586z"/><path d="m460.942 274.552c-8.859-2.761-20.584-5.292-34.942-7.553v15.184c26.541 4.314 36.889 8.574 40.754 10.817-3.096 1.797-10.355 4.888-26.754 8.264v15.287c8.157-1.596 15.159-3.3 20.942-5.103 10.503-3.273 22.558-8.328 22.558-18.448s-12.055-15.175-22.558-18.448z"/></g><path d="m412.544 265.059c-13.431-1.771-28.293-3.28-44.214-4.521-.177.205-.354.411-.548.606l-12.101 12.1c-.495.495-1.065.887-1.682 1.178v.125c17.689 1.168 34.228 2.658 49.126 4.445 9.172 1.1 17.061 2.23 23.874 3.354v-15.19c-4.55-.727-9.369-1.428-14.455-2.097z" fill="#fed402"/><path d="m155.318 273.244-12.584-12.635c-15.57 1.227-30.109 2.713-43.278 4.449-5.086.67-9.905 1.37-14.456 2.097v15.19c6.813-1.124 14.702-2.254 23.874-3.354 14.725-1.767 31.056-3.241 48.511-4.403-.766-.296-1.469-.747-2.067-1.344z" fill="#0078c8"/><path d="m368.489 261.852c4.682-4.683 4.68-12.301-.001-16.983l-20.357-20.356c-4.682-4.683-12.298-4.683-16.981 0l-12.102 12.102c-2.73 2.731-2.73 7.175 0 9.906 1.571 1.57 3.739 2.288 5.953 1.971.335-.048.676.065.914.305.241.24.354.579.306.915-.317 2.214.401 4.384 1.972 5.953 1.57 1.569 3.738 2.29 5.952 1.972.337-.047.676.064.915.304.24.241.353.581.307.916-.319 2.214.399 4.383 1.97 5.953 1.57 1.571 3.74 2.29 5.952 1.971.336-.049.676.066.915.305.241.24.353.58.305.914-.317 2.215.403 4.385 1.974 5.954 2.729 2.731 7.174 2.732 9.907 0z" fill="#d8694b"/><path d="m142.511 261.852c-4.682-4.683-4.681-12.301.001-16.983l20.357-20.356c4.682-4.683 12.298-4.683 16.982 0l12.101 12.102c2.731 2.731 2.731 7.175 0 9.906-1.57 1.57-3.738 2.288-5.952 1.971-.335-.048-.676.065-.915.305-.24.24-.353.579-.305.915.317 2.214-.401 4.384-1.972 5.953-1.57 1.569-3.738 2.29-5.952 1.972-.337-.047-.676.064-.915.304-.24.241-.352.581-.307.916.319 2.214-.399 4.383-1.97 5.953-1.57 1.571-3.74 2.29-5.953 1.971-.335-.049-.675.066-.914.305-.241.24-.353.58-.305.914.317 2.215-.403 4.385-1.974 5.954-2.73 2.731-7.174 2.732-9.907 0z" fill="#d8694b"/><path d="m166.227 268.878-14.369-14.368c-4.379-4.38-5.292-10.918-2.771-16.216l-6.575 6.574c-4.682 4.683-4.683 12.301-.001 16.983l12.101 12.1c2.733 2.732 7.178 2.731 9.907 0 1.29-1.29 1.996-2.987 2.034-4.779-.109-.098-.221-.19-.326-.294z" fill="#c5573a"/><circle cx="256" cy="243" fill="#fd3581" r="31"/><path d="m245 243c0-13.621 8.788-25.181 21-29.342-3.139-1.069-6.5-1.658-10-1.658-17.121 0-31 13.879-31 31s13.879 31 31 31c3.5 0 6.861-.589 10-1.658-12.212-4.161-21-15.721-21-29.342z" fill="#fd3581"/><path d="m416.949 405h-27.615c-4.584 0-8.334 3.375-8.334 7.5s3.75 7.5 8.334 7.5h27.615c4.582 0 8.334-3.375 8.334-7.5s-3.752-7.5-8.334-7.5z" fill="#00b37b"/><path d="m368.666 450h-27.615c-4.584 0-8.334 3.375-8.334 7.5s3.75 7.5 8.334 7.5h27.615c4.582 0 8.334-3.375 8.334-7.5s-3.752-7.5-8.334-7.5z" fill="#00b37b"/><path d="m114.949 450h-21.828c5.94 5.292 12.141 10.299 18.578 15h3.25c4.582 0 8.334-3.375 8.334-7.5s-3.752-7.5-8.334-7.5z" fill="#00b37b"/><path d="m150.666 403h-27.615c-4.584 0-8.334 3.375-8.334 7.5s3.75 7.5 8.334 7.5h27.615c4.582 0 8.334-3.375 8.334-7.5s-3.752-7.5-8.334-7.5z" fill="#00b37b"/><path d="m302 328.869v-15.011c-14.992.423-30.399.642-46 .642-18.04 0-35.82-.292-53-.855v15.016c17.145.554 34.907.84 53 .84 15.643-.001 31.036-.216 46-.632z" fill="#fe9738"/><path d="m412.544 320.941c10.673-1.406 20.172-2.941 28.456-4.591v-15.293c-9.273 1.946-21.57 3.995-37.874 5.95-7.025.843-14.423 1.617-22.126 2.326v15.067c11.177-1.011 21.74-2.167 31.544-3.459z" fill="#fe860a"/><path d="m99.456 320.941c7.131.939 14.668 1.807 22.544 2.6v-15.08c-4.498-.461-8.883-.944-13.126-1.453-22.265-2.67-37.06-5.514-46.874-8.033v15.425c10.151 2.402 22.683 4.594 37.456 6.541z" fill="#fd3581"/><path d="m325.001 248.49c.222-.031.442.014.638.112l14.981-14.981c3.302-3.301 7.71-4.816 12.04-4.58l-4.529-4.529c-4.682-4.683-12.298-4.683-16.981 0l-12.102 12.102c-2.73 2.731-2.73 7.175 0 9.906 1.571 1.57 3.739 2.288 5.953 1.97z" fill="#c5573a"/></svg>