<svg id="Capa_1" enable-background="new 0 0 512 512" height="512" viewBox="0 0 512 512" width="512" xmlns="http://www.w3.org/2000/svg"><circle cx="256" cy="256" fill="#006e66" r="245"/><path d="m28.5 197v-19h-14c-7.995 0-14.5 6.505-14.5 14.5v108c0 7.995 6.505 14.5 14.5 14.5h10v-19h-5.5v-99z" fill="#004281"/><path d="m497.5 178h-14v19h9.5v99h-5.5v19h10c7.995 0 14.5-6.505 14.5-14.5v-108c0-7.995-6.505-14.5-14.5-14.5z" fill="#004281"/><path d="m160.842 465.143-.019-.068c-.225-.876-.089-1.825.377-2.603.443-.739 1.156-1.279 2.008-1.518l.807-.227-7.558-77.038h-37.957v13.311c0 7.72-6.28 14-14 14h-38.215c25.531 31.218 58.609 56.016 96.455 71.611z" fill="#b4dbff"/><path d="m407.5 411c-7.72 0-14-6.28-14-14v-13.311h-37.957l-7.558 77.039.808.226c.85.238 1.563.777 2.008 1.519.472.787.605 1.712.377 2.604l-.018.067-2.006 17.511c37.889-15.593 71.006-40.408 96.561-71.654h-38.215z" fill="#b4dbff"/><path d="m225 103h62v13.689h-62z" fill="#004281"/><path d="m225 103h20v13.689h-20z" fill="#00366d"/><path d="m225 43h62v23.5h-62z" fill="#004281"/><path d="m225 43h20v23.5h-20z" fill="#00366d"/><path d="m195 88.907v5.093c0 5.5 4.5 10 10 10h102c5.5 0 10-4.5 10-10v-5.093z" fill="#7bacdf"/><path d="m220 94v-5.093h-25v5.093c0 5.5 4.5 10 10 10h25c-5.5 0-10-4.5-10-10z" fill="#5f99d7"/><path d="m437.369 126.518v37.98h24.407v-37.98c0-33.646-27.372-61.018-61.018-61.018h-289.517c-33.646 0-61.019 27.372-61.019 61.018v37.98h24.408v-37.98c0-20.188 16.423-36.61 36.61-36.61h289.518c20.188-.001 36.611 16.422 36.611 36.61z" fill="#b4dbff"/><path d="m256 11c-21.061 0-41.498 2.66-61 7.657v20.343c0 2.75 2.25 5 5 5h112c2.75 0 5-2.25 5-5v-20.343c-19.502-4.997-39.94-7.657-61-7.657z" fill="#7bacdf"/><path d="m220 39v-25.365c-8.481 1.249-16.824 2.928-25 5.022v20.343c0 2.75 2.25 5 5 5h25c-2.75 0-5-2.25-5-5z" fill="#5f99d7"/><path d="m231.769 293.751c-18.705-7.706-32.754-24.011-37.579-43.614l-.187-.761h-6.085c-8.882 0-16.107-7.227-16.107-16.108v-10.904c0-7.658 5.461-14.302 12.984-15.796l.806-.159v-15.72h-3.101c-8.25 0-15 6.75-15 15v113.388c.995-.065 1.996-.109 3.007-.109 2.819 0 5.683.281 8.509.837l1.192.234v-2.011c0-1.687 1.259-3.139 2.928-3.378 10.121-1.455 20.705-2.635 31.459-3.507l.001.001 17.792-1.117v-16.021z" fill="#7bacdf"/><path d="m329.5 190.689h-3.1v15.72l.805.159c7.524 1.495 12.985 8.139 12.985 15.796v10.904c0 8.882-7.227 16.108-16.108 16.108h-6.085l-.187.761c-4.825 19.602-18.873 35.906-37.579 43.613l-.619.255v16.021l17.792 1.117.001-.001c10.755.872 21.34 2.052 31.46 3.507 1.669.239 2.928 1.691 2.928 3.378v2.011l1.193-.234c2.821-.556 5.684-.837 8.507-.837 1.011 0 2.012.044 3.007.109v-113.387c0-8.25-6.75-15-15-15z" fill="#7bacdf"/><path d="m170.507 318.967c2.819 0 5.683.281 8.509.837l1.192.234v-2.011c0-1.687 1.259-3.139 2.928-3.378 3.239-.466 6.54-.893 9.864-1.301v-63.973h-5.082c-8.882 0-16.107-7.227-16.107-16.108v-10.904c0-7.658 5.461-14.302 12.984-15.796l.806-.159v-15.72h-3.101c-8.25 0-15 6.75-15 15v113.388c.995-.065 1.996-.109 3.007-.109z" fill="#5f99d7"/><path d="m142.414 328.286c-6.174-5.542-14.544-9.265-23.914-10.126v66.528h37.051l7.487 76.321c.094-.031.183-.074.278-.098 9.945-2.436 16.892-11.295 16.892-21.545v-120.351c-3.101-.684-6.352-1.048-9.701-1.048-11.051 0-21.017 3.965-28.093 10.319z" fill="#fea95c"/><path d="m166.343 373.722c-6.081 0-27.05 0-47.843 0v10.967h37.051l7.487 76.321c.094-.031.183-.074.278-.098 4.184-1.024 7.825-3.195 10.653-6.119z" fill="#ff9240"/><path d="m393.5 318.16c-9.37.861-17.74 4.584-23.914 10.126-7.076-6.354-17.042-10.319-28.093-10.319-3.35 0-6.6.363-9.7 1.048v120.353c0 10.25 6.946 19.109 16.891 21.545.096.023.185.066.278.098l7.487-76.321h37.051z" fill="#fea95c"/><path d="m468.781 206.547c-.457-.607-1.178-.966-1.932-.966s-1.475.36-1.929.964c-1.567 2.092-3.951 3.291-6.543 3.291-2.593 0-4.978-1.199-6.542-3.29-.457-.605-1.178-.965-1.93-.965-.753 0-1.474.359-1.929.961-1.566 2.095-3.95 3.294-6.544 3.294-2.593 0-4.977-1.199-6.541-3.29-.457-.605-1.178-.965-1.932-.965-.752 0-1.473.359-1.928.962-.715.955-1.605 1.713-2.602 2.267v57.19h42.947v-57.19c-.993-.554-1.882-1.31-2.595-2.263z" fill="#fea95c"/><path d="m449.906 205.581c-.753 0-1.474.359-1.929.961-1.566 2.095-3.95 3.294-6.544 3.294-2.593 0-4.977-1.199-6.541-3.29-.457-.605-1.178-.965-1.932-.965-.752 0-1.473.359-1.928.962-.715.955-1.605 1.713-2.602 2.267v57.19h21.621v-60.401c-.047-.003-.095-.018-.145-.018z" fill="#ff9240"/><path d="m416.31 179.232c0-1.472.223-2.891.626-4.232h-18.436c-2.75 0-5 2.25-5 5v15c0 2.75 2.25 5 5 5h17.81z" fill="#7bacdf"/><path d="m415.31 179.232c0-8.676 7.058-15.734 15.734-15.734h37.723c8.675 0 15.732 7.059 15.732 15.734v22.426c0 5.06-4.116 9.178-9.179 9.178-2.909 0-5.585-1.343-7.341-3.69-.267-.353-.685-.564-1.131-.564-.443 0-.863.211-1.129.564-1.759 2.348-4.435 3.69-7.343 3.69-2.91 0-5.586-1.343-7.343-3.69-.267-.353-.686-.564-1.129-.564-.445 0-.864.211-1.132.564-1.755 2.348-4.431 3.69-7.341 3.69s-5.585-1.343-7.342-3.69c-.267-.353-.685-.564-1.131-.564-.443 0-.862.211-1.129.564-1.758 2.348-4.433 3.69-7.343 3.69-5.061 0-9.179-4.118-9.179-9.178v-22.426z" fill="#fdb97e"/><path d="m437 201.658v-22.426c0-8.676 7.058-15.734 15.734-15.734h-21.69c-8.677 0-15.734 7.059-15.734 15.734v22.426c0 5.06 4.118 9.178 9.179 9.178 2.91 0 5.585-1.343 7.343-3.69.267-.353.686-.564 1.129-.564.445 0 .864.211 1.131.564 1.757 2.348 4.432 3.69 7.342 3.69.817 0 1.612-.117 2.377-.321-3.914-1.048-6.811-4.617-6.811-8.857z" fill="#fea95c"/><path d="m488.5 397c0 8.25-6.75 15-15 15h-66c-8.25 0-15-6.75-15-15v-117c0-8.25 6.75-15 15-15h66c8.25 0 15 6.75 15 15z" fill="#7bacdf"/><path d="m418 397v-117c0-8.25 6.75-15 15-15h-25.5c-8.25 0-15 6.75-15 15v117c0 8.25 6.75 15 15 15h25.5c-8.25 0-15-6.75-15-15z" fill="#5f99d7"/><circle cx="418.5" cy="377" fill="#b4dbff" r="11"/><circle cx="462.5" cy="377" fill="#b4dbff" r="11"/><path d="m80.969 206.546c-.457-.605-1.178-.965-1.93-.965-.754 0-1.475.359-1.93.962-1.566 2.094-3.95 3.293-6.543 3.293-2.594 0-4.978-1.199-6.54-3.289-.459-.607-1.18-.966-1.933-.966-.752 0-1.473.359-1.928.962-1.566 2.094-3.951 3.293-6.544 3.293-2.592 0-4.976-1.199-6.542-3.29-.455-.604-1.176-.965-1.93-.965s-1.475.359-1.93.962c-.714.955-1.604 1.712-2.6 2.266v57.191h42.947v-57.19c-.994-.554-1.883-1.311-2.597-2.264z" fill="#fea95c"/><path d="m60.166 206.543c-1.566 2.094-3.951 3.293-6.544 3.293-2.592 0-4.976-1.199-6.542-3.29-.455-.604-1.176-.965-1.93-.965s-1.475.359-1.93.962c-.714.955-1.604 1.712-2.6 2.266v57.191h21.432v-60.414c-.736.013-1.44.365-1.886.957z" fill="#ff9240"/><path d="m113.5 175h-18.437c.403 1.342.626 2.761.626 4.232v20.768h17.811c2.75 0 5-2.25 5-5v-15c0-2.75-2.25-5-5-5z" fill="#7bacdf"/><path d="m96.689 179.232c0-8.676-7.058-15.734-15.734-15.734h-37.723c-8.675 0-15.732 7.059-15.732 15.734v22.426c0 5.06 4.116 9.178 9.179 9.178 2.909 0 5.585-1.343 7.341-3.69.267-.353.685-.564 1.131-.564.443 0 .863.211 1.129.564 1.759 2.348 4.435 3.69 7.343 3.69 2.91 0 5.586-1.343 7.343-3.69.267-.353.686-.564 1.129-.564.445 0 .864.211 1.132.564 1.755 2.348 4.431 3.69 7.341 3.69s5.585-1.343 7.342-3.69c.267-.353.686-.564 1.131-.564.443 0 .862.211 1.129.564 1.758 2.348 4.433 3.69 7.343 3.69 5.061 0 9.179-4.118 9.179-9.178v-22.426z" fill="#fdb97e"/><path d="m49 201.658v-22.426c0-8.676 7.058-15.734 15.732-15.734h-21.5c-8.675 0-15.732 7.059-15.732 15.734v22.426c0 5.06 4.116 9.178 9.179 9.178 2.909 0 5.585-1.343 7.341-3.69.267-.353.685-.564 1.131-.564.443 0 .863.211 1.129.564 1.759 2.348 4.435 3.69 7.343 3.69.786 0 1.552-.105 2.29-.295-3.969-1.014-6.913-4.606-6.913-8.883z" fill="#fea95c"/><path d="m23.5 397c0 8.25 6.75 15 15 15h66c8.25 0 15-6.75 15-15v-117c0-8.25-6.75-15-15-15h-66c-8.25 0-15 6.75-15 15z" fill="#7bacdf"/><path d="m49 397v-117c0-8.25 6.75-15 15-15h-25.5c-8.25 0-15 6.75-15 15v117c0 8.25 6.75 15 15 15h25.5c-8.25 0-15-6.75-15-15z" fill="#5f99d7"/><circle cx="93.5" cy="377" fill="#b4dbff" r="11"/><circle cx="49.5" cy="377" fill="#b4dbff" r="11"/><path d="m256 309.443c8.094 0 16.33.229 24.612.634v-16.494c-7.576 3.189-15.892 4.954-24.613 4.954s-17.036-1.766-24.611-4.953v16.493c8.283-.405 16.519-.634 24.612-.634z" fill="#fdb97e"/><path d="m256 308.443c-13.801 0-27.67.584-41.486 1.703v58.519c0 22.912 18.576 41.486 41.486 41.486 22.912 0 41.486-18.574 41.486-41.486v-58.519c-13.815-1.119-27.685-1.703-41.486-1.703z" fill="#fea95c"/><g fill="#fdb97e"><path d="m256 411.152c2.56 0 5.064-.24 7.5-.677v-50.975c0-4.143-3.357-7.5-7.5-7.5s-7.5 3.357-7.5 7.5v50.976c2.436.436 4.939.676 7.5.676z"/><path d="m213.514 347h21.188c4.143 0 7.5-3.357 7.5-7.5s-3.357-7.5-7.5-7.5h-21.188z"/><path d="m173.571 347h6.637v-15h-6.637c-4.143 0-7.5 3.357-7.5 7.5s3.358 7.5 7.5 7.5z"/><path d="m331.793 347h6.636c4.143 0 7.5-3.357 7.5-7.5s-3.357-7.5-7.5-7.5h-6.636z"/><path d="m277.296 347h21.189l.001-15h-21.19c-4.143 0-7.5 3.357-7.5 7.5s3.357 7.5 7.5 7.5z"/></g><path d="m351.658 461.957c-.606-1.01-1.592-1.737-2.736-2.017-9.495-2.325-16.129-10.784-16.129-20.573v-88.367h-35.309v17.666c0 22.912-18.573 41.486-41.484 41.486-22.91 0-41.486-18.574-41.486-41.486v-17.666h-35.306v88.367c0 9.789-6.633 18.248-16.129 20.573-1.146.279-2.131 1.007-2.737 2.017-.605 1.013-.781 2.225-.486 3.367l1.887 16.875c29.016 12.106 60.853 18.801 94.257 18.801s65.242-6.696 94.26-18.802l1.887-16.874c.293-1.142.119-2.354-.489-3.367z" fill="#015a9a"/><path d="m183.473 476.324c-.295-1.143-.119-2.354.486-3.367.606-1.01 1.592-1.737 2.737-2.017 9.496-2.325 16.129-10.784 16.129-20.573v-139.132c-6.635.684-13.252 1.478-19.831 2.424-2.174.311-3.786 2.173-3.786 4.368v121.34c0 9.789-6.633 18.248-16.129 20.573-1.146.279-2.131 1.007-2.737 2.017-.605 1.013-.781 2.225-.486 3.367l1.887 16.875c7.587 3.165 15.371 5.95 23.321 8.354z" fill="#015a9a"/><path d="m187.918 206.256h4.416v-5.025c0-31.432 23.8-50.197 63.665-50.197 39.866 0 63.667 18.766 63.667 50.197v5.025h4.416c1.138 0 2.247.122 3.318.348v-55.271c0-19.604-16.04-35.644-35.645-35.644h-71.512c-19.604 0-35.643 16.04-35.643 35.644v55.271c1.072-.226 2.181-.348 3.318-.348z" fill="#eb6000"/><path d="m187.918 206.256h4.416v-5.025c0-16.996 6.971-30.279 19.666-38.903v-10.995c0-19.604 16.039-35.644 35.644-35.644h-27.4c-19.604 0-35.643 16.04-35.643 35.644v55.271c1.071-.226 2.18-.348 3.317-.348z" fill="#eb6000"/><path d="m192.334 234.871v-29.615h-4.416c-9.409 0-17.107 7.698-17.107 17.107v10.904c0 9.41 7.698 17.108 17.107 17.108h6.334c-1.247-4.965-1.918-10.156-1.918-15.504z" fill="#fdb97e"/><path d="m324.082 205.256h-4.416v29.615c0 5.348-.671 10.539-1.918 15.505h6.334c9.41 0 17.108-7.698 17.108-17.108v-10.904c0-9.41-7.698-17.108-17.108-17.108z" fill="#fea95c"/><path d="m320.666 234.871c0 35.714-28.954 64.666-64.667 64.666-35.713 0-64.665-28.952-64.665-64.666v-33.64c0-35.715 28.952-51.197 64.665-51.197 35.713 0 64.667 15.482 64.667 51.197z" fill="#fdb97e"/><path d="m213 234.871v-33.64c0-32.021 23.279-47.768 53.832-50.686-3.524-.336-7.14-.512-10.833-.512-35.713 0-64.665 15.482-64.665 51.197v33.64c0 35.714 28.952 64.666 64.665 64.666 3.693 0 7.309-.326 10.833-.921-30.553-5.155-53.832-31.723-53.832-63.744z" fill="#fea95c"/><path d="m262.397 246.428h-8.519c-6.493 0-11.776-5.283-11.776-11.776v-15.928c0-4.143 3.358-7.5 7.5-7.5 4.143 0 7.5 3.357 7.5 7.5v12.704h5.295c4.143 0 7.5 3.357 7.5 7.5 0 4.142-3.357 7.5-7.5 7.5z" fill="#eb6000"/><path d="m271.488 269.998h-30.978c-4.143 0-7.5-3.357-7.5-7.5 0-4.142 3.357-7.5 7.5-7.5h30.978c4.143 0 7.5 3.357 7.5 7.5s-3.357 7.5-7.5 7.5z" fill="#eb6000"/><path d="m233.439 195.92h-22.895c-4.143 0-7.5-3.357-7.5-7.5s3.357-7.5 7.5-7.5h22.895c4.143 0 7.5 3.357 7.5 7.5s-3.358 7.5-7.5 7.5z" fill="#eb6000"/><path d="m301.457 195.92h-22.897c-4.142 0-7.5-3.357-7.5-7.5s3.358-7.5 7.5-7.5h22.897c4.143 0 7.5 3.357 7.5 7.5s-3.357 7.5-7.5 7.5z" fill="#eb6000"/><path d="m290.145 203.909c-4.705 0-8.555 3.85-8.555 8.554v13.197c0 4.704 3.85 8.554 8.555 8.554h3.096c4.704 0 8.554-3.85 8.554-8.554v-13.197c0-4.704-3.85-8.554-8.554-8.554z" fill="#006e66"/><path d="m218.76 203.909c-4.704 0-8.554 3.85-8.554 8.554v13.197c0 4.704 3.85 8.554 8.554 8.554h3.095c4.705 0 8.554-3.85 8.554-8.554v-13.197c0-4.704-3.849-8.554-8.554-8.554z" fill="#006e66"/><path d="m329.008 313.659c-10.439-1.5-20.967-2.657-31.524-3.514 0 0 .001.001.003.001l-.003 41.854h35.309v-33.973c0-2.195-1.613-4.056-3.785-4.368z" fill="#0078c8"/><path d="m214.514 352v-41.853c.002 0 .003-.001.003-.001-10.557.857-21.084 2.014-31.523 3.514-2.174.311-3.786 2.173-3.786 4.368v33.972z" fill="#0078c8"/><path d="m202.825 311.235c-6.635.684-13.252 1.478-19.831 2.424-2.174.311-3.786 2.173-3.786 4.368v33.973h23.617z" fill="#0268b4"/></svg>