<svg id="Capa_1" enable-background="new 0 0 512 512" height="512" viewBox="0 0 512 512" width="512" xmlns="http://www.w3.org/2000/svg"><circle cx="256" cy="267" fill="#00c285" r="245"/><path d="m83.22 147.531v-22.555c0-8.661 7.046-15.707 15.707-15.707h16.571l.035-.964c1.224-34.341 28.274-54.843 72.358-54.843s71.134 20.502 72.358 54.843l.035.964h16.571c8.661 0 15.708 7.046 15.708 15.707v22.555c0 .494-.028.984-.074 1.47h178.26c-41.685-75.702-122.222-127.001-214.749-127.001-92.528 0-173.065 51.299-214.75 127.001h42.043c-.044-.484-.073-.974-.073-1.47z" fill="#a7e8f1"/><path d="m267.852 108.27v-55.561c0-20.74-16.969-37.709-37.709-37.709h-84.502c-20.74 0-37.709 16.969-37.709 37.709v55.561h7.606c1.35-38.188 33.216-54.807 72.354-54.807s71.004 16.618 72.353 54.807z" fill="#fee45a"/><path d="m107.932 52.709v55.561h7.604c.63-17.818 7.902-30.94 19.464-39.867v-15.694c0-20.74 16.969-37.709 37.709-37.709h-27.068c-20.74 0-37.709 16.969-37.709 37.709z" fill="#fed402"/><path d="m74.732 228.84h-3.232c-14.636 0-26.5 11.864-26.5 26.5v91.66h29.732z" fill="#0268b4"/><path d="m239.252 388v-92.125l-1.987-.159-.013.162c0 .29-.038 1.736-.792 1.736-.371 0-.89-.253-1.423-.694l-42.656-35.298c-1.204-.996-2.798-1.544-4.49-1.544-1.691 0-3.286.548-4.49 1.544l-42.657 35.297c-.533.441-1.052.694-1.423.694-.753 0-.791-1.446-.791-1.736l-.007-.121-1.993.117v92.127z" fill="#fff"/><path d="m300.491 351.441h29.732v36.559h-29.732z" fill="#0268b4"/><path d="m301.491 351.441h-1.152c-6.435 0-11.669-5.234-11.669-11.669v-110.932h-50.446v159.16h63.268v-36.559z" fill="#0078c8"/><path d="m161.891 388h52.001l-13.031-81.719 20.598-20.598-29.078-24.061c-1.204-.996-2.798-1.544-4.49-1.544-1.691 0-3.286.548-4.49 1.544l-29.079 24.061 20.599 20.599z" fill="#fe0364"/><path d="m161.891 388h16.032l13.031-81.718-27.858-27.858-8.773 7.26 20.599 20.598z" fill="#fe0364"/><path d="m234.294 220.039-11.806-9.117c-10.257 5.705-22.051 8.968-34.597 8.968s-24.339-3.263-34.597-8.968l-11.807 9.118c-2.177 1.681-3.957 5.306-3.957 8.056v67.781c0 2.75 1.733 3.565 3.852 1.813l42.657-35.297c2.119-1.753 5.585-1.753 7.704 0l42.657 35.297c2.119 1.753 3.852.938 3.852-1.813v-67.782c0-2.749-1.781-6.374-3.958-8.056z" fill="#e3f3ff"/><path d="m158.997 238.943c-2.259-1.568-4.107-5.102-4.107-7.852v-18.166c-.833-.428-1.658-.867-2.472-1.326l-10.93 8.44c-2.177 1.681-3.957 5.306-3.957 8.056v67.781c0 2.75 1.733 3.565 3.852 1.813l17.896-14.809v-43.742z" fill="#b4dbff"/><path d="m187.892 219.89c-11.902 0-23.123-2.942-33.002-8.113v19.315c0 2.75 1.848 6.283 4.107 7.852l24.787 17.205c2.259 1.568 5.956 1.568 8.215 0l24.787-17.205c2.259-1.568 4.107-5.102 4.107-7.852v-19.315c-9.878 5.17-21.099 8.113-33.001 8.113z" fill="#fea95c"/><path d="m176 226.053v-7.172c-7.496-1.262-14.595-3.694-21.11-7.105v19.315c0 2.75 1.848 6.283 4.107 7.852l24.787 17.205c2.259 1.568 5.956 1.568 8.215 0l10.078-6.995-21.969-15.249c-2.26-1.568-4.108-5.101-4.108-7.851z" fill="#ff9240"/><path d="m187.892 52.463c-45.972 0-73.418 21.807-73.418 58.334v33.887l1 3.787c0 39.996 32.423 72.419 72.418 72.419s72.418-32.423 72.418-72.419l1-3.787v-33.887c0-36.527-27.446-58.334-73.418-58.334z" fill="#fdb97e"/><path d="m166.935 206.887c-18.266-13.304-30.145-34.848-30.145-59.176v-38.069c0-36.698 27.017-54.517 62.245-57.484-3.531-.297-7.141-.452-10.819-.452-40.415 0-73.178 17.522-73.178 57.936v38.069c0 40.416 32.763 73.179 73.178 73.179 3.679 0 7.29-.287 10.822-.816-7.447-1.115-14.52-3.364-21.055-6.545-4.738-.118-8.854-2.763-11.048-6.642z" fill="#fea95c"/><path d="m98.927 108.27h9.004v-55.561c0-20.74 16.969-37.709 37.709-37.709h84.502c20.74 0 37.709 16.969 37.709 37.709v55.561h9.004c2.113 0 4.13.414 5.996 1.138v-56.699c.001-29.063-23.644-52.709-52.708-52.709h-84.502c-29.064 0-52.709 23.646-52.709 52.709v56.698c1.865-.723 3.882-1.137 5.995-1.137z" fill="#3c87d0"/><path d="m159.233 136.423c0 6.221-5.09 11.312-11.313 11.312-6.221 0-11.313-5.091-11.313-11.312v-11.313c0-6.222 5.091-11.313 11.313-11.313 6.223 0 11.313 5.091 11.313 11.313z" fill="#0078c8"/><path d="m239.176 136.423c0 6.221-5.091 11.312-11.313 11.312-6.222 0-11.313-5.091-11.313-11.312v-11.313c0-6.222 5.091-11.313 11.313-11.313 6.221 0 11.313 5.091 11.313 11.313z" fill="#0078c8"/><path d="m195.056 160.514h-10.559c-6.214 0-11.271-5.057-11.271-11.271v-18.855c0-4.143 3.358-7.5 7.5-7.5s7.5 3.357 7.5 7.5v15.126h6.829c4.142 0 7.5 3.357 7.5 7.5.001 4.142-3.357 7.5-7.499 7.5z" fill="#eb6000"/><path d="m162.627 103.951h-25.643c-4.142 0-7.5-3.357-7.5-7.5s3.358-7.5 7.5-7.5h25.643c4.142 0 7.5 3.357 7.5 7.5s-3.358 7.5-7.5 7.5z" fill="#fed402"/><path d="m238.798 103.951h-25.642c-4.142 0-7.5-3.357-7.5-7.5s3.358-7.5 7.5-7.5h25.642c4.142 0 7.5 3.357 7.5 7.5s-3.358 7.5-7.5 7.5z" fill="#fed402"/><path d="m168.528 192.016c2.368-2.605 5.771-4.255 9.561-4.255h19.605c3.79 0 7.193 1.65 9.561 4.255 5.304-5.095 8.615-12.249 8.615-20.167 0-2.034-1.648-3.682-3.681-3.682h-48.596c-2.033 0-3.681 1.647-3.681 3.682.001 7.918 3.313 15.072 8.616 20.167z" fill="#f46700"/><path d="m168.528 192.016c2.368-2.605 5.771-4.255 9.561-4.255h7.941c-3.14-4.52-4.987-10.003-4.987-15.912 0-2.034 1.648-3.682 3.681-3.682h-21.13c-2.033 0-3.681 1.647-3.681 3.682 0 7.918 3.312 15.072 8.615 20.167z" fill="#eb6000"/><path d="m276.856 163.238h-11.488v23.751c0 3.68-2.994 6.674-6.674 6.674h-50.161c1.318 2.025 2.092 4.436 2.092 7.028 0 3.008-1.041 5.772-2.77 7.972h50.839c11.951 0 21.674-9.723 21.674-21.674v-24.161c-1.131.26-2.303.41-3.512.41z" fill="#015a9a"/><path d="m211.625 200.691c0 7.693-6.236 13.93-13.931 13.93h-19.605c-7.694 0-13.931-6.236-13.931-13.93 0-7.694 6.236-13.931 13.931-13.931h19.605c7.695.001 13.931 6.237 13.931 13.931z" fill="#0078c8"/><path d="m180.533 200.691c0-7.694 6.236-13.931 13.931-13.931h-16.375c-7.694 0-13.931 6.236-13.931 13.931 0 7.693 6.236 13.93 13.931 13.93h16.375c-7.694 0-13.931-6.236-13.931-13.93z" fill="#015a9a"/><path d="m115.474 148.471v-37.674c0-.857.035-1.691.064-2.527h-16.611c-9.188 0-16.707 7.519-16.707 16.707v22.555c0 9.188 7.519 16.707 16.707 16.707h18.288c-1.128-5.079-1.741-10.35-1.741-15.768z" fill="#0078c8"/><path d="m99 147.531v-22.555c0-9.131 7.428-16.605 16.538-16.698 0-.003 0-.006 0-.009h-16.611c-9.188 0-16.707 7.519-16.707 16.707v22.555c0 9.188 7.519 16.707 16.707 16.707h16.78c-9.188 0-16.707-7.518-16.707-16.707z" fill="#015a9a"/><path d="m276.856 108.27h-16.611c.029.836.065 1.67.065 2.527v37.674c0 5.418-.614 10.689-1.742 15.768h18.288c9.188 0 16.708-7.519 16.708-16.707v-22.555c0-9.189-7.52-16.707-16.708-16.707z" fill="#0078c8"/><path d="m73.732 228.84v118.16h13.268c4.962 0 9 4.037 9 9v32h41.53v-159.16z" fill="#0078c8"/><path d="m274.604 320.318-15.064-5.963c-2.557-1.013-2.557-2.669 0-3.682l11.808-4.673h-12.457c-2.75 0-5-2.25-5-5v-6c0-2.75 2.25-5 5-5h14.984l-25.556-61.16h-10.067v159.16h18.095l21.263-61.118c.904-2.598-.449-5.551-3.006-6.564z" fill="#015a9a"/><path d="m116.243 314.355-15.064 5.963c-2.557 1.013-3.91 3.966-3.006 6.563l21.263 61.119h18.095l-.001-159.16h-10.066l-29.007 69.417c-1.06 2.537.165 5.441 2.721 6.454l15.065 5.963c2.557 1.012 2.557 2.669 0 3.681z" fill="#015a9a"/><path d="m258.892 306h29.777v-16h-29.777c-2.75 0-5 2.25-5 5v6c0 2.75 2.25 5 5 5z" fill="#02c7dd"/><path d="m256 512c91.708 0 171.634-50.398 213.63-125h-427.26c41.995 74.602 121.92 125 213.63 125z" fill="#7bacdf"/><path d="m97 388v-32c0-5.5-4.5-10-10-10h-62.979c4.997 14.68 11.366 28.723 18.924 42z" fill="#7bacdf"/><path d="m494.075 209h-193.737c-6.968 0-12.669 5.701-12.669 12.67v118.103c0 6.968 5.701 12.669 12.669 12.669h82.295v-41h-24.236c-2.539 0-4.604-2.065-4.604-4.604v-52.234c0-2.538 2.065-4.604 4.604-4.604h92.083c2.539 0 4.604 2.065 4.604 4.604v52.234c0 2.538-2.065 4.604-4.604 4.604h-24.236v41h59.433c9.901-26.605 15.323-55.389 15.323-85.442 0-19.984-2.411-39.404-6.925-58z" fill="#6c646d"/><path d="m315 339.772v-118.102c0-6.969 5.701-12.67 12.669-12.67h-27.331c-6.968 0-12.669 5.701-12.669 12.67v118.103c0 6.968 5.701 12.669 12.669 12.669h27.331c-6.968-.001-12.669-5.702-12.669-12.67z" fill="#554e56"/><path d="m381.633 311.441h45.61v76.559h-45.61z" fill="#554e56"/><path d="m469.63 387h-427.26c5.499 9.769 11.646 19.121 18.387 28.001h390.486c6.741-8.88 12.888-18.232 18.387-28.001z" fill="#b4dbff"/><path d="m67.936 424c8.396 10.048 17.58 19.414 27.46 28.001h321.208c9.88-8.587 19.064-17.953 27.46-28.001z" fill="#b4dbff"/><path d="m456.084 306.838c0 3.082-2.522 5.604-5.604 5.604h-92.083c-3.082 0-5.604-2.522-5.604-5.604v-52.234c0-3.082 2.522-5.604 5.604-5.604h92.083c3.082 0 5.604 2.521 5.604 5.604z" fill="#554e56"/><path d="m431.5 276h-53.594c-4.142 0-7.5-3.357-7.5-7.5s3.358-7.5 7.5-7.5h53.594c4.142 0 7.5 3.357 7.5 7.5s-3.358 7.5-7.5 7.5z" fill="#433f43"/><path d="m431.5 300h-53.594c-4.142 0-7.5-3.357-7.5-7.5s3.358-7.5 7.5-7.5h53.594c4.142 0 7.5 3.357 7.5 7.5s-3.358 7.5-7.5 7.5z" fill="#433f43"/><path d="m392.406 268.5c0-4.143 3.358-7.5 7.5-7.5h-22c-4.142 0-7.5 3.357-7.5 7.5s3.358 7.5 7.5 7.5h22c-4.142 0-7.5-3.357-7.5-7.5z" fill="#3a383a"/><path d="m392.406 292.5c0-4.143 3.358-7.5 7.5-7.5h-22c-4.142 0-7.5 3.357-7.5 7.5s3.358 7.5 7.5 7.5h22c-4.142 0-7.5-3.357-7.5-7.5z" fill="#3a383a"/><g fill="#00b37b"><path d="m440.666 165h-27.615c-4.584 0-8.334 3.375-8.334 7.5s3.75 7.5 8.334 7.5h27.615c4.582 0 8.334-3.375 8.334-7.5s-3.752-7.5-8.334-7.5z"/><path d="m351.666 177h-27.615c-4.584 0-8.334 3.375-8.334 7.5s3.75 7.5 8.334 7.5h27.615c4.582 0 8.334-3.375 8.334-7.5s-3.752-7.5-8.334-7.5z"/><path d="m46.949 178c4.582 0 8.334-3.375 8.334-7.5s-3.752-7.5-8.334-7.5h-12.825c-2.308 4.914-4.464 9.914-6.448 15z"/><path d="m93.666 195h-27.615c-4.584 0-8.334 3.375-8.334 7.5s3.75 7.5 8.334 7.5h27.615c4.582 0 8.334-3.375 8.334-7.5s-3.752-7.5-8.334-7.5z"/></g></svg>