<svg id="Capa_1" enable-background="new 0 0 512 512" height="512" viewBox="0 0 512 512" width="512" xmlns="http://www.w3.org/2000/svg"><circle cx="256" cy="267" fill="#00c285" r="245"/><path d="m256 22c-135.31 0-245 109.69-245 245 0 16.078 1.562 31.789 4.524 47h110.752l29.224-22.831v-6.169c0-2.206 1.794-4 4-4h66.528v-16.65c9.575 3.743 19.65 5.64 29.972 5.64 10.321 0 20.396-1.896 29.972-5.64v16.65h66.528c2.206 0 4 1.794 4 4v6.169l29.223 22.831h110.753c2.961-15.211 4.524-30.922 4.524-47 0-135.31-109.691-245-245-245z" fill="#3c87d0"/><path d="m126.276 314h-110.754c2.126 10.943 4.968 21.63 8.499 32h61.295z" fill="#5de1c4"/><path d="m385.723 314 40.96 32h61.296c3.531-10.37 6.373-21.057 8.499-32z" fill="#5de1c4"/><g fill="#7bacdf"><path d="m408.155 143.615h22.853c5.078 0 9.231 3.739 9.231 8.308 0 4.568-4.153 8.307-9.231 8.307h-68.476c.867 1.983 1.354 4.169 1.354 6.468v10.148h119.989c-7.019-17.726-16.056-34.429-26.81-49.846h-48.91c-5.077 0-9.23 3.737-9.23 8.308 0 4.568 4.154 8.307 9.23 8.307z"/><path d="m159.003 94.229h-29.006c-5.077 0-9.231 3.738-9.231 8.309 0 4.568 4.154 8.308 9.231 8.308h38.349v-5.684c0-1.428.048-2.828.119-4.213-4.229-.371-7.8-3.028-9.462-6.72z"/><path d="m372.769 61h-45.007c4.548 4.908 8.135 10.449 10.733 16.615h34.273c5.077 0 9.231-3.739 9.231-8.308.001-4.57-4.153-8.307-9.23-8.307z"/></g><path d="m440.011 355.144-83.511-65.244v63.449l35.568 27.788-35.568 28.18v63.791l83.686-66.303c8.103-6.42 12.73-15.852 12.696-25.876s-4.726-19.423-12.871-25.785z" fill="#fdb97e"/><path d="m155.5 409.316-35.568-28.179 35.568-27.787v-63.45l-83.509 65.241c-8.147 6.364-12.839 15.764-12.873 25.789s4.594 19.456 12.696 25.875l83.687 66.303v-63.792z" fill="#fdb97e"/><path d="m155.5 289.9-83.509 65.241c-8.147 6.364-12.839 15.764-12.873 25.789-.024 7.149 2.331 13.989 6.618 19.657-.07-.881-.115-1.765-.112-2.656.035-10.025 4.727-19.425 12.874-25.789l77.003-60.158v-22.084z" fill="#fea95c"/><path d="m352.5 280h-66.528v6.857c0 1.874-.707 3.658-1.99 5.023l-22.636 24.084c-1.382 1.469-3.33 2.312-5.346 2.312s-3.964-.843-5.345-2.311l-22.637-24.084c-1.283-1.366-1.99-3.15-1.99-5.024v-6.857h-66.528c-2.75 0-5 2.25-5 5v205.043c30.927 14.097 65.294 21.957 101.5 21.957s70.573-7.86 101.5-21.957v-205.043c0-2.75-2.25-5-5-5z" fill="#fee45a"/><path d="m180 285c0-2.75 2.25-5 5-5h-25.5c-2.75 0-5 2.25-5 5v205.043c8.262 3.766 16.777 7.071 25.5 9.916z" fill="#fed402"/><path d="m285.972 280v6.857c0 1.874-.707 3.658-1.99 5.023l-22.636 24.084c-1.382 1.469-3.33 2.312-5.346 2.312s-3.964-.843-5.345-2.311l-22.637-24.084c-1.283-1.366-1.99-3.15-1.99-5.024v-6.857h-21v6.857c0 7.239 2.73 14.131 7.689 19.406l22.637 24.084c5.333 5.675 12.857 8.929 20.646 8.929 7.786 0 15.311-3.255 20.647-8.93l22.634-24.082c4.959-5.274 7.69-12.167 7.69-19.407v-6.857z" fill="#fd3581"/><path d="m256 268.989c-10.96 0-21.414-2.185-30.972-6.118v23.986c0 2.129.803 4.156 2.262 5.709l22.637 24.084c1.569 1.669 3.783 2.626 6.073 2.626s4.504-.957 6.074-2.627l22.636-24.084c1.459-1.552 2.262-3.579 2.262-5.708v-23.986c-9.558 3.934-20.012 6.118-30.972 6.118z" fill="#fea95c"/><path d="m247 281.585v-13.103c-7.695-.848-15.067-2.77-21.972-5.611v23.986c0 2.129.803 4.156 2.262 5.709l22.637 24.084c1.569 1.669 3.783 2.626 6.073 2.626s4.504-.957 6.074-2.627l7.389-7.862-20.202-21.493c-1.458-1.553-2.261-3.58-2.261-5.709z" fill="#ff9240"/><path d="m256 35.975c16.481 0 31.286 2.418 43.813 7.056 1.406-3.573 2.187-7.46 2.187-11.531 0-17.396-14.104-31.5-31.5-31.5h-29c-17.397 0-31.5 14.104-31.5 31.5 0 4.071.781 7.958 2.187 11.53 12.527-4.637 27.332-7.055 43.813-7.055z" fill="#554e56"/><path d="m235.548 37.335c-.354-1.892-.548-3.841-.548-5.835 0-17.396 14.103-31.5 31.5-31.5h-25c-17.397 0-31.5 14.104-31.5 31.5 0 4.071.781 7.958 2.187 11.53 7.091-2.626 14.915-4.532 23.361-5.695z" fill="#433f43"/><path d="m174.346 150.482v-6.145c0-21.286 8.004-37.78 23.789-49.023 14.159-10.085 34.169-15.416 57.865-15.416s43.706 5.331 57.865 15.416c15.785 11.243 23.789 27.737 23.789 49.023v6.145h7v-45.32c0-48.961-39.692-70.188-88.654-70.188s-88.654 21.227-88.654 70.188v45.32z" fill="#554e56"/><path d="m256 34.975c-37.18 0-69.01 12.244-82.178 39.574l4.47 7.705c1.657 2.891 2.665 4.829 2.665 7.333 0 6.293-5.149 11.413-11.478 11.413-.692 0-1.366-.071-2.024-.188-.071 1.425-.109 2.875-.109 4.351v45.32h7v-6.145c0-19.837 6.958-35.508 20.681-46.649 3.481-39.273 34.64-58.646 74.646-62.133-4.457-.389-9.023-.581-13.673-.581z" fill="#433f43"/><path d="m347.672 149.482h-10.018v37.854c0 6.834-.855 13.469-2.444 19.817h12.462c9.469 0 17.215-7.747 17.215-17.216v-23.24c0-9.468-7.746-17.215-17.215-17.215z" fill="#fea95c"/><path d="m174.346 187.336v-37.854h-10.018c-9.469 0-17.215 7.746-17.215 17.215v23.24c0 9.469 7.746 17.216 17.215 17.216h12.462c-1.589-6.348-2.444-12.983-2.444-19.817z" fill="#fdb97e"/><path d="m338.654 187.336c0 45.648-37.006 82.653-82.654 82.653-45.648 0-82.654-37.005-82.654-82.653v-42.998c0-45.648 37.006-65.44 82.654-65.44 45.648 0 82.654 19.791 82.654 65.44z" fill="#fdb97e"/><path d="m256 78.898c-45.648 0-82.654 19.791-82.654 65.44v23.01c0-45.647 37.006-65.438 82.654-65.438s82.654 19.79 82.654 65.438v-23.01c0-45.649-37.006-65.44-82.654-65.44z" fill="#fff"/><path d="m227.57 81.806c-31.643 6.993-54.225 26.873-54.225 62.532v23.01c0-25.625 11.664-43.098 29.969-53.5 4.061-14.029 12.636-24.603 24.256-32.042z" fill="#e3f3ff"/><path d="m256 101.91c-45.648 0-82.654 19.79-82.654 65.438v19.988c0 45.648 37.006 82.653 82.654 82.653s82.654-37.005 82.654-82.653v-19.988c0-45.648-37.006-65.438-82.654-65.438z" fill="#fdb97e"/><path d="m195 187.336v-19.988c0-41.975 31.299-62.071 71.827-65.035-3.546-.26-7.155-.402-10.827-.402-45.648 0-82.654 19.79-82.654 65.438v19.988c0 45.648 37.006 82.653 82.654 82.653 3.672 0 7.281-.265 10.827-.729-40.528-5.307-71.827-39.948-71.827-81.925z" fill="#fea95c"/><path d="m263.135 203.5h-10.514c-6.206 0-11.256-5.049-11.256-11.254v-13.246c0-4.143 3.358-7.5 7.5-7.5s7.5 3.357 7.5 7.5v9.5h6.77c4.142 0 7.5 3.357 7.5 7.5s-3.358 7.5-7.5 7.5z" fill="#eb6000"/><path d="m236.5 252c-2.761 0-5-2.238-5-5v-7.5c0-13.51 10.991-24.5 24.5-24.5s24.5 10.99 24.5 24.5v7.5c0 2.762-2.239 5-5 5z" fill="#f46700"/><path d="m247 247v-7.5c0-10.801 7.029-19.985 16.75-23.236-2.438-.816-5.042-1.264-7.75-1.264-13.509 0-24.5 10.99-24.5 24.5v7.5c0 2.762 2.239 5 5 5h15.5c-2.761 0-5-2.238-5-5z" fill="#eb6000"/><path d="m299.747 181.52c-11.784 0-21.907-6.764-26.417-17.65-1.585-3.826.232-8.214 4.059-9.799s8.214.231 9.799 4.059c2.176 5.254 6.871 8.391 12.558 8.391s10.382-3.137 12.558-8.391c1.585-3.828 5.974-5.647 9.799-4.059 3.827 1.585 5.644 5.973 4.059 9.799-4.508 10.887-14.631 17.65-26.415 17.65z" fill="#554e56"/><path d="m212.253 181.52c-11.784 0-21.907-6.764-26.416-17.65-1.585-3.826.232-8.214 4.059-9.799 3.828-1.585 8.214.231 9.799 4.059 2.176 5.254 6.871 8.391 12.558 8.391s10.382-3.137 12.558-8.391c1.586-3.828 5.973-5.647 9.799-4.059 3.827 1.585 5.644 5.973 4.059 9.799-4.509 10.887-14.632 17.65-26.416 17.65z" fill="#554e56"/><circle cx="256" cy="412.5" fill="#c7e7ff" r="45.5"/><path d="m236 412.5c0-20.701 13.83-38.161 32.75-43.676-4.047-1.18-8.322-1.824-12.75-1.824-25.129 0-45.5 20.371-45.5 45.5s20.371 45.5 45.5 45.5c4.428 0 8.703-.645 12.75-1.824-18.92-5.515-32.75-22.975-32.75-43.676z" fill="#b4dbff"/><path d="m345.522 260.018c-6.881 0-12.479-5.568-12.479-12.413 0-2.855 1.151-5.429 2.8-7.835l8.018-13.814c.341-.592.975-.955 1.662-.955.685 0 1.32.363 1.663.955l8.015 13.814c1.567 2.734 2.8 4.985 2.8 7.835-.001 6.844-5.598 12.413-12.479 12.413z" fill="#02c7dd"/><path d="m169.479 102c-6.88 0-12.479-5.568-12.479-12.413 0-2.854 1.151-5.429 2.8-7.835l8.018-13.814c.341-.592.975-.955 1.662-.955.685 0 1.32.363 1.663.955l8.015 13.814c1.567 2.734 2.8 4.985 2.8 7.835-.001 6.845-5.598 12.413-12.479 12.413z" fill="#02c7dd"/><path d="m308.501 140.803c-7.432 0-13.48-6.016-13.48-13.408 0-3.084 1.243-5.863 3.024-8.463l8.66-14.922c.369-.639 1.054-1.031 1.795-1.031.74 0 1.426.393 1.796 1.031l8.657 14.922c1.693 2.953 3.024 5.385 3.024 8.463.001 7.392-6.044 13.408-13.476 13.408z" fill="#6bd9e7"/><path d="m182.522 255.824c-7.432 0-13.479-6.016-13.479-13.408 0-3.084 1.243-5.863 3.024-8.463l8.66-14.922c.369-.639 1.054-1.031 1.795-1.031.74 0 1.426.393 1.796 1.031l8.657 14.922c1.693 2.953 3.024 5.385 3.024 8.463.001 7.393-6.045 13.408-13.477 13.408z" fill="#6bd9e7"/><path d="m394.479 227c-7.432 0-13.479-6.016-13.479-13.408 0-3.084 1.243-5.863 3.024-8.463l8.66-14.922c.369-.639 1.054-1.031 1.795-1.031.74 0 1.426.393 1.796 1.031l8.657 14.922c1.693 2.953 3.024 5.385 3.024 8.463.001 7.392-6.045 13.408-13.477 13.408z" fill="#6bd9e7"/><path d="m119.028 212.6c-6.603 0-11.975-5.343-11.975-11.91 0-2.74 1.104-5.209 2.687-7.519l7.693-13.255c.328-.568.936-.916 1.595-.916.657 0 1.266.348 1.595.916l7.69 13.255c1.504 2.624 2.687 4.784 2.687 7.519 0 6.567-5.371 11.91-11.972 11.91z" fill="#02c7dd"/><path d="m95.998 180.538c0-4.57-4.154-8.309-9.23-8.309h-20.77c-5.077 0-9.23-3.738-9.23-8.307 0-4.568 4.153-8.308 9.23-8.308h65.771c5.077 0 9.231-3.739 9.231-8.308 0-4.57-4.154-8.308-9.231-8.308h-84.701c-9.549 15.554-17.415 32.251-23.333 49.846h63.033c5.076.002 9.23-3.738 9.23-8.306z" fill="#7bacdf"/></svg>