<svg id="Capa_1" enable-background="new 0 0 512 512" height="512" viewBox="0 0 512 512" width="512" xmlns="http://www.w3.org/2000/svg"><circle cx="256" cy="267" fill="#02c7dd" r="245"/><g fill="#a7e8f1"><path d="m317.709 261.906c0-5.674 4.615-10.289 10.289-10.289h.73c-15.447-1.646-24.211-6.428-33.775-10.834v22.123h22.757v-1z"/><path d="m428.541 257.391v-25.141c-.868-.018-1.736-.035-2.643-.035-38.227 0-42.178 16.083-73.329 19.402h1.394c5.674 0 10.289 4.615 10.289 10.289v1h4.67c8.339 0 16.137 3.3 21.955 9.292l.295.304h22.258c8.332 0 15.111-6.779 15.111-15.111z"/><path d="m212.03 262.906v-20.342c-8.505 3.986-17.174 7.896-31.406 9.196 4.895.79 8.648 5.031 8.648 10.146v1z"/><path d="m107.451 293.516c0-16.878 13.731-30.609 30.609-30.609h4.669v-1c0-5.674 4.616-10.289 10.289-10.289h5.211c-31.151-3.319-35.102-19.402-73.328-19.402-38.259 0-42.184 16.109-73.408 19.41-.314 5.085-.493 10.208-.493 15.374 0 79.453 37.831 150.059 96.451 194.823z"/><path d="m500.514 251.746c-26.625-2.477-33.737-14.107-57.039-18.143v23.787c0 16.566-13.479 30.045-30.045 30.045h-14.485l.188 1.159c.265 1.639.4 3.294.4 4.921v172.04c61.469-44.513 101.467-116.858 101.467-198.555 0-5.125-.176-10.207-.486-15.254z"/></g><path d="m107.451 327.621c-6.097-1.469-13.323-2.406-22.549-2.406-33.035 0-40.472 12.012-61.986 17.416 15.526 47.882 45.395 89.3 84.535 119.195z" fill="#07b2cd"/><path d="m425.898 325.215c-11.228 0-19.496 1.389-26.367 3.433v136.904c41.528-30.079 73.256-72.86 89.465-122.651-22.379-5.264-29.5-17.686-63.098-17.686z" fill="#07b2cd"/><path d="m295.952 237.974c-12.912 6.021-27.3 9.392-42.461 9.392-15.162 0-29.549-3.369-42.461-9.391v24.932h84.922z" fill="#00525a"/><path d="m170.157 78.689c27.653-1.951 55.691-2.94 83.335-2.94 27.646 0 55.685.989 83.337 2.94 8.257.58 15.193 5.794 18.373 12.969-2.253-53.946-46.923-91.658-101.711-91.658-54.787 0-99.458 37.711-101.71 91.658 3.181-7.175 10.118-12.388 18.376-12.969z" fill="#006e66"/><path d="m337.035 204.743h-46.339c-3.479 17.36-18.837 30.48-37.205 30.48-20.924 0-37.947-17.023-37.947-37.947 0-9.099 3.279-17.903 9.233-24.792l.611-.707-.664-.658c-.721-.713-1.273-1.335-1.74-1.957-1.054-1.406-1.881-2.953-2.489-4.594-3.157 1.722-6.724 2.652-10.414 2.652-1.033 0-2.064-.124-3.064-.369l-40.316-9.546c-6.915-1.607-12.36-6.357-15.016-12.548v1.802c0 56.225 45.58 101.806 101.807 101.806 34.59 0 65.146-17.255 83.543-43.622z" fill="#006e66"/><path d="m290.685 189.81h54.988c6.17-13.128 9.625-27.784 9.625-43.25v-1.843c-2.672 6.226-8.169 10.995-15.152 12.59l-41.121 9.58c-.922.22-1.933.336-2.932.336-3.441 0-6.759-.805-9.739-2.297-.708 1.781-1.684 3.443-2.931 4.942-.319.385-.689.782-1.164 1.254l-.661.658.609.706c4.301 4.977 7.197 10.957 8.478 17.324z" fill="#006e66"/><path d="m170.087 77.692c1.676-.118 3.357-.222 5.036-.333 8.17-42.794 44.342-72.687 89.22-76.855-3.567-.331-7.186-.504-10.852-.504-53.946 0-98.085 36.564-101.577 89.188 3.668-6.42 10.353-10.947 18.173-11.496z" fill="#00525a"/><path d="m174.29 160.13-7.82-1.852c-6.496-1.509-11.761-5.675-14.779-11.205.277 55.987 45.746 101.292 101.801 101.292 3.666 0 7.285-.198 10.852-.576-46.649-4.942-83.889-41.389-90.054-87.659z" fill="#00525a"/><path d="m253.491 75.749c22.023 0 44.294.639 66.423 1.88-11.507-20.834-36.913-30.215-66.424-30.215-29.512 0-54.916 9.381-66.422 30.215 22.129-1.241 44.4-1.88 66.423-1.88z" fill="#fdb97e"/><path d="m215.544 197.276c0-9.802 3.736-18.747 9.857-25.487-.888-.794-1.699-1.67-2.418-2.628-1.054-1.406-1.881-2.952-2.489-4.593-3.157 1.722-6.724 2.652-10.414 2.652-1.033 0-2.064-.124-3.064-.369l-24.307-5.755c4.837 19.177 17.268 35.324 33.899 45.085-.689-2.858-1.064-5.837-1.064-8.905z" fill="#fdb97e"/><path d="m309.642 189.81c6.871-8.262 11.957-18.06 14.653-28.81l-25.27 5.887c-.922.22-1.933.336-2.932.336-3.441 0-6.759-.805-9.739-2.297-.708 1.781-1.684 3.443-2.931 4.942-.57.688-1.191 1.322-1.848 1.915 4.528 4.984 7.746 11.176 9.119 18.026h18.948z" fill="#fdb97e"/><path d="m209.152 76.594c10.286-17.58 30.726-26.719 55.093-28.74-3.511-.291-7.101-.439-10.755-.439-29.512 0-54.916 9.381-66.422 30.215 7.351-.413 14.716-.76 22.084-1.036z" fill="#fea95c"/><path d="m215.544 197.276c0-3.442.469-6.776 1.333-9.949-4.727-6.216-8.488-13.205-11.041-20.755l-23.126-5.476c4.837 19.177 17.268 35.324 33.899 45.085-.69-2.858-1.065-5.837-1.065-8.905z" fill="#fea95c"/><path d="m336.898 77.692c-27.69-1.954-55.753-2.943-83.407-2.943-27.653 0-55.714.989-83.404 2.943-11.877.833-21.181 10.813-21.181 22.721v35.693c0 10.651 7.229 19.771 17.563 22.172l40.309 9.544c1.079.265 2.189.398 3.302.398 3.821 0 7.513-.951 10.789-2.717-1.855-4.271-2.117-9.286-.657-14.29.293-1.005.778-1.926 1.444-2.738l25.676-31.322c1.478-1.802 3.659-2.835 5.985-2.835 2.385.014 4.571 1.071 6.038 2.9l26.399 32.935c.795.991 1.337 2.174 1.568 3.421.82 4.393.329 8.612-1.364 12.273 3.104 1.543 6.557 2.375 10.135 2.375 1.075 0 2.175-.127 3.158-.362l41.117-9.579c10.426-2.381 17.707-11.512 17.707-22.209v-35.659c0-11.907-9.302-21.888-21.177-22.721z" fill="#0078c8"/><path d="m336.194 87.668c-27.442-1.938-55.268-2.919-82.703-2.919-27.434 0-55.258.981-82.705 2.919-6.662.467-11.88 6.065-11.88 12.745v35.693c0 5.975 4.041 11.087 9.868 12.441l40.387 9.563 9.122.001c-.049-2.346.265-4.763.969-7.178.329-1.13.883-2.181 1.63-3.092l25.676-31.322c1.661-2.024 4.141-3.201 6.758-3.201h.046c2.634.016 5.123 1.219 6.771 3.274l26.399 32.937c.9 1.122 1.509 2.448 1.771 3.863.299 1.602.432 3.184.403 4.728l8.273.001 41.159-9.589c5.849-1.336 9.934-6.459 9.934-12.46v-35.659c.003-6.68-5.214-12.278-11.878-12.745z" fill="#02c7dd"/><path d="m335.631 95.648c-27.247-1.924-54.883-2.899-82.14-2.899-27.253 0-54.89.976-82.146 2.899-2.489.175-4.439 2.268-4.439 4.765v35.693c0 2.269 1.478 4.137 3.711 4.655l39.261 9.298 9.681.002c.328-.8.772-1.548 1.323-2.22l25.676-31.322c1.661-2.024 4.141-3.201 6.758-3.201h.046c2.634.016 5.123 1.219 6.771 3.274l26.399 32.937c.141.175.26.363.386.547l9.329.002 40.111-9.345c2.222-.508 3.715-2.381 3.715-4.661v-35.659c.002-2.497-1.948-4.59-4.442-4.765z" fill="#d4f2f6"/><path d="m183.831 142.285v-42.701c0-2.078 1.143-3.903 2.834-4.903-5.115.293-10.225.608-15.319.968-2.489.175-4.439 2.268-4.439 4.765v35.693c0 2.269 1.478 4.137 3.711 4.655l13.465 3.189c-.155-.528-.252-1.083-.252-1.666z" fill="#a7e8f1"/><path d="m297.916 102.73c-5.313 0-9.658 4.346-9.658 9.656v14.898c0 5.311 4.346 9.656 9.658 9.656h3.493c5.31 0 9.655-4.346 9.655-9.656v-14.898c0-5.311-4.346-9.656-9.655-9.656z" fill="#2ed1e2"/><path d="m205.573 102.73c-5.311 0-9.656 4.346-9.656 9.656v14.898c0 5.311 4.346 9.656 9.656 9.656h3.494c5.311 0 9.656-4.346 9.656-9.656v-14.898c0-5.311-4.345-9.656-9.656-9.656z" fill="#2ed1e2"/><path d="m224.747 172.545c6.964-8.083 17.263-13.216 28.744-13.216 11.478 0 21.774 5.13 28.739 13.21.696-.628 1.355-1.302 1.961-2.031 3.852-4.629 5.31-10.711 4.114-17.115-.263-1.415-.871-2.741-1.771-3.863l-26.399-32.937c-1.648-2.056-4.138-3.259-6.771-3.274-.015 0-.031 0-.046 0-2.618 0-5.098 1.177-6.758 3.201l-25.676 31.322c-.747.911-1.302 1.962-1.63 3.092-1.992 6.826-.923 13.687 2.931 18.828.76 1.015 1.621 1.942 2.562 2.783z" fill="#0078c8"/><path d="m234.881 164.225c5.503-3.11 11.85-4.895 18.61-4.895 6.769 0 13.123 1.79 18.631 4.908.855-.427 1.665-1.007 2.342-1.821 1.516-1.825 1.721-4.024 1.531-5.802l-22.712-28.337-22.07 26.923c-.616 2.695-.229 5.202 1.094 6.966.642.856 1.527 1.542 2.574 2.058z" fill="#07b2cd"/><path d="m413.43 188.81h-122.956c.623 2.725.964 5.556.964 8.467s-.341 5.742-.964 8.467h122.956c7.781 0 14.111 6.331 14.111 14.111v37.536c0 7.781-6.33 14.111-14.111 14.111h-23.272c4.616 4.454 7.838 10.338 8.944 16.933h14.328c17.118 0 31.045-13.928 31.045-31.045v-37.536c0-17.118-13.927-31.044-31.045-31.044z" fill="#b4dbff"/><path d="m292.437 197.276c0 21.51-17.436 38.947-38.946 38.947s-38.947-17.438-38.947-38.947c0-21.51 17.437-38.947 38.947-38.947s38.946 17.438 38.946 38.947z" fill="#98bce5"/><path d="m253.491 217.07c-10.914 0-19.793-8.88-19.793-19.794 0-10.913 8.879-19.793 19.793-19.793s19.793 8.88 19.793 19.793c0 10.914-8.879 19.794-19.793 19.794z" fill="#fff"/><path d="m250 197.276c0-8.006 4.787-14.901 11.643-18.017-2.49-1.131-5.244-1.776-8.151-1.776-10.914 0-19.793 8.88-19.793 19.793 0 10.914 8.879 19.794 19.793 19.794 2.907 0 5.661-.646 8.151-1.777-6.856-3.114-11.643-10.01-11.643-18.017z" fill="#e3f3ff"/><path d="m142.729 261.906h-4.669c-17.457 0-31.609 14.152-31.609 31.609v167.541c11.345 8.756 23.482 16.531 36.278 23.219z" fill="#006e66"/><path d="m368.922 261.906h-4.67v224.926c12.76-6.297 24.892-13.672 36.279-22.006v-171.31c0-17.457-14.152-31.61-31.609-31.61z" fill="#006e66"/><path d="m189.272 261.906h128.437v229.137h-128.437z" fill="#006e66"/><path d="m141.729 261.906h-3.669c-17.457 0-31.609 14.152-31.609 31.609v167.541c6.899 5.324 14.095 10.28 21.549 14.857v-182.397c0-10.819 5.439-20.365 13.729-26.064z" fill="#00525a"/><path d="m245.024 261.906h16.933v228.137h-16.933z" fill="#008b81"/><path d="m189.272 502.799c21.215 5.991 43.596 9.201 66.728 9.201 21.315 0 41.993-2.728 61.709-7.844v-14.113h-128.437z" fill="#98bce5"/><path d="m141.729 342.344v141.411c15.295 8.08 31.545 14.592 48.543 19.314v-209.268z" fill="#0078c8"/><path d="m141.729 342.344v141.411c7.044 3.722 14.299 7.093 21.728 10.127v-173.265z" fill="#0268b4"/><path d="m316.709 293.801v210.613c16.96-4.324 33.206-10.428 48.543-18.082v-143.988z" fill="#0078c8"/><path d="m316.709 293.801v210.613c7.393-1.885 14.643-4.128 21.748-6.67v-182.195z" fill="#0268b4"/><path d="m304 188.81h15v16.934h-15z" fill="#e3f3ff"/><path d="m328 188.81h15v16.934h-15z" fill="#e3f3ff"/><path d="m352 188.81h15v16.934h-15z" fill="#e3f3ff"/><path d="m376 188.81h15v16.934h-15z" fill="#e3f3ff"/><path d="m190.272 295.215v-33.309c0-6.209-5.08-11.289-11.289-11.289h-25.965c-6.209 0-11.289 5.08-11.289 11.289v81.852z" fill="#07b2cd"/><path d="m163.457 261.906c0-6.209 5.08-11.289 11.289-11.289h-21.727c-6.209 0-11.289 5.08-11.289 11.289v81.852l21.728-21.728v-60.124z" fill="#0097a5"/><path d="m316.709 295.215v-33.309c0-6.209 5.08-11.289 11.289-11.289h25.965c6.209 0 11.289 5.08 11.289 11.289v81.852z" fill="#07b2cd"/><path d="m338.457 261.906c0-6.209 5.08-11.289 11.289-11.289h-21.748c-6.209 0-11.289 5.08-11.289 11.289v33.309l21.748 21.748z" fill="#0097a5"/><circle cx="106.5" cy="158.5" fill="#6bd9e7" r="14.5"/><circle cx="393.5" cy="131.5" fill="#fff" r="14.5"/><circle cx="412.5" cy="83.5" fill="#a7e8f1" r="14.5"/><circle cx="134.5" cy="207.5" fill="#fff" r="14.5"/><circle cx="81.5" cy="264.5" fill="#a7e8f1" r="14.5"/></svg>