<svg id="Capa_1" enable-background="new 0 0 512 512" height="512" viewBox="0 0 512 512" width="512" xmlns="http://www.w3.org/2000/svg"><circle cx="256" cy="267" fill="#fe9738" r="245"/><circle cx="256" cy="267" fill="#006e66" r="200"/><path d="m81 267c0-106.258 82.868-193.146 187.5-199.6-4.136-.256-8.301-.4-12.5-.4-110.457 0-200 89.543-200 200s89.543 200 200 200c4.199 0 8.364-.145 12.5-.4-104.632-6.454-187.5-93.342-187.5-199.6z" fill="#00525a"/><path d="m269.875 445.701c-.524-4.304 2.555-8.22 6.857-8.744 4.304-.513 8.221 2.556 8.733 6.859.523 4.304-2.544 8.221-6.849 8.744-.324.031-.639.052-.952.052-3.916 0-7.309-2.922-7.789-6.911zm-80.074-3.853c-4.053-1.539-6.094-6.073-4.555-10.126 1.528-4.052 6.063-6.093 10.125-4.565 4.053 1.539 6.095 6.073 4.555 10.126-1.183 3.141-4.167 5.078-7.34 5.078-.921 0-1.863-.168-2.785-.513zm161.508-23.038c-2.471-3.559-1.581-8.461 1.99-10.921 3.56-2.472 8.461-1.581 10.921 1.99 2.472 3.56 1.581 8.46-1.979 10.921s0 0-.01 0c-1.361.941-2.922 1.403-4.461 1.403-2.493.001-4.932-1.182-6.461-3.393zm-235.121-27.768c-2.88-3.235-2.587-8.199.649-11.079 3.246-2.879 8.209-2.586 11.089.66 2.88 3.235 2.586 8.199-.659 11.078-1.498 1.33-3.352 1.99-5.205 1.99-2.166 0-4.324-.901-5.874-2.649zm294.754-33.895c-3.843-2.011-5.319-6.765-3.299-10.598 2.021-3.842 6.765-5.318 10.607-3.299 3.833 2.012 5.309 6.765 3.298 10.609-1.412 2.67-4.135 4.198-6.963 4.198-1.234.001-2.481-.293-3.643-.91zm-336.429-45.256c-1.036-4.211 1.54-8.461 5.749-9.498 4.209-1.047 8.471 1.528 9.508 5.737 1.037 4.21-1.539 8.472-5.749 9.508-.628.157-1.267.231-1.884.231-3.53 0-6.735-2.398-7.624-5.978zm352.691-44.891c0-.064 0-.126 0-.19 0-.052 0-.103 0-.166-.011-4.336 3.497-7.854 7.833-7.865 4.334-.01 7.863 3.498 7.874 7.833v.146.241c0 4.335-3.518 7.853-7.854 7.853-4.334.001-7.853-3.517-7.853-7.852zm-347.005-35.048c-4.221-1.025-6.797-5.276-5.771-9.497 1.026-4.21 5.278-6.785 9.498-5.759 4.21 1.025 6.785 5.277 5.759 9.497-.88 3.582-4.084 5.99-7.623 5.99-.617.001-1.246-.074-1.863-.231zm327.287-44.806c-2.031-3.832-.564-8.586 3.268-10.607 3.843-2.031 8.586-.566 10.617 3.267 2.022 3.833.556 8.587-3.277 10.618-1.173.618-2.429.911-3.664.911-2.818 0-5.54-1.519-6.944-4.189zm-290.869-32.837c-3.246-2.869-3.549-7.833-.67-11.078 2.869-3.258 7.833-3.561 11.078-.691 3.246 2.879 3.561 7.843.682 11.089-1.55 1.76-3.718 2.649-5.885 2.649-1.853-.001-3.707-.65-5.205-1.969zm236.388-28.399h.011c-3.57-2.46-4.482-7.35-2.021-10.921 2.461-3.57 7.352-4.472 10.932-2.01 3.571 2.46 4.472 7.35 2.011 10.921-1.528 2.21-3.978 3.403-6.481 3.403-1.531.001-3.091-.449-4.452-1.393zm-168.084-23.497c-1.55-4.052.493-8.586 4.545-10.136 4.052-1.539 8.587.491 10.136 4.544 1.539 4.053-.492 8.587-4.544 10.137-.921.346-1.864.513-2.796.513-3.162 0-6.147-1.927-7.341-5.058zm91.466-5.414c-4.314-.512-7.393-4.418-6.879-8.732.513-4.304 4.418-7.382 8.723-6.868 4.303.513 7.382 4.418 6.879 8.722-.482 3.989-3.863 6.933-7.79 6.933-.314-.001-.619-.023-.933-.055z" fill="#fff"/><ellipse cx="256" cy="267" fill="#006e66" rx="146.942" ry="146.849"/><path d="m256 246.058v-125.908c-15.832 0-31.083 2.525-45.383 7.178l38.913 119.76c2.039-.662 4.21-1.03 6.47-1.03z" fill="#e3f3ff"/><path d="m243.703 250.074-74.002-101.853c-12.451 9.061-23.429 20.024-32.503 32.464l101.876 74.018c1.292-1.775 2.854-3.336 4.629-4.629z" fill="#e3f3ff"/><path d="m116.256 221.595c-4.665 14.306-7.198 29.564-7.198 45.405h126c0-2.26.368-4.431 1.03-6.47z" fill="#e3f3ff"/><path d="m236.088 273.47-119.832 38.936c4.828 14.804 11.948 28.579 20.942 40.909l101.876-74.018c-1.28-1.758-2.301-3.715-2.986-5.827z" fill="#e3f3ff"/><path d="m243.703 283.926-74.001 101.852c12.334 8.975 26.111 16.078 40.915 20.895l38.913-119.76c-2.112-.686-4.069-1.708-5.827-2.987z" fill="#e3f3ff"/><path d="m262.47 286.912c-2.039.662-4.21 1.03-6.47 1.03v125.906c15.832 0 31.083-2.525 45.383-7.177z" fill="#e3f3ff"/><path d="m272.926 279.297c-1.292 1.775-2.854 3.336-4.629 4.629l74.001 101.852c12.452-9.061 23.43-20.024 32.504-32.463z" fill="#e3f3ff"/><path d="m276.942 267c0 2.26-.368 4.431-1.03 6.47l119.832 38.936c4.665-14.306 7.198-29.565 7.198-45.405h-126z" fill="#e3f3ff"/><path d="m275.912 260.53 119.832-38.936c-4.828-14.804-11.948-28.579-20.942-40.909l-101.876 74.018c1.28 1.758 2.301 3.715 2.986 5.827z" fill="#e3f3ff"/><path d="m268.297 250.074 74.002-101.853c-12.335-8.975-26.112-16.078-40.916-20.894l-38.913 119.76c2.113.686 4.069 1.708 5.827 2.987z" fill="#e3f3ff"/><circle cx="256" cy="267" fill="#fe0364" r="20.942"/><circle cx="256" cy="267" fill="#fd3581" r="7.5"/><path d="m310.632 191.807c7.878 5.74 14.822 12.685 20.562 20.563l12.701-9.229c-6.709-9.208-14.826-17.326-24.035-24.034z" fill="#fe0364"/><path d="m192.141 179.105 9.229 12.701c7.806-5.688 16.526-10.189 25.896-13.241l-4.854-14.938c-10.961 3.57-21.16 8.837-30.289 15.491.006-.005.012-.009.018-.013z" fill="#fe0364"/><path d="m256 158.309v15.707c10.024 0 19.681 1.602 28.734 4.55l4.853-14.938c-10.582-3.448-21.869-5.319-33.587-5.319z" fill="#fe0364"/><path d="m180.807 212.369-12.701-9.229c-6.648 9.125-11.91 19.319-15.478 30.272l14.939 4.855c3.051-9.372 7.552-18.091 13.24-25.898z" fill="#fe0364"/><path d="m201.378 342.201c-7.882-5.741-14.829-12.689-20.571-20.57l-12.701 9.229c6.709 9.209 14.826 17.327 24.035 24.036l9.228-12.701c.002.002.006.003.009.006z" fill="#fe0364"/><path d="m256 359.985c-10.024 0-19.682-1.601-28.734-4.55l-4.854 14.938c10.583 3.447 21.87 5.318 33.588 5.318z" fill="#fe0364"/><path d="m344.434 238.267c2.949 9.053 4.55 18.709 4.55 28.733h15.707c0-11.718-1.871-23.005-5.318-33.588z" fill="#fe0364"/><path d="m167.566 295.733c-2.949-9.054-4.55-18.709-4.55-28.733h-15.706c0 11.718 1.871 23.005 5.318 33.588z" fill="#fe0364"/><path d="m359.372 300.588-14.939-4.854c-3.052 9.37-7.553 18.091-13.24 25.897l12.701 9.229c-.002.003-.004.006-.006.01 6.651-9.129 11.916-19.325 15.484-30.282z" fill="#fe0364"/><path d="m319.86 354.895-9.229-12.701c-7.806 5.688-16.526 10.189-25.897 13.242l4.853 14.938c10.955-3.569 21.148-8.831 30.273-15.479z" fill="#fe0364"/><path d="m227.266 178.565c9.054-2.948 18.71-4.55 28.734-4.55v-15.707c-11.718 0-23.005 1.872-33.588 5.318z" fill="#008b81"/><path d="m180.807 212.369c5.74-7.879 12.684-14.822 20.563-20.563l-9.229-12.701c-9.209 6.709-17.326 14.826-24.035 24.034z" fill="#008b81"/><path d="m167.566 238.267-14.939-4.855c-3.445 10.583-5.317 21.87-5.317 33.588h15.707c0-10.024 1.6-19.681 4.549-28.733z" fill="#008b81"/><path d="m168.105 330.859 12.701-9.229c-5.688-7.806-10.189-16.526-13.24-25.897l-14.939 4.854c3.568 10.954 8.83 21.147 15.478 30.272z" fill="#008b81"/><path d="m227.266 355.435c-9.371-3.052-18.091-7.554-25.897-13.24l-9.228 12.701c9.125 6.647 19.318 11.91 30.271 15.477z" fill="#008b81"/><path d="m284.734 355.435c-9.053 2.949-18.709 4.551-28.734 4.551v15.706c11.718 0 23.006-1.871 33.588-5.318z" fill="#008b81"/><path d="m331.193 321.631c-5.739 7.878-12.684 14.822-20.562 20.563l9.229 12.701c9.208-6.708 17.325-14.826 24.034-24.035z" fill="#008b81"/><path d="m344.434 295.733 14.939 4.854c3.446-10.583 5.317-21.87 5.317-33.588h-15.707c0 10.025-1.6 19.682-4.549 28.734z" fill="#008b81"/><path d="m343.895 203.14-12.701 9.229c5.688 7.806 10.188 16.526 13.24 25.898l14.939-4.855c-3.568-10.953-8.83-21.146-15.478-30.272z" fill="#008b81"/><path d="m284.734 178.565c9.371 3.052 18.091 7.555 25.897 13.241l9.228-12.701c-9.125-6.648-19.318-11.91-30.272-15.479z" fill="#008b81"/><g fill="#fe0364"><path d="m206.108 113.328c-16.299 5.299-31.468 13.119-45.047 23l9.228 12.702c-.001.001-.002.002-.003.003 12.251-8.915 25.937-15.971 40.641-20.755l-4.854-14.938c.012-.003.024-.008.035-.012z"/><path d="m125.318 172.027c-9.9 13.569-17.736 28.73-23.05 45.023l14.938 4.854c4.795-14.703 11.866-28.385 20.8-40.631l-12.701-9.229c.005-.005.008-.011.013-.017z"/><path d="m394.793 312.096v-.001c-4.795 14.703-11.867 28.386-20.801 40.632l12.701 9.229v.002c9.895-13.565 17.727-28.721 23.038-45.007z"/><path d="m350.94 397.67-9.229-12.701c-12.252 8.915-25.938 15.971-40.643 20.754.002-.001.004-.001.006-.002l4.854 14.938c16.285-5.3 31.442-13.114 45.012-22.989z"/><path d="m110.058 267h-15.707c0 17.427 2.786 34.213 7.918 49.95l14.938-4.854c-4.634-14.208-7.149-29.363-7.149-45.096z"/><path d="m394.793 221.904c4.634 14.208 7.149 29.362 7.149 45.096h15.707c0-17.427-2.786-34.213-7.918-49.95z"/><path d="m410.578 314.291c-.542.376-.397 1.262-.599 1.897.203-.631.404-1.262.599-1.897z"/><path d="m170.29 384.969c-12.368-8.998-23.27-19.888-32.282-32.242l-12.701 9.229h-.001c9.981 13.684 22.058 25.747 35.756 35.716z"/><path d="m301.073 128.278 4.854-14.938s.001 0 .001-.001c-15.731-5.117-32.51-7.896-49.928-7.896v15.707c15.725 0 30.871 2.508 45.073 7.128z"/><path d="m341.711 149.031c12.367 8.998 23.271 19.888 32.282 32.242l12.701-9.229h.001c-9.981-13.685-22.058-25.748-35.756-35.717z"/><path d="m210.92 405.719c.003 0 .005.001.007.002l-4.854 14.938c15.732 5.118 32.509 7.896 49.927 7.896v-15.706c-15.727 0-30.876-2.509-45.08-7.13z"/><path d="m409.45 216.188c-.294-.059.185.573.28.86-.093-.286-.184-.574-.28-.86z"/></g><path d="m210.927 128.279c14.202-4.62 29.349-7.129 45.073-7.129v-15.707c-17.418 0-34.195 2.779-49.927 7.897z" fill="#008b81"/><path d="m125.306 172.045 12.702 9.229c9.012-12.355 19.914-23.244 32.281-32.243l-9.228-12.702c-13.698 9.968-25.774 22.03-35.755 35.716z" fill="#008b81"/><path d="m138.008 352.727c-8.934-12.246-16.006-25.928-20.801-40.631l-14.938 4.854c.095.287.187.576.282.864.153.466.309.929.465 1.391 5.286 15.433 12.854 29.813 22.291 42.75z" fill="#008b81"/><path d="m210.927 405.721c-14.702-4.783-28.386-11.838-40.637-20.752l-9.229 12.702c13.569 9.874 28.726 17.689 45.012 22.987z" fill="#008b81"/><path d="m301.073 405.721c-14.202 4.619-29.349 7.128-45.073 7.128v15.706c17.418 0 34.195-2.777 49.927-7.896z" fill="#008b81"/><path d="m386.693 361.955-12.701-9.229c-9.012 12.354-19.914 23.243-32.281 32.242l9.229 12.701c13.697-9.967 25.773-22.029 35.753-35.714z" fill="#008b81"/><path d="m394.793 312.096 14.938 4.854c.082-.253.165-.506.247-.759.203-.635.404-1.27.6-1.9 4.592-14.965 7.071-30.843 7.071-47.291h-15.707c0 15.733-2.516 30.888-7.149 45.096z" fill="#008b81"/><path d="m301.073 128.279c14.703 4.782 28.388 11.837 40.638 20.752l9.229-12.703c-13.569-9.873-28.727-17.689-45.013-22.987z" fill="#008b81"/><path d="m373.992 181.273c8.934 12.246 16.006 25.928 20.801 40.631l14.938-4.854c-.095-.287-.186-.575-.28-.862-.154-.467-.311-.932-.467-1.395-5.287-15.431-12.854-29.813-22.29-42.748z" fill="#008b81"/><path d="m117.207 221.904-14.938-4.854c-5.132 15.737-7.918 32.523-7.918 49.95h15.707c0-15.733 2.516-30.889 7.149-45.096z" fill="#008b81"/><path d="m418.309 218.207h-9.791c-.199 0-.402-.049-.596-.13v61.058c0 3.032 2.458 5.49 5.49 5.49s5.49-2.458 5.49-5.49v-61.057c-.193.08-.394.129-.593.129z" fill="#98bce5"/><path d="m404.648 108.825h17.527c.424 0 .819.108 1.176.286v-34.008h-19.879v34.009c.357-.178.753-.287 1.176-.287z" fill="#015a9a"/><path d="m404.648 107.825h8.764v-32.722h-9.939v32.935c.371-.128.762-.213 1.175-.213z" fill="#015a9a"/><path d="m422.176 204.193h-17.527c-.723 0-1.377-.291-1.856-.761l3.05 13.631c.263 1.179 1.467 2.143 2.676 2.143h9.791c1.208 0 2.412-.965 2.676-2.143l3.048-13.631c-.481.47-1.136.761-1.858.761z" fill="#e3f3ff"/><path d="m413.496 217.064-2.88-12.87h-5.968c-.723 0-1.377-.291-1.856-.761l3.05 13.631c.263 1.179 1.467 2.143 2.676 2.143h7.654c-1.209 0-2.413-.965-2.676-2.143z" fill="#b4dbff"/><path d="m444.225 16.09-15.316-15.315c-.495-.497-1.169-.775-1.869-.775-.702 0-1.373.278-1.87.775l-11.758 11.758-11.76-11.758c-.495-.497-1.168-.775-1.868-.775-.701 0-1.374.278-1.87.775l-15.315 15.315c-.495.497-.774 1.169-.774 1.87v23.065c0 .5.142.989.408 1.412l21.24 33.665h19.879l21.24-33.665c.267-.423.408-.912.408-1.412v-23.065c0-.701-.279-1.373-.775-1.87z" fill="#0078c8"/><path d="m393.232 42.438c-.267-.423-.408-.912-.408-1.412v-23.066c0-.701.279-1.373.774-1.87l11.685-11.684-3.631-3.631c-.495-.497-1.168-.775-1.868-.775-.701 0-1.374.278-1.87.775l-15.315 15.315c-.495.497-.774 1.169-.774 1.87v23.065c0 .5.142.989.408 1.412l21.24 33.665h9.939v-1.681z" fill="#0078c8"/><path d="m400.988 111.485c0-2.014 1.646-3.66 3.66-3.66h17.527c2.014 0 3.66 1.646 3.66 3.66v90.047c0 2.014-1.646 3.661-3.66 3.661h-17.527c-2.014 0-3.66-1.648-3.66-3.661z" fill="#b4dbff"/><path d="m411.977 201.532v-90.047c0-2.014 1.646-3.66 3.66-3.66h-10.988c-2.014 0-3.66 1.646-3.66 3.66v90.047c0 2.014 1.646 3.661 3.66 3.661h10.988c-2.014 0-3.66-1.647-3.66-3.661z" fill="#98bce5"/><path d="m423.352 76.103 21.24-33.665c.267-.423.408-.912.408-1.412v-23.066c0-.701-.279-1.373-.775-1.87l-15.316-15.315c-.495-.497-1.169-.775-1.869-.775-.702 0-1.373.278-1.87.775l-11.758 11.758v63.569h9.94z" fill="#0078c8"/><path d="m400.988 133h24.848v12h-24.848z" fill="#e3f3ff"/><path d="m400.988 155h24.848v12h-24.848z" fill="#e3f3ff"/><path d="m400.988 177h24.848v12h-24.848z" fill="#e3f3ff"/><path d="m400.988 133h10.988v12h-10.988z" fill="#b4dbff"/><path d="m400.988 155h10.988v12h-10.988z" fill="#b4dbff"/><path d="m400.988 177h10.988v12h-10.988z" fill="#b4dbff"/><path d="m469.484 298.582h-9.791c-.199 0-.402-.049-.596-.13v61.058c0 3.032 2.458 5.49 5.49 5.49s5.49-2.458 5.49-5.49v-61.057c-.192.08-.393.129-.593.129z" fill="#98bce5"/><path d="m455.824 189.2h17.527c.424 0 .819.108 1.176.286v-34.009h-19.879v34.009c.357-.177.752-.286 1.176-.286z" fill="#fd3581"/><path d="m455.824 188.2h8.764v-32.723h-9.939v32.935c.371-.127.762-.212 1.175-.212z" fill="#fe0364"/><path d="m473.352 284.568h-17.527c-.723 0-1.377-.291-1.856-.761l3.05 13.631c.263 1.179 1.467 2.143 2.676 2.143h9.791c1.208 0 2.412-.965 2.676-2.143l3.048-13.631c-.482.47-1.136.761-1.858.761z" fill="#e3f3ff"/><path d="m464.672 297.439-2.88-12.87h-5.968c-.723 0-1.377-.291-1.856-.761l3.05 13.631c.263 1.179 1.467 2.143 2.676 2.143h7.654c-1.209 0-2.413-.965-2.676-2.143z" fill="#b4dbff"/><path d="m495.4 96.465-15.315-15.315c-.495-.497-1.169-.775-1.869-.775-.702 0-1.373.278-1.87.775l-11.758 11.758-11.76-11.758c-.495-.497-1.168-.775-1.868-.775-.701 0-1.374.278-1.87.775l-15.315 15.314c-.495.497-.774 1.169-.774 1.87v23.066c0 .5.142.989.408 1.412l21.24 33.665h19.879l21.24-33.665c.267-.423.408-.912.408-1.412v-23.065c0-.701-.279-1.373-.776-1.87z" fill="#fd3581"/><path d="m444.408 122.813c-.266-.423-.408-.913-.408-1.413v-23.065c0-.701.279-1.373.774-1.87l11.685-11.683-3.631-3.631c-.495-.497-1.168-.775-1.868-.775-.701 0-1.374.278-1.87.775l-15.315 15.314c-.495.497-.774 1.169-.774 1.87v23.065c0 .5.142.989.408 1.412l21.24 33.665h9.939v-1.681z" fill="#fd3581"/><path d="m452.164 191.86c0-2.014 1.646-3.66 3.66-3.66h17.527c2.014 0 3.66 1.646 3.66 3.66v90.047c0 2.014-1.646 3.661-3.66 3.661h-17.527c-2.014 0-3.66-1.647-3.66-3.661z" fill="#b4dbff"/><path d="m463.152 281.907v-90.047c0-2.014 1.646-3.66 3.66-3.66h-10.988c-2.014 0-3.66 1.646-3.66 3.66v90.047c0 2.014 1.646 3.661 3.66 3.661h10.988c-2.013 0-3.66-1.647-3.66-3.661z" fill="#98bce5"/><path d="m474.527 156.477 21.24-33.665c.267-.423.408-.912.408-1.412v-23.065c0-.701-.279-1.373-.775-1.87l-15.315-15.315c-.495-.497-1.169-.775-1.869-.775-.702 0-1.373.278-1.87.775l-11.758 11.758v63.569z" fill="#fe5694"/><path d="m452.164 213.375h24.848v12h-24.848z" fill="#e3f3ff"/><path d="m452.164 235.375h24.848v12h-24.848z" fill="#e3f3ff"/><path d="m452.164 257.375h24.848v12h-24.848z" fill="#e3f3ff"/><path d="m452.164 213.375h10.988v12h-10.988z" fill="#b4dbff"/><path d="m452.164 235.375h10.988v12h-10.988z" fill="#b4dbff"/><path d="m452.164 257.375h10.988v12h-10.988z" fill="#b4dbff"/><path d="m62.309 265.207h-9.791c-.199 0-.402-.049-.596-.13v61.058c0 3.032 2.458 5.49 5.49 5.49s5.49-2.458 5.49-5.49v-61.057c-.193.08-.394.129-.593.129z" fill="#98bce5"/><path d="m48.648 155.825h17.527c.424 0 .819.108 1.176.286v-34.009h-19.878v34.009c.356-.177.752-.286 1.175-.286z" fill="#fd3581"/><path d="m48.648 154.825h8.764v-32.723h-9.939v32.935c.371-.127.762-.212 1.175-.212z" fill="#fe0364"/><path d="m66.176 251.193h-17.528c-.723 0-1.377-.291-1.856-.761l3.05 13.631c.263 1.179 1.467 2.143 2.676 2.143h9.791c1.208 0 2.412-.965 2.676-2.143l3.048-13.631c-.48.47-1.135.761-1.857.761z" fill="#e3f3ff"/><path d="m57.496 264.064-2.88-12.87h-5.968c-.723 0-1.377-.291-1.856-.761l3.05 13.631c.263 1.179 1.467 2.143 2.676 2.143h7.654c-1.209 0-2.413-.965-2.676-2.143z" fill="#b4dbff"/><path d="m88.225 63.09-15.316-15.315c-.495-.497-1.169-.775-1.869-.775-.702 0-1.373.278-1.87.775l-11.758 11.758-11.76-11.758c-.495-.497-1.168-.775-1.868-.775-.701 0-1.374.278-1.87.775l-15.315 15.315c-.495.497-.774 1.169-.774 1.87v23.065c0 .5.142.989.408 1.412l21.24 33.665h19.879l21.24-33.665c.266-.422.408-.912.408-1.412v-23.065c0-.701-.279-1.373-.775-1.87z" fill="#fd3581"/><path d="m37.232 89.438c-.267-.423-.408-.912-.408-1.412v-23.066c0-.701.279-1.373.774-1.87l11.685-11.684-3.631-3.631c-.495-.497-1.168-.775-1.868-.775-.701 0-1.374.278-1.87.775l-15.315 15.315c-.495.497-.774 1.169-.774 1.87v23.065c0 .5.142.989.408 1.412l21.24 33.665h9.939v-1.681z" fill="#fd3581"/><path d="m44.988 158.485c0-2.014 1.646-3.66 3.66-3.66h17.527c2.014 0 3.66 1.646 3.66 3.66v90.047c0 2.014-1.646 3.661-3.66 3.661h-17.527c-2.014 0-3.66-1.648-3.66-3.661z" fill="#b4dbff"/><path d="m55.977 248.532v-90.047c0-2.014 1.646-3.66 3.66-3.66h-10.989c-2.014 0-3.66 1.646-3.66 3.66v90.047c0 2.014 1.646 3.661 3.66 3.661h10.988c-2.013 0-3.659-1.647-3.659-3.661z" fill="#98bce5"/><path d="m67.352 123.103 21.24-33.665c.266-.423.408-.913.408-1.413v-23.065c0-.701-.279-1.373-.775-1.87l-15.316-15.315c-.495-.497-1.169-.775-1.869-.775-.702 0-1.373.278-1.87.775l-11.758 11.758v63.569h9.94z" fill="#fe5694"/><path d="m44.988 180h24.848v12h-24.848z" fill="#e3f3ff"/><path d="m44.988 202h24.848v12h-24.848z" fill="#e3f3ff"/><path d="m44.988 224h24.848v12h-24.848z" fill="#e3f3ff"/><path d="m44.988 180h10.988v12h-10.988z" fill="#b4dbff"/><path d="m44.988 202h10.988v12h-10.988z" fill="#b4dbff"/><path d="m44.988 224h10.988v12h-10.988z" fill="#b4dbff"/></svg>