<svg id="Capa_1" enable-background="new 0 0 512 512" height="512" viewBox="0 0 512 512" width="512" xmlns="http://www.w3.org/2000/svg"><circle cx="256" cy="267" fill="#5de1c4" r="245"/><path d="m438 254.258v-8.258c0-5.5-4.5-10-10-10h-75.592l-9.994 72.864-2.946 36.168h96.505c1.266-1.675 2.027-3.751 2.027-6v-8.258c0-5.5-4.5-10-10-10 5.5 0 10-4.5 10-10v-8.258c0-5.5-4.5-10-10-10 5.5 0 10-4.5 10-10v-8.259c0-5.5-4.5-10-10-10 5.5.001 10-4.499 10-9.999z" fill="#004281"/><path d="m428 236h-75.592l-3.876 28.258h79.468c5.5 0 10-4.5 10-10v-8.258c0-5.5-4.5-10-10-10z" fill="#015a9a"/><path d="m428 292.517h-83.344l-2.242 16.348-.971 11.91h86.557c5.5 0 10-4.5 10-10v-8.258c0-5.5-4.5-10-10-10z" fill="#015a9a"/><path d="m169.593 308.919-10.001-72.919h-69.592c-5.5 0-10 4.5-10 10v8.258c0 5.5 4.5 10 10 10-5.5 0-10 4.5-10 10v8.259c0 5.5 4.5 10 10 10-5.5 0-10 4.5-10 10v8.258c0 5.5 4.5 10 10 10-5.5 0-10 4.5-10 10v8.258c0 2.249.762 4.325 2.027 6h90.506z" fill="#004281"/><path d="m115 264.258h-25c-5.5 0-10 4.5-10 10v8.259c0 5.5 4.5 10 10 10h25c-5.5 0-10-4.5-10-10v-8.259c0-5.5 4.5-10 10-10z" fill="#00366d"/><path d="m80 330.774v8.258c0 2.249.762 4.325 2.027 6h25c-1.266-1.675-2.027-3.751-2.027-6v-8.258c0-5.5 4.5-10 10-10h-25c-5.5 0-10 4.5-10 10z" fill="#00366d"/><path d="m159.592 236h-69.592c-5.5 0-10 4.5-10 10v8.258c0 5.5 4.5 10 10 10h73.468z" fill="#015a9a"/><path d="m169.593 308.919-2.249-16.402h-77.344c-5.5 0-10 4.5-10 10v8.258c0 5.5 4.5 10 10 10h80.559z" fill="#015a9a"/><path d="m105 254.258v-8.258c0-5.5 4.5-10 10-10h-25c-5.5 0-10 4.5-10 10v8.258c0 5.5 4.5 10 10 10h25c-5.5 0-10-4.5-10-10z" fill="#004281"/><path d="m105 310.774v-8.258c0-5.5 4.5-10 10-10h-25c-5.5 0-10 4.5-10 10v8.258c0 5.5 4.5 10 10 10h25c-5.5 0-10-4.5-10-10z" fill="#004281"/><g fill="#006e66"><path d="m186.342 500.894-3.793-70.967-.591-.238c-1.59-.643-2.703-2.115-2.836-3.753l-6.67-81.903h-149.081c25.083 75.788 86.161 135.175 162.982 157.915-.002-.354-.011-.692-.011-1.054z"/><path d="m257.5 463h-3c-3.309 0-6 2.691-6 6v42.875c2.492.075 4.99.125 7.5.125s5.008-.05 7.5-.125v-42.875c0-3.309-2.691-6-6-6z"/><path d="m339.548 344.032-6.67 81.903c-.133 1.638-1.246 3.11-2.836 3.753l-.591.238-3.793 70.967c0 .362-.01.704-.016 1.056 76.822-22.74 137.902-82.128 162.986-157.917z"/></g><path d="m328.469 430h-144.938c-.71 0-1.393-.208-2.009-.542l3.858 72.192c20.383 6.127 41.881 9.673 64.119 10.254v-42.904c0-2.75 2.25-5 5-5h3c2.75 0 5 2.25 5 5v42.904c22.238-.581 43.736-4.127 64.119-10.254l3.858-72.192c-.615.334-1.296.542-2.007.542z" fill="#7bacdf"/><path d="m183.531 430c-.71 0-1.393-.208-2.009-.542l3.858 72.192c5.286 1.589 10.648 3 16.078 4.235l-4.055-75.885z" fill="#5f99d7"/><path d="m335 308c-14.888 0-27-12.112-27-27v-75.599l-13.563-7.298c-9.865 9.819-23.455 15.897-38.439 15.897-14.563 0-27.8-5.751-37.589-15.087l-14.409 7.431v74.656c0 14.888-12.112 27-27 27h-8.485l9.61 118.017c.224 2.741 2.656 4.983 5.406 4.983h144.938c2.75 0 5.183-2.242 5.406-4.983l9.61-118.017z" fill="#0078c8"/><path d="m194.513 426.017-9.621-118.151c-2.504.734-5.151 1.134-7.892 1.134h-8.403l9.528 117.017c.224 2.741 2.656 4.983 5.406 4.983h16.388c-2.75 0-5.183-2.242-5.406-4.983z" fill="#015a9a"/><path d="m255.998 214c-8.441 0-16.44-1.93-23.58-5.369v36.787c0 13.023 10.559 23.582 23.582 23.582s23.582-10.559 23.582-23.582v-36.788c-7.141 3.44-15.142 5.37-23.584 5.37z" fill="#c5573a"/><path d="m248.836 245.418v-31.903c-5.807-.766-11.332-2.434-16.418-4.884v36.787c0 13.023 10.559 23.582 23.582 23.582 2.887 0 5.652-.522 8.209-1.471-8.977-3.334-15.373-11.974-15.373-22.111z" fill="#a94b30"/><path d="m158.666 21.975c.846 1.695 1.334 3.6 1.334 5.619v19.381h192v-19.38c0-2.021.488-3.925 1.334-5.62z" fill="#006e66"/><path d="m102 27.594c0-2.02.488-3.924 1.334-5.619h-33.834v25h32.5z" fill="#006e66"/><path d="m408.666 21.975c.846 1.695 1.334 3.6 1.334 5.62v19.38h32.5v-25z" fill="#006e66"/><path d="m62.5 10.975h-5.5v47h5.5c4.4 0 8-3.6 8-8v-31c0-4.401-3.6-8-8-8z" fill="#7bacdf"/><path d="m455 10.975h-5.5c-4.4 0-8 3.6-8 8v31c0 4.4 3.6 8 8 8h5.5z" fill="#7bacdf"/><path d="m197.546 132h3.934v-1.403c0-26.898 20.381-42.957 54.518-42.957 34.141 0 54.523 16.059 54.523 42.957v1.403h3.934c.978 0 1.929.107 2.849.303v-48.699c0-16.832-13.773-30.604-30.604-30.604h-61.398c-16.832 0-30.604 13.771-30.604 30.604v48.699c.919-.196 1.87-.303 2.848-.303z" fill="#554e56"/><path d="m197.546 132h3.934v-1.403c0-16.112 7.319-28.329 20.52-35.541v-11.452c0-16.833 13.771-30.604 30.604-30.604h-27.303c-16.832 0-30.604 13.771-30.604 30.604v48.699c.92-.196 1.871-.303 2.849-.303z" fill="#433f43"/><path d="m201.48 159.48v-28.48h-3.934c-8.079 0-14.688 6.609-14.688 14.688v9.363c0 8.079 6.608 14.689 14.688 14.689h4.915c-.636-3.326-.981-6.753-.981-10.26z" fill="#c5573a"/><path d="m314.454 131h-3.934v28.48c0 3.508-.346 6.935-.981 10.26h4.915c8.079 0 14.688-6.609 14.688-14.689v-9.363c0-8.079-6.609-14.688-14.688-14.688z" fill="#c5573a"/><path d="m311.521 159.48c0 30.662-24.859 55.52-55.523 55.52-30.662 0-55.518-24.858-55.518-55.52v-28.883c0-30.664 24.856-43.957 55.518-43.957 30.663 0 55.523 13.293 55.523 43.957z" fill="#d8694b"/><path d="m215.241 159.48v-28.883c0-28.14 20.938-41.642 48.08-43.675-2.399-.178-4.837-.282-7.323-.282-30.662 0-55.518 13.293-55.518 43.957v28.883c0 30.662 24.856 55.52 55.518 55.52 2.508 0 4.973-.18 7.393-.502-27.176-3.607-48.15-26.856-48.15-55.018z" fill="#c5573a"/><path d="m261.492 170.462h-7.313c-6.161 0-11.173-5.012-11.173-11.172v-13.675c0-4.143 3.357-7.5 7.5-7.5s7.5 3.357 7.5 7.5v9.847h3.486c4.143 0 7.5 3.357 7.5 7.5s-3.357 7.5-7.5 7.5z" fill="#a94b30"/><path d="m269.298 196.5h-26.598c-4.143 0-7.5-3.357-7.5-7.5s3.357-7.5 7.5-7.5h26.598c4.142 0 7.5 3.357 7.5 7.5s-3.358 7.5-7.5 7.5z" fill="#a94b30"/><path d="m236.629 127.098h-19.657c-4.143 0-7.5-3.358-7.5-7.5 0-4.143 3.357-7.5 7.5-7.5h19.657c4.143 0 7.5 3.357 7.5 7.5 0 4.142-3.358 7.5-7.5 7.5z" fill="#433f43"/><path d="m295.028 127.098h-19.657c-4.143 0-7.5-3.358-7.5-7.5 0-4.143 3.357-7.5 7.5-7.5h19.657c4.143 0 7.5 3.357 7.5 7.5 0 4.142-3.357 7.5-7.5 7.5z" fill="#433f43"/><path d="m285.315 132.895c-4.04 0-7.344 3.306-7.344 7.345v11.331c0 4.038 3.304 7.344 7.344 7.344h2.659c4.037 0 7.342-3.306 7.342-7.344v-11.331c0-4.039-3.305-7.345-7.342-7.345z" fill="#554e56"/><path d="m224.026 132.895c-4.04 0-7.345 3.306-7.345 7.345v11.331c0 4.038 3.305 7.344 7.345 7.344h2.656c4.04 0 7.345-3.306 7.345-7.344v-11.331c0-4.039-3.305-7.345-7.345-7.345z" fill="#554e56"/><path d="m192.142 201.502-41.388-154.46h-41.411l47.782 178.325 11.471 83.633h8.404c15.464 0 28-12.536 28-28v-75.173z" fill="#c5573a"/><path d="m173.837 225.367-47.782-178.325h-16.712l47.782 178.325 11.471 83.633h8.404c2.832 0 5.565-.424 8.143-1.207z" fill="#a94b30"/><path d="m361.246 47.042-41.174 153.662-13.072 4.159v76.137c0 15.464 12.536 28 28 28h8.404l11.471-83.633 47.782-178.325z" fill="#c5573a"/><path d="m336.36 211.704 44.121-164.662h-19.235l-41.174 153.662-13.072 4.159v76.137c0 13.217 9.161 24.288 21.478 27.228-3.264-4.579-5.189-10.178-5.189-16.228v-76.137z" fill="#a94b30"/><path d="m58 411.294v-406.294c0-2.75-2.25-5-5-5h-13c-2.75 0-5 2.25-5 5v367.876c6.501 13.546 14.221 26.393 23 38.418z" fill="#fe5694"/><path d="m45 5c0-2.75 2.25-5 5-5h-10c-2.75 0-5 2.25-5 5v238.499h10z" fill="#fd3581"/><path d="m472 0h-13c-2.75 0-5 2.25-5 5v406.293c8.779-12.025 16.499-24.872 23-38.418v-367.875c0-2.75-2.25-5-5-5z" fill="#fe5694"/><path d="m464 5c0-2.75 2.25-5 5-5h-10c-2.75 0-5 2.25-5 5v238.499h10z" fill="#fd3581"/><path d="m411 27.595c0-7.523-6.12-13.646-13.644-13.646h-32.713c-7.523 0-13.644 6.122-13.644 13.646v19.446c0 4.388 3.571 7.959 7.96 7.959 2.522 0 4.843-1.165 6.366-3.2.231-.306.595-.488.979-.488.385 0 .749.183.98.488 1.525 2.035 3.846 3.2 6.367 3.2 2.524 0 4.845-1.165 6.367-3.2.232-.306.594-.488.978-.488.387 0 .75.183.982.488 1.521 2.035 3.841 3.2 6.365 3.2 2.523 0 4.844-1.165 6.367-3.2.231-.306.594-.488.98-.488.385 0 .748.183.979.488 1.524 2.035 3.845 3.2 6.369 3.2 4.387 0 7.958-3.571 7.958-7.959v-19.446z" fill="#d8694b"/><path d="m371 47.041v-19.446c0-7.523 6.12-13.646 13.644-13.646h-20c-7.523 0-13.644 6.122-13.644 13.646v19.446c0 4.388 3.571 7.959 7.96 7.959 2.522 0 4.843-1.165 6.366-3.2.231-.306.595-.488.979-.488.385 0 .749.183.98.488 1.525 2.035 3.846 3.2 6.367 3.2.927 0 1.825-.16 2.667-.459-3.092-1.093-5.319-4.038-5.319-7.5z" fill="#c5573a"/><path d="m161 27.594c0-7.524-6.12-13.644-13.645-13.644h-32.711c-7.522 0-13.644 6.12-13.644 13.644v19.448c0 4.387 3.57 7.957 7.961 7.957 2.522 0 4.843-1.163 6.365-3.199.231-.307.594-.49.979-.49s.749.184.979.49c1.527 2.036 3.848 3.199 6.369 3.199 2.524 0 4.845-1.163 6.367-3.199.232-.307.595-.49.979-.49.386 0 .75.184.982.49 1.521 2.036 3.842 3.199 6.365 3.199s4.844-1.163 6.367-3.199c.231-.307.594-.49.98-.49.385 0 .749.184.979.49 1.524 2.036 3.845 3.199 6.368 3.199 4.389 0 7.959-3.57 7.959-7.957v-19.448z" fill="#d8694b"/><path d="m121 47.042v-19.448c0-7.524 6.121-13.644 13.644-13.644h-20c-7.522 0-13.644 6.12-13.644 13.644v19.448c0 4.387 3.57 7.957 7.961 7.957 2.522 0 4.843-1.163 6.365-3.199.231-.307.594-.49.979-.49s.749.184.979.49c1.527 2.036 3.848 3.199 6.369 3.199.927 0 1.825-.159 2.668-.459-3.094-1.092-5.321-4.037-5.321-7.498z" fill="#c5573a"/><circle cx="256" cy="333" fill="#015a9a" r="36"/><path d="m35 243.499v129.377c6.501 13.546 14.221 26.393 23 38.418v-167.795z" fill="#7bacdf"/><path d="m45 243.499h-10v129.377c3.064 6.386 6.41 12.61 10 18.673z" fill="#5f99d7"/><path d="m454 243.499v167.794c8.779-12.025 16.499-24.872 23-38.418v-129.376z" fill="#7bacdf"/><path d="m464 243.499h-10v167.794c3.509-4.807 6.84-9.749 10-14.81z" fill="#5f99d7"/></svg>