<svg id="Capa_1" enable-background="new 0 0 512 512" height="512" viewBox="0 0 512 512" width="512" xmlns="http://www.w3.org/2000/svg"><circle cx="256" cy="263.5" fill="#a7e8f1" r="245"/><path d="m504.729 148.528h-183.729v28.135h129.795c1.558 3.325 8.129 5.837 11.647 5.837h26.287c4.009 0 7.271-3.006 7.271-6.7s-3.262-6.699-7.271-6.699h-10.286c-2.293 0-4.158-1.865-4.158-4.158v-.327c0-2.293 1.865-4.157 4.158-4.157h26.286c4.009 0 7.271-2.676 7.271-5.964 0-3.291-3.262-5.967-7.271-5.967z" fill="#fa9775"/><path d="m495.352 173.05c-1.142 2.325-3.678 3.95-6.623 3.95h-26.287c-3.518 0-10.089-2.512-11.647-5.837h-129.795v5.5h129.795c1.558 3.325 8.129 5.837 11.647 5.837h26.287c4.009 0 7.271-3.006 7.271-6.7 0-.981-.235-1.909-.648-2.75z" fill="#f78157"/><path d="m191 148.528h-183.729c-4.009 0-7.271 2.676-7.271 5.966 0 3.288 3.262 5.964 7.271 5.964h26.286c2.293 0 4.158 1.864 4.158 4.157v.327c0 2.293-1.865 4.158-4.158 4.158h-10.286c-4.009 0-7.271 3.005-7.271 6.699s3.262 6.7 7.271 6.7h26.287c3.518 0 10.089-2.512 11.647-5.837h129.795z" fill="#fa9775"/><path d="m191 171.163h-129.795c-1.558 3.325-8.129 5.837-11.647 5.837h-26.287c-2.945 0-5.481-1.625-6.623-3.95-.413.841-.648 1.77-.648 2.75 0 3.694 3.262 6.7 7.271 6.7h26.287c3.518 0 10.089-2.512 11.647-5.837h129.795z" fill="#f78157"/><path d="m311 283.5v14h-110v-14h-189.184c10.178 125.953 115.609 225 244.184 225 128.574 0 234.006-99.047 244.184-225z" fill="#01998d"/><path d="m201 259.5h110v38h-110z" fill="#fa9775"/><path d="m201 260.5h25v36h-25z" fill="#f78157"/><path d="m317 143.5h-47v12c0 7.72-6.28 14-14 14h-4c-4.597 0-8.911-2.293-11.541-6.134l-.915-1.336-.027-.01c-5.642 10.732-13.954 19.756-14.081 19.893-.352.378-.818.587-1.311.587s-.959-.209-1.311-.588c-.191-.206-19.189-20.822-19.189-36.867 0-.511.02-1.026.058-1.545h-8.683c-2.75 0-5 2.25-5 5v107c0 2.75 2.25 5 5 5h122c2.75 0 5-2.25 5-5v-107c0-2.75-2.25-5-5-5z" fill="#7bacdf"/><path d="m215 255.5v-83.388c-5.311-7.479-11.375-18.001-11.375-27.067 0-.511.02-1.026.058-1.545h-8.683c-2.75 0-5 2.25-5 5v107c0 2.75 2.25 5 5 5h25c-2.75 0-5-2.25-5-5z" fill="#5f99d7"/><path d="m267 132.5h-7c-6.933 0-13.764-1.81-19.775-5.235h-1.135c3.008 5.568 5.535 11.967 5.535 17.78 0 5.768-2.458 12.122-5.612 17.911 2.599 4.495 7.449 7.544 12.987 7.544h4c8.25 0 15-6.75 15-15v-23.212c-1.32.135-2.654.212-4 .212z" fill="#f78157"/><path d="m252 155.5v-23.818c-4.121-.842-8.102-2.324-11.775-4.417h-1.135c3.008 5.568 5.535 11.967 5.535 17.78 0 5.768-2.458 12.122-5.612 17.911 2.599 4.495 7.449 7.544 12.987 7.544h4c1.941 0 3.793-.386 5.5-1.064-5.547-2.207-9.5-7.627-9.5-13.936z" fill="#f46b38"/><path d="m387.847 325.756c-.427-.008-.853-.044-1.275-.106l-64.785-9.626c-4.134-.614-7.45-3.735-8.314-7.824l-2.473-11.7h-110l-7.346 34.771c-.4 1.895-1.343 3.634-2.713 5.004l-104.278 104.278c11.59 11.088 24.268 21.047 37.855 29.706l131.545-100.699c1.745-1.336 3.881-2.06 6.079-2.06h102.858c5.523 0 10 4.478 10 10l5.5 97.033c14.333-8.475 27.736-18.355 40-29.474v-82.559c0-19.911-14.648-36.395-32.653-36.744z" fill="#fe5694"/><path d="m201 296.5-7.346 34.771c-.4 1.895-1.343 3.634-2.713 5.004l-90.94 90.939 16.402 16.401 101.875-101.874c1.37-1.37 2.313-3.108 2.713-5.004l5.009-40.237z" fill="#fd3581"/><path d="m100.002 427.214-13.339 13.339c11.59 11.088 24.268 21.047 37.855 29.706l10.495-8.034z" fill="#fa9775"/><path d="m319.533 98.143-11.533-28.958v-26.743c-.173.022-.344.058-.522.058h-27.478c-10.126 0-18.272 7.606-18.95 17.693l-.002 15.725c0 .738-.403 1.413-1.053 1.762-.29.156-.617.238-.947.238-.394 0-.775-.115-1.104-.332l-3.068-2.03c-.561-.371-.896-.995-.896-1.668v-9.025c-.366-5.839-5.188-10.363-10.98-10.363-6.065 0-11 4.935-11 11v17c0 4.282 2.516 8.204 6.409 9.992.482.222.863.635 1.044 1.135.181.499.155 1.061-.073 1.54l-5.148 10.833h3.643c2.895 0 5.25 2.355 5.25 5.25v2.5c0 2.895-2.355 5.25-5.25 5.25h-3.869l1.036 1.555c1.46 2.192 3.012 4.726 4.434 7.433 6.038 3.499 13.044 5.513 20.524 5.513h7c18.591 0 34.283-12.378 39.308-29.339h9.127c1.647 0 3.039-.657 3.819-1.804.781-1.147.883-2.683.279-4.215z" fill="#fa9775"/><path d="m312.391 37.568c-.798-4.208-3.141-12.275-9.867-19.036-7.941-7.984-19.632-12.032-34.804-12.031l-.104.002c-.045.001-.089.011-.134.013-5.805-1.952-12.018-3.016-18.482-3.016-32.033 0-58 25.968-58 58 0 17.892 8.12 33.865 20.855 44.5h23.484l4.943-10.403c.345-.725.384-1.557.11-2.312-.274-.754-.838-1.367-1.567-1.702-3.54-1.625-5.826-5.19-5.826-9.083v-17c0-5.514 4.486-10 10-10 5.265 0 9.649 4.112 9.98 9.362v9.025c0 1.007.505 1.946 1.344 2.502l3.068 2.03c.501.331 1.077.498 1.656.498.487 0 .975-.118 1.42-.357.973-.522 1.58-1.538 1.58-2.643v-15.656c.643-9.556 8.36-16.761 17.953-16.761h27.478c1.495 0 2.898-.66 3.85-1.81.953-1.15 1.341-2.652 1.063-4.122z" fill="#554e56"/><path d="m211.855 106h16.521c-12.736-10.635-20.856-26.608-20.856-44.5 0-29.223 21.615-53.387 49.727-57.402-2.694-.387-5.445-.598-8.247-.598-32.033 0-58 25.968-58 58 0 17.892 8.12 33.865 20.855 44.5z" fill="#433f43"/><path d="m52.999 126.293h74.091c4.766 0 8.665-3.51 8.665-7.799 0-4.29-3.899-7.8-8.665-7.8h-19.497c-4.766 0-8.665-3.509-8.665-7.798s3.899-7.799 8.665-7.799h61.742c4.766 0 8.665-3.51 8.665-7.799 0-4.29-3.899-7.799-8.665-7.799h-75.084c-15.647 13.767-29.531 29.486-41.252 46.794z" fill="#fff"/><path d="m386.011 90.506c0 4.29 3.899 7.8 8.665 7.8h19.497c4.766 0 8.665 3.509 8.665 7.798s-3.899 7.799-8.665 7.799h-61.742c-4.766 0-8.666 3.51-8.666 7.799 0 4.29 3.899 7.799 8.666 7.799h108.689c-11.276-17.226-24.655-32.948-39.786-46.793h-26.658c-4.765-.001-8.665 3.509-8.665 7.798z" fill="#fff"/><path d="m235.197 119h-22.145c-5.086 7.442-10.428 17.329-10.428 26.045 0 16.633 19.456 37.549 19.456 37.549 1.124 1.208 2.963 1.208 4.087 0 0 0 19.456-20.916 19.456-37.549.002-8.716-5.34-18.603-10.426-26.045z" fill="#554e56"/><path d="m228.427 119h-15.374c-5.086 7.442-10.428 17.329-10.428 26.045 0 16.633 19.456 37.549 19.456 37.549 1.124 1.208 2.963 1.208 4.087 0 0 0 2.469-2.658 5.644-6.821-5.745-7.535-13.812-20.015-13.812-30.728 0-8.717 5.341-18.605 10.427-26.045z" fill="#433f43"/><path d="m244.125 113.75c0 3.438-2.813 6.25-6.25 6.25h-27.5c-3.438 0-6.25-2.813-6.25-6.25v-2.5c0-3.438 2.813-6.25 6.25-6.25h27.5c3.438 0 6.25 2.813 6.25 6.25z" fill="#fe5694"/><path d="m220 113.75v-2.5c0-3.438 2.813-6.25 6.25-6.25h-15.875c-3.438 0-6.25 2.813-6.25 6.25v2.5c0 3.438 2.813 6.25 6.25 6.25h15.875c-3.437 0-6.25-2.812-6.25-6.25z" fill="#fd3581"/><path d="m299 76c0 4.143-3.358 7.5-7.5 7.5-4.142 0-7.5-3.357-7.5-7.5v-9c0-4.143 3.358-7.5 7.5-7.5 4.142 0 7.5 3.357 7.5 7.5z" fill="#a94b30"/><path d="m151.948 308.5h-27.615c-4.584 0-8.333 3.375-8.333 7.5s3.749 7.5 8.333 7.5h27.615c4.583 0 8.334-3.375 8.334-7.5s-3.751-7.5-8.334-7.5z" fill="#008b81"/><path d="m446.666 306.5h-27.615c-4.584 0-8.333 3.375-8.333 7.5s3.749 7.5 8.333 7.5h27.615c4.583 0 8.334-3.375 8.334-7.5s-3.751-7.5-8.334-7.5z" fill="#008b81"/><path d="m98.666 351.5h-27.615c-4.584 0-8.333 3.375-8.333 7.5s3.749 7.5 8.333 7.5h27.615c4.583 0 8.334-3.375 8.334-7.5s-3.751-7.5-8.334-7.5z" fill="#00c285"/><path d="m241.948 423.5h-27.615c-4.584 0-8.333 3.375-8.333 7.5s3.749 7.5 8.333 7.5h27.615c4.583 0 8.334-3.375 8.334-7.5s-3.751-7.5-8.334-7.5z" fill="#008b81"/><path d="m339.666 389.5h-27.615c-4.584 0-8.333 3.375-8.333 7.5s3.749 7.5 8.333 7.5h27.615c4.583 0 8.334-3.375 8.334-7.5s-3.751-7.5-8.334-7.5z" fill="#00c285"/><path d="m342.948 453.5h-27.615c-4.584 0-8.333 3.375-8.333 7.5s3.749 7.5 8.333 7.5h27.615c4.583 0 8.334-3.375 8.334-7.5s-3.751-7.5-8.334-7.5z" fill="#00c285"/><path d="m380.5 474.533c14.333-8.475 27.736-18.355 40-29.474v-31.19h-43.439z" fill="#fa9775"/><path d="m399 413.87h-21.939l3.439 60.663c7.3-4.316 14.354-9 21.144-14.023z" fill="#f78157"/><path d="m116.541 443.754-16.539-16.54-13.339 13.339c5.647 5.402 11.557 10.531 17.7 15.379z" fill="#f78157"/><g fill="#fe93bb"><path d="m397.524 327.563c-2.227 3.44-3.524 7.535-3.524 11.938 0 12.15 9.85 22 22 22 1.531 0 3.024-.157 4.467-.455-.561-15.562-10.049-28.799-22.943-33.483z"/><path d="m179 410.5c-12.15 0-22 9.85-22 22 0 3.904 1.021 7.568 2.805 10.746l34.577-26.469c-3.967-3.881-9.394-6.277-15.382-6.277z"/></g></svg>