<svg id="Capa_1" enable-background="new 0 0 512 512" height="512" viewBox="0 0 512 512" width="512" xmlns="http://www.w3.org/2000/svg"><circle cx="256" cy="267" fill="#02c7dd" r="245"/><circle cx="256" cy="267" fill="#9df9d3" r="245"/><path d="m433.5 321v114.848c29.96-31.489 51.637-70.934 61.516-114.848z" fill="#07b2cd"/><path d="m273.5 321h-20.43c-10.98 36.594-45.117 63.35-85.424 63.35-40.313 0-74.455-26.756-85.437-63.35h-65.225c24.595 109.326 122.262 191 239.016 191 5.885 0 11.719-.218 17.5-.626z" fill="#07b2cd"/><path d="m307.441 183h11.603l27.956-34.198v-23.7l-48.257 59.033c2.777-.737 5.692-1.135 8.698-1.135z" fill="#98bce5"/><path d="m399.559 183c3.006 0 5.921.398 8.699 1.135l-48.258-59.033v23.7l27.956 34.198z" fill="#98bce5"/><path d="m434.5 434.797v-217.856c0-19.298-15.644-34.941-34.941-34.941h-92.117c-19.298 0-34.941 15.644-34.941 34.941v294.493c63.755-4.241 120.834-32.864 161.999-76.637z" fill="#0078c8"/><path d="m298 216.941c0-19.297 15.644-34.941 34.941-34.941h-25.5c-19.298 0-34.941 15.644-34.941 34.941v294.493c8.632-.574 17.136-1.61 25.5-3.056z" fill="#0268b4"/><path d="m434.5 287.353h-162v162h147.105c5.168-4.641 10.137-9.497 14.895-14.557z" fill="#01998d"/><path d="m272.5 287.353h25.5v162h-25.5z" fill="#008b81"/><path d="m237.553 239.084-53.268-91.815c-.182.025-.361.056-.55.056h-32.192c-.182 0-.356-.03-.532-.054l-53.286 91.814c-11.911 17.384-20.225 35.971-20.225 56.595 0 49.439 40.443 89.67 90.146 89.67 49.7 0 90.133-40.231 90.133-89.67 0-20.586-8.902-36.848-20.226-56.596z" fill="#fe5694"/><path d="m201.193 239.084-25.549-91.76h-16l-25.558 91.76c-5.717 17.385-9.707 35.972-9.707 56.596 0 49.439 19.409 89.67 43.264 89.67 23.852 0 43.257-40.231 43.257-89.67 0-20.586-4.273-36.848-9.707-56.596z" fill="#fd3581"/><path d="m158.732 56.455h17.814v46.927h-17.814z" fill="#b4dbff"/><path d="m126.386 26.19c.579 1.841 1.45 3.651 2.433 4.862l18.284 22.521c1.733 2.135 5.401 3.882 8.151 3.882h24.771c2.75 0 6.418-1.747 8.151-3.882l18.284-22.521c.983-1.211 1.854-3.021 2.433-4.862z" fill="#7bacdf"/><path d="m174.435 53.573-18.284-22.521c-.983-1.211-1.854-3.021-2.433-4.862h-27.333c.579 1.841 1.45 3.651 2.433 4.862l18.284 22.521c1.733 2.135 5.401 3.882 8.151 3.882h24.771c.409 0 .841-.049 1.281-.122-2.519-.417-5.394-1.942-6.87-3.76z" fill="#5f99d7"/><path d="m151.544 148.324c-2.75 0-5-2.25-5-5v-35.942c0-2.75 2.25-5 5-5h32.192c2.75 0 5 2.25 5 5v35.942c0 2.75-2.25 5-5 5z" fill="#554e56"/><path d="m162.809 143.324v-35.942c0-2.75 2.25-5 5-5h-16.265c-2.75 0-5 2.25-5 5v35.942c0 2.75 2.25 5 5 5h16.265c-2.75 0-5-2.25-5-5z" fill="#433f43"/><path d="m244.522 22.19c0 2.75-2.25 5-5 5h-143.765c-2.75 0-5-2.25-5-5v-17.19c0-2.75 2.25-5 5-5h143.765c2.75 0 5 2.25 5 5z" fill="#554e56"/><path d="m118 22.19v-17.19c0-2.75 2.25-5 5-5h-27.243c-2.75 0-5 2.25-5 5v17.19c0 2.75 2.25 5 5 5h27.243c-2.75 0-5-2.25-5-5z" fill="#433f43"/><g fill="#b4dbff"><path d="m342 233.995c-1.947-2.483-3.119-5.603-3.119-8.995 0-5.751 3.347-10.723 8.188-13.108-.041-.292-.069-.589-.069-.892v-14.892c-13.214 2.972-23.119 14.793-23.119 28.892 0 12.256 7.482 22.797 18.119 27.295z"/><path d="m360 196.108v14.892c0 .303-.028.6-.068.892 4.841 2.386 8.188 7.357 8.188 13.108 0 3.393-1.172 6.512-3.119 8.995v18.3c10.637-4.498 18.119-15.039 18.119-27.295-.001-14.099-9.906-25.92-23.12-28.892z"/><path d="m347 94.194c-4.804-2.398-8.119-7.35-8.119-13.075 0-4.143-3.358-7.5-7.5-7.5s-7.5 3.357-7.5 7.5c0 14.099 9.905 25.92 23.119 28.892z"/><path d="m378.956 66h-28.131c.832.318 1.732.5 2.675.5 8.061 0 14.619 6.559 14.619 14.619 0 5.725-3.315 10.677-8.119 13.075v15.816c13.214-2.972 23.119-14.793 23.119-28.892 0-5.519-1.522-10.688-4.163-15.118z"/></g><path d="m366 268c0 2.75-2.25 5-5 5h-15c-2.75 0-5-2.25-5-5v-37c0-2.75 2.25-5 5-5h15c2.75 0 5 2.25 5 5z" fill="#015a9a"/><path d="m351 268v-37c0-2.75 2.25-5 5-5h-10c-2.75 0-5 2.25-5 5v37c0 2.75 2.25 5 5 5h10c-2.75 0-5-2.25-5-5z" fill="#015a9a"/><path d="m434.5 273v-47h-7c-2.75 0-5 2.25-5 5v37c0 2.75 2.25 5 5 5z" fill="#015a9a"/><path d="m272.5 273v-47h7c2.75 0 5 2.25 5 5v37c0 2.75-2.25 5-5 5z" fill="#015a9a"/><path d="m353.5 218.5c-4.142 0-7.5-3.357-7.5-7.5v-119c0-4.143 3.358-7.5 7.5-7.5s7.5 3.357 7.5 7.5v119c0 4.143-3.358 7.5-7.5 7.5z" fill="#7bacdf"/><path d="m274.003 22.66v39.34c0 2.75 2.25 5 5 5h118.534c-35.382-25.085-77.71-41.011-123.534-44.34z" fill="#554e56"/><path d="m301.466 62v-35.771c-8.992-1.688-18.154-2.893-27.463-3.568v39.339c0 2.75 2.25 5 5 5h27.463c-2.75 0-5-2.25-5-5z" fill="#433f43"/><path d="m391.085 449.353 43.415-43.413v-49.499l-92.911 92.912z" fill="#fed402"/></svg>