<svg id="Capa_1" enable-background="new 0 0 512 512" height="512" viewBox="0 0 512 512" width="512" xmlns="http://www.w3.org/2000/svg"><circle cx="256" cy="267" fill="#9df9d3" r="245"/><path d="m309.92 221v-47.624c0-2.196-1.434-4.136-3.533-4.78-7.233-2.219-13.676-6.104-18.967-11.139v63.543z" fill="#006e66"/><path d="m70.422 157.457c-5.291 5.035-11.733 8.92-18.967 11.139-2.1.645-3.533 2.584-3.533 4.78v155.877c0 2.762 2.239 5 5 5h17.5z" fill="#006e66"/><path d="m230.999 291.999h-85c-2.206 0-4-1.794-4-4v-62.999c0-2.206 1.794-4 4-4h142.42v-62.516c-.357-.318-.688-.668-1.006-1.033-9.404-8.951-15.158-21.551-15.158-34.985v-89.78l-2.334-.58v-1.031l-41.596-10.345-.292.878c-7.057 21.209-26.793 35.459-49.111 35.459s-42.055-14.25-49.111-35.459l-.292-.878-42.597 10.593v1.03l-1.335.332v89.78c0 13.459-5.774 26.079-15.21 35.034-.294.344-.608.676-.955.984v175.768h161.578v-42.252z" fill="#01998d"/><path d="m86.922 31.323v1.03l-1.335.332v89.78c0 13.459-5.774 26.079-15.21 35.034-.294.344-.608.676-.955.984v175.768h16.5v-175.767c.347-.309.661-.641.955-.984 9.435-8.955 15.21-21.575 15.21-35.034v-94.914z" fill="#008b81"/><g fill="#fed402"><path d="m268.403 11.268-47.237-11.134c-.379-.09-.764-.134-1.147-.134-.563 0-1.121.105-1.653.293.26-.09.525-.162.796-.209v5.229c0 4.768-.835 9.339-2.356 13.583l55.451 13.789v-16.551c-.001-2.32-1.597-4.335-3.854-4.866z"/><path d="m138.684 5.313v-5.229c.271.047.537.12.798.21-.534-.188-1.092-.294-1.657-.294-.384 0-.769.044-1.148.134l-47.237 11.134c-2.258.531-3.853 2.547-3.853 4.866v16.552l55.453-13.79c-1.522-4.244-2.356-8.815-2.356-13.583z"/><path d="m102 8.308-12.56 2.96c-2.258.531-3.853 2.547-3.853 4.866v16.552l16.413-4.082z"/><ellipse cx="178.922" cy="91.5" rx="28.5" ry="12.5"/></g><path d="m166 91.5c0-5.719 8.759-10.537 20.711-12.023-2.477-.309-5.087-.477-7.789-.477-15.74 0-28.5 5.597-28.5 12.5s12.76 12.5 28.5 12.5c2.702 0 5.313-.168 7.789-.477-11.952-1.486-20.711-6.304-20.711-12.023z" fill="#ffb100"/><path d="m221.166.134c-.379-.09-.764-.134-1.147-.134-.636 0-1.266.126-1.857.363v4.95c0 21.636-17.602 39.238-39.239 39.238-21.636 0-39.238-17.603-39.238-39.238v-4.95c-.594-.237-1.224-.363-1.86-.363-.384 0-.769.044-1.148.134l-10.511 2.477v2.702c0 29.089 23.666 52.754 52.755 52.754s52.755-23.665 52.755-52.754v-2.702z" fill="#008b81"/><path d="m178.922 45.552c22.223 0 40.239-18.016 40.239-40.238v-5.23c-.59.101-1.162.302-1.686.611-10.703 6.327-24.395 9.811-38.553 9.811-14.157 0-27.85-3.484-38.553-9.811-.524-.31-1.097-.509-1.686-.611v5.229c.001 22.223 18.015 40.239 40.239 40.239z" fill="#fe9738"/><path d="m154.965 7.019c-5.253-1.598-10.182-3.715-14.596-6.324-.524-.31-1.097-.509-1.686-.611v5.229c0 22.223 18.015 40.238 40.238 40.238 2.781 0 5.497-.282 8.119-.819-17.791-3.645-31.295-19.035-32.075-37.713z" fill="#fe7701"/><path d="m166.424 131.666h-38.659c-1.657 0-3 1.343-3 3v6.536c0 .796.316 1.56.88 2.122.563.563 1.325.878 2.12.878.001 0 34.493-.038 34.493-.038v12.497h-29.161c-5.529 0-8.332 2.789-8.332 8.291v26.202c0 1.657 1.343 3 3 3h43.99c1.657 0 3-1.343 3-3v-6.536c0-.796-.316-1.56-.88-2.122-.563-.563-1.325-.878-2.12-.878-.001 0-34.493.039-34.493.039v-12.54h29.162c5.528 0 8.331-2.789 8.331-8.29v-20.829c0-5.528-2.803-8.332-8.331-8.332z" fill="#fff"/><path d="m230.078 144.202c.795 0 1.558-.315 2.12-.878.563-.563.88-1.326.88-2.122v-6.536c0-1.657-1.344-3-3-3h-43.991c-1.656 0-3 1.343-3 3v26.203c0 5.501 2.804 8.29 8.332 8.29h29.161v12.498l-34.496.038c-1.655.002-2.997 1.345-2.997 3v6.459c0 1.657 1.344 3 3 3h38.659c5.528 0 8.332-2.803 8.332-8.331v-20.83c0-5.501-2.804-8.29-8.332-8.29h-29.161v-12.539s34.492.038 34.493.038z" fill="#fff"/><path d="m145.999 220c-2.75 0-5 2.25-5 5v62.999c0 2.75 2.25 5 5 5h16.001v-72.999z" fill="#fff"/><path d="m156.999 220h74v72.999h-74z" fill="#fd3581"/><path d="m496.478 220h-55.478v72.999h58.627c.9-8.544 1.373-17.216 1.373-25.999 0-16.077-1.566-31.787-4.522-47z" fill="#fd3581"/><path d="m156.999 220h16.001v72.999h-16.001z" fill="#fd3581"/><path d="m442 220h-212.001v290.627c8.544.9 17.217 1.373 26.001 1.373 74.411 0 141.066-33.182 186-85.546z" fill="#fd3581"/><path d="m229.999 264.797v245.83c8.219.866 16.56 1.325 25.001 1.359v-259.195c-8.595 3.481-16.943 7.489-25.001 12.006z" fill="#fe0364"/><path d="m281.049 220h-51.049v44.797c19.586-10.979 40.868-19.012 63.321-23.543z" fill="#015a9a"/><path d="m390.95 220-12.271 21.254c22.453 4.531 43.735 12.563 63.32 23.543v-44.797z" fill="#015a9a"/><path d="m255 220h-25.001v44.797c8.058-4.518 16.405-8.533 25.001-12.015z" fill="#015a9a"/><path d="m281.049 220 31.605 54.738c5.422 9.393 13.932 14.781 23.347 14.781s17.924-5.388 23.348-14.781l31.601-54.738z" fill="#fff"/><path d="m299.517 220 26.986 46.741c5.224 9.047 13.771 9.047 18.994 0l26.985-46.741z" fill="#fe0364"/><path d="m321.034 220h-21.518l26.986 46.741c5.224 9.047 13.771 9.047 18.994 0l1.262-2.186z" fill="#fe0364"/><path d="m442 426.454v-39.852l-114.906 114.907c45.216-13.69 84.904-40.091 114.906-75.055z" fill="#015a9a"/><path d="m348.263 494.014 93.737-93.737v-44.628l-154.314 154.315c21.16-2.733 41.466-8.175 60.577-15.95z" fill="#fe0364"/><circle cx="399" cy="294" fill="#015a9a" r="15"/><path d="m394 294c0-6.528 4.178-12.066 10-14.128-1.566-.555-3.244-.872-5-.872-8.284 0-15 6.716-15 15s6.716 15 15 15c1.756 0 3.434-.317 5-.872-5.822-2.062-10-7.6-10-14.128z" fill="#015a9a"/><path d="m214 220h-33.44c1.419 7.955 8.357 14 16.72 14 8.364 0 15.301-6.045 16.72-14z" fill="#015a9a"/><path d="m297.309 390.964c-1.657 0-3-1.343-3-3v-55.822h-6.804c-1.657 0-3-1.343-3-3v-8.706c0-1.657 1.343-3 3-3h11.706c6.597 0 9.803 3.207 9.803 9.804v60.725c0 1.657-1.343 3-3 3h-8.705z" fill="#fff"/><path d="m328.67 390.964c-6.597 0-9.803-3.207-9.803-9.804v-53.921c0-6.597 3.206-9.804 9.803-9.804h39.215c6.598 0 9.805 3.207 9.805 9.804v53.921c0 6.597-3.207 9.804-9.805 9.804zm4.898-58.822.004 44.116h29.412v-44.116h-29.412z" fill="#fff"/></svg>