<svg id="Capa_1" enable-background="new 0 0 512 512" height="512" viewBox="0 0 512 512" width="512" xmlns="http://www.w3.org/2000/svg"><circle cx="256" cy="267" fill="#a7e8f1" r="245"/><path d="m195.229 318.099c3.595-5.012 5.72-11.145 5.72-17.768v-12.427h-21.957v12.427c0 1.627-.462 3.145-1.25 4.444 6.463 3.584 12.349 8.084 17.487 13.324z" fill="#3c87d0"/><path d="m104.259 304.774c-.788-1.3-1.25-2.817-1.25-4.444v-12.427h-21.957v12.427c0 6.624 2.125 12.757 5.72 17.768 5.137-5.239 11.023-9.739 17.487-13.324z" fill="#3c87d0"/><path d="m94.129 311.516c-1.368-3.467-2.129-7.239-2.129-11.186v-11.427h-10.948v11.427c0 6.624 2.125 12.757 5.72 17.768 2.304-2.35 4.765-4.545 7.357-6.582z" fill="#015a9a"/><path d="m170.382 237.933h-58.764c-16.854 0-30.566 13.712-30.566 30.566v20.404h21.957v-20.404c0-4.747 3.862-8.609 8.609-8.609h58.764c4.748 0 8.609 3.862 8.609 8.609v20.404h21.957v-20.404c0-16.854-13.712-30.566-30.566-30.566z" fill="#5f99d7"/><path d="m122.566 237.933h-10.948c-16.854 0-30.566 13.712-30.566 30.566v20.404h10.948v-20.404c0-16.854 13.712-30.566 30.566-30.566z" fill="#3c87d0"/><path d="m340.825 53.459h23.826v62.082h-23.826z" fill="#5f99d7"/><path d="m340.825 53.459h10.825v62.082h-10.825z" fill="#3c87d0"/><path d="m324.814 54.459c-4.297 0-7.814-3.516-7.814-7.813v-38.833c0-4.297 3.517-7.813 7.814-7.813h55.85c4.298 0 7.814 3.516 7.814 7.813v38.832c0 4.298-3.516 7.813-7.814 7.813h-55.85z" fill="#554e56"/><path d="m388.477 159v-36.646c0-4.297-3.516-7.813-7.814-7.813h-55.85c-4.297 0-7.814 3.517-7.814 7.813v36.646z" fill="#554e56"/><path d="m244.087 53.459h23.826v62.082h-23.826z" fill="#5f99d7"/><path d="m244.087 53.459h10.825v62.082h-10.825z" fill="#3c87d0"/><path d="m228.075 54.459c-4.297 0-7.813-3.516-7.813-7.813v-38.833c0-4.298 3.517-7.813 7.813-7.813h55.85c4.298 0 7.814 3.516 7.814 7.813v38.832c0 4.298-3.516 7.813-7.814 7.813h-55.85z" fill="#554e56"/><path d="m291.738 159v-36.646c0-4.297-3.516-7.813-7.814-7.813h-55.85c-4.297 0-7.813 3.517-7.813 7.813v36.646z" fill="#554e56"/><path d="m147.349 53.459h23.826v62.082h-23.826z" fill="#5f99d7"/><path d="m147.349 53.459h10.825v62.082h-10.825z" fill="#3c87d0"/><path d="m131.337 54.459c-4.297 0-7.813-3.516-7.813-7.813v-38.833c0-4.298 3.517-7.813 7.813-7.813h55.85c4.297 0 7.813 3.516 7.813 7.813v38.832c0 4.298-3.516 7.813-7.814 7.813h-55.849z" fill="#554e56"/><path d="m151 46.646v-38.833c0-4.297 3.517-7.813 7.814-7.813h-27.477c-4.297 0-7.813 3.516-7.813 7.813v38.832c0 4.298 3.517 7.813 7.813 7.813h27.477c-4.297.001-7.814-3.515-7.814-7.812z" fill="#433f43"/><path d="m247.738 46.646v-38.833c0-4.298 3.517-7.813 7.814-7.813h-27.477c-4.297 0-7.813 3.516-7.813 7.813v38.832c0 4.298 3.517 7.813 7.813 7.813h27.477c-4.297.001-7.814-3.515-7.814-7.812z" fill="#433f43"/><path d="m344.477 46.646v-38.833c0-4.298 3.517-7.813 7.813-7.813h-27.477c-4.296 0-7.813 3.516-7.813 7.813v38.832c0 4.298 3.517 7.813 7.814 7.813h27.477c-4.298.001-7.814-3.515-7.814-7.812z" fill="#433f43"/><path d="m195 159v-36.646c0-4.297-3.516-7.813-7.814-7.813h-55.85c-4.297 0-7.813 3.517-7.813 7.813v36.646z" fill="#554e56"/><path d="m151 159v-36.646c0-4.298 3.517-7.813 7.814-7.813h-27.477c-4.297 0-7.813 3.516-7.813 7.813v36.646z" fill="#433f43"/><path d="m247.738 159v-36.646c0-4.298 3.517-7.813 7.814-7.813h-27.477c-4.297 0-7.813 3.516-7.813 7.813v36.646z" fill="#433f43"/><path d="m344.477 159v-36.646c0-4.298 3.517-7.813 7.813-7.813h-27.477c-4.297 0-7.814 3.516-7.814 7.813v36.646z" fill="#433f43"/><path d="m465.092 217.654h-4.525v43.265h4.525c2.601 0 4.729-2.128 4.729-4.729v-33.807c-.001-2.6-2.129-4.729-4.729-4.729z" fill="#3c87d0"/><path d="m284.616 217.654h-4.336c-2.601 0-4.729 2.129-4.729 4.73v33.807c0 2.601 2.128 4.729 4.729 4.729h4.336z" fill="#3c87d0"/><path d="m328.93 227.049h87.325v24.476h-87.325z" fill="#5f99d7"/><path d="m461.566 210.601c0-4.414-3.613-8.026-8.025-8.026h-30.259c-4.415 0-8.027 3.612-8.027 8.026v57.373c0 1.899.672 3.647 1.785 5.026h42.741c1.113-1.379 1.785-3.127 1.785-5.026z" fill="#554e56"/><path d="m329.93 210.601c0-4.414-3.612-8.026-8.027-8.026h-30.259c-4.415 0-8.027 3.612-8.027 8.026v57.373c0 1.899.672 3.647 1.785 5.026h42.743c1.113-1.379 1.785-3.127 1.785-5.026z" fill="#554e56"/><path d="m305 210.601c0-4.414 3.612-8.026 8.027-8.026h-21.384c-4.415 0-8.027 3.612-8.027 8.026v57.373c0 1.899.672 3.647 1.785 5.026h21.384c-1.113-1.379-1.785-3.127-1.785-5.026z" fill="#433f43"/><path d="m436.639 210.601c0-4.414 3.612-8.026 8.027-8.026h-21.384c-4.415 0-8.027 3.612-8.027 8.026v57.373c0 1.899.672 3.647 1.785 5.026h21.384c-1.113-1.379-1.785-3.127-1.785-5.026z" fill="#433f43"/><path d="m343.203 363.242h79.76v25.652h-79.76z" fill="#5f99d7"/><path d="m286.685 344.804h-9.016c-6.613 0-12.025 5.411-12.025 12.024v38.478c0 6.614 5.412 12.025 12.025 12.025h9.016z" fill="#5f99d7"/><path d="m286.685 407.251c-5.987-.673-10.685-5.784-10.685-11.945v-38.478c0-6.16 4.697-11.271 10.685-11.944v-.08h-9.016c-6.613 0-12.025 5.411-12.025 12.024v38.478c0 6.614 5.412 12.025 12.025 12.025h9.016z" fill="#3c87d0"/><path d="m310.733 324.764h-13.025c-6.612 0-12.023 5.41-12.023 12.024v78.56c0 6.613 5.411 12.024 12.023 12.024h13.025z" fill="#554e56"/><path d="m296.116 415.348v-78.56c0-6.614 5.411-12.024 12.023-12.024h-10.432c-6.612 0-12.023 5.41-12.023 12.024v78.56c0 6.613 5.411 12.024 12.023 12.024h10.432c-6.612 0-12.023-5.411-12.023-12.024z" fill="#433f43"/><path d="m332.179 311.136h-10.421c-6.613 0-12.024 5.41-12.024 12.025v105.814c0 2.62.859 5.044 2.296 7.024h29.879c1.436-1.98 2.295-4.404 2.295-7.024v-105.814c-.001-6.615-5.411-12.025-12.025-12.025z" fill="#554e56"/><path d="m321.758 311.136c-6.613 0-12.024 5.41-12.024 12.025v105.814c0 2.62.859 5.044 2.296 7.024h16.27c-1.44-1.978-2.3-4.402-2.3-7.024v-105.814c0-5.606 3.892-10.333 9.102-11.649-.938-.236-1.914-.376-2.923-.376z" fill="#433f43"/><path d="m479.481 344.804v22.703c3.326-7.382 6.304-14.954 8.897-22.703z" fill="#5f99d7"/><path d="m468.457 324.764h-13.024v84.533c9.79-13.698 18.211-28.441 25.049-44.04v-28.469c-.001-6.614-5.412-12.024-12.025-12.024z" fill="#433f43"/><path d="m444.408 311.136h-10.421c-6.614 0-12.024 5.41-12.024 12.025v105.814c0 2.619.855 5.044 2.292 7.024h9.116c8.355-8.77 16.066-18.157 23.061-28.088v-84.751c.001-6.614-5.411-12.024-12.024-12.024z" fill="#554e56"/><path d="m433.987 311.136c-6.613 0-12.024 5.41-12.024 12.025v105.814c0 2.619.855 5.044 2.291 7.024h9.083c1.695-1.78 3.37-3.579 5.013-5.408-.072-.53-.12-1.067-.12-1.616v-105.814c0-5.606 3.892-10.333 9.102-11.649-.938-.236-1.914-.376-2.923-.376z" fill="#433f43"/><path d="m105.353 436.066c-4.16 0-8.203-1.382-11.493-3.927-18.977-14.685-29.86-36.869-29.86-60.865 0-42.458 34.542-77 77-77s77 34.542 77 77c0 23.995-10.883 46.18-29.859 60.865-3.29 2.545-7.333 3.927-11.493 3.927z" fill="#554e56"/><path d="m84 371.274c0-39.067 29.252-71.409 67-76.329-3.276-.428-6.609-.671-10-.671-42.458 0-77 34.542-77 77 0 23.995 10.883 46.18 29.859 60.865 3.29 2.545 7.333 3.927 11.493 3.927h20c-4.16 0-8.203-1.382-11.493-3.927-18.976-14.685-29.859-36.869-29.859-60.865z" fill="#433f43"/><path d="m181.378 371.274c0 22.3-18.078 40.378-40.378 40.378s-40.378-18.078-40.378-40.378c0-22.301 18.078-40.379 40.378-40.379s40.378 18.079 40.378 40.379z" fill="#5f99d7"/><g fill="#3c87d0"><path d="m111.244 371.274c0-20.499 15.279-37.418 35.066-40.021-1.738-.229-3.509-.358-5.311-.358-22.3 0-40.378 18.078-40.378 40.379 0 22.3 18.078 40.378 40.378 40.378 1.802 0 3.572-.13 5.311-.359-19.787-2.602-35.066-19.521-35.066-40.019z"/><path d="m157.902 370.805h-33.805c-3.89 0-7.043-3.153-7.043-7.043s3.153-7.043 7.043-7.043h33.805c3.891 0 7.043 3.153 7.043 7.043 0 3.889-3.152 7.043-7.043 7.043z"/><path d="m151.329 391.463h-20.658c-3.89 0-7.043-3.152-7.043-7.042 0-3.891 3.153-7.043 7.043-7.043h20.658c3.891 0 7.043 3.152 7.043 7.043 0 3.889-3.152 7.042-7.043 7.042z"/></g><path d="m498.221 304c1.585-10.463 2.498-21.147 2.716-32h-242.937v-82h230.64c-3.651-11.036-8.067-21.722-13.183-32h-438.914c-5.115 10.278-9.531 20.964-13.183 32h202.64v245h-148.312c44.677 47.401 108.034 77 178.311 77s133.635-29.599 178.311-77h-176.31v-131z" fill="#7bacdf"/></svg>