<svg id="Capa_1" enable-background="new 0 0 512 512" height="512" viewBox="0 0 512 512" width="512" xmlns="http://www.w3.org/2000/svg"><circle cx="256" cy="267" fill="#5de1c4" r="245"/><path d="m170.525 138.256c1.261 4.156 1.948 8.561 1.948 13.123 0 12.554-5.262 24.574-14.447 33.151l-.588 2.401h6.059c8.032 0 14.567 6.534 14.567 14.566v2.076c0 8.033-6.535 14.568-14.567 14.568h-8.296l14.942 45.304h116.394l-30.653-125.19h-85.359z" fill="#015a9a"/><path d="m170.816 139.256c-.023-.084-.054-.164-.077-.248 1.12 3.936 1.734 8.082 1.734 12.371 0 12.554-5.262 24.574-14.447 33.151l-.588 2.401h6.059c8.032 0 14.567 6.534 14.567 14.566v2.076c0 8.033-6.535 14.568-14.567 14.568h-8.296l12.47 37.808 28.574-116.694h-25.429z" fill="#004281"/><path d="m160.332 93.877h104.576l23.729-23.73c2.159-2.158 3.924-6.418 3.924-9.469v-55.132c0-3.05-2.497-5.546-5.547-5.546h-19.846c-3.05 0-5.547 2.496-5.547 5.546v15.454c0 3.051-2.495 5-5.545 5h-17.945c-3.052 0-5.548-1.949-5.548-5v-15.454c0-3.05-2.496-5.546-5.547-5.546h-28.835c-3.051 0-5.546 2.496-5.546 5.546v15.454c0 3.051-2.496 5-5.547 5h-17.947c-3.051 0-5.545-1.949-5.545-5v-15.454c0-3.05-2.497-5.546-5.547-5.546h-19.845c-3.052 0-5.545 2.496-5.545 5.546v55.132c0 3.051 1.763 7.311 3.919 9.469z" fill="#015a9a"/><path d="m185.824 92.877-27.786-27.784c-2.156-2.158-3.919-6.418-3.919-9.469v-55.132c0-.166.011-.33.025-.492h-15.919c-3.052 0-5.545 2.496-5.545 5.546v55.132c0 3.051 1.763 7.311 3.919 9.469l22.732 22.73z" fill="#004281"/><path d="m177.076 289.305v11.822h135.544v-22.041c0-9.152-7.485-16.64-16.638-16.64h-126.168l5.747 17.424c.821 2.491 1.515 6.812 1.515 9.435z" fill="#0078c8"/><path d="m326 368v-66.382c-2.088-.949-4.397-1.491-6.829-1.491h-142.095v1.921h2.688c7.516 0 13.631 6.114 13.631 13.63v8.778c0 .544-.044 1.121-.139 1.815l-.154 1.135h2.269c7.516 0 13.63 6.115 13.63 13.631v26.963z" fill="#015a9a"/><path d="m170.816 139.256h97.738c9.15 0 16.638-7.488 16.638-16.641v-13.1c0-9.15-7.487-16.639-16.638-16.639h-111.868c-8.612 0-15.745 6.633-16.558 15.039 14.859 4.466 26.527 16.355 30.688 31.341z" fill="#0078c8"/><path d="m170.816 139.256h18.822c-9.152 0-16.639-7.488-16.639-16.641v-13.1c0-9.15 7.486-16.639 16.639-16.639h-32.953c-8.612 0-15.745 6.633-16.558 15.039 14.86 4.466 26.528 16.355 30.689 31.341z" fill="#015a9a"/><path d="m443.5 212.704v-15.853c0-2.75-2.25-5-5-5h-48c-2.75 0-5 2.25-5 5v15.853z" fill="#fe9738"/><path d="m411 212.704v-15.853c0-2.75 2.25-5 5-5h-25.5c-2.75 0-5 2.25-5 5v15.853z" fill="#fe860a"/><path d="m479.276 368c13.953-30.796 21.724-64.99 21.724-101 0-19.016-2.167-37.525-6.267-55.296h-164.733c-2.75 0-5 2.25-5 5v151.296z" fill="#fe7701"/><path d="m341 368v-151.296c0-2.75 2.25-5 5-5h-16c-2.75 0-5 2.25-5 5v151.296z" fill="#eb6000"/><circle cx="414.5" cy="291.352" fill="#eb6000" r="66.5"/><circle cx="414.5" cy="291.352" fill="#fff" r="51.5"/><path d="m383 291.352c0-25.02 17.846-45.865 41.5-50.521-3.235-.637-6.577-.979-10-.979-28.442 0-51.5 23.058-51.5 51.5 0 28.443 23.058 51.5 51.5 51.5 3.423 0 6.765-.342 10-.979-23.654-4.656-41.5-25.501-41.5-50.521z" fill="#c7e7ff"/><path d="m414.5 279.853c2.866 0 5.484 1.061 7.5 2.802v-21.804c0-4.143-3.357-7.5-7.5-7.5s-7.5 3.357-7.5 7.5v21.804c2.016-1.741 4.634-2.802 7.5-2.802z" fill="#eb6000"/><path d="m414.5 302.853c-2.866 0-5.484-1.06-7.5-2.802v5.8c0 4.143 3.357 7.5 7.5 7.5s7.5-3.357 7.5-7.5v-5.8c-2.016 1.742-4.634 2.802-7.5 2.802z" fill="#eb6000"/><circle cx="414.5" cy="291.353" fill="#fe9738" r="12.5"/><path d="m97.321 186.932h59.547c10.147-8.508 16.605-21.273 16.605-35.553 0-25.613-20.765-46.379-46.379-46.379s-46.379 20.766-46.379 46.379c.001 14.279 6.459 27.045 16.606 35.553z" fill="#c7e7ff"/><path d="m97.321 186.932h27.283c-10.149-8.507-16.604-21.274-16.604-35.553 0-20.865 13.781-38.51 32.736-44.336-4.313-1.326-8.893-2.043-13.642-2.043-25.614 0-46.379 20.766-46.379 46.379.001 14.279 6.459 27.045 16.606 35.553z" fill="#b4dbff"/><path d="m178.076 302.048v-12.743c0-2.75-.705-7.137-1.566-9.748l-20.256-61.414h-58.317l-20.256 61.414c-.861 2.611-1.566 6.998-1.566 9.748v12.743z" fill="#c7e7ff"/><path d="m104 302.048v-12.743c0-2.75.705-7.137 1.566-9.748l20.256-61.414h-27.885l-20.256 61.414c-.861 2.611-1.566 6.998-1.566 9.748v12.743z" fill="#b4dbff"/><path d="m194.093 327.406c.197-.953.302-1.941.302-2.95v-8.778c0-8.046-6.584-14.63-14.631-14.63h-105.338c-8.046 0-14.63 6.584-14.63 14.63v8.778c0 1.01.104 1.997.302 2.95z" fill="#fff"/><path d="m87.302 327.406c-.197-.953-.302-1.941-.302-2.95v-8.778c0-8.046 6.584-14.63 14.63-14.63h-27.204c-8.046 0-14.63 6.584-14.63 14.63v8.778c0 1.01.104 1.997.302 2.95z" fill="#c7e7ff"/><path d="m210 368v-26.963c0-8.046-6.584-14.631-14.63-14.631h-136.551c-8.046 0-14.63 6.585-14.63 14.631v26.963z" fill="#c7e7ff"/><path d="m72 368v-26.963c0-8.046 6.584-14.631 14.63-14.631h-27.811c-8.046 0-14.63 6.585-14.63 14.631v26.963z" fill="#b4dbff"/><path d="m179.064 203.574c0 8.563-7.006 15.568-15.567 15.568h-72.805c-8.562 0-15.567-7.006-15.567-15.568v-2.076c0-8.561 7.006-15.566 15.567-15.566h72.805c8.561 0 15.567 7.006 15.567 15.566z" fill="#fff"/><path d="m103 203.574v-2.076c0-8.561 7.006-15.566 15.567-15.566h-27.875c-8.562 0-15.567 7.006-15.567 15.566v2.076c0 8.563 7.006 15.568 15.567 15.568h27.875c-8.561.001-15.567-7.005-15.567-15.568z" fill="#c7e7ff"/><path d="m460.441 402c7.327-11.074 13.8-22.764 19.277-35h-447.437c5.478 12.236 11.95 23.926 19.276 35z" fill="#7bacdf"/><path d="m52.196 403c43.942 65.718 118.815 109 203.804 109s159.862-43.282 203.804-109z" fill="#b4dbff"/></svg>